%TF.GenerationSoftware,KiCad,Pcbnew,(5.1.6-0-10_14)*%
%TF.CreationDate,2021-04-08T13:38:13+02:00*%
%TF.ProjectId,gb-mainboard,67622d6d-6169-46e6-926f-6172642e6b69,rev?*%
%TF.SameCoordinates,Original*%
%TF.FileFunction,Paste,Top*%
%TF.FilePolarity,Positive*%
%FSLAX46Y46*%
G04 Gerber Fmt 4.6, Leading zero omitted, Abs format (unit mm)*
G04 Created by KiCad (PCBNEW (5.1.6-0-10_14)) date 2021-04-08 13:38:13*
%MOMM*%
%LPD*%
G01*
G04 APERTURE LIST*
%TA.AperFunction,Profile*%
%ADD10C,0.150000*%
%TD*%
%ADD11R,0.900000X1.300000*%
%ADD12R,2.000000X0.900000*%
%ADD13R,0.900000X2.000000*%
%ADD14R,5.000000X5.000000*%
%ADD15R,0.300000X1.000000*%
%ADD16R,0.200000X1.000000*%
%ADD17R,0.900000X1.700000*%
%ADD18R,1.300000X0.900000*%
%ADD19R,0.400000X1.200000*%
%ADD20R,0.500000X0.900000*%
%ADD21R,2.500000X1.600000*%
%ADD22R,1.000000X0.600000*%
%ADD23R,1.000000X1.900000*%
%ADD24R,1.700000X0.900000*%
%ADD25R,0.600000X0.600000*%
%ADD26R,0.600000X0.900000*%
%ADD27R,1.700000X1.600000*%
%ADD28C,0.100000*%
G04 APERTURE END LIST*
D10*
X154959999Y-58430000D02*
G75*
G02*
X152659999Y-58430000I-1150000J0D01*
G01*
X152659999Y-58430000D02*
G75*
G02*
X154959999Y-58430000I1150000J0D01*
G01*
X102660000Y-58430000D02*
G75*
G02*
X104960000Y-58430000I1150000J0D01*
G01*
X104960000Y-58430000D02*
G75*
G02*
X102660000Y-58430000I-1150000J0D01*
G01*
X106310000Y-78630000D02*
G75*
G02*
X106310000Y-76230000I0J1200000D01*
G01*
X106310000Y-76230000D02*
G75*
G02*
X106310000Y-78630000I0J-1200000D01*
G01*
X151309999Y-78630000D02*
G75*
G02*
X151309999Y-76230000I0J1200000D01*
G01*
X151309999Y-76230000D02*
G75*
G02*
X151309999Y-78630000I0J-1200000D01*
G01*
X128809999Y-122630000D02*
X128809999Y-122630000D01*
X128809999Y-122630000D02*
G75*
G02*
X128809999Y-120230000I0J1200000D01*
G01*
X128809999Y-120230000D02*
G75*
G02*
X128809999Y-122630000I0J-1200000D01*
G01*
X167509999Y-59930000D02*
X167509999Y-75130000D01*
X159559999Y-59930000D02*
X167509999Y-59930000D01*
X159559999Y-59930000D02*
G75*
G02*
X158059999Y-58430000I547J1500547D01*
G01*
X153809997Y-54180000D02*
G75*
G02*
X158059999Y-58430000I-1549J-4251551D01*
G01*
X149559998Y-58433101D02*
G75*
G02*
X153809999Y-54180000I4251551J1550D01*
G01*
X149559998Y-58429999D02*
G75*
G02*
X148059999Y-59930000I-1500547J546D01*
G01*
X145009999Y-59930000D02*
X148059999Y-59930000D01*
X145009999Y-71130000D02*
X145009999Y-59930000D01*
X145009999Y-71130000D02*
G75*
G02*
X140009999Y-71130000I-2500000J0D01*
G01*
X140009999Y-59930000D02*
X140009999Y-71130000D01*
X134809999Y-59930000D02*
X140009999Y-59930000D01*
X134809999Y-64430000D02*
X134809999Y-59930000D01*
X134809998Y-64430000D02*
G75*
G02*
X132309999Y-66930000I-2509490J9490D01*
G01*
X125309999Y-66930000D02*
X132309999Y-66930000D01*
X125309999Y-66930001D02*
G75*
G02*
X122809999Y-64430000I9491J2509491D01*
G01*
X122809999Y-59930000D02*
X122809999Y-64430000D01*
X117610000Y-59930000D02*
X122809999Y-59930000D01*
X117610000Y-71130000D02*
X117610000Y-59930000D01*
X117610001Y-71130000D02*
G75*
G02*
X112609999Y-71130000I-2500001J0D01*
G01*
X112609999Y-59930000D02*
X112609999Y-71130000D01*
X109560000Y-59930000D02*
X112609999Y-59930000D01*
X109560000Y-59930000D02*
G75*
G02*
X108060000Y-58430000I547J1500547D01*
G01*
X103809998Y-54180000D02*
G75*
G02*
X108060000Y-58430000I-1549J-4251551D01*
G01*
X99559999Y-58430001D02*
G75*
G02*
X103810000Y-54180000I4251551J-1550D01*
G01*
X99559999Y-58429999D02*
G75*
G02*
X98060000Y-59930000I-1500547J546D01*
G01*
X95110000Y-134630000D02*
X95110000Y-75120000D01*
X96433000Y-135130000D02*
G75*
G02*
X95110000Y-134630000I-1315J1996850D01*
G01*
X161387000Y-135130001D02*
X96433000Y-135130000D01*
X162710000Y-134630000D02*
G75*
G02*
X161387000Y-135130001I-1321686J1496849D01*
G01*
X162710000Y-75130000D02*
X162710000Y-134630000D01*
X167509999Y-75130000D02*
X162710000Y-75130000D01*
X90110000Y-59930000D02*
X98060000Y-59930000D01*
X90110000Y-75130000D02*
X90110000Y-59930000D01*
X95110000Y-75120000D02*
X90110000Y-75130000D01*
D11*
%TO.C,DL108*%
X147961000Y-86600000D03*
X149861000Y-86600000D03*
%TD*%
%TO.C,DL109*%
X149861000Y-90918000D03*
X147961000Y-90918000D03*
%TD*%
%TO.C,R109*%
X149861000Y-88759000D03*
X147961000Y-88759000D03*
%TD*%
%TO.C,R110*%
X147961000Y-93077000D03*
X149861000Y-93077000D03*
%TD*%
D12*
%TO.C,U101*%
X104978000Y-133717000D03*
X104978000Y-132447000D03*
X104978000Y-131177000D03*
X104978000Y-129907000D03*
X104978000Y-128637000D03*
X104978000Y-127367000D03*
X104978000Y-126097000D03*
X104978000Y-124827000D03*
X104978000Y-123557000D03*
X104978000Y-122287000D03*
X104978000Y-121017000D03*
X104978000Y-119747000D03*
X104978000Y-118477000D03*
X104978000Y-117207000D03*
D13*
X107763000Y-116207000D03*
X109033000Y-116207000D03*
X110303000Y-116207000D03*
X111573000Y-116207000D03*
X112843000Y-116207000D03*
X114113000Y-116207000D03*
X115383000Y-116207000D03*
X116653000Y-116207000D03*
X117923000Y-116207000D03*
X119193000Y-116207000D03*
D12*
X121978000Y-117207000D03*
X121978000Y-118477000D03*
X121978000Y-119747000D03*
X121978000Y-121017000D03*
X121978000Y-122287000D03*
X121978000Y-123557000D03*
X121978000Y-124827000D03*
X121978000Y-126097000D03*
X121978000Y-127367000D03*
X121978000Y-128637000D03*
X121978000Y-129907000D03*
X121978000Y-131177000D03*
X121978000Y-132447000D03*
X121978000Y-133717000D03*
D14*
X114478000Y-126217000D03*
%TD*%
D15*
%TO.C,P105*%
X141208000Y-124638000D03*
X141708000Y-124638000D03*
X142208000Y-124638000D03*
X142708000Y-124638000D03*
X143208000Y-124638000D03*
X143708000Y-124638000D03*
X144208000Y-124638000D03*
X144708000Y-124638000D03*
X145208000Y-124638000D03*
X145708000Y-124638000D03*
X146208000Y-124638000D03*
X146708000Y-124638000D03*
D16*
X143958000Y-131788000D03*
X143958000Y-129188000D03*
%TD*%
D11*
%TO.C,C101*%
X139259000Y-106158000D03*
X141159000Y-106158000D03*
%TD*%
%TO.C,C102*%
X138177000Y-115429000D03*
X136277000Y-115429000D03*
%TD*%
D17*
%TO.C,C103*%
X142614000Y-122414000D03*
X139714000Y-122414000D03*
%TD*%
D11*
%TO.C,C104*%
X139325000Y-103999000D03*
X141225000Y-103999000D03*
%TD*%
D18*
%TO.C,DL101*%
X146752000Y-112376000D03*
X146752000Y-110476000D03*
%TD*%
%TO.C,DL102*%
X144466000Y-110476000D03*
X144466000Y-112376000D03*
%TD*%
%TO.C,R101*%
X146752000Y-115744000D03*
X146752000Y-113844000D03*
%TD*%
%TO.C,R102*%
X144466000Y-113910000D03*
X144466000Y-115810000D03*
%TD*%
D11*
%TO.C,R103*%
X150750000Y-117461000D03*
X148850000Y-117461000D03*
%TD*%
D19*
%TO.C,U102*%
X135004500Y-113330000D03*
X135639500Y-113330000D03*
X136274500Y-113330000D03*
X136909500Y-113330000D03*
X137544500Y-113330000D03*
X138179500Y-113330000D03*
X138814500Y-113330000D03*
X139449500Y-113330000D03*
X139449500Y-108130000D03*
X138814500Y-108130000D03*
X138179500Y-108130000D03*
X137544500Y-108130000D03*
X136909500Y-108130000D03*
X136274500Y-108130000D03*
X135639500Y-108130000D03*
X135004500Y-108130000D03*
%TD*%
D20*
%TO.C,U103*%
X151689000Y-112659000D03*
X150689000Y-112659000D03*
X149689000Y-112659000D03*
X149689000Y-115659000D03*
X150689000Y-115659000D03*
X151689000Y-115659000D03*
D21*
X150689000Y-114159000D03*
%TD*%
D17*
%TO.C,C105*%
X152393000Y-110222000D03*
X149493000Y-110222000D03*
%TD*%
D11*
%TO.C,DL103*%
X107885000Y-103872000D03*
X105985000Y-103872000D03*
%TD*%
D22*
%TO.C,Q101*%
X148673000Y-104319000D03*
X148673000Y-106219000D03*
X150673000Y-105269000D03*
%TD*%
D11*
%TO.C,R104*%
X148723000Y-102475000D03*
X150623000Y-102475000D03*
%TD*%
%TO.C,R105*%
X107824000Y-106031000D03*
X105924000Y-106031000D03*
%TD*%
D23*
%TO.C,SW101*%
X135179000Y-130155000D03*
X133179000Y-130155000D03*
X131179000Y-130155000D03*
%TD*%
D18*
%TO.C,C106*%
X128083000Y-126854000D03*
X128083000Y-124954000D03*
%TD*%
D24*
%TO.C,C107*%
X124908000Y-133770000D03*
X124908000Y-130870000D03*
%TD*%
D18*
%TO.C,C108*%
X127194000Y-131878000D03*
X127194000Y-133778000D03*
%TD*%
D11*
%TO.C,C109*%
X107443000Y-108825000D03*
X105543000Y-108825000D03*
%TD*%
D17*
%TO.C,C110*%
X122421000Y-70344000D03*
X119521000Y-70344000D03*
%TD*%
D11*
%TO.C,C111*%
X120595000Y-68058000D03*
X122495000Y-68058000D03*
%TD*%
D25*
%TO.C,DL104*%
X158944000Y-61962000D03*
X159844000Y-61962000D03*
D26*
X157994000Y-61662000D03*
X160794000Y-61662000D03*
%TD*%
%TO.C,DL105*%
X158052000Y-133209000D03*
X160852000Y-133209000D03*
D25*
X159002000Y-132909000D03*
X159902000Y-132909000D03*
%TD*%
%TO.C,DL106*%
X98815000Y-132655000D03*
X97915000Y-132655000D03*
D26*
X99765000Y-132955000D03*
X96965000Y-132955000D03*
%TD*%
%TO.C,DL107*%
X99765000Y-61708000D03*
X96965000Y-61708000D03*
D25*
X98815000Y-62008000D03*
X97915000Y-62008000D03*
%TD*%
D18*
%TO.C,R106*%
X128083000Y-130156000D03*
X128083000Y-128256000D03*
%TD*%
%TO.C,R107*%
X155134000Y-79041000D03*
X155134000Y-77141000D03*
%TD*%
%TO.C,R108*%
X155134000Y-73839000D03*
X155134000Y-75739000D03*
%TD*%
D11*
%TO.C,R111*%
X153742000Y-101078000D03*
X155642000Y-101078000D03*
%TD*%
%TO.C,R112*%
X155703000Y-98792000D03*
X153803000Y-98792000D03*
%TD*%
%TO.C,R113*%
X153803000Y-96633000D03*
X155703000Y-96633000D03*
%TD*%
D18*
%TO.C,R114*%
X102556000Y-69196000D03*
X102556000Y-67296000D03*
%TD*%
%TO.C,R115*%
X104715000Y-67235000D03*
X104715000Y-69135000D03*
%TD*%
%TO.C,R116*%
X106874000Y-69201000D03*
X106874000Y-67301000D03*
%TD*%
D11*
%TO.C,D101*%
X147410000Y-122430000D03*
X145510000Y-122430000D03*
%TD*%
D27*
%TO.C,D102*%
X146110000Y-102730000D03*
X146110000Y-107130000D03*
%TD*%
D28*
%TO.C,J101*%
G36*
X102660000Y-85930000D02*
G01*
X103160000Y-86580000D01*
X101760000Y-86580000D01*
X101760000Y-85280000D01*
X103160000Y-85280000D01*
X102660000Y-85930000D01*
G37*
G36*
X104560000Y-86580000D02*
G01*
X103660000Y-86580000D01*
X103160000Y-85930000D01*
X103660000Y-85280000D01*
X104560000Y-85280000D01*
X104560000Y-86580000D01*
G37*
%TD*%
%TO.C,J102*%
G36*
X102660000Y-83780000D02*
G01*
X103160000Y-84430000D01*
X101760000Y-84430000D01*
X101760000Y-83130000D01*
X103160000Y-83130000D01*
X102660000Y-83780000D01*
G37*
G36*
X104560000Y-84430000D02*
G01*
X103660000Y-84430000D01*
X103160000Y-83780000D01*
X103660000Y-83130000D01*
X104560000Y-83130000D01*
X104560000Y-84430000D01*
G37*
%TD*%
%TO.C,J103*%
G36*
X104560000Y-82330000D02*
G01*
X103660000Y-82330000D01*
X103160000Y-81680000D01*
X103660000Y-81030000D01*
X104560000Y-81030000D01*
X104560000Y-82330000D01*
G37*
G36*
X102660000Y-81680000D02*
G01*
X103160000Y-82330000D01*
X101760000Y-82330000D01*
X101760000Y-81030000D01*
X103160000Y-81030000D01*
X102660000Y-81680000D01*
G37*
%TD*%
M02*
