%TF.GenerationSoftware,KiCad,Pcbnew,(5.1.6-0-10_14)*%
%TF.CreationDate,2021-04-08T13:38:14+02:00*%
%TF.ProjectId,gb-mainboard,67622d6d-6169-46e6-926f-6172642e6b69,rev?*%
%TF.SameCoordinates,Original*%
%TF.FileFunction,Soldermask,Top*%
%TF.FilePolarity,Negative*%
%FSLAX46Y46*%
G04 Gerber Fmt 4.6, Leading zero omitted, Abs format (unit mm)*
G04 Created by KiCad (PCBNEW (5.1.6-0-10_14)) date 2021-04-08 13:38:14*
%MOMM*%
%LPD*%
G01*
G04 APERTURE LIST*
%TA.AperFunction,Profile*%
%ADD10C,0.150000*%
%TD*%
%ADD11O,2.100000X1.300000*%
%ADD12R,2.100000X1.300000*%
%ADD13C,3.000000*%
%ADD14R,1.000000X1.400000*%
%ADD15R,2.100000X1.000000*%
%ADD16R,1.000000X2.100000*%
%ADD17R,5.100000X5.100000*%
%ADD18R,1.300000X2.100000*%
%ADD19O,1.300000X2.100000*%
%ADD20R,1.900000X1.900000*%
%ADD21C,1.900000*%
%ADD22C,0.750000*%
%ADD23O,1.100000X1.700000*%
%ADD24R,0.400000X1.100000*%
%ADD25R,0.300000X1.100000*%
%ADD26R,2.100000X2.100000*%
%ADD27C,2.100000*%
%ADD28C,1.200000*%
%ADD29R,1.000000X1.800000*%
%ADD30R,1.400000X1.000000*%
%ADD31R,0.500000X1.300000*%
%ADD32R,0.600000X1.000000*%
%ADD33R,2.600000X1.700000*%
%ADD34R,1.100000X0.700000*%
%ADD35R,1.100000X2.000000*%
%ADD36C,0.900000*%
%ADD37R,1.800000X1.000000*%
%ADD38R,0.700000X0.700000*%
%ADD39R,0.700000X1.000000*%
%ADD40C,1.500000*%
%ADD41R,1.500000X1.500000*%
%ADD42R,1.800000X1.700000*%
%ADD43C,0.100000*%
G04 APERTURE END LIST*
D10*
X154959999Y-58430000D02*
G75*
G02*
X152659999Y-58430000I-1150000J0D01*
G01*
X152659999Y-58430000D02*
G75*
G02*
X154959999Y-58430000I1150000J0D01*
G01*
X102660000Y-58430000D02*
G75*
G02*
X104960000Y-58430000I1150000J0D01*
G01*
X104960000Y-58430000D02*
G75*
G02*
X102660000Y-58430000I-1150000J0D01*
G01*
X106310000Y-78630000D02*
G75*
G02*
X106310000Y-76230000I0J1200000D01*
G01*
X106310000Y-76230000D02*
G75*
G02*
X106310000Y-78630000I0J-1200000D01*
G01*
X151309999Y-78630000D02*
G75*
G02*
X151309999Y-76230000I0J1200000D01*
G01*
X151309999Y-76230000D02*
G75*
G02*
X151309999Y-78630000I0J-1200000D01*
G01*
X128809999Y-122630000D02*
X128809999Y-122630000D01*
X128809999Y-122630000D02*
G75*
G02*
X128809999Y-120230000I0J1200000D01*
G01*
X128809999Y-120230000D02*
G75*
G02*
X128809999Y-122630000I0J-1200000D01*
G01*
X167509999Y-59930000D02*
X167509999Y-75130000D01*
X159559999Y-59930000D02*
X167509999Y-59930000D01*
X159559999Y-59930000D02*
G75*
G02*
X158059999Y-58430000I547J1500547D01*
G01*
X153809997Y-54180000D02*
G75*
G02*
X158059999Y-58430000I-1549J-4251551D01*
G01*
X149559998Y-58433101D02*
G75*
G02*
X153809999Y-54180000I4251551J1550D01*
G01*
X149559998Y-58429999D02*
G75*
G02*
X148059999Y-59930000I-1500547J546D01*
G01*
X145009999Y-59930000D02*
X148059999Y-59930000D01*
X145009999Y-71130000D02*
X145009999Y-59930000D01*
X145009999Y-71130000D02*
G75*
G02*
X140009999Y-71130000I-2500000J0D01*
G01*
X140009999Y-59930000D02*
X140009999Y-71130000D01*
X134809999Y-59930000D02*
X140009999Y-59930000D01*
X134809999Y-64430000D02*
X134809999Y-59930000D01*
X134809998Y-64430000D02*
G75*
G02*
X132309999Y-66930000I-2509490J9490D01*
G01*
X125309999Y-66930000D02*
X132309999Y-66930000D01*
X125309999Y-66930001D02*
G75*
G02*
X122809999Y-64430000I9491J2509491D01*
G01*
X122809999Y-59930000D02*
X122809999Y-64430000D01*
X117610000Y-59930000D02*
X122809999Y-59930000D01*
X117610000Y-71130000D02*
X117610000Y-59930000D01*
X117610001Y-71130000D02*
G75*
G02*
X112609999Y-71130000I-2500001J0D01*
G01*
X112609999Y-59930000D02*
X112609999Y-71130000D01*
X109560000Y-59930000D02*
X112609999Y-59930000D01*
X109560000Y-59930000D02*
G75*
G02*
X108060000Y-58430000I547J1500547D01*
G01*
X103809998Y-54180000D02*
G75*
G02*
X108060000Y-58430000I-1549J-4251551D01*
G01*
X99559999Y-58430001D02*
G75*
G02*
X103810000Y-54180000I4251551J-1550D01*
G01*
X99559999Y-58429999D02*
G75*
G02*
X98060000Y-59930000I-1500547J546D01*
G01*
X95110000Y-134630000D02*
X95110000Y-75120000D01*
X96433000Y-135130000D02*
G75*
G02*
X95110000Y-134630000I-1315J1996850D01*
G01*
X161387000Y-135130001D02*
X96433000Y-135130000D01*
X162710000Y-134630000D02*
G75*
G02*
X161387000Y-135130001I-1321686J1496849D01*
G01*
X162710000Y-75130000D02*
X162710000Y-134630000D01*
X167509999Y-75130000D02*
X162710000Y-75130000D01*
X90110000Y-59930000D02*
X98060000Y-59930000D01*
X90110000Y-75130000D02*
X90110000Y-59930000D01*
X95110000Y-75120000D02*
X90110000Y-75130000D01*
D11*
%TO.C,BRD102*%
X123207000Y-95871000D03*
X123207000Y-98411000D03*
X123207000Y-100951000D03*
X123207000Y-103491000D03*
D12*
X123207000Y-106031000D03*
%TD*%
D13*
%TO.C,VAL\u002A\u002A*%
X106560000Y-99930000D03*
%TD*%
%TO.C,VAL\u002A\u002A*%
X155460000Y-125130000D03*
%TD*%
%TO.C,VAL\u002A\u002A*%
X136960000Y-68930000D03*
%TD*%
D14*
%TO.C,DL108*%
X147961000Y-86600000D03*
X149861000Y-86600000D03*
%TD*%
%TO.C,DL109*%
X149861000Y-90918000D03*
X147961000Y-90918000D03*
%TD*%
%TO.C,R109*%
X149861000Y-88759000D03*
X147961000Y-88759000D03*
%TD*%
%TO.C,R110*%
X147961000Y-93077000D03*
X149861000Y-93077000D03*
%TD*%
D15*
%TO.C,U101*%
X104978000Y-133717000D03*
X104978000Y-132447000D03*
X104978000Y-131177000D03*
X104978000Y-129907000D03*
X104978000Y-128637000D03*
X104978000Y-127367000D03*
X104978000Y-126097000D03*
X104978000Y-124827000D03*
X104978000Y-123557000D03*
X104978000Y-122287000D03*
X104978000Y-121017000D03*
X104978000Y-119747000D03*
X104978000Y-118477000D03*
X104978000Y-117207000D03*
D16*
X107763000Y-116207000D03*
X109033000Y-116207000D03*
X110303000Y-116207000D03*
X111573000Y-116207000D03*
X112843000Y-116207000D03*
X114113000Y-116207000D03*
X115383000Y-116207000D03*
X116653000Y-116207000D03*
X117923000Y-116207000D03*
X119193000Y-116207000D03*
D15*
X121978000Y-117207000D03*
X121978000Y-118477000D03*
X121978000Y-119747000D03*
X121978000Y-121017000D03*
X121978000Y-122287000D03*
X121978000Y-123557000D03*
X121978000Y-124827000D03*
X121978000Y-126097000D03*
X121978000Y-127367000D03*
X121978000Y-128637000D03*
X121978000Y-129907000D03*
X121978000Y-131177000D03*
X121978000Y-132447000D03*
X121978000Y-133717000D03*
D17*
X114478000Y-126217000D03*
%TD*%
D18*
%TO.C,BRD101*%
X119828000Y-73696000D03*
X119828000Y-83756000D03*
D19*
X122368000Y-73696000D03*
X122368000Y-83756000D03*
X124908000Y-73696000D03*
X124908000Y-83756000D03*
X127448000Y-73696000D03*
X127448000Y-83756000D03*
X129988000Y-73696000D03*
X129988000Y-83756000D03*
X132528000Y-73696000D03*
X132528000Y-83756000D03*
X135068000Y-73696000D03*
X135068000Y-83756000D03*
X137608000Y-73696000D03*
X137608000Y-83756000D03*
%TD*%
D20*
%TO.C,P101*%
X160595000Y-116445000D03*
D21*
X158055000Y-116445000D03*
X160595000Y-113905000D03*
X158055000Y-113905000D03*
X160595000Y-111365000D03*
X158055000Y-111365000D03*
X160595000Y-108825000D03*
X158055000Y-108825000D03*
X160595000Y-106285000D03*
X158055000Y-106285000D03*
X160595000Y-103745000D03*
X158055000Y-103745000D03*
X160595000Y-101205000D03*
X158055000Y-101205000D03*
X160595000Y-98665000D03*
X158055000Y-98665000D03*
X160595000Y-96125000D03*
X158055000Y-96125000D03*
X160595000Y-93585000D03*
X158055000Y-93585000D03*
X160595000Y-91045000D03*
X158055000Y-91045000D03*
X160595000Y-88505000D03*
X158055000Y-88505000D03*
X160595000Y-85965000D03*
X158055000Y-85965000D03*
X160595000Y-83425000D03*
X158055000Y-83425000D03*
X160595000Y-80885000D03*
X158055000Y-80885000D03*
X160595000Y-78345000D03*
X158055000Y-78345000D03*
X160595000Y-75805000D03*
X158055000Y-75805000D03*
X160595000Y-73265000D03*
X158055000Y-73265000D03*
X160595000Y-70725000D03*
X158055000Y-70725000D03*
X160595000Y-68185000D03*
X158055000Y-68185000D03*
%TD*%
%TO.C,P102*%
X97095000Y-68185000D03*
X99635000Y-68185000D03*
X97095000Y-70725000D03*
X99635000Y-70725000D03*
X97095000Y-73265000D03*
X99635000Y-73265000D03*
X97095000Y-75805000D03*
X99635000Y-75805000D03*
X97095000Y-78345000D03*
X99635000Y-78345000D03*
X97095000Y-80885000D03*
X99635000Y-80885000D03*
X97095000Y-83425000D03*
X99635000Y-83425000D03*
X97095000Y-85965000D03*
X99635000Y-85965000D03*
X97095000Y-88505000D03*
X99635000Y-88505000D03*
X97095000Y-91045000D03*
X99635000Y-91045000D03*
X97095000Y-93585000D03*
X99635000Y-93585000D03*
X97095000Y-96125000D03*
X99635000Y-96125000D03*
X97095000Y-98665000D03*
X99635000Y-98665000D03*
X97095000Y-101205000D03*
X99635000Y-101205000D03*
X97095000Y-103745000D03*
X99635000Y-103745000D03*
X97095000Y-106285000D03*
X99635000Y-106285000D03*
X97095000Y-108825000D03*
X99635000Y-108825000D03*
X97095000Y-111365000D03*
X99635000Y-111365000D03*
X97095000Y-113905000D03*
X99635000Y-113905000D03*
X97095000Y-116445000D03*
D20*
X99635000Y-116445000D03*
%TD*%
D22*
%TO.C,P105*%
X146758000Y-125888000D03*
X146358000Y-126613000D03*
X145958000Y-125888000D03*
X145158000Y-125888000D03*
X144358000Y-125888000D03*
X143558000Y-125888000D03*
X142758000Y-125888000D03*
X141958000Y-125888000D03*
X141158000Y-125888000D03*
X145558000Y-126613000D03*
X144758000Y-126613000D03*
X143158000Y-126613000D03*
X142358000Y-126613000D03*
X141558000Y-126613000D03*
D23*
X148208000Y-127038000D03*
X139708000Y-127038000D03*
X148208000Y-131788000D03*
X139708000Y-131788000D03*
D24*
X141208000Y-124638000D03*
X141708000Y-124638000D03*
X142208000Y-124638000D03*
X142708000Y-124638000D03*
X143208000Y-124638000D03*
X143708000Y-124638000D03*
X144208000Y-124638000D03*
X144708000Y-124638000D03*
X145208000Y-124638000D03*
X145708000Y-124638000D03*
X146208000Y-124638000D03*
X146708000Y-124638000D03*
D25*
X143958000Y-131788000D03*
X143958000Y-129188000D03*
%TD*%
D26*
%TO.C,P103*%
X116252000Y-78726000D03*
D27*
X113752000Y-78726000D03*
D28*
X116272000Y-76186000D03*
X113732000Y-76186000D03*
%TD*%
D26*
%TO.C,P104*%
X144192000Y-78726000D03*
D27*
X141692000Y-78726000D03*
D28*
X144212000Y-76186000D03*
X141672000Y-76186000D03*
%TD*%
D14*
%TO.C,C101*%
X139259000Y-106158000D03*
X141159000Y-106158000D03*
%TD*%
%TO.C,C102*%
X138177000Y-115429000D03*
X136277000Y-115429000D03*
%TD*%
D29*
%TO.C,C103*%
X142614000Y-122414000D03*
X139714000Y-122414000D03*
%TD*%
D14*
%TO.C,C104*%
X139325000Y-103999000D03*
X141225000Y-103999000D03*
%TD*%
D30*
%TO.C,DL101*%
X146752000Y-112376000D03*
X146752000Y-110476000D03*
%TD*%
%TO.C,DL102*%
X144466000Y-110476000D03*
X144466000Y-112376000D03*
%TD*%
%TO.C,R101*%
X146752000Y-115744000D03*
X146752000Y-113844000D03*
%TD*%
%TO.C,R102*%
X144466000Y-113910000D03*
X144466000Y-115810000D03*
%TD*%
D14*
%TO.C,R103*%
X150750000Y-117461000D03*
X148850000Y-117461000D03*
%TD*%
D31*
%TO.C,U102*%
X135004500Y-113330000D03*
X135639500Y-113330000D03*
X136274500Y-113330000D03*
X136909500Y-113330000D03*
X137544500Y-113330000D03*
X138179500Y-113330000D03*
X138814500Y-113330000D03*
X139449500Y-113330000D03*
X139449500Y-108130000D03*
X138814500Y-108130000D03*
X138179500Y-108130000D03*
X137544500Y-108130000D03*
X136909500Y-108130000D03*
X136274500Y-108130000D03*
X135639500Y-108130000D03*
X135004500Y-108130000D03*
%TD*%
D32*
%TO.C,U103*%
X151689000Y-112659000D03*
X150689000Y-112659000D03*
X149689000Y-112659000D03*
X149689000Y-115659000D03*
X150689000Y-115659000D03*
X151689000Y-115659000D03*
D33*
X150689000Y-114159000D03*
%TD*%
D29*
%TO.C,C105*%
X152393000Y-110222000D03*
X149493000Y-110222000D03*
%TD*%
D14*
%TO.C,DL103*%
X107885000Y-103872000D03*
X105985000Y-103872000D03*
%TD*%
D34*
%TO.C,Q101*%
X148673000Y-104319000D03*
X148673000Y-106219000D03*
X150673000Y-105269000D03*
%TD*%
D14*
%TO.C,R104*%
X148723000Y-102475000D03*
X150623000Y-102475000D03*
%TD*%
%TO.C,R105*%
X107824000Y-106031000D03*
X105924000Y-106031000D03*
%TD*%
D35*
%TO.C,SW101*%
X135179000Y-130155000D03*
D36*
X131054000Y-134205000D03*
X137304000Y-134205000D03*
D35*
X133179000Y-130155000D03*
X131179000Y-130155000D03*
%TD*%
D30*
%TO.C,C106*%
X128083000Y-126854000D03*
X128083000Y-124954000D03*
%TD*%
D37*
%TO.C,C107*%
X124908000Y-133770000D03*
X124908000Y-130870000D03*
%TD*%
D30*
%TO.C,C108*%
X127194000Y-131878000D03*
X127194000Y-133778000D03*
%TD*%
D14*
%TO.C,C109*%
X107443000Y-108825000D03*
X105543000Y-108825000D03*
%TD*%
D29*
%TO.C,C110*%
X122421000Y-70344000D03*
X119521000Y-70344000D03*
%TD*%
D14*
%TO.C,C111*%
X120595000Y-68058000D03*
X122495000Y-68058000D03*
%TD*%
D38*
%TO.C,DL104*%
X158944000Y-61962000D03*
X159844000Y-61962000D03*
D39*
X157994000Y-61662000D03*
X160794000Y-61662000D03*
%TD*%
%TO.C,DL105*%
X158052000Y-133209000D03*
X160852000Y-133209000D03*
D38*
X159002000Y-132909000D03*
X159902000Y-132909000D03*
%TD*%
%TO.C,DL106*%
X98815000Y-132655000D03*
X97915000Y-132655000D03*
D39*
X99765000Y-132955000D03*
X96965000Y-132955000D03*
%TD*%
%TO.C,DL107*%
X99765000Y-61708000D03*
X96965000Y-61708000D03*
D38*
X98815000Y-62008000D03*
X97915000Y-62008000D03*
%TD*%
D40*
%TO.C,P107*%
X125289000Y-125843000D03*
D41*
X125289000Y-128383000D03*
%TD*%
%TO.C,P108*%
X105096000Y-111492000D03*
D40*
X107636000Y-111492000D03*
%TD*%
%TO.C,P109*%
X97095000Y-125843000D03*
D41*
X97095000Y-128383000D03*
D40*
X97095000Y-123303000D03*
%TD*%
D30*
%TO.C,R106*%
X128083000Y-130156000D03*
X128083000Y-128256000D03*
%TD*%
%TO.C,R107*%
X155134000Y-79041000D03*
X155134000Y-77141000D03*
%TD*%
%TO.C,R108*%
X155134000Y-73839000D03*
X155134000Y-75739000D03*
%TD*%
D26*
%TO.C,P106*%
X151217000Y-130288000D03*
D27*
X153717000Y-130288000D03*
D28*
X151197000Y-132828000D03*
X153737000Y-132828000D03*
%TD*%
D14*
%TO.C,R111*%
X153742000Y-101078000D03*
X155642000Y-101078000D03*
%TD*%
%TO.C,R112*%
X155703000Y-98792000D03*
X153803000Y-98792000D03*
%TD*%
%TO.C,R113*%
X153803000Y-96633000D03*
X155703000Y-96633000D03*
%TD*%
D30*
%TO.C,R114*%
X102556000Y-69196000D03*
X102556000Y-67296000D03*
%TD*%
%TO.C,R115*%
X104715000Y-67235000D03*
X104715000Y-69135000D03*
%TD*%
%TO.C,R116*%
X106874000Y-69201000D03*
X106874000Y-67301000D03*
%TD*%
D14*
%TO.C,D101*%
X147410000Y-122430000D03*
X145510000Y-122430000D03*
%TD*%
D42*
%TO.C,D102*%
X146110000Y-102730000D03*
X146110000Y-107130000D03*
%TD*%
D43*
%TO.C,J101*%
G36*
X103169755Y-85230961D02*
G01*
X103179134Y-85233806D01*
X103187779Y-85238427D01*
X103195355Y-85244645D01*
X103201573Y-85252221D01*
X103206194Y-85260866D01*
X103209039Y-85270245D01*
X103210000Y-85280000D01*
X103209039Y-85289755D01*
X103206194Y-85299134D01*
X103199631Y-85310486D01*
X102723082Y-85930000D01*
X103199631Y-86549514D01*
X103204817Y-86557832D01*
X103208281Y-86567001D01*
X103209889Y-86576670D01*
X103209580Y-86586467D01*
X103207366Y-86596015D01*
X103203331Y-86604948D01*
X103197631Y-86612922D01*
X103190486Y-86619631D01*
X103182168Y-86624817D01*
X103172999Y-86628281D01*
X103160000Y-86630000D01*
X101760000Y-86630000D01*
X101750245Y-86629039D01*
X101740866Y-86626194D01*
X101732221Y-86621573D01*
X101724645Y-86615355D01*
X101718427Y-86607779D01*
X101713806Y-86599134D01*
X101710961Y-86589755D01*
X101710000Y-86580000D01*
X101710000Y-85280000D01*
X101710961Y-85270245D01*
X101713806Y-85260866D01*
X101718427Y-85252221D01*
X101724645Y-85244645D01*
X101732221Y-85238427D01*
X101740866Y-85233806D01*
X101750245Y-85230961D01*
X101760000Y-85230000D01*
X103160000Y-85230000D01*
X103169755Y-85230961D01*
G37*
G36*
X104569755Y-85230961D02*
G01*
X104579134Y-85233806D01*
X104587779Y-85238427D01*
X104595355Y-85244645D01*
X104601573Y-85252221D01*
X104606194Y-85260866D01*
X104609039Y-85270245D01*
X104610000Y-85280000D01*
X104610000Y-86580000D01*
X104609039Y-86589755D01*
X104606194Y-86599134D01*
X104601573Y-86607779D01*
X104595355Y-86615355D01*
X104587779Y-86621573D01*
X104579134Y-86626194D01*
X104569755Y-86629039D01*
X104560000Y-86630000D01*
X103660000Y-86630000D01*
X103650245Y-86629039D01*
X103640866Y-86626194D01*
X103632221Y-86621573D01*
X103624645Y-86615355D01*
X103620369Y-86610486D01*
X103120369Y-85960486D01*
X103115183Y-85952168D01*
X103111719Y-85942999D01*
X103110111Y-85933330D01*
X103110420Y-85923533D01*
X103112634Y-85913985D01*
X103116669Y-85905052D01*
X103120369Y-85899514D01*
X103620369Y-85249514D01*
X103627078Y-85242369D01*
X103635052Y-85236669D01*
X103643985Y-85232634D01*
X103653533Y-85230420D01*
X103660000Y-85230000D01*
X104560000Y-85230000D01*
X104569755Y-85230961D01*
G37*
%TD*%
%TO.C,J102*%
G36*
X103169755Y-83080961D02*
G01*
X103179134Y-83083806D01*
X103187779Y-83088427D01*
X103195355Y-83094645D01*
X103201573Y-83102221D01*
X103206194Y-83110866D01*
X103209039Y-83120245D01*
X103210000Y-83130000D01*
X103209039Y-83139755D01*
X103206194Y-83149134D01*
X103199631Y-83160486D01*
X102723082Y-83780000D01*
X103199631Y-84399514D01*
X103204817Y-84407832D01*
X103208281Y-84417001D01*
X103209889Y-84426670D01*
X103209580Y-84436467D01*
X103207366Y-84446015D01*
X103203331Y-84454948D01*
X103197631Y-84462922D01*
X103190486Y-84469631D01*
X103182168Y-84474817D01*
X103172999Y-84478281D01*
X103160000Y-84480000D01*
X101760000Y-84480000D01*
X101750245Y-84479039D01*
X101740866Y-84476194D01*
X101732221Y-84471573D01*
X101724645Y-84465355D01*
X101718427Y-84457779D01*
X101713806Y-84449134D01*
X101710961Y-84439755D01*
X101710000Y-84430000D01*
X101710000Y-83130000D01*
X101710961Y-83120245D01*
X101713806Y-83110866D01*
X101718427Y-83102221D01*
X101724645Y-83094645D01*
X101732221Y-83088427D01*
X101740866Y-83083806D01*
X101750245Y-83080961D01*
X101760000Y-83080000D01*
X103160000Y-83080000D01*
X103169755Y-83080961D01*
G37*
G36*
X104569755Y-83080961D02*
G01*
X104579134Y-83083806D01*
X104587779Y-83088427D01*
X104595355Y-83094645D01*
X104601573Y-83102221D01*
X104606194Y-83110866D01*
X104609039Y-83120245D01*
X104610000Y-83130000D01*
X104610000Y-84430000D01*
X104609039Y-84439755D01*
X104606194Y-84449134D01*
X104601573Y-84457779D01*
X104595355Y-84465355D01*
X104587779Y-84471573D01*
X104579134Y-84476194D01*
X104569755Y-84479039D01*
X104560000Y-84480000D01*
X103660000Y-84480000D01*
X103650245Y-84479039D01*
X103640866Y-84476194D01*
X103632221Y-84471573D01*
X103624645Y-84465355D01*
X103620369Y-84460486D01*
X103120369Y-83810486D01*
X103115183Y-83802168D01*
X103111719Y-83792999D01*
X103110111Y-83783330D01*
X103110420Y-83773533D01*
X103112634Y-83763985D01*
X103116669Y-83755052D01*
X103120369Y-83749514D01*
X103620369Y-83099514D01*
X103627078Y-83092369D01*
X103635052Y-83086669D01*
X103643985Y-83082634D01*
X103653533Y-83080420D01*
X103660000Y-83080000D01*
X104560000Y-83080000D01*
X104569755Y-83080961D01*
G37*
%TD*%
%TO.C,J103*%
G36*
X104569755Y-80980961D02*
G01*
X104579134Y-80983806D01*
X104587779Y-80988427D01*
X104595355Y-80994645D01*
X104601573Y-81002221D01*
X104606194Y-81010866D01*
X104609039Y-81020245D01*
X104610000Y-81030000D01*
X104610000Y-82330000D01*
X104609039Y-82339755D01*
X104606194Y-82349134D01*
X104601573Y-82357779D01*
X104595355Y-82365355D01*
X104587779Y-82371573D01*
X104579134Y-82376194D01*
X104569755Y-82379039D01*
X104560000Y-82380000D01*
X103660000Y-82380000D01*
X103650245Y-82379039D01*
X103640866Y-82376194D01*
X103632221Y-82371573D01*
X103624645Y-82365355D01*
X103620369Y-82360486D01*
X103120369Y-81710486D01*
X103115183Y-81702168D01*
X103111719Y-81692999D01*
X103110111Y-81683330D01*
X103110420Y-81673533D01*
X103112634Y-81663985D01*
X103116669Y-81655052D01*
X103120369Y-81649514D01*
X103620369Y-80999514D01*
X103627078Y-80992369D01*
X103635052Y-80986669D01*
X103643985Y-80982634D01*
X103653533Y-80980420D01*
X103660000Y-80980000D01*
X104560000Y-80980000D01*
X104569755Y-80980961D01*
G37*
G36*
X103169755Y-80980961D02*
G01*
X103179134Y-80983806D01*
X103187779Y-80988427D01*
X103195355Y-80994645D01*
X103201573Y-81002221D01*
X103206194Y-81010866D01*
X103209039Y-81020245D01*
X103210000Y-81030000D01*
X103209039Y-81039755D01*
X103206194Y-81049134D01*
X103199631Y-81060486D01*
X102723082Y-81680000D01*
X103199631Y-82299514D01*
X103204817Y-82307832D01*
X103208281Y-82317001D01*
X103209889Y-82326670D01*
X103209580Y-82336467D01*
X103207366Y-82346015D01*
X103203331Y-82354948D01*
X103197631Y-82362922D01*
X103190486Y-82369631D01*
X103182168Y-82374817D01*
X103172999Y-82378281D01*
X103160000Y-82380000D01*
X101760000Y-82380000D01*
X101750245Y-82379039D01*
X101740866Y-82376194D01*
X101732221Y-82371573D01*
X101724645Y-82365355D01*
X101718427Y-82357779D01*
X101713806Y-82349134D01*
X101710961Y-82339755D01*
X101710000Y-82330000D01*
X101710000Y-81030000D01*
X101710961Y-81020245D01*
X101713806Y-81010866D01*
X101718427Y-81002221D01*
X101724645Y-80994645D01*
X101732221Y-80988427D01*
X101740866Y-80983806D01*
X101750245Y-80980961D01*
X101760000Y-80980000D01*
X103160000Y-80980000D01*
X103169755Y-80980961D01*
G37*
%TD*%
M02*
