M48
; DRILL file {KiCad (5.1.6-0-10_14)} date Thursday, April 08, 2021 at 01:38:22 PM
; FORMAT={-:-/ absolute / metric / decimal}
; #@! TF.CreationDate,2021-04-08T13:38:22+02:00
; #@! TF.GenerationSoftware,Kicad,Pcbnew,(5.1.6-0-10_14)
; #@! TF.FileFunction,Plated,1,2,PTH
FMAT,2
METRIC
T1C0.400
T2C0.500
T3C0.600
T4C0.800
T5C0.900
T6C1.100
T7C1.200
%
G90
G05
T1
X98.238Y-131.431
X99.889Y-130.669
X101.286Y-132.106
X101.54Y-93.966
X101.667Y-119.493
X101.921Y-132.955
X102.429Y-115.937
X102.937Y-119.747
X103.064Y-93.966
X103.191Y-71.995
X104.11Y-82.73
X104.11Y-84.88
X105.223Y-71.32
X106.874Y-70.217
X107.636Y-133.717
X109.287Y-70.598
X109.628Y-72.757
X109.668Y-133.717
X109.795Y-103.872
X110.049Y-106.031
X110.049Y-114.286
X110.811Y-94.855
X110.811Y-95.998
X111.065Y-72.757
X111.16Y-126.23
X111.7Y-133.717
X112.081Y-94.601
X113.605Y-133.717
X113.986Y-110.095
X114.46Y-122.93
X114.46Y-129.53
X114.748Y-112.0
X115.423Y-113.778
X115.637Y-133.717
X116.78Y-84.822
X117.669Y-91.934
X117.669Y-133.717
X117.71Y-129.53
X117.76Y-126.23
X117.796Y-98.792
X117.796Y-108.19
X117.81Y-123.03
X119.066Y-108.19
X119.701Y-133.717
X134.306Y-112.04
X135.322Y-111.365
X136.909Y-104.189
X138.116Y-111.746
X140.275Y-109.206
X140.925Y-114.54
X143.579Y-123.457
X147.641Y-83.171
X148.53Y-83.846
X149.038Y-89.775
X149.546Y-84.481
X149.8Y-113.778
X150.308Y-90.918
X150.435Y-86.6
X150.689Y-114.54
X151.578Y-113.778
X153.102Y-84.481
X153.356Y-90.918
X154.118Y-84.187
X154.372Y-83.171
X155.134Y-72.757
X141.158Y-125.888
X141.558Y-126.613
X141.958Y-125.888
X142.358Y-126.613
X142.758Y-125.888
X143.158Y-126.613
X143.558Y-125.888
X144.358Y-125.888
X144.758Y-126.613
X145.158Y-125.888
X145.558Y-126.613
X145.958Y-125.888
X146.358Y-126.613
X146.758Y-125.888
T2
X116.526Y-83.171
X133.818Y-90.557
X147.453Y-104.319
X150.562Y-95.871
X150.562Y-98.284
X150.676Y-103.745
X150.689Y-110.222
X150.816Y-120.001
T4
X125.289Y-125.843
X125.289Y-128.383
X97.095Y-123.303
X97.095Y-125.843
X97.095Y-128.383
X105.096Y-111.492
X107.636Y-111.492
T5
X123.207Y-95.871
X123.207Y-98.411
X123.207Y-100.951
X123.207Y-103.491
X123.207Y-106.031
X119.828Y-73.696
X119.828Y-83.756
X122.368Y-73.696
X122.368Y-83.756
X124.908Y-73.696
X124.908Y-83.756
X127.448Y-73.696
X127.448Y-83.756
X129.988Y-73.696
X129.988Y-83.756
X132.528Y-73.696
X132.528Y-83.756
X135.068Y-73.696
X135.068Y-83.756
X137.608Y-73.696
X137.608Y-83.756
T6
X97.095Y-68.185
X97.095Y-70.725
X97.095Y-73.265
X97.095Y-75.805
X97.095Y-78.345
X97.095Y-80.885
X97.095Y-83.425
X97.095Y-85.965
X97.095Y-88.505
X97.095Y-91.045
X97.095Y-93.585
X97.095Y-96.125
X97.095Y-98.665
X97.095Y-101.205
X97.095Y-103.745
X97.095Y-106.285
X97.095Y-108.825
X97.095Y-111.365
X97.095Y-113.905
X97.095Y-116.445
X99.635Y-68.185
X99.635Y-70.725
X99.635Y-73.265
X99.635Y-75.805
X99.635Y-78.345
X99.635Y-80.885
X99.635Y-83.425
X99.635Y-85.965
X99.635Y-88.505
X99.635Y-91.045
X99.635Y-93.585
X99.635Y-96.125
X99.635Y-98.665
X99.635Y-101.205
X99.635Y-103.745
X99.635Y-106.285
X99.635Y-108.825
X99.635Y-111.365
X99.635Y-113.905
X99.635Y-116.445
X158.055Y-68.185
X158.055Y-70.725
X158.055Y-73.265
X158.055Y-75.805
X158.055Y-78.345
X158.055Y-80.885
X158.055Y-83.425
X158.055Y-85.965
X158.055Y-88.505
X158.055Y-91.045
X158.055Y-93.585
X158.055Y-96.125
X158.055Y-98.665
X158.055Y-101.205
X158.055Y-103.745
X158.055Y-106.285
X158.055Y-108.825
X158.055Y-111.365
X158.055Y-113.905
X158.055Y-116.445
X160.595Y-68.185
X160.595Y-70.725
X160.595Y-73.265
X160.595Y-75.805
X160.595Y-78.345
X160.595Y-80.885
X160.595Y-83.425
X160.595Y-85.965
X160.595Y-88.505
X160.595Y-91.045
X160.595Y-93.585
X160.595Y-96.125
X160.595Y-98.665
X160.595Y-101.205
X160.595Y-103.745
X160.595Y-106.285
X160.595Y-108.825
X160.595Y-111.365
X160.595Y-113.905
X160.595Y-116.445
T7
X141.692Y-78.726
X144.192Y-78.726
X113.752Y-78.726
X116.252Y-78.726
X151.217Y-130.288
X153.717Y-130.288
T3
G00X139.708Y-126.738
M15
G01X139.708Y-127.338
M16
G05
G00X139.708Y-131.488
M15
G01X139.708Y-132.088
M16
G05
G00X148.208Y-126.738
M15
G01X148.208Y-127.338
M16
G05
G00X148.208Y-131.488
M15
G01X148.208Y-132.088
M16
G05
T0
M30
