%TF.GenerationSoftware,KiCad,Pcbnew,(5.1.6-0-10_14)*%
%TF.CreationDate,2021-04-08T13:38:14+02:00*%
%TF.ProjectId,gb-mainboard,67622d6d-6169-46e6-926f-6172642e6b69,rev?*%
%TF.SameCoordinates,Original*%
%TF.FileFunction,Legend,Top*%
%TF.FilePolarity,Positive*%
%FSLAX46Y46*%
G04 Gerber Fmt 4.6, Leading zero omitted, Abs format (unit mm)*
G04 Created by KiCad (PCBNEW (5.1.6-0-10_14)) date 2021-04-08 13:38:14*
%MOMM*%
%LPD*%
G01*
G04 APERTURE LIST*
%ADD10C,0.200000*%
%TA.AperFunction,Profile*%
%ADD11C,0.150000*%
%TD*%
%ADD12C,0.120000*%
%ADD13C,0.010000*%
%ADD14C,0.150000*%
G04 APERTURE END LIST*
D10*
X126997767Y-95508571D02*
X127185267Y-94008571D01*
X127113839Y-94580000D02*
X127265625Y-94508571D01*
X127551339Y-94508571D01*
X127685267Y-94580000D01*
X127747767Y-94651428D01*
X127801339Y-94794285D01*
X127747767Y-95222857D01*
X127658482Y-95365714D01*
X127578125Y-95437142D01*
X127426339Y-95508571D01*
X127140625Y-95508571D01*
X127006696Y-95437142D01*
X128337053Y-94508571D02*
X128569196Y-95508571D01*
X129051339Y-94508571D02*
X128569196Y-95508571D01*
X128381696Y-95865714D01*
X128301339Y-95937142D01*
X128149553Y-96008571D01*
X131604910Y-94080000D02*
X131470982Y-94008571D01*
X131256696Y-94008571D01*
X131033482Y-94080000D01*
X130872767Y-94222857D01*
X130783482Y-94365714D01*
X130676339Y-94651428D01*
X130649553Y-94865714D01*
X130685267Y-95151428D01*
X130738839Y-95294285D01*
X130863839Y-95437142D01*
X131069196Y-95508571D01*
X131212053Y-95508571D01*
X131435267Y-95437142D01*
X131515625Y-95365714D01*
X131578125Y-94865714D01*
X131292410Y-94865714D01*
X132140625Y-95508571D02*
X132328125Y-94008571D01*
X132837053Y-95080000D02*
X133551339Y-95080000D01*
X132640625Y-95508571D02*
X133328125Y-94008571D01*
X133640625Y-95508571D01*
X134140625Y-95508571D02*
X134328125Y-94008571D01*
X134694196Y-95080000D01*
X135328125Y-94008571D01*
X135140625Y-95508571D01*
X135854910Y-95508571D02*
X136042410Y-94008571D01*
X136408482Y-95080000D01*
X137042410Y-94008571D01*
X136854910Y-95508571D01*
X137551339Y-95080000D02*
X138265625Y-95080000D01*
X137354910Y-95508571D02*
X138042410Y-94008571D01*
X138354910Y-95508571D01*
X138828125Y-94008571D02*
X139685267Y-94008571D01*
X139069196Y-95508571D02*
X139256696Y-94008571D01*
X140578125Y-95437142D02*
X140426339Y-95508571D01*
X140140625Y-95508571D01*
X140006696Y-95437142D01*
X139953125Y-95294285D01*
X140024553Y-94722857D01*
X140113839Y-94580000D01*
X140265625Y-94508571D01*
X140551339Y-94508571D01*
X140685267Y-94580000D01*
X140738839Y-94722857D01*
X140720982Y-94865714D01*
X139988839Y-95008571D01*
X141926339Y-95508571D02*
X142024553Y-94722857D01*
X141970982Y-94580000D01*
X141837053Y-94508571D01*
X141551339Y-94508571D01*
X141399553Y-94580000D01*
X141935267Y-95437142D02*
X141783482Y-95508571D01*
X141426339Y-95508571D01*
X141292410Y-95437142D01*
X141238839Y-95294285D01*
X141256696Y-95151428D01*
X141345982Y-95008571D01*
X141497767Y-94937142D01*
X141854910Y-94937142D01*
X142006696Y-94865714D01*
X142640625Y-95508571D02*
X142765625Y-94508571D01*
X142747767Y-94651428D02*
X142828125Y-94580000D01*
X142979910Y-94508571D01*
X143194196Y-94508571D01*
X143328125Y-94580000D01*
X143381696Y-94722857D01*
X143283482Y-95508571D01*
X143381696Y-94722857D02*
X143470982Y-94580000D01*
X143622767Y-94508571D01*
X143837053Y-94508571D01*
X143970982Y-94580000D01*
X144024553Y-94722857D01*
X143926339Y-95508571D01*
X135488571Y-128358571D02*
X135488571Y-128072857D01*
X135560000Y-127930000D01*
X135702857Y-127787142D01*
X135988571Y-127715714D01*
X136488571Y-127715714D01*
X136774285Y-127787142D01*
X136917142Y-127930000D01*
X136988571Y-128072857D01*
X136988571Y-128358571D01*
X136917142Y-128501428D01*
X136774285Y-128644285D01*
X136488571Y-128715714D01*
X135988571Y-128715714D01*
X135702857Y-128644285D01*
X135560000Y-128501428D01*
X135488571Y-128358571D01*
X136988571Y-127072857D02*
X135488571Y-127072857D01*
X136988571Y-126215714D01*
X135488571Y-126215714D01*
X131538571Y-128358571D02*
X131538571Y-128072857D01*
X131610000Y-127930000D01*
X131752857Y-127787142D01*
X132038571Y-127715714D01*
X132538571Y-127715714D01*
X132824285Y-127787142D01*
X132967142Y-127930000D01*
X133038571Y-128072857D01*
X133038571Y-128358571D01*
X132967142Y-128501428D01*
X132824285Y-128644285D01*
X132538571Y-128715714D01*
X132038571Y-128715714D01*
X131752857Y-128644285D01*
X131610000Y-128501428D01*
X131538571Y-128358571D01*
X132252857Y-126572857D02*
X132252857Y-127072857D01*
X133038571Y-127072857D02*
X131538571Y-127072857D01*
X131538571Y-126358571D01*
X132252857Y-125287142D02*
X132252857Y-125787142D01*
X133038571Y-125787142D02*
X131538571Y-125787142D01*
X131538571Y-125072857D01*
D11*
X154959999Y-58430000D02*
G75*
G02*
X152659999Y-58430000I-1150000J0D01*
G01*
X152659999Y-58430000D02*
G75*
G02*
X154959999Y-58430000I1150000J0D01*
G01*
X102660000Y-58430000D02*
G75*
G02*
X104960000Y-58430000I1150000J0D01*
G01*
X104960000Y-58430000D02*
G75*
G02*
X102660000Y-58430000I-1150000J0D01*
G01*
X106310000Y-78630000D02*
G75*
G02*
X106310000Y-76230000I0J1200000D01*
G01*
X106310000Y-76230000D02*
G75*
G02*
X106310000Y-78630000I0J-1200000D01*
G01*
X151309999Y-78630000D02*
G75*
G02*
X151309999Y-76230000I0J1200000D01*
G01*
X151309999Y-76230000D02*
G75*
G02*
X151309999Y-78630000I0J-1200000D01*
G01*
X128809999Y-122630000D02*
X128809999Y-122630000D01*
X128809999Y-122630000D02*
G75*
G02*
X128809999Y-120230000I0J1200000D01*
G01*
X128809999Y-120230000D02*
G75*
G02*
X128809999Y-122630000I0J-1200000D01*
G01*
X167509999Y-59930000D02*
X167509999Y-75130000D01*
X159559999Y-59930000D02*
X167509999Y-59930000D01*
X159559999Y-59930000D02*
G75*
G02*
X158059999Y-58430000I547J1500547D01*
G01*
X153809997Y-54180000D02*
G75*
G02*
X158059999Y-58430000I-1549J-4251551D01*
G01*
X149559998Y-58433101D02*
G75*
G02*
X153809999Y-54180000I4251551J1550D01*
G01*
X149559998Y-58429999D02*
G75*
G02*
X148059999Y-59930000I-1500547J546D01*
G01*
X145009999Y-59930000D02*
X148059999Y-59930000D01*
X145009999Y-71130000D02*
X145009999Y-59930000D01*
X145009999Y-71130000D02*
G75*
G02*
X140009999Y-71130000I-2500000J0D01*
G01*
X140009999Y-59930000D02*
X140009999Y-71130000D01*
X134809999Y-59930000D02*
X140009999Y-59930000D01*
X134809999Y-64430000D02*
X134809999Y-59930000D01*
X134809998Y-64430000D02*
G75*
G02*
X132309999Y-66930000I-2509490J9490D01*
G01*
X125309999Y-66930000D02*
X132309999Y-66930000D01*
X125309999Y-66930001D02*
G75*
G02*
X122809999Y-64430000I9491J2509491D01*
G01*
X122809999Y-59930000D02*
X122809999Y-64430000D01*
X117610000Y-59930000D02*
X122809999Y-59930000D01*
X117610000Y-71130000D02*
X117610000Y-59930000D01*
X117610001Y-71130000D02*
G75*
G02*
X112609999Y-71130000I-2500001J0D01*
G01*
X112609999Y-59930000D02*
X112609999Y-71130000D01*
X109560000Y-59930000D02*
X112609999Y-59930000D01*
X109560000Y-59930000D02*
G75*
G02*
X108060000Y-58430000I547J1500547D01*
G01*
X103809998Y-54180000D02*
G75*
G02*
X108060000Y-58430000I-1549J-4251551D01*
G01*
X99559999Y-58430001D02*
G75*
G02*
X103810000Y-54180000I4251551J-1550D01*
G01*
X99559999Y-58429999D02*
G75*
G02*
X98060000Y-59930000I-1500547J546D01*
G01*
X95110000Y-134630000D02*
X95110000Y-75120000D01*
X96433000Y-135130000D02*
G75*
G02*
X95110000Y-134630000I-1315J1996850D01*
G01*
X161387000Y-135130001D02*
X96433000Y-135130000D01*
X162710000Y-134630000D02*
G75*
G02*
X161387000Y-135130001I-1321686J1496849D01*
G01*
X162710000Y-75130000D02*
X162710000Y-134630000D01*
X167509999Y-75130000D02*
X162710000Y-75130000D01*
X90110000Y-59930000D02*
X98060000Y-59930000D01*
X90110000Y-75130000D02*
X90110000Y-59930000D01*
X95110000Y-75120000D02*
X90110000Y-75130000D01*
D12*
%TO.C,BRD102*%
X109287000Y-107301000D02*
X124527000Y-107301000D01*
X109287001Y-94601000D02*
X109287000Y-107301000D01*
X124527000Y-94601000D02*
X109287001Y-94601000D01*
X124527000Y-107301000D02*
X124527000Y-94601000D01*
X121987000Y-107301000D02*
X121987000Y-104761000D01*
X121987000Y-104761000D02*
X124527000Y-104761000D01*
D13*
%TO.C,G\u002A\u002A\u002A*%
G36*
X144327921Y-89073764D02*
G01*
X144566658Y-89195102D01*
X144750638Y-89379082D01*
X144866954Y-89610772D01*
X144902695Y-89875239D01*
X144888644Y-90003160D01*
X144830486Y-90154096D01*
X144722426Y-90322038D01*
X144589881Y-90475221D01*
X144458265Y-90581879D01*
X144406110Y-90606234D01*
X144374037Y-90621634D01*
X144350007Y-90653311D01*
X144332867Y-90714214D01*
X144321459Y-90817291D01*
X144314629Y-90975492D01*
X144311222Y-91201765D01*
X144310081Y-91509060D01*
X144310000Y-91683369D01*
X144310000Y-92730000D01*
X108934411Y-92730000D01*
X108867578Y-92880984D01*
X108730637Y-93075231D01*
X108528890Y-93219219D01*
X108288517Y-93304184D01*
X108035696Y-93321363D01*
X107796606Y-93261991D01*
X107768981Y-93248747D01*
X107629367Y-93151847D01*
X107493800Y-93019098D01*
X107468981Y-92988442D01*
X107389608Y-92865619D01*
X107348969Y-92738329D01*
X107335486Y-92564799D01*
X107335000Y-92505000D01*
X107343131Y-92312146D01*
X107375287Y-92176653D01*
X107443109Y-92056649D01*
X107469677Y-92020644D01*
X107663251Y-91837585D01*
X107894352Y-91728012D01*
X108142703Y-91690355D01*
X108388029Y-91723039D01*
X108610052Y-91824495D01*
X108788497Y-91993149D01*
X108867578Y-92129015D01*
X108934411Y-92280000D01*
X143860000Y-92280000D01*
X143859864Y-91467500D01*
X143859729Y-90655000D01*
X143673913Y-90555000D01*
X143464947Y-90394563D01*
X143330991Y-90191601D01*
X143267805Y-89963427D01*
X143269362Y-89853501D01*
X143510000Y-89853501D01*
X143538574Y-90067043D01*
X143635327Y-90224768D01*
X143775691Y-90332488D01*
X144001723Y-90419142D01*
X144231014Y-90405872D01*
X144361636Y-90354153D01*
X144528594Y-90220715D01*
X144623386Y-90046005D01*
X144650879Y-89850921D01*
X144615939Y-89656366D01*
X144523431Y-89483237D01*
X144378220Y-89352436D01*
X144185173Y-89284862D01*
X144111563Y-89280000D01*
X143858291Y-89318668D01*
X143669447Y-89430710D01*
X143551271Y-89610175D01*
X143510003Y-89851116D01*
X143510000Y-89853501D01*
X143269362Y-89853501D01*
X143271149Y-89727356D01*
X143336784Y-89500703D01*
X143460469Y-89300781D01*
X143637966Y-89144905D01*
X143865034Y-89050388D01*
X144047337Y-89030000D01*
X144327921Y-89073764D01*
G37*
X144327921Y-89073764D02*
X144566658Y-89195102D01*
X144750638Y-89379082D01*
X144866954Y-89610772D01*
X144902695Y-89875239D01*
X144888644Y-90003160D01*
X144830486Y-90154096D01*
X144722426Y-90322038D01*
X144589881Y-90475221D01*
X144458265Y-90581879D01*
X144406110Y-90606234D01*
X144374037Y-90621634D01*
X144350007Y-90653311D01*
X144332867Y-90714214D01*
X144321459Y-90817291D01*
X144314629Y-90975492D01*
X144311222Y-91201765D01*
X144310081Y-91509060D01*
X144310000Y-91683369D01*
X144310000Y-92730000D01*
X108934411Y-92730000D01*
X108867578Y-92880984D01*
X108730637Y-93075231D01*
X108528890Y-93219219D01*
X108288517Y-93304184D01*
X108035696Y-93321363D01*
X107796606Y-93261991D01*
X107768981Y-93248747D01*
X107629367Y-93151847D01*
X107493800Y-93019098D01*
X107468981Y-92988442D01*
X107389608Y-92865619D01*
X107348969Y-92738329D01*
X107335486Y-92564799D01*
X107335000Y-92505000D01*
X107343131Y-92312146D01*
X107375287Y-92176653D01*
X107443109Y-92056649D01*
X107469677Y-92020644D01*
X107663251Y-91837585D01*
X107894352Y-91728012D01*
X108142703Y-91690355D01*
X108388029Y-91723039D01*
X108610052Y-91824495D01*
X108788497Y-91993149D01*
X108867578Y-92129015D01*
X108934411Y-92280000D01*
X143860000Y-92280000D01*
X143859864Y-91467500D01*
X143859729Y-90655000D01*
X143673913Y-90555000D01*
X143464947Y-90394563D01*
X143330991Y-90191601D01*
X143267805Y-89963427D01*
X143269362Y-89853501D01*
X143510000Y-89853501D01*
X143538574Y-90067043D01*
X143635327Y-90224768D01*
X143775691Y-90332488D01*
X144001723Y-90419142D01*
X144231014Y-90405872D01*
X144361636Y-90354153D01*
X144528594Y-90220715D01*
X144623386Y-90046005D01*
X144650879Y-89850921D01*
X144615939Y-89656366D01*
X144523431Y-89483237D01*
X144378220Y-89352436D01*
X144185173Y-89284862D01*
X144111563Y-89280000D01*
X143858291Y-89318668D01*
X143669447Y-89430710D01*
X143551271Y-89610175D01*
X143510003Y-89851116D01*
X143510000Y-89853501D01*
X143269362Y-89853501D01*
X143271149Y-89727356D01*
X143336784Y-89500703D01*
X143460469Y-89300781D01*
X143637966Y-89144905D01*
X143865034Y-89050388D01*
X144047337Y-89030000D01*
X144327921Y-89073764D01*
G36*
X111207077Y-87633122D02*
G01*
X111477111Y-87641812D01*
X111696333Y-87655053D01*
X111845837Y-87671828D01*
X111894245Y-87683180D01*
X112106193Y-87803087D01*
X112249288Y-87968552D01*
X112309094Y-88162001D01*
X112310000Y-88189354D01*
X112310000Y-88380000D01*
X112088477Y-88380000D01*
X111947983Y-88372937D01*
X111878668Y-88342898D01*
X111852179Y-88276602D01*
X111850977Y-88268751D01*
X111820585Y-88182039D01*
X111749657Y-88118285D01*
X111625819Y-88074388D01*
X111436693Y-88047248D01*
X111169903Y-88033765D01*
X110900754Y-88030737D01*
X110638090Y-88033952D01*
X110401952Y-88043274D01*
X110215239Y-88057349D01*
X110100848Y-88074824D01*
X110088254Y-88078762D01*
X109960000Y-88127524D01*
X109960000Y-89568762D01*
X109961284Y-90025878D01*
X109965327Y-90390196D01*
X109972417Y-90668888D01*
X109982839Y-90869126D01*
X109996881Y-90998081D01*
X110014828Y-91062925D01*
X110020000Y-91070000D01*
X110087799Y-91095677D01*
X110236116Y-91113933D01*
X110470906Y-91125178D01*
X110798121Y-91129822D01*
X110891428Y-91130000D01*
X111205298Y-91128466D01*
X111434056Y-91122992D01*
X111592558Y-91112266D01*
X111695658Y-91094975D01*
X111758211Y-91069810D01*
X111781428Y-91051428D01*
X111819040Y-90990549D01*
X111843072Y-90886113D01*
X111855921Y-90719822D01*
X111859982Y-90473378D01*
X111860000Y-90451428D01*
X111860000Y-89930000D01*
X111010000Y-89930000D01*
X111010000Y-89530000D01*
X112310000Y-89530000D01*
X112310000Y-91160383D01*
X112132338Y-91332691D01*
X111954677Y-91505000D01*
X110944838Y-91519321D01*
X109935000Y-91533642D01*
X109747010Y-91398486D01*
X109580918Y-91233611D01*
X109506338Y-91084165D01*
X109489844Y-90972207D01*
X109477571Y-90766938D01*
X109469670Y-90474962D01*
X109466293Y-90102887D01*
X109467592Y-89657318D01*
X109469328Y-89471447D01*
X109485000Y-88037895D01*
X109610000Y-87902503D01*
X109706130Y-87809316D01*
X109809174Y-87739844D01*
X109935172Y-87690711D01*
X110100166Y-87658544D01*
X110320198Y-87639967D01*
X110611310Y-87631604D01*
X110905139Y-87629999D01*
X111207077Y-87633122D01*
G37*
X111207077Y-87633122D02*
X111477111Y-87641812D01*
X111696333Y-87655053D01*
X111845837Y-87671828D01*
X111894245Y-87683180D01*
X112106193Y-87803087D01*
X112249288Y-87968552D01*
X112309094Y-88162001D01*
X112310000Y-88189354D01*
X112310000Y-88380000D01*
X112088477Y-88380000D01*
X111947983Y-88372937D01*
X111878668Y-88342898D01*
X111852179Y-88276602D01*
X111850977Y-88268751D01*
X111820585Y-88182039D01*
X111749657Y-88118285D01*
X111625819Y-88074388D01*
X111436693Y-88047248D01*
X111169903Y-88033765D01*
X110900754Y-88030737D01*
X110638090Y-88033952D01*
X110401952Y-88043274D01*
X110215239Y-88057349D01*
X110100848Y-88074824D01*
X110088254Y-88078762D01*
X109960000Y-88127524D01*
X109960000Y-89568762D01*
X109961284Y-90025878D01*
X109965327Y-90390196D01*
X109972417Y-90668888D01*
X109982839Y-90869126D01*
X109996881Y-90998081D01*
X110014828Y-91062925D01*
X110020000Y-91070000D01*
X110087799Y-91095677D01*
X110236116Y-91113933D01*
X110470906Y-91125178D01*
X110798121Y-91129822D01*
X110891428Y-91130000D01*
X111205298Y-91128466D01*
X111434056Y-91122992D01*
X111592558Y-91112266D01*
X111695658Y-91094975D01*
X111758211Y-91069810D01*
X111781428Y-91051428D01*
X111819040Y-90990549D01*
X111843072Y-90886113D01*
X111855921Y-90719822D01*
X111859982Y-90473378D01*
X111860000Y-90451428D01*
X111860000Y-89930000D01*
X111010000Y-89930000D01*
X111010000Y-89530000D01*
X112310000Y-89530000D01*
X112310000Y-91160383D01*
X112132338Y-91332691D01*
X111954677Y-91505000D01*
X110944838Y-91519321D01*
X109935000Y-91533642D01*
X109747010Y-91398486D01*
X109580918Y-91233611D01*
X109506338Y-91084165D01*
X109489844Y-90972207D01*
X109477571Y-90766938D01*
X109469670Y-90474962D01*
X109466293Y-90102887D01*
X109467592Y-89657318D01*
X109469328Y-89471447D01*
X109485000Y-88037895D01*
X109610000Y-87902503D01*
X109706130Y-87809316D01*
X109809174Y-87739844D01*
X109935172Y-87690711D01*
X110100166Y-87658544D01*
X110320198Y-87639967D01*
X110611310Y-87631604D01*
X110905139Y-87629999D01*
X111207077Y-87633122D01*
G36*
X113761174Y-91530000D02*
G01*
X113258825Y-91530000D01*
X113271912Y-89592500D01*
X113285000Y-87655000D01*
X113735000Y-87655000D01*
X113761174Y-91530000D01*
G37*
X113761174Y-91530000D02*
X113258825Y-91530000D01*
X113271912Y-89592500D01*
X113285000Y-87655000D01*
X113735000Y-87655000D01*
X113761174Y-91530000D01*
G36*
X116478189Y-87651563D02*
G01*
X116535331Y-87689921D01*
X116551648Y-87715191D01*
X116581238Y-87786737D01*
X116638014Y-87938188D01*
X116717602Y-88156998D01*
X116815627Y-88430619D01*
X116927715Y-88746503D01*
X117049492Y-89092102D01*
X117176584Y-89454868D01*
X117304616Y-89822255D01*
X117429215Y-90181714D01*
X117546006Y-90520698D01*
X117650614Y-90826659D01*
X117738667Y-91087049D01*
X117805789Y-91289321D01*
X117847606Y-91420926D01*
X117860000Y-91468276D01*
X117812752Y-91511015D01*
X117677271Y-91529459D01*
X117640590Y-91530000D01*
X117421180Y-91530000D01*
X117281563Y-91128929D01*
X117141946Y-90727859D01*
X116219280Y-90741429D01*
X115296614Y-90755000D01*
X115035000Y-91505000D01*
X114793205Y-91520414D01*
X114649568Y-91525427D01*
X114583683Y-91511202D01*
X114573982Y-91470127D01*
X114580695Y-91445414D01*
X114603061Y-91379307D01*
X114654320Y-91229448D01*
X114730765Y-91006622D01*
X114828691Y-90721614D01*
X114944391Y-90385209D01*
X114979365Y-90283599D01*
X115460000Y-90283599D01*
X115507504Y-90300305D01*
X115640080Y-90314102D01*
X115842816Y-90324095D01*
X116100805Y-90329389D01*
X116232799Y-90330000D01*
X117005599Y-90330000D01*
X116620299Y-89207708D01*
X116511288Y-88895256D01*
X116411610Y-88619166D01*
X116326061Y-88391951D01*
X116259439Y-88226124D01*
X116216540Y-88134200D01*
X116203436Y-88120208D01*
X116178697Y-88175828D01*
X116128182Y-88309638D01*
X116057635Y-88504926D01*
X115972799Y-88744978D01*
X115879418Y-89013080D01*
X115783235Y-89292522D01*
X115689994Y-89566588D01*
X115605437Y-89818568D01*
X115535307Y-90031746D01*
X115485349Y-90189411D01*
X115461306Y-90274850D01*
X115460000Y-90283599D01*
X114979365Y-90283599D01*
X115074159Y-90008194D01*
X115214289Y-89601353D01*
X115247490Y-89505000D01*
X115885000Y-87655000D01*
X116194505Y-87640191D01*
X116373123Y-87636780D01*
X116478189Y-87651563D01*
G37*
X116478189Y-87651563D02*
X116535331Y-87689921D01*
X116551648Y-87715191D01*
X116581238Y-87786737D01*
X116638014Y-87938188D01*
X116717602Y-88156998D01*
X116815627Y-88430619D01*
X116927715Y-88746503D01*
X117049492Y-89092102D01*
X117176584Y-89454868D01*
X117304616Y-89822255D01*
X117429215Y-90181714D01*
X117546006Y-90520698D01*
X117650614Y-90826659D01*
X117738667Y-91087049D01*
X117805789Y-91289321D01*
X117847606Y-91420926D01*
X117860000Y-91468276D01*
X117812752Y-91511015D01*
X117677271Y-91529459D01*
X117640590Y-91530000D01*
X117421180Y-91530000D01*
X117281563Y-91128929D01*
X117141946Y-90727859D01*
X116219280Y-90741429D01*
X115296614Y-90755000D01*
X115035000Y-91505000D01*
X114793205Y-91520414D01*
X114649568Y-91525427D01*
X114583683Y-91511202D01*
X114573982Y-91470127D01*
X114580695Y-91445414D01*
X114603061Y-91379307D01*
X114654320Y-91229448D01*
X114730765Y-91006622D01*
X114828691Y-90721614D01*
X114944391Y-90385209D01*
X114979365Y-90283599D01*
X115460000Y-90283599D01*
X115507504Y-90300305D01*
X115640080Y-90314102D01*
X115842816Y-90324095D01*
X116100805Y-90329389D01*
X116232799Y-90330000D01*
X117005599Y-90330000D01*
X116620299Y-89207708D01*
X116511288Y-88895256D01*
X116411610Y-88619166D01*
X116326061Y-88391951D01*
X116259439Y-88226124D01*
X116216540Y-88134200D01*
X116203436Y-88120208D01*
X116178697Y-88175828D01*
X116128182Y-88309638D01*
X116057635Y-88504926D01*
X115972799Y-88744978D01*
X115879418Y-89013080D01*
X115783235Y-89292522D01*
X115689994Y-89566588D01*
X115605437Y-89818568D01*
X115535307Y-90031746D01*
X115485349Y-90189411D01*
X115461306Y-90274850D01*
X115460000Y-90283599D01*
X114979365Y-90283599D01*
X115074159Y-90008194D01*
X115214289Y-89601353D01*
X115247490Y-89505000D01*
X115885000Y-87655000D01*
X116194505Y-87640191D01*
X116373123Y-87636780D01*
X116478189Y-87651563D01*
G36*
X122660000Y-87630000D02*
G01*
X122660000Y-91530000D01*
X122211312Y-91530000D01*
X122198156Y-89818430D01*
X122185000Y-88106861D01*
X121532426Y-89805930D01*
X120879852Y-91505000D01*
X120499122Y-91505000D01*
X120298420Y-91005000D01*
X120223047Y-90814562D01*
X120120174Y-90550799D01*
X119997611Y-90233945D01*
X119863168Y-89884231D01*
X119724656Y-89521891D01*
X119641359Y-89302927D01*
X119185000Y-88100854D01*
X119185000Y-91505000D01*
X118946910Y-91520263D01*
X118708820Y-91535527D01*
X118721910Y-89595263D01*
X118735000Y-87655000D01*
X119473127Y-87655000D01*
X120066498Y-89205000D01*
X120208935Y-89577231D01*
X120339966Y-89919962D01*
X120455297Y-90221932D01*
X120550631Y-90471884D01*
X120621673Y-90658557D01*
X120664127Y-90770691D01*
X120674453Y-90798554D01*
X120695039Y-90764049D01*
X120746979Y-90646356D01*
X120826112Y-90455766D01*
X120928277Y-90202574D01*
X121049314Y-89897070D01*
X121185060Y-89549549D01*
X121306118Y-89236054D01*
X121923200Y-87629999D01*
X122291600Y-87629999D01*
X122660000Y-87630000D01*
G37*
X122660000Y-87630000D02*
X122660000Y-91530000D01*
X122211312Y-91530000D01*
X122198156Y-89818430D01*
X122185000Y-88106861D01*
X121532426Y-89805930D01*
X120879852Y-91505000D01*
X120499122Y-91505000D01*
X120298420Y-91005000D01*
X120223047Y-90814562D01*
X120120174Y-90550799D01*
X119997611Y-90233945D01*
X119863168Y-89884231D01*
X119724656Y-89521891D01*
X119641359Y-89302927D01*
X119185000Y-88100854D01*
X119185000Y-91505000D01*
X118946910Y-91520263D01*
X118708820Y-91535527D01*
X118721910Y-89595263D01*
X118735000Y-87655000D01*
X119473127Y-87655000D01*
X120066498Y-89205000D01*
X120208935Y-89577231D01*
X120339966Y-89919962D01*
X120455297Y-90221932D01*
X120550631Y-90471884D01*
X120621673Y-90658557D01*
X120664127Y-90770691D01*
X120674453Y-90798554D01*
X120695039Y-90764049D01*
X120746979Y-90646356D01*
X120826112Y-90455766D01*
X120928277Y-90202574D01*
X121049314Y-89897070D01*
X121185060Y-89549549D01*
X121306118Y-89236054D01*
X121923200Y-87629999D01*
X122291600Y-87629999D01*
X122660000Y-87630000D01*
G36*
X124141363Y-87640396D02*
G01*
X124522726Y-87655000D01*
X125116079Y-89205000D01*
X125258519Y-89577233D01*
X125389565Y-89919966D01*
X125504921Y-90221938D01*
X125600289Y-90471890D01*
X125671373Y-90658562D01*
X125713874Y-90770695D01*
X125724234Y-90798554D01*
X125744872Y-90764049D01*
X125796859Y-90646354D01*
X125876034Y-90455763D01*
X125978234Y-90202568D01*
X126099297Y-89897062D01*
X126235060Y-89549538D01*
X126356118Y-89236054D01*
X126973200Y-87629999D01*
X127341600Y-87629999D01*
X127710000Y-87630000D01*
X127710000Y-91530000D01*
X127261312Y-91530000D01*
X127248156Y-89818430D01*
X127235000Y-88106861D01*
X126582426Y-89805930D01*
X125929852Y-91505000D01*
X125549297Y-91505000D01*
X125298177Y-90880000D01*
X125202727Y-90639208D01*
X125082150Y-90330100D01*
X124946241Y-89978064D01*
X124804790Y-89608490D01*
X124667593Y-89246766D01*
X124641029Y-89176278D01*
X124235000Y-88097557D01*
X124235000Y-91505000D01*
X123997500Y-91520239D01*
X123760000Y-91535479D01*
X123760000Y-87625793D01*
X124141363Y-87640396D01*
G37*
X124141363Y-87640396D02*
X124522726Y-87655000D01*
X125116079Y-89205000D01*
X125258519Y-89577233D01*
X125389565Y-89919966D01*
X125504921Y-90221938D01*
X125600289Y-90471890D01*
X125671373Y-90658562D01*
X125713874Y-90770695D01*
X125724234Y-90798554D01*
X125744872Y-90764049D01*
X125796859Y-90646354D01*
X125876034Y-90455763D01*
X125978234Y-90202568D01*
X126099297Y-89897062D01*
X126235060Y-89549538D01*
X126356118Y-89236054D01*
X126973200Y-87629999D01*
X127341600Y-87629999D01*
X127710000Y-87630000D01*
X127710000Y-91530000D01*
X127261312Y-91530000D01*
X127248156Y-89818430D01*
X127235000Y-88106861D01*
X126582426Y-89805930D01*
X125929852Y-91505000D01*
X125549297Y-91505000D01*
X125298177Y-90880000D01*
X125202727Y-90639208D01*
X125082150Y-90330100D01*
X124946241Y-89978064D01*
X124804790Y-89608490D01*
X124667593Y-89246766D01*
X124641029Y-89176278D01*
X124235000Y-88097557D01*
X124235000Y-91505000D01*
X123997500Y-91520239D01*
X123760000Y-91535479D01*
X123760000Y-87625793D01*
X124141363Y-87640396D01*
G36*
X130195534Y-87640339D02*
G01*
X130520197Y-87655000D01*
X131157974Y-89480000D01*
X131301253Y-89890274D01*
X131435173Y-90274295D01*
X131555901Y-90621026D01*
X131659603Y-90919433D01*
X131742445Y-91158481D01*
X131800592Y-91327135D01*
X131830211Y-91414361D01*
X131832170Y-91420414D01*
X131847550Y-91489298D01*
X131821485Y-91520866D01*
X131731975Y-91526015D01*
X131630254Y-91520414D01*
X131391919Y-91505000D01*
X131256537Y-91130000D01*
X131121156Y-90755000D01*
X130202596Y-90741440D01*
X129284037Y-90727881D01*
X129141536Y-91128940D01*
X128999036Y-91530000D01*
X128779518Y-91530000D01*
X128647235Y-91520680D01*
X128569047Y-91497163D01*
X128560000Y-91484163D01*
X128575648Y-91429820D01*
X128620028Y-91292273D01*
X128689294Y-91082861D01*
X128779598Y-90812925D01*
X128887094Y-90493803D01*
X128942544Y-90330000D01*
X129417516Y-90330000D01*
X130188758Y-90330000D01*
X130453668Y-90328124D01*
X130679314Y-90322950D01*
X130848652Y-90315155D01*
X130944639Y-90305417D01*
X130960000Y-90299330D01*
X130944306Y-90232383D01*
X130900922Y-90092823D01*
X130835397Y-89896062D01*
X130753278Y-89657510D01*
X130660112Y-89392577D01*
X130561448Y-89116674D01*
X130462832Y-88845212D01*
X130369813Y-88593601D01*
X130287937Y-88377251D01*
X130222754Y-88211573D01*
X130179809Y-88111978D01*
X130164941Y-88090773D01*
X130143569Y-88154984D01*
X130095302Y-88299723D01*
X130024919Y-88510666D01*
X129937200Y-88773490D01*
X129836925Y-89073870D01*
X129780624Y-89242500D01*
X129417516Y-90330000D01*
X128942544Y-90330000D01*
X129007935Y-90136836D01*
X129138275Y-89753363D01*
X129274267Y-89354724D01*
X129412063Y-88952259D01*
X129547818Y-88557308D01*
X129677685Y-88181211D01*
X129796063Y-87840339D01*
X129870872Y-87625678D01*
X130195534Y-87640339D01*
G37*
X130195534Y-87640339D02*
X130520197Y-87655000D01*
X131157974Y-89480000D01*
X131301253Y-89890274D01*
X131435173Y-90274295D01*
X131555901Y-90621026D01*
X131659603Y-90919433D01*
X131742445Y-91158481D01*
X131800592Y-91327135D01*
X131830211Y-91414361D01*
X131832170Y-91420414D01*
X131847550Y-91489298D01*
X131821485Y-91520866D01*
X131731975Y-91526015D01*
X131630254Y-91520414D01*
X131391919Y-91505000D01*
X131256537Y-91130000D01*
X131121156Y-90755000D01*
X130202596Y-90741440D01*
X129284037Y-90727881D01*
X129141536Y-91128940D01*
X128999036Y-91530000D01*
X128779518Y-91530000D01*
X128647235Y-91520680D01*
X128569047Y-91497163D01*
X128560000Y-91484163D01*
X128575648Y-91429820D01*
X128620028Y-91292273D01*
X128689294Y-91082861D01*
X128779598Y-90812925D01*
X128887094Y-90493803D01*
X128942544Y-90330000D01*
X129417516Y-90330000D01*
X130188758Y-90330000D01*
X130453668Y-90328124D01*
X130679314Y-90322950D01*
X130848652Y-90315155D01*
X130944639Y-90305417D01*
X130960000Y-90299330D01*
X130944306Y-90232383D01*
X130900922Y-90092823D01*
X130835397Y-89896062D01*
X130753278Y-89657510D01*
X130660112Y-89392577D01*
X130561448Y-89116674D01*
X130462832Y-88845212D01*
X130369813Y-88593601D01*
X130287937Y-88377251D01*
X130222754Y-88211573D01*
X130179809Y-88111978D01*
X130164941Y-88090773D01*
X130143569Y-88154984D01*
X130095302Y-88299723D01*
X130024919Y-88510666D01*
X129937200Y-88773490D01*
X129836925Y-89073870D01*
X129780624Y-89242500D01*
X129417516Y-90330000D01*
X128942544Y-90330000D01*
X129007935Y-90136836D01*
X129138275Y-89753363D01*
X129274267Y-89354724D01*
X129412063Y-88952259D01*
X129547818Y-88557308D01*
X129677685Y-88181211D01*
X129796063Y-87840339D01*
X129870872Y-87625678D01*
X130195534Y-87640339D01*
G36*
X134229615Y-87637352D02*
G01*
X134471166Y-87640560D01*
X134650190Y-87646568D01*
X134746054Y-87654828D01*
X134881325Y-87707474D01*
X135031240Y-87805428D01*
X135083554Y-87850398D01*
X135260000Y-88016807D01*
X135260000Y-89229372D01*
X135062108Y-89372724D01*
X134864217Y-89516076D01*
X135087108Y-89676145D01*
X135310000Y-89836213D01*
X135309234Y-90495606D01*
X135306055Y-90746254D01*
X135297905Y-90963077D01*
X135285954Y-91125234D01*
X135271375Y-91211882D01*
X135268645Y-91217723D01*
X135204934Y-91285844D01*
X135095333Y-91378218D01*
X135059697Y-91405223D01*
X135002062Y-91446009D01*
X134945065Y-91476771D01*
X134874419Y-91498922D01*
X134775834Y-91513877D01*
X134635026Y-91523048D01*
X134437706Y-91527849D01*
X134169587Y-91529695D01*
X133816382Y-91529999D01*
X133798716Y-91530000D01*
X133418277Y-91528564D01*
X133128265Y-91523902D01*
X132919147Y-91515477D01*
X132781387Y-91502754D01*
X132705450Y-91485197D01*
X132682809Y-91467322D01*
X132677718Y-91404639D01*
X132673683Y-91253384D01*
X132670769Y-91024981D01*
X132669041Y-90730854D01*
X132668562Y-90382426D01*
X132669399Y-89991121D01*
X132670505Y-89780000D01*
X133160000Y-89780000D01*
X133160000Y-91130000D01*
X133949999Y-91130000D01*
X134296550Y-91126736D01*
X134549004Y-91116676D01*
X134713061Y-91099419D01*
X134794422Y-91074562D01*
X134799999Y-91070000D01*
X134831676Y-90984167D01*
X134851862Y-90805343D01*
X134859885Y-90539951D01*
X134860000Y-90498404D01*
X134859032Y-90267532D01*
X134852705Y-90114912D01*
X134835883Y-90018797D01*
X134803433Y-89957440D01*
X134750217Y-89909094D01*
X134714781Y-89883404D01*
X134647230Y-89841889D01*
X134568701Y-89813149D01*
X134460334Y-89794892D01*
X134303269Y-89784822D01*
X134078647Y-89780646D01*
X133864781Y-89780000D01*
X133160000Y-89780000D01*
X132670505Y-89780000D01*
X132671614Y-89568361D01*
X132671879Y-89529822D01*
X132672927Y-89380000D01*
X133160000Y-89380000D01*
X133794406Y-89380000D01*
X134062817Y-89378457D01*
X134252284Y-89371860D01*
X134383840Y-89357257D01*
X134478518Y-89331692D01*
X134557353Y-89292215D01*
X134595679Y-89267500D01*
X134694652Y-89191536D01*
X134758254Y-89108874D01*
X134792928Y-88997061D01*
X134805116Y-88833646D01*
X134801263Y-88596177D01*
X134799825Y-88556136D01*
X134790093Y-88372664D01*
X134767446Y-88237893D01*
X134718238Y-88144292D01*
X134628820Y-88084333D01*
X134485544Y-88050485D01*
X134274761Y-88035219D01*
X133982826Y-88031006D01*
X133847500Y-88030737D01*
X133160000Y-88030000D01*
X133160000Y-89380000D01*
X132672927Y-89380000D01*
X132685000Y-87655000D01*
X133635000Y-87640333D01*
X133944553Y-87637194D01*
X134229615Y-87637352D01*
G37*
X134229615Y-87637352D02*
X134471166Y-87640560D01*
X134650190Y-87646568D01*
X134746054Y-87654828D01*
X134881325Y-87707474D01*
X135031240Y-87805428D01*
X135083554Y-87850398D01*
X135260000Y-88016807D01*
X135260000Y-89229372D01*
X135062108Y-89372724D01*
X134864217Y-89516076D01*
X135087108Y-89676145D01*
X135310000Y-89836213D01*
X135309234Y-90495606D01*
X135306055Y-90746254D01*
X135297905Y-90963077D01*
X135285954Y-91125234D01*
X135271375Y-91211882D01*
X135268645Y-91217723D01*
X135204934Y-91285844D01*
X135095333Y-91378218D01*
X135059697Y-91405223D01*
X135002062Y-91446009D01*
X134945065Y-91476771D01*
X134874419Y-91498922D01*
X134775834Y-91513877D01*
X134635026Y-91523048D01*
X134437706Y-91527849D01*
X134169587Y-91529695D01*
X133816382Y-91529999D01*
X133798716Y-91530000D01*
X133418277Y-91528564D01*
X133128265Y-91523902D01*
X132919147Y-91515477D01*
X132781387Y-91502754D01*
X132705450Y-91485197D01*
X132682809Y-91467322D01*
X132677718Y-91404639D01*
X132673683Y-91253384D01*
X132670769Y-91024981D01*
X132669041Y-90730854D01*
X132668562Y-90382426D01*
X132669399Y-89991121D01*
X132670505Y-89780000D01*
X133160000Y-89780000D01*
X133160000Y-91130000D01*
X133949999Y-91130000D01*
X134296550Y-91126736D01*
X134549004Y-91116676D01*
X134713061Y-91099419D01*
X134794422Y-91074562D01*
X134799999Y-91070000D01*
X134831676Y-90984167D01*
X134851862Y-90805343D01*
X134859885Y-90539951D01*
X134860000Y-90498404D01*
X134859032Y-90267532D01*
X134852705Y-90114912D01*
X134835883Y-90018797D01*
X134803433Y-89957440D01*
X134750217Y-89909094D01*
X134714781Y-89883404D01*
X134647230Y-89841889D01*
X134568701Y-89813149D01*
X134460334Y-89794892D01*
X134303269Y-89784822D01*
X134078647Y-89780646D01*
X133864781Y-89780000D01*
X133160000Y-89780000D01*
X132670505Y-89780000D01*
X132671614Y-89568361D01*
X132671879Y-89529822D01*
X132672927Y-89380000D01*
X133160000Y-89380000D01*
X133794406Y-89380000D01*
X134062817Y-89378457D01*
X134252284Y-89371860D01*
X134383840Y-89357257D01*
X134478518Y-89331692D01*
X134557353Y-89292215D01*
X134595679Y-89267500D01*
X134694652Y-89191536D01*
X134758254Y-89108874D01*
X134792928Y-88997061D01*
X134805116Y-88833646D01*
X134801263Y-88596177D01*
X134799825Y-88556136D01*
X134790093Y-88372664D01*
X134767446Y-88237893D01*
X134718238Y-88144292D01*
X134628820Y-88084333D01*
X134485544Y-88050485D01*
X134274761Y-88035219D01*
X133982826Y-88031006D01*
X133847500Y-88030737D01*
X133160000Y-88030000D01*
X133160000Y-89380000D01*
X132672927Y-89380000D01*
X132685000Y-87655000D01*
X133635000Y-87640333D01*
X133944553Y-87637194D01*
X134229615Y-87637352D01*
G36*
X138204723Y-87631713D02*
G01*
X138494324Y-87638557D01*
X138713927Y-87653088D01*
X138878514Y-87677862D01*
X139003070Y-87715436D01*
X139102579Y-87768365D01*
X139192025Y-87839207D01*
X139222500Y-87867535D01*
X139360000Y-87998709D01*
X139360000Y-91160383D01*
X139182324Y-91332691D01*
X139004649Y-91505000D01*
X137869824Y-91519245D01*
X136735000Y-91533490D01*
X136544907Y-91403180D01*
X136417222Y-91295808D01*
X136324841Y-91182729D01*
X136307407Y-91148180D01*
X136295297Y-91067487D01*
X136284329Y-90900589D01*
X136274914Y-90661278D01*
X136267462Y-90363346D01*
X136262384Y-90020584D01*
X136260090Y-89646785D01*
X136260000Y-89555581D01*
X136260000Y-88127524D01*
X136760000Y-88127524D01*
X136760000Y-89568762D01*
X136761284Y-90025878D01*
X136765327Y-90390196D01*
X136772417Y-90668888D01*
X136782839Y-90869126D01*
X136796881Y-90998081D01*
X136814828Y-91062925D01*
X136820000Y-91070000D01*
X136881951Y-91093720D01*
X137018366Y-91111147D01*
X137236098Y-91122695D01*
X137542000Y-91128775D01*
X137816428Y-91130000D01*
X138154600Y-91128795D01*
X138406574Y-91124470D01*
X138586130Y-91115958D01*
X138707049Y-91102193D01*
X138783112Y-91082106D01*
X138828098Y-91054633D01*
X138831428Y-91051428D01*
X138854964Y-91016412D01*
X138873384Y-90956498D01*
X138887287Y-90860513D01*
X138897270Y-90717281D01*
X138903931Y-90515627D01*
X138907868Y-90244376D01*
X138909677Y-89892353D01*
X138910000Y-89582550D01*
X138909449Y-89168449D01*
X138907374Y-88843078D01*
X138903136Y-88595175D01*
X138896099Y-88413474D01*
X138885626Y-88286711D01*
X138871078Y-88203622D01*
X138851819Y-88152941D01*
X138827474Y-88123622D01*
X138747973Y-88097891D01*
X138588772Y-88075750D01*
X138370124Y-88057701D01*
X138112281Y-88044248D01*
X137835495Y-88035892D01*
X137560019Y-88033137D01*
X137306106Y-88036487D01*
X137094008Y-88046443D01*
X136943978Y-88063508D01*
X136896381Y-88075672D01*
X136760000Y-88127524D01*
X136260000Y-88127524D01*
X136260000Y-88087672D01*
X136395165Y-87927037D01*
X136482848Y-87831921D01*
X136574833Y-87759431D01*
X136685734Y-87706543D01*
X136830166Y-87670231D01*
X137022742Y-87647470D01*
X137278078Y-87635236D01*
X137610787Y-87630502D01*
X137830139Y-87629999D01*
X138204723Y-87631713D01*
G37*
X138204723Y-87631713D02*
X138494324Y-87638557D01*
X138713927Y-87653088D01*
X138878514Y-87677862D01*
X139003070Y-87715436D01*
X139102579Y-87768365D01*
X139192025Y-87839207D01*
X139222500Y-87867535D01*
X139360000Y-87998709D01*
X139360000Y-91160383D01*
X139182324Y-91332691D01*
X139004649Y-91505000D01*
X137869824Y-91519245D01*
X136735000Y-91533490D01*
X136544907Y-91403180D01*
X136417222Y-91295808D01*
X136324841Y-91182729D01*
X136307407Y-91148180D01*
X136295297Y-91067487D01*
X136284329Y-90900589D01*
X136274914Y-90661278D01*
X136267462Y-90363346D01*
X136262384Y-90020584D01*
X136260090Y-89646785D01*
X136260000Y-89555581D01*
X136260000Y-88127524D01*
X136760000Y-88127524D01*
X136760000Y-89568762D01*
X136761284Y-90025878D01*
X136765327Y-90390196D01*
X136772417Y-90668888D01*
X136782839Y-90869126D01*
X136796881Y-90998081D01*
X136814828Y-91062925D01*
X136820000Y-91070000D01*
X136881951Y-91093720D01*
X137018366Y-91111147D01*
X137236098Y-91122695D01*
X137542000Y-91128775D01*
X137816428Y-91130000D01*
X138154600Y-91128795D01*
X138406574Y-91124470D01*
X138586130Y-91115958D01*
X138707049Y-91102193D01*
X138783112Y-91082106D01*
X138828098Y-91054633D01*
X138831428Y-91051428D01*
X138854964Y-91016412D01*
X138873384Y-90956498D01*
X138887287Y-90860513D01*
X138897270Y-90717281D01*
X138903931Y-90515627D01*
X138907868Y-90244376D01*
X138909677Y-89892353D01*
X138910000Y-89582550D01*
X138909449Y-89168449D01*
X138907374Y-88843078D01*
X138903136Y-88595175D01*
X138896099Y-88413474D01*
X138885626Y-88286711D01*
X138871078Y-88203622D01*
X138851819Y-88152941D01*
X138827474Y-88123622D01*
X138747973Y-88097891D01*
X138588772Y-88075750D01*
X138370124Y-88057701D01*
X138112281Y-88044248D01*
X137835495Y-88035892D01*
X137560019Y-88033137D01*
X137306106Y-88036487D01*
X137094008Y-88046443D01*
X136943978Y-88063508D01*
X136896381Y-88075672D01*
X136760000Y-88127524D01*
X136260000Y-88127524D01*
X136260000Y-88087672D01*
X136395165Y-87927037D01*
X136482848Y-87831921D01*
X136574833Y-87759431D01*
X136685734Y-87706543D01*
X136830166Y-87670231D01*
X137022742Y-87647470D01*
X137278078Y-87635236D01*
X137610787Y-87630502D01*
X137830139Y-87629999D01*
X138204723Y-87631713D01*
G36*
X142800425Y-87840937D02*
G01*
X142815850Y-88026875D01*
X142200425Y-88040937D01*
X141585000Y-88055000D01*
X141558704Y-91530000D01*
X141111295Y-91530000D01*
X141098147Y-89792500D01*
X141085000Y-88055000D01*
X140469574Y-88040937D01*
X139854149Y-88026875D01*
X139869574Y-87840937D01*
X139885000Y-87655000D01*
X142785000Y-87655000D01*
X142800425Y-87840937D01*
G37*
X142800425Y-87840937D02*
X142815850Y-88026875D01*
X142200425Y-88040937D01*
X141585000Y-88055000D01*
X141558704Y-91530000D01*
X141111295Y-91530000D01*
X141098147Y-89792500D01*
X141085000Y-88055000D01*
X140469574Y-88040937D01*
X139854149Y-88026875D01*
X139869574Y-87840937D01*
X139885000Y-87655000D01*
X142785000Y-87655000D01*
X142800425Y-87840937D01*
G36*
X144418298Y-85861833D02*
G01*
X144637266Y-85999665D01*
X144750322Y-86120644D01*
X144830044Y-86243748D01*
X144870885Y-86370780D01*
X144884487Y-86543610D01*
X144885000Y-86605000D01*
X144876868Y-86797853D01*
X144844712Y-86933346D01*
X144776890Y-87053350D01*
X144750322Y-87089355D01*
X144556748Y-87272414D01*
X144325647Y-87381987D01*
X144077296Y-87419644D01*
X143831970Y-87386960D01*
X143609947Y-87285504D01*
X143431502Y-87116850D01*
X143352421Y-86980984D01*
X143285588Y-86830000D01*
X108360000Y-86830000D01*
X108360000Y-88467867D01*
X108511012Y-88530419D01*
X108716923Y-88666279D01*
X108872470Y-88868217D01*
X108964959Y-89109677D01*
X108981700Y-89364105D01*
X108961757Y-89473472D01*
X108845776Y-89733079D01*
X108663550Y-89931522D01*
X108432088Y-90058213D01*
X108168399Y-90102560D01*
X107985000Y-90081585D01*
X107714972Y-89976462D01*
X107514241Y-89799403D01*
X107381381Y-89549025D01*
X107358242Y-89473472D01*
X107337451Y-89219456D01*
X107399394Y-88967802D01*
X107531435Y-88744673D01*
X107720939Y-88576229D01*
X107814903Y-88527968D01*
X107971831Y-88462967D01*
X107953415Y-87433983D01*
X107935000Y-86405000D01*
X143285650Y-86379860D01*
X143352451Y-86228945D01*
X143494162Y-86019924D01*
X143691880Y-85877130D01*
X143925328Y-85802137D01*
X144174226Y-85796514D01*
X144418298Y-85861833D01*
G37*
X144418298Y-85861833D02*
X144637266Y-85999665D01*
X144750322Y-86120644D01*
X144830044Y-86243748D01*
X144870885Y-86370780D01*
X144884487Y-86543610D01*
X144885000Y-86605000D01*
X144876868Y-86797853D01*
X144844712Y-86933346D01*
X144776890Y-87053350D01*
X144750322Y-87089355D01*
X144556748Y-87272414D01*
X144325647Y-87381987D01*
X144077296Y-87419644D01*
X143831970Y-87386960D01*
X143609947Y-87285504D01*
X143431502Y-87116850D01*
X143352421Y-86980984D01*
X143285588Y-86830000D01*
X108360000Y-86830000D01*
X108360000Y-88467867D01*
X108511012Y-88530419D01*
X108716923Y-88666279D01*
X108872470Y-88868217D01*
X108964959Y-89109677D01*
X108981700Y-89364105D01*
X108961757Y-89473472D01*
X108845776Y-89733079D01*
X108663550Y-89931522D01*
X108432088Y-90058213D01*
X108168399Y-90102560D01*
X107985000Y-90081585D01*
X107714972Y-89976462D01*
X107514241Y-89799403D01*
X107381381Y-89549025D01*
X107358242Y-89473472D01*
X107337451Y-89219456D01*
X107399394Y-88967802D01*
X107531435Y-88744673D01*
X107720939Y-88576229D01*
X107814903Y-88527968D01*
X107971831Y-88462967D01*
X107953415Y-87433983D01*
X107935000Y-86405000D01*
X143285650Y-86379860D01*
X143352451Y-86228945D01*
X143494162Y-86019924D01*
X143691880Y-85877130D01*
X143925328Y-85802137D01*
X144174226Y-85796514D01*
X144418298Y-85861833D01*
D14*
%TO.C,DL108*%
X149911000Y-87400000D02*
X147911000Y-87400000D01*
X147911000Y-85800000D02*
X149911000Y-85800000D01*
X148611000Y-86600000D02*
X149211000Y-86200000D01*
X149211000Y-87000000D02*
X148611000Y-86600000D01*
%TO.C,DL109*%
X149211000Y-91318000D02*
X148611000Y-90918000D01*
X148611000Y-90918000D02*
X149211000Y-90518000D01*
X147911000Y-90118000D02*
X149911000Y-90118000D01*
X149911000Y-91718000D02*
X147911000Y-91718000D01*
%TO.C,R109*%
X147911000Y-88059000D02*
X149911000Y-88059000D01*
X149911000Y-89459000D02*
X147911000Y-89459000D01*
%TO.C,R110*%
X149911000Y-93777000D02*
X147911000Y-93777000D01*
X147911000Y-92377000D02*
X149911000Y-92377000D01*
D12*
%TO.C,U101*%
X122598000Y-116362000D02*
X122598000Y-115582000D01*
X122598000Y-115582000D02*
X119828000Y-115582000D01*
X104358000Y-116362000D02*
X104358000Y-115582000D01*
X104358000Y-115582000D02*
X107128000Y-115582000D01*
X122598000Y-141327000D02*
X104358000Y-141327000D01*
X104358000Y-141327000D02*
X104358000Y-134907000D01*
X122598000Y-141327000D02*
X122598000Y-134907000D01*
X122598000Y-134907000D02*
X122978000Y-134907000D01*
%TO.C,BRD101*%
X118558000Y-72376000D02*
X118558000Y-85076000D01*
X138878000Y-72376001D02*
X118558000Y-72376000D01*
X138878000Y-85076001D02*
X138878000Y-72376000D01*
X118558000Y-85076000D02*
X138878000Y-85076001D01*
X118558000Y-82536000D02*
X121098000Y-82536000D01*
X121098000Y-82536000D02*
X121098000Y-85076000D01*
D14*
%TO.C,P101*%
X156625000Y-117915000D02*
X156625000Y-66715000D01*
X156625000Y-66715000D02*
X162025000Y-66715000D01*
X162025000Y-66715000D02*
X162025000Y-117915000D01*
X162025000Y-117915000D02*
X156625000Y-117915000D01*
%TO.C,P102*%
X101065000Y-117915000D02*
X95665000Y-117915000D01*
X101065000Y-66715000D02*
X101065000Y-117915000D01*
X95665000Y-66715000D02*
X101065000Y-66715000D01*
X95665000Y-117915000D02*
X95665000Y-66715000D01*
%TO.C,P105*%
X139458000Y-136388000D02*
X148458000Y-136388000D01*
X148458000Y-125488000D02*
X147258000Y-125488000D01*
X140658000Y-125488000D02*
X139458000Y-125488000D01*
X148458000Y-125488000D02*
X148458000Y-126088000D01*
X139458000Y-125488000D02*
X139458000Y-126088000D01*
X139458000Y-136388000D02*
X139458000Y-132688000D01*
X139458000Y-127888000D02*
X139458000Y-130888000D01*
X148458000Y-130888000D02*
X148458000Y-127988000D01*
X148458000Y-132688000D02*
X148458000Y-136388000D01*
%TO.C,P103*%
X117772000Y-81826000D02*
X117772000Y-75626000D01*
X112232000Y-81826000D02*
X117772000Y-81826000D01*
X112232000Y-75626000D02*
X112232000Y-81826000D01*
X117772000Y-75626000D02*
X112232000Y-75626000D01*
X112232000Y-74226000D02*
X112232000Y-75626000D01*
X117772000Y-74226000D02*
X112232000Y-74226000D01*
X117772000Y-75626000D02*
X117772000Y-74226000D01*
%TO.C,P104*%
X145712000Y-81826000D02*
X145712000Y-75626000D01*
X140172000Y-81826000D02*
X145712000Y-81826000D01*
X140172000Y-75626000D02*
X140172000Y-81826000D01*
X145712000Y-75626000D02*
X140172000Y-75626000D01*
X140172000Y-74226000D02*
X140172000Y-75626000D01*
X145712000Y-74226000D02*
X140172000Y-74226000D01*
X145712000Y-75626000D02*
X145712000Y-74226000D01*
%TO.C,C101*%
X139209000Y-105458000D02*
X141209000Y-105458000D01*
X141209000Y-106858000D02*
X139209000Y-106858000D01*
%TO.C,C102*%
X138227000Y-116129000D02*
X136227000Y-116129000D01*
X136227000Y-114729000D02*
X138227000Y-114729000D01*
%TO.C,C103*%
X142764000Y-123314000D02*
X139564000Y-123314000D01*
X139564000Y-121514000D02*
X142764000Y-121514000D01*
%TO.C,C104*%
X139275000Y-103299000D02*
X141275000Y-103299000D01*
X141275000Y-104699000D02*
X139275000Y-104699000D01*
%TO.C,DL101*%
X145952000Y-112426000D02*
X145952000Y-110426000D01*
X147552000Y-110426000D02*
X147552000Y-112426000D01*
X146752000Y-111126000D02*
X147152000Y-111726000D01*
X146352000Y-111726000D02*
X146752000Y-111126000D01*
%TO.C,DL102*%
X144066000Y-111726000D02*
X144466000Y-111126000D01*
X144466000Y-111126000D02*
X144866000Y-111726000D01*
X145266000Y-110426000D02*
X145266000Y-112426000D01*
X143666000Y-112426000D02*
X143666000Y-110426000D01*
%TO.C,R101*%
X146052000Y-115794000D02*
X146052000Y-113794000D01*
X147452000Y-113794000D02*
X147452000Y-115794000D01*
%TO.C,R102*%
X145166000Y-113860000D02*
X145166000Y-115860000D01*
X143766000Y-115860000D02*
X143766000Y-113860000D01*
%TO.C,R103*%
X150800000Y-118161000D02*
X148800000Y-118161000D01*
X148800000Y-116761000D02*
X150800000Y-116761000D01*
%TO.C,U102*%
X134127000Y-112930000D02*
X134127000Y-113730000D01*
X134427000Y-113330000D02*
X134127000Y-112930000D01*
X134127000Y-113730000D02*
X134427000Y-113330000D01*
X134627000Y-112630000D02*
X134627000Y-108830000D01*
X139827000Y-112630000D02*
X139827000Y-108830000D01*
X134627000Y-108830000D02*
X134727000Y-108830000D01*
X134627000Y-112630000D02*
X134727000Y-112630000D01*
X139827000Y-112630000D02*
X139727000Y-112630000D01*
X139827000Y-108830000D02*
X139727000Y-108830000D01*
%TO.C,U103*%
X152289000Y-115659000D02*
X152089000Y-115659000D01*
X152289000Y-112659000D02*
X152289000Y-115659000D01*
X152089000Y-112659000D02*
X152289000Y-112659000D01*
X149089000Y-112659000D02*
X149289000Y-112659000D01*
X149089000Y-115659000D02*
X149089000Y-112659000D01*
X149289000Y-115659000D02*
X149089000Y-115659000D01*
X151289000Y-111559000D02*
X151689000Y-111959000D01*
X152089000Y-111559000D02*
X151289000Y-111559000D01*
X151689000Y-111959000D02*
X152089000Y-111559000D01*
%TO.C,C105*%
X152543000Y-111122000D02*
X149343000Y-111122000D01*
X149343000Y-109322000D02*
X152543000Y-109322000D01*
%TO.C,DL103*%
X107935000Y-104672000D02*
X105935000Y-104672000D01*
X105935000Y-103072000D02*
X107935000Y-103072000D01*
X106635000Y-103872000D02*
X107235000Y-103472000D01*
X107235000Y-104272000D02*
X106635000Y-103872000D01*
%TO.C,Q101*%
X150373000Y-103769000D02*
X150373000Y-104769000D01*
X150373000Y-103769000D02*
X148973000Y-103769000D01*
X148973000Y-104769000D02*
X148973000Y-105769000D01*
X150373000Y-106769000D02*
X148973000Y-106769000D01*
X150373000Y-105769000D02*
X150373000Y-106769000D01*
X148973000Y-103769000D02*
X148973000Y-103869000D01*
X148973000Y-106769000D02*
X148973000Y-106669000D01*
X150373000Y-105769000D02*
X150373000Y-106769000D01*
%TO.C,R104*%
X148673000Y-101775000D02*
X150673000Y-101775000D01*
X150673000Y-103175000D02*
X148673000Y-103175000D01*
%TO.C,R105*%
X107874000Y-106731000D02*
X105874000Y-106731000D01*
X105874000Y-105331000D02*
X107874000Y-105331000D01*
D12*
%TO.C,SW101*%
X134179000Y-136255000D02*
X134179000Y-134455000D01*
X133979000Y-136455000D02*
X134179000Y-136255000D01*
X132779000Y-136455000D02*
X133979000Y-136455000D01*
X132579000Y-136255000D02*
X132779000Y-136455000D01*
X132579000Y-134455000D02*
X132579000Y-136255000D01*
X129779000Y-134455000D02*
X129779000Y-131455000D01*
X130629000Y-134455000D02*
X129779000Y-134455000D01*
X136879000Y-134455000D02*
X131479000Y-134455000D01*
X138579000Y-134455000D02*
X137729000Y-134455000D01*
X138579000Y-131455000D02*
X138579000Y-134455000D01*
X129779000Y-131455000D02*
X138579000Y-131455000D01*
D14*
%TO.C,C106*%
X128783000Y-124904000D02*
X128783000Y-126904000D01*
X127383000Y-126904000D02*
X127383000Y-124904000D01*
%TO.C,C107*%
X125808000Y-130720000D02*
X125808000Y-133920000D01*
X124008000Y-133920000D02*
X124008000Y-130720000D01*
%TO.C,C108*%
X126494000Y-133828000D02*
X126494000Y-131828000D01*
X127894000Y-131828000D02*
X127894000Y-133828000D01*
%TO.C,C109*%
X105493000Y-108125000D02*
X107493000Y-108125000D01*
X107493000Y-109525000D02*
X105493000Y-109525000D01*
%TO.C,C110*%
X119371000Y-69444000D02*
X122571000Y-69444000D01*
X122571000Y-71244000D02*
X119371000Y-71244000D01*
%TO.C,C111*%
X122545000Y-68758000D02*
X120545000Y-68758000D01*
X120545000Y-67358000D02*
X122545000Y-67358000D01*
D12*
%TO.C,DL104*%
X160144000Y-61912000D02*
X160494000Y-61912000D01*
X159244000Y-61912000D02*
X159544000Y-61912000D01*
X158294000Y-61912000D02*
X158644000Y-61912000D01*
X160494000Y-61412000D02*
X158344000Y-61412000D01*
X158294000Y-61412000D02*
G75*
G02*
X160494000Y-61412000I1100000J0D01*
G01*
%TO.C,DL105*%
X158352000Y-133459000D02*
X160502000Y-133459000D01*
X160552000Y-132959000D02*
X160202000Y-132959000D01*
X159602000Y-132959000D02*
X159302000Y-132959000D01*
X158702000Y-132959000D02*
X158352000Y-132959000D01*
X160552000Y-133459000D02*
G75*
G02*
X158352000Y-133459000I-1100000J0D01*
G01*
%TO.C,DL106*%
X97615000Y-132705000D02*
X97265000Y-132705000D01*
X98515000Y-132705000D02*
X98215000Y-132705000D01*
X99465000Y-132705000D02*
X99115000Y-132705000D01*
X97265000Y-133205000D02*
X99415000Y-133205000D01*
X99465000Y-133205000D02*
G75*
G02*
X97265000Y-133205000I-1100000J0D01*
G01*
%TO.C,DL107*%
X99465000Y-61458000D02*
X97315000Y-61458000D01*
X97265000Y-61958000D02*
X97615000Y-61958000D01*
X98215000Y-61958000D02*
X98515000Y-61958000D01*
X99115000Y-61958000D02*
X99465000Y-61958000D01*
X97265000Y-61458000D02*
G75*
G02*
X99465000Y-61458000I1100000J0D01*
G01*
D14*
%TO.C,P107*%
X124019000Y-127113000D02*
X126559000Y-127113000D01*
X124019000Y-129653000D02*
X124019000Y-124573000D01*
X124019000Y-124573000D02*
X126559000Y-124573000D01*
X126559000Y-124573000D02*
X126559000Y-129653000D01*
X126559000Y-129653000D02*
X124019000Y-129653000D01*
%TO.C,P108*%
X103826000Y-112762000D02*
X103826000Y-110222000D01*
X108906000Y-112762000D02*
X103826000Y-112762000D01*
X108906000Y-110222000D02*
X108906000Y-112762000D01*
X103826000Y-110222000D02*
X108906000Y-110222000D01*
X106366000Y-110222000D02*
X106366000Y-112762000D01*
%TO.C,P109*%
X95825000Y-127113000D02*
X98365000Y-127113000D01*
X95825000Y-129653000D02*
X95825000Y-122033000D01*
X95825000Y-122033000D02*
X98365000Y-122033000D01*
X98365000Y-122033000D02*
X98365000Y-129653000D01*
X98365000Y-129653000D02*
X95825000Y-129653000D01*
%TO.C,R106*%
X128783000Y-128206000D02*
X128783000Y-130206000D01*
X127383000Y-130206000D02*
X127383000Y-128206000D01*
%TO.C,R107*%
X155834000Y-77091000D02*
X155834000Y-79091000D01*
X154434000Y-79091000D02*
X154434000Y-77091000D01*
%TO.C,R108*%
X154434000Y-75789000D02*
X154434000Y-73789000D01*
X155834000Y-73789000D02*
X155834000Y-75789000D01*
%TO.C,P106*%
X149697000Y-133388000D02*
X149697000Y-134788000D01*
X149697000Y-134788000D02*
X155237000Y-134788000D01*
X155237000Y-134788000D02*
X155237000Y-133388000D01*
X149697000Y-133388000D02*
X155237000Y-133388000D01*
X155237000Y-133388000D02*
X155237000Y-127188000D01*
X155237000Y-127188000D02*
X149697000Y-127188000D01*
X149697000Y-127188000D02*
X149697000Y-133388000D01*
%TO.C,R111*%
X153692000Y-100378000D02*
X155692000Y-100378000D01*
X155692000Y-101778000D02*
X153692000Y-101778000D01*
%TO.C,R112*%
X155753000Y-99492000D02*
X153753000Y-99492000D01*
X153753000Y-98092000D02*
X155753000Y-98092000D01*
%TO.C,R113*%
X153753000Y-95933000D02*
X155753000Y-95933000D01*
X155753000Y-97333000D02*
X153753000Y-97333000D01*
%TO.C,R114*%
X101856000Y-69246000D02*
X101856000Y-67246000D01*
X103256000Y-67246000D02*
X103256000Y-69246000D01*
%TO.C,R115*%
X105415000Y-67185000D02*
X105415000Y-69185000D01*
X104015000Y-69185000D02*
X104015000Y-67185000D01*
%TO.C,R116*%
X106174000Y-69251000D02*
X106174000Y-67251000D01*
X107574000Y-67251000D02*
X107574000Y-69251000D01*
%TO.C,D101*%
X146210000Y-122830000D02*
X146210000Y-122030000D01*
X146260000Y-122430000D02*
X146710000Y-122030000D01*
X146710000Y-122830000D02*
X146260000Y-122430000D01*
X145460000Y-121730000D02*
X147460000Y-121730000D01*
X147460000Y-123130000D02*
X145460000Y-123130000D01*
%TO.C,D102*%
X145110000Y-107230000D02*
X144710000Y-107230000D01*
X144710000Y-107230000D02*
X144710000Y-102630000D01*
X144710000Y-102630000D02*
X145110000Y-102630000D01*
X145110000Y-106530000D02*
X144710000Y-106530000D01*
X147510000Y-106530000D02*
X147110000Y-106530000D01*
X147510000Y-102630000D02*
X147110000Y-102630000D01*
X147510000Y-102630000D02*
X147510000Y-107230000D01*
X147510000Y-107230000D02*
X147110000Y-107230000D01*
X146710000Y-104530000D02*
X146110000Y-105330000D01*
X146110000Y-105330000D02*
X145510000Y-104530000D01*
X146710000Y-104530000D02*
X145510000Y-104530000D01*
X146110000Y-104130000D02*
X146110000Y-104530000D01*
X146110000Y-105730000D02*
X146110000Y-105330000D01*
X145510000Y-105330000D02*
X146710000Y-105330000D01*
%TO.C,J101*%
X104160000Y-86630000D02*
X102160000Y-86630000D01*
X102160000Y-85230000D02*
X104160000Y-85230000D01*
%TO.C,J102*%
X104160000Y-84480000D02*
X102160000Y-84480000D01*
X102160000Y-83080000D02*
X104160000Y-83080000D01*
%TO.C,J103*%
X102160000Y-80980000D02*
X104160000Y-80980000D01*
X104160000Y-82380000D02*
X102160000Y-82380000D01*
%TD*%
%TO.C,BRD102*%
X114894285Y-93781857D02*
X115008571Y-93819952D01*
X115046666Y-93858047D01*
X115084761Y-93934238D01*
X115084761Y-94048523D01*
X115046666Y-94124714D01*
X115008571Y-94162809D01*
X114932380Y-94200904D01*
X114627619Y-94200904D01*
X114627619Y-93400904D01*
X114894285Y-93400904D01*
X114970476Y-93439000D01*
X115008571Y-93477095D01*
X115046666Y-93553285D01*
X115046666Y-93629476D01*
X115008571Y-93705666D01*
X114970476Y-93743761D01*
X114894285Y-93781857D01*
X114627619Y-93781857D01*
X115884761Y-94200904D02*
X115618095Y-93819952D01*
X115427619Y-94200904D02*
X115427619Y-93400904D01*
X115732380Y-93400904D01*
X115808571Y-93439000D01*
X115846666Y-93477095D01*
X115884761Y-93553285D01*
X115884761Y-93667571D01*
X115846666Y-93743761D01*
X115808571Y-93781857D01*
X115732380Y-93819952D01*
X115427619Y-93819952D01*
X116227619Y-94200904D02*
X116227619Y-93400904D01*
X116418095Y-93400904D01*
X116532380Y-93439000D01*
X116608571Y-93515190D01*
X116646666Y-93591380D01*
X116684761Y-93743761D01*
X116684761Y-93858047D01*
X116646666Y-94010428D01*
X116608571Y-94086619D01*
X116532380Y-94162809D01*
X116418095Y-94200904D01*
X116227619Y-94200904D01*
X117446666Y-94200904D02*
X116989523Y-94200904D01*
X117218095Y-94200904D02*
X117218095Y-93400904D01*
X117141904Y-93515190D01*
X117065714Y-93591380D01*
X116989523Y-93629476D01*
X117941904Y-93400904D02*
X118018095Y-93400904D01*
X118094285Y-93439000D01*
X118132380Y-93477095D01*
X118170476Y-93553285D01*
X118208571Y-93705666D01*
X118208571Y-93896142D01*
X118170476Y-94048523D01*
X118132380Y-94124714D01*
X118094285Y-94162809D01*
X118018095Y-94200904D01*
X117941904Y-94200904D01*
X117865714Y-94162809D01*
X117827619Y-94124714D01*
X117789523Y-94048523D01*
X117751428Y-93896142D01*
X117751428Y-93705666D01*
X117789523Y-93553285D01*
X117827619Y-93477095D01*
X117865714Y-93439000D01*
X117941904Y-93400904D01*
X118513333Y-93477095D02*
X118551428Y-93439000D01*
X118627619Y-93400904D01*
X118818095Y-93400904D01*
X118894285Y-93439000D01*
X118932380Y-93477095D01*
X118970476Y-93553285D01*
X118970476Y-93629476D01*
X118932380Y-93743761D01*
X118475238Y-94200904D01*
X118970476Y-94200904D01*
%TO.C,DL108*%
X150663809Y-87088904D02*
X150663809Y-86288904D01*
X150854285Y-86288904D01*
X150968571Y-86327000D01*
X151044761Y-86403190D01*
X151082857Y-86479380D01*
X151120952Y-86631761D01*
X151120952Y-86746047D01*
X151082857Y-86898428D01*
X151044761Y-86974619D01*
X150968571Y-87050809D01*
X150854285Y-87088904D01*
X150663809Y-87088904D01*
X151844761Y-87088904D02*
X151463809Y-87088904D01*
X151463809Y-86288904D01*
X152530476Y-87088904D02*
X152073333Y-87088904D01*
X152301904Y-87088904D02*
X152301904Y-86288904D01*
X152225714Y-86403190D01*
X152149523Y-86479380D01*
X152073333Y-86517476D01*
X153025714Y-86288904D02*
X153101904Y-86288904D01*
X153178095Y-86327000D01*
X153216190Y-86365095D01*
X153254285Y-86441285D01*
X153292380Y-86593666D01*
X153292380Y-86784142D01*
X153254285Y-86936523D01*
X153216190Y-87012714D01*
X153178095Y-87050809D01*
X153101904Y-87088904D01*
X153025714Y-87088904D01*
X152949523Y-87050809D01*
X152911428Y-87012714D01*
X152873333Y-86936523D01*
X152835238Y-86784142D01*
X152835238Y-86593666D01*
X152873333Y-86441285D01*
X152911428Y-86365095D01*
X152949523Y-86327000D01*
X153025714Y-86288904D01*
X153749523Y-86631761D02*
X153673333Y-86593666D01*
X153635238Y-86555571D01*
X153597142Y-86479380D01*
X153597142Y-86441285D01*
X153635238Y-86365095D01*
X153673333Y-86327000D01*
X153749523Y-86288904D01*
X153901904Y-86288904D01*
X153978095Y-86327000D01*
X154016190Y-86365095D01*
X154054285Y-86441285D01*
X154054285Y-86479380D01*
X154016190Y-86555571D01*
X153978095Y-86593666D01*
X153901904Y-86631761D01*
X153749523Y-86631761D01*
X153673333Y-86669857D01*
X153635238Y-86707952D01*
X153597142Y-86784142D01*
X153597142Y-86936523D01*
X153635238Y-87012714D01*
X153673333Y-87050809D01*
X153749523Y-87088904D01*
X153901904Y-87088904D01*
X153978095Y-87050809D01*
X154016190Y-87012714D01*
X154054285Y-86936523D01*
X154054285Y-86784142D01*
X154016190Y-86707952D01*
X153978095Y-86669857D01*
X153901904Y-86631761D01*
X146877666Y-86961904D02*
X146877666Y-86161904D01*
X146953857Y-86657142D02*
X147182428Y-86961904D01*
X147182428Y-86428571D02*
X146877666Y-86733333D01*
%TO.C,DL109*%
X150663809Y-91279904D02*
X150663809Y-90479904D01*
X150854285Y-90479904D01*
X150968571Y-90518000D01*
X151044761Y-90594190D01*
X151082857Y-90670380D01*
X151120952Y-90822761D01*
X151120952Y-90937047D01*
X151082857Y-91089428D01*
X151044761Y-91165619D01*
X150968571Y-91241809D01*
X150854285Y-91279904D01*
X150663809Y-91279904D01*
X151844761Y-91279904D02*
X151463809Y-91279904D01*
X151463809Y-90479904D01*
X152530476Y-91279904D02*
X152073333Y-91279904D01*
X152301904Y-91279904D02*
X152301904Y-90479904D01*
X152225714Y-90594190D01*
X152149523Y-90670380D01*
X152073333Y-90708476D01*
X153025714Y-90479904D02*
X153101904Y-90479904D01*
X153178095Y-90518000D01*
X153216190Y-90556095D01*
X153254285Y-90632285D01*
X153292380Y-90784666D01*
X153292380Y-90975142D01*
X153254285Y-91127523D01*
X153216190Y-91203714D01*
X153178095Y-91241809D01*
X153101904Y-91279904D01*
X153025714Y-91279904D01*
X152949523Y-91241809D01*
X152911428Y-91203714D01*
X152873333Y-91127523D01*
X152835238Y-90975142D01*
X152835238Y-90784666D01*
X152873333Y-90632285D01*
X152911428Y-90556095D01*
X152949523Y-90518000D01*
X153025714Y-90479904D01*
X153673333Y-91279904D02*
X153825714Y-91279904D01*
X153901904Y-91241809D01*
X153940000Y-91203714D01*
X154016190Y-91089428D01*
X154054285Y-90937047D01*
X154054285Y-90632285D01*
X154016190Y-90556095D01*
X153978095Y-90518000D01*
X153901904Y-90479904D01*
X153749523Y-90479904D01*
X153673333Y-90518000D01*
X153635238Y-90556095D01*
X153597142Y-90632285D01*
X153597142Y-90822761D01*
X153635238Y-90898952D01*
X153673333Y-90937047D01*
X153749523Y-90975142D01*
X153901904Y-90975142D01*
X153978095Y-90937047D01*
X154016190Y-90898952D01*
X154054285Y-90822761D01*
X146877666Y-91279904D02*
X146877666Y-90479904D01*
X146953857Y-90975142D02*
X147182428Y-91279904D01*
X147182428Y-90746571D02*
X146877666Y-91051333D01*
%TO.C,R109*%
X151190761Y-89120904D02*
X150924095Y-88739952D01*
X150733619Y-89120904D02*
X150733619Y-88320904D01*
X151038380Y-88320904D01*
X151114571Y-88359000D01*
X151152666Y-88397095D01*
X151190761Y-88473285D01*
X151190761Y-88587571D01*
X151152666Y-88663761D01*
X151114571Y-88701857D01*
X151038380Y-88739952D01*
X150733619Y-88739952D01*
X151952666Y-89120904D02*
X151495523Y-89120904D01*
X151724095Y-89120904D02*
X151724095Y-88320904D01*
X151647904Y-88435190D01*
X151571714Y-88511380D01*
X151495523Y-88549476D01*
X152447904Y-88320904D02*
X152524095Y-88320904D01*
X152600285Y-88359000D01*
X152638380Y-88397095D01*
X152676476Y-88473285D01*
X152714571Y-88625666D01*
X152714571Y-88816142D01*
X152676476Y-88968523D01*
X152638380Y-89044714D01*
X152600285Y-89082809D01*
X152524095Y-89120904D01*
X152447904Y-89120904D01*
X152371714Y-89082809D01*
X152333619Y-89044714D01*
X152295523Y-88968523D01*
X152257428Y-88816142D01*
X152257428Y-88625666D01*
X152295523Y-88473285D01*
X152333619Y-88397095D01*
X152371714Y-88359000D01*
X152447904Y-88320904D01*
X153095523Y-89120904D02*
X153247904Y-89120904D01*
X153324095Y-89082809D01*
X153362190Y-89044714D01*
X153438380Y-88930428D01*
X153476476Y-88778047D01*
X153476476Y-88473285D01*
X153438380Y-88397095D01*
X153400285Y-88359000D01*
X153324095Y-88320904D01*
X153171714Y-88320904D01*
X153095523Y-88359000D01*
X153057428Y-88397095D01*
X153019333Y-88473285D01*
X153019333Y-88663761D01*
X153057428Y-88739952D01*
X153095523Y-88778047D01*
X153171714Y-88816142D01*
X153324095Y-88816142D01*
X153400285Y-88778047D01*
X153438380Y-88739952D01*
X153476476Y-88663761D01*
%TO.C,R110*%
X151190761Y-93438904D02*
X150924095Y-93057952D01*
X150733619Y-93438904D02*
X150733619Y-92638904D01*
X151038380Y-92638904D01*
X151114571Y-92677000D01*
X151152666Y-92715095D01*
X151190761Y-92791285D01*
X151190761Y-92905571D01*
X151152666Y-92981761D01*
X151114571Y-93019857D01*
X151038380Y-93057952D01*
X150733619Y-93057952D01*
X151952666Y-93438904D02*
X151495523Y-93438904D01*
X151724095Y-93438904D02*
X151724095Y-92638904D01*
X151647904Y-92753190D01*
X151571714Y-92829380D01*
X151495523Y-92867476D01*
X152714571Y-93438904D02*
X152257428Y-93438904D01*
X152486000Y-93438904D02*
X152486000Y-92638904D01*
X152409809Y-92753190D01*
X152333619Y-92829380D01*
X152257428Y-92867476D01*
X153209809Y-92638904D02*
X153286000Y-92638904D01*
X153362190Y-92677000D01*
X153400285Y-92715095D01*
X153438380Y-92791285D01*
X153476476Y-92943666D01*
X153476476Y-93134142D01*
X153438380Y-93286523D01*
X153400285Y-93362714D01*
X153362190Y-93400809D01*
X153286000Y-93438904D01*
X153209809Y-93438904D01*
X153133619Y-93400809D01*
X153095523Y-93362714D01*
X153057428Y-93286523D01*
X153019333Y-93134142D01*
X153019333Y-92943666D01*
X153057428Y-92791285D01*
X153095523Y-92715095D01*
X153133619Y-92677000D01*
X153209809Y-92638904D01*
%TO.C,U101*%
X123540380Y-118746285D02*
X124349904Y-118746285D01*
X124445142Y-118698666D01*
X124492761Y-118651047D01*
X124540380Y-118555809D01*
X124540380Y-118365333D01*
X124492761Y-118270095D01*
X124445142Y-118222476D01*
X124349904Y-118174857D01*
X123540380Y-118174857D01*
X124540380Y-117174857D02*
X124540380Y-117746285D01*
X124540380Y-117460571D02*
X123540380Y-117460571D01*
X123683238Y-117555809D01*
X123778476Y-117651047D01*
X123826095Y-117746285D01*
X123540380Y-116555809D02*
X123540380Y-116460571D01*
X123588000Y-116365333D01*
X123635619Y-116317714D01*
X123730857Y-116270095D01*
X123921333Y-116222476D01*
X124159428Y-116222476D01*
X124349904Y-116270095D01*
X124445142Y-116317714D01*
X124492761Y-116365333D01*
X124540380Y-116460571D01*
X124540380Y-116555809D01*
X124492761Y-116651047D01*
X124445142Y-116698666D01*
X124349904Y-116746285D01*
X124159428Y-116793904D01*
X123921333Y-116793904D01*
X123730857Y-116746285D01*
X123635619Y-116698666D01*
X123588000Y-116651047D01*
X123540380Y-116555809D01*
X124540380Y-115270095D02*
X124540380Y-115841523D01*
X124540380Y-115555809D02*
X123540380Y-115555809D01*
X123683238Y-115651047D01*
X123778476Y-115746285D01*
X123826095Y-115841523D01*
%TO.C,BRD101*%
X134579285Y-71556857D02*
X134693571Y-71594952D01*
X134731666Y-71633047D01*
X134769761Y-71709238D01*
X134769761Y-71823523D01*
X134731666Y-71899714D01*
X134693571Y-71937809D01*
X134617380Y-71975904D01*
X134312619Y-71975904D01*
X134312619Y-71175904D01*
X134579285Y-71175904D01*
X134655476Y-71214000D01*
X134693571Y-71252095D01*
X134731666Y-71328285D01*
X134731666Y-71404476D01*
X134693571Y-71480666D01*
X134655476Y-71518761D01*
X134579285Y-71556857D01*
X134312619Y-71556857D01*
X135569761Y-71975904D02*
X135303095Y-71594952D01*
X135112619Y-71975904D02*
X135112619Y-71175904D01*
X135417380Y-71175904D01*
X135493571Y-71214000D01*
X135531666Y-71252095D01*
X135569761Y-71328285D01*
X135569761Y-71442571D01*
X135531666Y-71518761D01*
X135493571Y-71556857D01*
X135417380Y-71594952D01*
X135112619Y-71594952D01*
X135912619Y-71975904D02*
X135912619Y-71175904D01*
X136103095Y-71175904D01*
X136217380Y-71214000D01*
X136293571Y-71290190D01*
X136331666Y-71366380D01*
X136369761Y-71518761D01*
X136369761Y-71633047D01*
X136331666Y-71785428D01*
X136293571Y-71861619D01*
X136217380Y-71937809D01*
X136103095Y-71975904D01*
X135912619Y-71975904D01*
X137131666Y-71975904D02*
X136674523Y-71975904D01*
X136903095Y-71975904D02*
X136903095Y-71175904D01*
X136826904Y-71290190D01*
X136750714Y-71366380D01*
X136674523Y-71404476D01*
X137626904Y-71175904D02*
X137703095Y-71175904D01*
X137779285Y-71214000D01*
X137817380Y-71252095D01*
X137855476Y-71328285D01*
X137893571Y-71480666D01*
X137893571Y-71671142D01*
X137855476Y-71823523D01*
X137817380Y-71899714D01*
X137779285Y-71937809D01*
X137703095Y-71975904D01*
X137626904Y-71975904D01*
X137550714Y-71937809D01*
X137512619Y-71899714D01*
X137474523Y-71823523D01*
X137436428Y-71671142D01*
X137436428Y-71480666D01*
X137474523Y-71328285D01*
X137512619Y-71252095D01*
X137550714Y-71214000D01*
X137626904Y-71175904D01*
X138655476Y-71975904D02*
X138198333Y-71975904D01*
X138426904Y-71975904D02*
X138426904Y-71175904D01*
X138350714Y-71290190D01*
X138274523Y-71366380D01*
X138198333Y-71404476D01*
%TO.C,P101*%
X155886904Y-93667380D02*
X155086904Y-93667380D01*
X155086904Y-93362619D01*
X155125000Y-93286428D01*
X155163095Y-93248333D01*
X155239285Y-93210238D01*
X155353571Y-93210238D01*
X155429761Y-93248333D01*
X155467857Y-93286428D01*
X155505952Y-93362619D01*
X155505952Y-93667380D01*
X155886904Y-92448333D02*
X155886904Y-92905476D01*
X155886904Y-92676904D02*
X155086904Y-92676904D01*
X155201190Y-92753095D01*
X155277380Y-92829285D01*
X155315476Y-92905476D01*
X155086904Y-91953095D02*
X155086904Y-91876904D01*
X155125000Y-91800714D01*
X155163095Y-91762619D01*
X155239285Y-91724523D01*
X155391666Y-91686428D01*
X155582142Y-91686428D01*
X155734523Y-91724523D01*
X155810714Y-91762619D01*
X155848809Y-91800714D01*
X155886904Y-91876904D01*
X155886904Y-91953095D01*
X155848809Y-92029285D01*
X155810714Y-92067380D01*
X155734523Y-92105476D01*
X155582142Y-92143571D01*
X155391666Y-92143571D01*
X155239285Y-92105476D01*
X155163095Y-92067380D01*
X155125000Y-92029285D01*
X155086904Y-91953095D01*
X155886904Y-90924523D02*
X155886904Y-91381666D01*
X155886904Y-91153095D02*
X155086904Y-91153095D01*
X155201190Y-91229285D01*
X155277380Y-91305476D01*
X155315476Y-91381666D01*
%TO.C,P102*%
X102155904Y-93667380D02*
X101355904Y-93667380D01*
X101355904Y-93362619D01*
X101394000Y-93286428D01*
X101432095Y-93248333D01*
X101508285Y-93210238D01*
X101622571Y-93210238D01*
X101698761Y-93248333D01*
X101736857Y-93286428D01*
X101774952Y-93362619D01*
X101774952Y-93667380D01*
X102155904Y-92448333D02*
X102155904Y-92905476D01*
X102155904Y-92676904D02*
X101355904Y-92676904D01*
X101470190Y-92753095D01*
X101546380Y-92829285D01*
X101584476Y-92905476D01*
X101355904Y-91953095D02*
X101355904Y-91876904D01*
X101394000Y-91800714D01*
X101432095Y-91762619D01*
X101508285Y-91724523D01*
X101660666Y-91686428D01*
X101851142Y-91686428D01*
X102003523Y-91724523D01*
X102079714Y-91762619D01*
X102117809Y-91800714D01*
X102155904Y-91876904D01*
X102155904Y-91953095D01*
X102117809Y-92029285D01*
X102079714Y-92067380D01*
X102003523Y-92105476D01*
X101851142Y-92143571D01*
X101660666Y-92143571D01*
X101508285Y-92105476D01*
X101432095Y-92067380D01*
X101394000Y-92029285D01*
X101355904Y-91953095D01*
X101432095Y-91381666D02*
X101394000Y-91343571D01*
X101355904Y-91267380D01*
X101355904Y-91076904D01*
X101394000Y-91000714D01*
X101432095Y-90962619D01*
X101508285Y-90924523D01*
X101584476Y-90924523D01*
X101698761Y-90962619D01*
X102155904Y-91419761D01*
X102155904Y-90924523D01*
%TO.C,P105*%
X149721904Y-126632380D02*
X148921904Y-126632380D01*
X148921904Y-126327619D01*
X148960000Y-126251428D01*
X148998095Y-126213333D01*
X149074285Y-126175238D01*
X149188571Y-126175238D01*
X149264761Y-126213333D01*
X149302857Y-126251428D01*
X149340952Y-126327619D01*
X149340952Y-126632380D01*
X149721904Y-125413333D02*
X149721904Y-125870476D01*
X149721904Y-125641904D02*
X148921904Y-125641904D01*
X149036190Y-125718095D01*
X149112380Y-125794285D01*
X149150476Y-125870476D01*
X148921904Y-124918095D02*
X148921904Y-124841904D01*
X148960000Y-124765714D01*
X148998095Y-124727619D01*
X149074285Y-124689523D01*
X149226666Y-124651428D01*
X149417142Y-124651428D01*
X149569523Y-124689523D01*
X149645714Y-124727619D01*
X149683809Y-124765714D01*
X149721904Y-124841904D01*
X149721904Y-124918095D01*
X149683809Y-124994285D01*
X149645714Y-125032380D01*
X149569523Y-125070476D01*
X149417142Y-125108571D01*
X149226666Y-125108571D01*
X149074285Y-125070476D01*
X148998095Y-125032380D01*
X148960000Y-124994285D01*
X148921904Y-124918095D01*
X148921904Y-123927619D02*
X148921904Y-124308571D01*
X149302857Y-124346666D01*
X149264761Y-124308571D01*
X149226666Y-124232380D01*
X149226666Y-124041904D01*
X149264761Y-123965714D01*
X149302857Y-123927619D01*
X149379047Y-123889523D01*
X149569523Y-123889523D01*
X149645714Y-123927619D01*
X149683809Y-123965714D01*
X149721904Y-124041904D01*
X149721904Y-124232380D01*
X149683809Y-124308571D01*
X149645714Y-124346666D01*
%TO.C,P103*%
X113649619Y-82987904D02*
X113649619Y-82187904D01*
X113954380Y-82187904D01*
X114030571Y-82226000D01*
X114068666Y-82264095D01*
X114106761Y-82340285D01*
X114106761Y-82454571D01*
X114068666Y-82530761D01*
X114030571Y-82568857D01*
X113954380Y-82606952D01*
X113649619Y-82606952D01*
X114868666Y-82987904D02*
X114411523Y-82987904D01*
X114640095Y-82987904D02*
X114640095Y-82187904D01*
X114563904Y-82302190D01*
X114487714Y-82378380D01*
X114411523Y-82416476D01*
X115363904Y-82187904D02*
X115440095Y-82187904D01*
X115516285Y-82226000D01*
X115554380Y-82264095D01*
X115592476Y-82340285D01*
X115630571Y-82492666D01*
X115630571Y-82683142D01*
X115592476Y-82835523D01*
X115554380Y-82911714D01*
X115516285Y-82949809D01*
X115440095Y-82987904D01*
X115363904Y-82987904D01*
X115287714Y-82949809D01*
X115249619Y-82911714D01*
X115211523Y-82835523D01*
X115173428Y-82683142D01*
X115173428Y-82492666D01*
X115211523Y-82340285D01*
X115249619Y-82264095D01*
X115287714Y-82226000D01*
X115363904Y-82187904D01*
X115897238Y-82187904D02*
X116392476Y-82187904D01*
X116125809Y-82492666D01*
X116240095Y-82492666D01*
X116316285Y-82530761D01*
X116354380Y-82568857D01*
X116392476Y-82645047D01*
X116392476Y-82835523D01*
X116354380Y-82911714D01*
X116316285Y-82949809D01*
X116240095Y-82987904D01*
X116011523Y-82987904D01*
X115935333Y-82949809D01*
X115897238Y-82911714D01*
X113447238Y-74983142D02*
X114056761Y-74983142D01*
X115947238Y-74983142D02*
X116556761Y-74983142D01*
X116252000Y-75287904D02*
X116252000Y-74678380D01*
%TO.C,P104*%
X141589619Y-82987904D02*
X141589619Y-82187904D01*
X141894380Y-82187904D01*
X141970571Y-82226000D01*
X142008666Y-82264095D01*
X142046761Y-82340285D01*
X142046761Y-82454571D01*
X142008666Y-82530761D01*
X141970571Y-82568857D01*
X141894380Y-82606952D01*
X141589619Y-82606952D01*
X142808666Y-82987904D02*
X142351523Y-82987904D01*
X142580095Y-82987904D02*
X142580095Y-82187904D01*
X142503904Y-82302190D01*
X142427714Y-82378380D01*
X142351523Y-82416476D01*
X143303904Y-82187904D02*
X143380095Y-82187904D01*
X143456285Y-82226000D01*
X143494380Y-82264095D01*
X143532476Y-82340285D01*
X143570571Y-82492666D01*
X143570571Y-82683142D01*
X143532476Y-82835523D01*
X143494380Y-82911714D01*
X143456285Y-82949809D01*
X143380095Y-82987904D01*
X143303904Y-82987904D01*
X143227714Y-82949809D01*
X143189619Y-82911714D01*
X143151523Y-82835523D01*
X143113428Y-82683142D01*
X143113428Y-82492666D01*
X143151523Y-82340285D01*
X143189619Y-82264095D01*
X143227714Y-82226000D01*
X143303904Y-82187904D01*
X144256285Y-82454571D02*
X144256285Y-82987904D01*
X144065809Y-82149809D02*
X143875333Y-82721238D01*
X144370571Y-82721238D01*
X141387238Y-74983142D02*
X141996761Y-74983142D01*
X141692000Y-75287904D02*
X141692000Y-74678380D01*
X143887238Y-74983142D02*
X144496761Y-74983142D01*
%TO.C,C101*%
X136204761Y-106443714D02*
X136166666Y-106481809D01*
X136052380Y-106519904D01*
X135976190Y-106519904D01*
X135861904Y-106481809D01*
X135785714Y-106405619D01*
X135747619Y-106329428D01*
X135709523Y-106177047D01*
X135709523Y-106062761D01*
X135747619Y-105910380D01*
X135785714Y-105834190D01*
X135861904Y-105758000D01*
X135976190Y-105719904D01*
X136052380Y-105719904D01*
X136166666Y-105758000D01*
X136204761Y-105796095D01*
X136966666Y-106519904D02*
X136509523Y-106519904D01*
X136738095Y-106519904D02*
X136738095Y-105719904D01*
X136661904Y-105834190D01*
X136585714Y-105910380D01*
X136509523Y-105948476D01*
X137461904Y-105719904D02*
X137538095Y-105719904D01*
X137614285Y-105758000D01*
X137652380Y-105796095D01*
X137690476Y-105872285D01*
X137728571Y-106024666D01*
X137728571Y-106215142D01*
X137690476Y-106367523D01*
X137652380Y-106443714D01*
X137614285Y-106481809D01*
X137538095Y-106519904D01*
X137461904Y-106519904D01*
X137385714Y-106481809D01*
X137347619Y-106443714D01*
X137309523Y-106367523D01*
X137271428Y-106215142D01*
X137271428Y-106024666D01*
X137309523Y-105872285D01*
X137347619Y-105796095D01*
X137385714Y-105758000D01*
X137461904Y-105719904D01*
X138490476Y-106519904D02*
X138033333Y-106519904D01*
X138261904Y-106519904D02*
X138261904Y-105719904D01*
X138185714Y-105834190D01*
X138109523Y-105910380D01*
X138033333Y-105948476D01*
%TO.C,C102*%
X133156761Y-115714714D02*
X133118666Y-115752809D01*
X133004380Y-115790904D01*
X132928190Y-115790904D01*
X132813904Y-115752809D01*
X132737714Y-115676619D01*
X132699619Y-115600428D01*
X132661523Y-115448047D01*
X132661523Y-115333761D01*
X132699619Y-115181380D01*
X132737714Y-115105190D01*
X132813904Y-115029000D01*
X132928190Y-114990904D01*
X133004380Y-114990904D01*
X133118666Y-115029000D01*
X133156761Y-115067095D01*
X133918666Y-115790904D02*
X133461523Y-115790904D01*
X133690095Y-115790904D02*
X133690095Y-114990904D01*
X133613904Y-115105190D01*
X133537714Y-115181380D01*
X133461523Y-115219476D01*
X134413904Y-114990904D02*
X134490095Y-114990904D01*
X134566285Y-115029000D01*
X134604380Y-115067095D01*
X134642476Y-115143285D01*
X134680571Y-115295666D01*
X134680571Y-115486142D01*
X134642476Y-115638523D01*
X134604380Y-115714714D01*
X134566285Y-115752809D01*
X134490095Y-115790904D01*
X134413904Y-115790904D01*
X134337714Y-115752809D01*
X134299619Y-115714714D01*
X134261523Y-115638523D01*
X134223428Y-115486142D01*
X134223428Y-115295666D01*
X134261523Y-115143285D01*
X134299619Y-115067095D01*
X134337714Y-115029000D01*
X134413904Y-114990904D01*
X134985333Y-115067095D02*
X135023428Y-115029000D01*
X135099619Y-114990904D01*
X135290095Y-114990904D01*
X135366285Y-115029000D01*
X135404380Y-115067095D01*
X135442476Y-115143285D01*
X135442476Y-115219476D01*
X135404380Y-115333761D01*
X134947238Y-115790904D01*
X135442476Y-115790904D01*
%TO.C,C103*%
X140268761Y-120921714D02*
X140230666Y-120959809D01*
X140116380Y-120997904D01*
X140040190Y-120997904D01*
X139925904Y-120959809D01*
X139849714Y-120883619D01*
X139811619Y-120807428D01*
X139773523Y-120655047D01*
X139773523Y-120540761D01*
X139811619Y-120388380D01*
X139849714Y-120312190D01*
X139925904Y-120236000D01*
X140040190Y-120197904D01*
X140116380Y-120197904D01*
X140230666Y-120236000D01*
X140268761Y-120274095D01*
X141030666Y-120997904D02*
X140573523Y-120997904D01*
X140802095Y-120997904D02*
X140802095Y-120197904D01*
X140725904Y-120312190D01*
X140649714Y-120388380D01*
X140573523Y-120426476D01*
X141525904Y-120197904D02*
X141602095Y-120197904D01*
X141678285Y-120236000D01*
X141716380Y-120274095D01*
X141754476Y-120350285D01*
X141792571Y-120502666D01*
X141792571Y-120693142D01*
X141754476Y-120845523D01*
X141716380Y-120921714D01*
X141678285Y-120959809D01*
X141602095Y-120997904D01*
X141525904Y-120997904D01*
X141449714Y-120959809D01*
X141411619Y-120921714D01*
X141373523Y-120845523D01*
X141335428Y-120693142D01*
X141335428Y-120502666D01*
X141373523Y-120350285D01*
X141411619Y-120274095D01*
X141449714Y-120236000D01*
X141525904Y-120197904D01*
X142059238Y-120197904D02*
X142554476Y-120197904D01*
X142287809Y-120502666D01*
X142402095Y-120502666D01*
X142478285Y-120540761D01*
X142516380Y-120578857D01*
X142554476Y-120655047D01*
X142554476Y-120845523D01*
X142516380Y-120921714D01*
X142478285Y-120959809D01*
X142402095Y-120997904D01*
X142173523Y-120997904D01*
X142097333Y-120959809D01*
X142059238Y-120921714D01*
%TO.C,C104*%
X136204761Y-104411714D02*
X136166666Y-104449809D01*
X136052380Y-104487904D01*
X135976190Y-104487904D01*
X135861904Y-104449809D01*
X135785714Y-104373619D01*
X135747619Y-104297428D01*
X135709523Y-104145047D01*
X135709523Y-104030761D01*
X135747619Y-103878380D01*
X135785714Y-103802190D01*
X135861904Y-103726000D01*
X135976190Y-103687904D01*
X136052380Y-103687904D01*
X136166666Y-103726000D01*
X136204761Y-103764095D01*
X136966666Y-104487904D02*
X136509523Y-104487904D01*
X136738095Y-104487904D02*
X136738095Y-103687904D01*
X136661904Y-103802190D01*
X136585714Y-103878380D01*
X136509523Y-103916476D01*
X137461904Y-103687904D02*
X137538095Y-103687904D01*
X137614285Y-103726000D01*
X137652380Y-103764095D01*
X137690476Y-103840285D01*
X137728571Y-103992666D01*
X137728571Y-104183142D01*
X137690476Y-104335523D01*
X137652380Y-104411714D01*
X137614285Y-104449809D01*
X137538095Y-104487904D01*
X137461904Y-104487904D01*
X137385714Y-104449809D01*
X137347619Y-104411714D01*
X137309523Y-104335523D01*
X137271428Y-104183142D01*
X137271428Y-103992666D01*
X137309523Y-103840285D01*
X137347619Y-103764095D01*
X137385714Y-103726000D01*
X137461904Y-103687904D01*
X138414285Y-103954571D02*
X138414285Y-104487904D01*
X138223809Y-103649809D02*
X138033333Y-104221238D01*
X138528571Y-104221238D01*
%TO.C,DL101*%
X143303904Y-112914190D02*
X142503904Y-112914190D01*
X142503904Y-112723714D01*
X142542000Y-112609428D01*
X142618190Y-112533238D01*
X142694380Y-112495142D01*
X142846761Y-112457047D01*
X142961047Y-112457047D01*
X143113428Y-112495142D01*
X143189619Y-112533238D01*
X143265809Y-112609428D01*
X143303904Y-112723714D01*
X143303904Y-112914190D01*
X143303904Y-111733238D02*
X143303904Y-112114190D01*
X142503904Y-112114190D01*
X143303904Y-111047523D02*
X143303904Y-111504666D01*
X143303904Y-111276095D02*
X142503904Y-111276095D01*
X142618190Y-111352285D01*
X142694380Y-111428476D01*
X142732476Y-111504666D01*
X142503904Y-110552285D02*
X142503904Y-110476095D01*
X142542000Y-110399904D01*
X142580095Y-110361809D01*
X142656285Y-110323714D01*
X142808666Y-110285619D01*
X142999142Y-110285619D01*
X143151523Y-110323714D01*
X143227714Y-110361809D01*
X143265809Y-110399904D01*
X143303904Y-110476095D01*
X143303904Y-110552285D01*
X143265809Y-110628476D01*
X143227714Y-110666571D01*
X143151523Y-110704666D01*
X142999142Y-110742761D01*
X142808666Y-110742761D01*
X142656285Y-110704666D01*
X142580095Y-110666571D01*
X142542000Y-110628476D01*
X142503904Y-110552285D01*
X143303904Y-109523714D02*
X143303904Y-109980857D01*
X143303904Y-109752285D02*
X142503904Y-109752285D01*
X142618190Y-109828476D01*
X142694380Y-109904666D01*
X142732476Y-109980857D01*
X147113904Y-109659333D02*
X146313904Y-109659333D01*
X146809142Y-109583142D02*
X147113904Y-109354571D01*
X146580571Y-109354571D02*
X146885333Y-109659333D01*
%TO.C,DL102*%
X142160904Y-112914190D02*
X141360904Y-112914190D01*
X141360904Y-112723714D01*
X141399000Y-112609428D01*
X141475190Y-112533238D01*
X141551380Y-112495142D01*
X141703761Y-112457047D01*
X141818047Y-112457047D01*
X141970428Y-112495142D01*
X142046619Y-112533238D01*
X142122809Y-112609428D01*
X142160904Y-112723714D01*
X142160904Y-112914190D01*
X142160904Y-111733238D02*
X142160904Y-112114190D01*
X141360904Y-112114190D01*
X142160904Y-111047523D02*
X142160904Y-111504666D01*
X142160904Y-111276095D02*
X141360904Y-111276095D01*
X141475190Y-111352285D01*
X141551380Y-111428476D01*
X141589476Y-111504666D01*
X141360904Y-110552285D02*
X141360904Y-110476095D01*
X141399000Y-110399904D01*
X141437095Y-110361809D01*
X141513285Y-110323714D01*
X141665666Y-110285619D01*
X141856142Y-110285619D01*
X142008523Y-110323714D01*
X142084714Y-110361809D01*
X142122809Y-110399904D01*
X142160904Y-110476095D01*
X142160904Y-110552285D01*
X142122809Y-110628476D01*
X142084714Y-110666571D01*
X142008523Y-110704666D01*
X141856142Y-110742761D01*
X141665666Y-110742761D01*
X141513285Y-110704666D01*
X141437095Y-110666571D01*
X141399000Y-110628476D01*
X141360904Y-110552285D01*
X141437095Y-109980857D02*
X141399000Y-109942761D01*
X141360904Y-109866571D01*
X141360904Y-109676095D01*
X141399000Y-109599904D01*
X141437095Y-109561809D01*
X141513285Y-109523714D01*
X141589476Y-109523714D01*
X141703761Y-109561809D01*
X142160904Y-110018952D01*
X142160904Y-109523714D01*
X144827904Y-109659333D02*
X144027904Y-109659333D01*
X144523142Y-109583142D02*
X144827904Y-109354571D01*
X144294571Y-109354571D02*
X144599333Y-109659333D01*
%TO.C,R101*%
X143303904Y-115689238D02*
X142922952Y-115955904D01*
X143303904Y-116146380D02*
X142503904Y-116146380D01*
X142503904Y-115841619D01*
X142542000Y-115765428D01*
X142580095Y-115727333D01*
X142656285Y-115689238D01*
X142770571Y-115689238D01*
X142846761Y-115727333D01*
X142884857Y-115765428D01*
X142922952Y-115841619D01*
X142922952Y-116146380D01*
X143303904Y-114927333D02*
X143303904Y-115384476D01*
X143303904Y-115155904D02*
X142503904Y-115155904D01*
X142618190Y-115232095D01*
X142694380Y-115308285D01*
X142732476Y-115384476D01*
X142503904Y-114432095D02*
X142503904Y-114355904D01*
X142542000Y-114279714D01*
X142580095Y-114241619D01*
X142656285Y-114203523D01*
X142808666Y-114165428D01*
X142999142Y-114165428D01*
X143151523Y-114203523D01*
X143227714Y-114241619D01*
X143265809Y-114279714D01*
X143303904Y-114355904D01*
X143303904Y-114432095D01*
X143265809Y-114508285D01*
X143227714Y-114546380D01*
X143151523Y-114584476D01*
X142999142Y-114622571D01*
X142808666Y-114622571D01*
X142656285Y-114584476D01*
X142580095Y-114546380D01*
X142542000Y-114508285D01*
X142503904Y-114432095D01*
X143303904Y-113403523D02*
X143303904Y-113860666D01*
X143303904Y-113632095D02*
X142503904Y-113632095D01*
X142618190Y-113708285D01*
X142694380Y-113784476D01*
X142732476Y-113860666D01*
%TO.C,R102*%
X142160904Y-115755238D02*
X141779952Y-116021904D01*
X142160904Y-116212380D02*
X141360904Y-116212380D01*
X141360904Y-115907619D01*
X141399000Y-115831428D01*
X141437095Y-115793333D01*
X141513285Y-115755238D01*
X141627571Y-115755238D01*
X141703761Y-115793333D01*
X141741857Y-115831428D01*
X141779952Y-115907619D01*
X141779952Y-116212380D01*
X142160904Y-114993333D02*
X142160904Y-115450476D01*
X142160904Y-115221904D02*
X141360904Y-115221904D01*
X141475190Y-115298095D01*
X141551380Y-115374285D01*
X141589476Y-115450476D01*
X141360904Y-114498095D02*
X141360904Y-114421904D01*
X141399000Y-114345714D01*
X141437095Y-114307619D01*
X141513285Y-114269523D01*
X141665666Y-114231428D01*
X141856142Y-114231428D01*
X142008523Y-114269523D01*
X142084714Y-114307619D01*
X142122809Y-114345714D01*
X142160904Y-114421904D01*
X142160904Y-114498095D01*
X142122809Y-114574285D01*
X142084714Y-114612380D01*
X142008523Y-114650476D01*
X141856142Y-114688571D01*
X141665666Y-114688571D01*
X141513285Y-114650476D01*
X141437095Y-114612380D01*
X141399000Y-114574285D01*
X141360904Y-114498095D01*
X141437095Y-113926666D02*
X141399000Y-113888571D01*
X141360904Y-113812380D01*
X141360904Y-113621904D01*
X141399000Y-113545714D01*
X141437095Y-113507619D01*
X141513285Y-113469523D01*
X141589476Y-113469523D01*
X141703761Y-113507619D01*
X142160904Y-113964761D01*
X142160904Y-113469523D01*
%TO.C,R103*%
X148904761Y-119422904D02*
X148638095Y-119041952D01*
X148447619Y-119422904D02*
X148447619Y-118622904D01*
X148752380Y-118622904D01*
X148828571Y-118661000D01*
X148866666Y-118699095D01*
X148904761Y-118775285D01*
X148904761Y-118889571D01*
X148866666Y-118965761D01*
X148828571Y-119003857D01*
X148752380Y-119041952D01*
X148447619Y-119041952D01*
X149666666Y-119422904D02*
X149209523Y-119422904D01*
X149438095Y-119422904D02*
X149438095Y-118622904D01*
X149361904Y-118737190D01*
X149285714Y-118813380D01*
X149209523Y-118851476D01*
X150161904Y-118622904D02*
X150238095Y-118622904D01*
X150314285Y-118661000D01*
X150352380Y-118699095D01*
X150390476Y-118775285D01*
X150428571Y-118927666D01*
X150428571Y-119118142D01*
X150390476Y-119270523D01*
X150352380Y-119346714D01*
X150314285Y-119384809D01*
X150238095Y-119422904D01*
X150161904Y-119422904D01*
X150085714Y-119384809D01*
X150047619Y-119346714D01*
X150009523Y-119270523D01*
X149971428Y-119118142D01*
X149971428Y-118927666D01*
X150009523Y-118775285D01*
X150047619Y-118699095D01*
X150085714Y-118661000D01*
X150161904Y-118622904D01*
X150695238Y-118622904D02*
X151190476Y-118622904D01*
X150923809Y-118927666D01*
X151038095Y-118927666D01*
X151114285Y-118965761D01*
X151152380Y-119003857D01*
X151190476Y-119080047D01*
X151190476Y-119270523D01*
X151152380Y-119346714D01*
X151114285Y-119384809D01*
X151038095Y-119422904D01*
X150809523Y-119422904D01*
X150733333Y-119384809D01*
X150695238Y-119346714D01*
%TO.C,U102*%
X133288904Y-112101428D02*
X133936523Y-112101428D01*
X134012714Y-112063333D01*
X134050809Y-112025238D01*
X134088904Y-111949047D01*
X134088904Y-111796666D01*
X134050809Y-111720476D01*
X134012714Y-111682380D01*
X133936523Y-111644285D01*
X133288904Y-111644285D01*
X134088904Y-110844285D02*
X134088904Y-111301428D01*
X134088904Y-111072857D02*
X133288904Y-111072857D01*
X133403190Y-111149047D01*
X133479380Y-111225238D01*
X133517476Y-111301428D01*
X133288904Y-110349047D02*
X133288904Y-110272857D01*
X133327000Y-110196666D01*
X133365095Y-110158571D01*
X133441285Y-110120476D01*
X133593666Y-110082380D01*
X133784142Y-110082380D01*
X133936523Y-110120476D01*
X134012714Y-110158571D01*
X134050809Y-110196666D01*
X134088904Y-110272857D01*
X134088904Y-110349047D01*
X134050809Y-110425238D01*
X134012714Y-110463333D01*
X133936523Y-110501428D01*
X133784142Y-110539523D01*
X133593666Y-110539523D01*
X133441285Y-110501428D01*
X133365095Y-110463333D01*
X133327000Y-110425238D01*
X133288904Y-110349047D01*
X133365095Y-109777619D02*
X133327000Y-109739523D01*
X133288904Y-109663333D01*
X133288904Y-109472857D01*
X133327000Y-109396666D01*
X133365095Y-109358571D01*
X133441285Y-109320476D01*
X133517476Y-109320476D01*
X133631761Y-109358571D01*
X134088904Y-109815714D01*
X134088904Y-109320476D01*
%TO.C,U103*%
X152550904Y-115530428D02*
X153198523Y-115530428D01*
X153274714Y-115492333D01*
X153312809Y-115454238D01*
X153350904Y-115378047D01*
X153350904Y-115225666D01*
X153312809Y-115149476D01*
X153274714Y-115111380D01*
X153198523Y-115073285D01*
X152550904Y-115073285D01*
X153350904Y-114273285D02*
X153350904Y-114730428D01*
X153350904Y-114501857D02*
X152550904Y-114501857D01*
X152665190Y-114578047D01*
X152741380Y-114654238D01*
X152779476Y-114730428D01*
X152550904Y-113778047D02*
X152550904Y-113701857D01*
X152589000Y-113625666D01*
X152627095Y-113587571D01*
X152703285Y-113549476D01*
X152855666Y-113511380D01*
X153046142Y-113511380D01*
X153198523Y-113549476D01*
X153274714Y-113587571D01*
X153312809Y-113625666D01*
X153350904Y-113701857D01*
X153350904Y-113778047D01*
X153312809Y-113854238D01*
X153274714Y-113892333D01*
X153198523Y-113930428D01*
X153046142Y-113968523D01*
X152855666Y-113968523D01*
X152703285Y-113930428D01*
X152627095Y-113892333D01*
X152589000Y-113854238D01*
X152550904Y-113778047D01*
X152550904Y-113244714D02*
X152550904Y-112749476D01*
X152855666Y-113016142D01*
X152855666Y-112901857D01*
X152893761Y-112825666D01*
X152931857Y-112787571D01*
X153008047Y-112749476D01*
X153198523Y-112749476D01*
X153274714Y-112787571D01*
X153312809Y-112825666D01*
X153350904Y-112901857D01*
X153350904Y-113130428D01*
X153312809Y-113206619D01*
X153274714Y-113244714D01*
%TO.C,C105*%
X150047761Y-108729714D02*
X150009666Y-108767809D01*
X149895380Y-108805904D01*
X149819190Y-108805904D01*
X149704904Y-108767809D01*
X149628714Y-108691619D01*
X149590619Y-108615428D01*
X149552523Y-108463047D01*
X149552523Y-108348761D01*
X149590619Y-108196380D01*
X149628714Y-108120190D01*
X149704904Y-108044000D01*
X149819190Y-108005904D01*
X149895380Y-108005904D01*
X150009666Y-108044000D01*
X150047761Y-108082095D01*
X150809666Y-108805904D02*
X150352523Y-108805904D01*
X150581095Y-108805904D02*
X150581095Y-108005904D01*
X150504904Y-108120190D01*
X150428714Y-108196380D01*
X150352523Y-108234476D01*
X151304904Y-108005904D02*
X151381095Y-108005904D01*
X151457285Y-108044000D01*
X151495380Y-108082095D01*
X151533476Y-108158285D01*
X151571571Y-108310666D01*
X151571571Y-108501142D01*
X151533476Y-108653523D01*
X151495380Y-108729714D01*
X151457285Y-108767809D01*
X151381095Y-108805904D01*
X151304904Y-108805904D01*
X151228714Y-108767809D01*
X151190619Y-108729714D01*
X151152523Y-108653523D01*
X151114428Y-108501142D01*
X151114428Y-108310666D01*
X151152523Y-108158285D01*
X151190619Y-108082095D01*
X151228714Y-108044000D01*
X151304904Y-108005904D01*
X152295380Y-108005904D02*
X151914428Y-108005904D01*
X151876333Y-108386857D01*
X151914428Y-108348761D01*
X151990619Y-108310666D01*
X152181095Y-108310666D01*
X152257285Y-108348761D01*
X152295380Y-108386857D01*
X152333476Y-108463047D01*
X152333476Y-108653523D01*
X152295380Y-108729714D01*
X152257285Y-108767809D01*
X152181095Y-108805904D01*
X151990619Y-108805904D01*
X151914428Y-108767809D01*
X151876333Y-108729714D01*
%TO.C,DL103*%
X104943809Y-102709904D02*
X104943809Y-101909904D01*
X105134285Y-101909904D01*
X105248571Y-101948000D01*
X105324761Y-102024190D01*
X105362857Y-102100380D01*
X105400952Y-102252761D01*
X105400952Y-102367047D01*
X105362857Y-102519428D01*
X105324761Y-102595619D01*
X105248571Y-102671809D01*
X105134285Y-102709904D01*
X104943809Y-102709904D01*
X106124761Y-102709904D02*
X105743809Y-102709904D01*
X105743809Y-101909904D01*
X106810476Y-102709904D02*
X106353333Y-102709904D01*
X106581904Y-102709904D02*
X106581904Y-101909904D01*
X106505714Y-102024190D01*
X106429523Y-102100380D01*
X106353333Y-102138476D01*
X107305714Y-101909904D02*
X107381904Y-101909904D01*
X107458095Y-101948000D01*
X107496190Y-101986095D01*
X107534285Y-102062285D01*
X107572380Y-102214666D01*
X107572380Y-102405142D01*
X107534285Y-102557523D01*
X107496190Y-102633714D01*
X107458095Y-102671809D01*
X107381904Y-102709904D01*
X107305714Y-102709904D01*
X107229523Y-102671809D01*
X107191428Y-102633714D01*
X107153333Y-102557523D01*
X107115238Y-102405142D01*
X107115238Y-102214666D01*
X107153333Y-102062285D01*
X107191428Y-101986095D01*
X107229523Y-101948000D01*
X107305714Y-101909904D01*
X107839047Y-101909904D02*
X108334285Y-101909904D01*
X108067619Y-102214666D01*
X108181904Y-102214666D01*
X108258095Y-102252761D01*
X108296190Y-102290857D01*
X108334285Y-102367047D01*
X108334285Y-102557523D01*
X108296190Y-102633714D01*
X108258095Y-102671809D01*
X108181904Y-102709904D01*
X107953333Y-102709904D01*
X107877142Y-102671809D01*
X107839047Y-102633714D01*
X104901666Y-104233904D02*
X104901666Y-103433904D01*
X104977857Y-103929142D02*
X105206428Y-104233904D01*
X105206428Y-103700571D02*
X104901666Y-104005333D01*
%TO.C,Q101*%
X152411095Y-106107095D02*
X152373000Y-106183285D01*
X152296809Y-106259476D01*
X152182523Y-106373761D01*
X152144428Y-106449952D01*
X152144428Y-106526142D01*
X152334904Y-106488047D02*
X152296809Y-106564238D01*
X152220619Y-106640428D01*
X152068238Y-106678523D01*
X151801571Y-106678523D01*
X151649190Y-106640428D01*
X151573000Y-106564238D01*
X151534904Y-106488047D01*
X151534904Y-106335666D01*
X151573000Y-106259476D01*
X151649190Y-106183285D01*
X151801571Y-106145190D01*
X152068238Y-106145190D01*
X152220619Y-106183285D01*
X152296809Y-106259476D01*
X152334904Y-106335666D01*
X152334904Y-106488047D01*
X152334904Y-105383285D02*
X152334904Y-105840428D01*
X152334904Y-105611857D02*
X151534904Y-105611857D01*
X151649190Y-105688047D01*
X151725380Y-105764238D01*
X151763476Y-105840428D01*
X151534904Y-104888047D02*
X151534904Y-104811857D01*
X151573000Y-104735666D01*
X151611095Y-104697571D01*
X151687285Y-104659476D01*
X151839666Y-104621380D01*
X152030142Y-104621380D01*
X152182523Y-104659476D01*
X152258714Y-104697571D01*
X152296809Y-104735666D01*
X152334904Y-104811857D01*
X152334904Y-104888047D01*
X152296809Y-104964238D01*
X152258714Y-105002333D01*
X152182523Y-105040428D01*
X152030142Y-105078523D01*
X151839666Y-105078523D01*
X151687285Y-105040428D01*
X151611095Y-105002333D01*
X151573000Y-104964238D01*
X151534904Y-104888047D01*
X152334904Y-103859476D02*
X152334904Y-104316619D01*
X152334904Y-104088047D02*
X151534904Y-104088047D01*
X151649190Y-104164238D01*
X151725380Y-104240428D01*
X151763476Y-104316619D01*
%TO.C,R104*%
X148777761Y-101236904D02*
X148511095Y-100855952D01*
X148320619Y-101236904D02*
X148320619Y-100436904D01*
X148625380Y-100436904D01*
X148701571Y-100475000D01*
X148739666Y-100513095D01*
X148777761Y-100589285D01*
X148777761Y-100703571D01*
X148739666Y-100779761D01*
X148701571Y-100817857D01*
X148625380Y-100855952D01*
X148320619Y-100855952D01*
X149539666Y-101236904D02*
X149082523Y-101236904D01*
X149311095Y-101236904D02*
X149311095Y-100436904D01*
X149234904Y-100551190D01*
X149158714Y-100627380D01*
X149082523Y-100665476D01*
X150034904Y-100436904D02*
X150111095Y-100436904D01*
X150187285Y-100475000D01*
X150225380Y-100513095D01*
X150263476Y-100589285D01*
X150301571Y-100741666D01*
X150301571Y-100932142D01*
X150263476Y-101084523D01*
X150225380Y-101160714D01*
X150187285Y-101198809D01*
X150111095Y-101236904D01*
X150034904Y-101236904D01*
X149958714Y-101198809D01*
X149920619Y-101160714D01*
X149882523Y-101084523D01*
X149844428Y-100932142D01*
X149844428Y-100741666D01*
X149882523Y-100589285D01*
X149920619Y-100513095D01*
X149958714Y-100475000D01*
X150034904Y-100436904D01*
X150987285Y-100703571D02*
X150987285Y-101236904D01*
X150796809Y-100398809D02*
X150606333Y-100970238D01*
X151101571Y-100970238D01*
%TO.C,R105*%
X102803761Y-106392904D02*
X102537095Y-106011952D01*
X102346619Y-106392904D02*
X102346619Y-105592904D01*
X102651380Y-105592904D01*
X102727571Y-105631000D01*
X102765666Y-105669095D01*
X102803761Y-105745285D01*
X102803761Y-105859571D01*
X102765666Y-105935761D01*
X102727571Y-105973857D01*
X102651380Y-106011952D01*
X102346619Y-106011952D01*
X103565666Y-106392904D02*
X103108523Y-106392904D01*
X103337095Y-106392904D02*
X103337095Y-105592904D01*
X103260904Y-105707190D01*
X103184714Y-105783380D01*
X103108523Y-105821476D01*
X104060904Y-105592904D02*
X104137095Y-105592904D01*
X104213285Y-105631000D01*
X104251380Y-105669095D01*
X104289476Y-105745285D01*
X104327571Y-105897666D01*
X104327571Y-106088142D01*
X104289476Y-106240523D01*
X104251380Y-106316714D01*
X104213285Y-106354809D01*
X104137095Y-106392904D01*
X104060904Y-106392904D01*
X103984714Y-106354809D01*
X103946619Y-106316714D01*
X103908523Y-106240523D01*
X103870428Y-106088142D01*
X103870428Y-105897666D01*
X103908523Y-105745285D01*
X103946619Y-105669095D01*
X103984714Y-105631000D01*
X104060904Y-105592904D01*
X105051380Y-105592904D02*
X104670428Y-105592904D01*
X104632333Y-105973857D01*
X104670428Y-105935761D01*
X104746619Y-105897666D01*
X104937095Y-105897666D01*
X105013285Y-105935761D01*
X105051380Y-105973857D01*
X105089476Y-106050047D01*
X105089476Y-106240523D01*
X105051380Y-106316714D01*
X105013285Y-106354809D01*
X104937095Y-106392904D01*
X104746619Y-106392904D01*
X104670428Y-106354809D01*
X104632333Y-106316714D01*
%TO.C,SW101*%
X138483809Y-131208571D02*
X138521904Y-131094285D01*
X138521904Y-130903809D01*
X138483809Y-130827619D01*
X138445714Y-130789523D01*
X138369523Y-130751428D01*
X138293333Y-130751428D01*
X138217142Y-130789523D01*
X138179047Y-130827619D01*
X138140952Y-130903809D01*
X138102857Y-131056190D01*
X138064761Y-131132380D01*
X138026666Y-131170476D01*
X137950476Y-131208571D01*
X137874285Y-131208571D01*
X137798095Y-131170476D01*
X137760000Y-131132380D01*
X137721904Y-131056190D01*
X137721904Y-130865714D01*
X137760000Y-130751428D01*
X137721904Y-130484761D02*
X138521904Y-130294285D01*
X137950476Y-130141904D01*
X138521904Y-129989523D01*
X137721904Y-129799047D01*
X138521904Y-129075238D02*
X138521904Y-129532380D01*
X138521904Y-129303809D02*
X137721904Y-129303809D01*
X137836190Y-129380000D01*
X137912380Y-129456190D01*
X137950476Y-129532380D01*
X137721904Y-128580000D02*
X137721904Y-128503809D01*
X137760000Y-128427619D01*
X137798095Y-128389523D01*
X137874285Y-128351428D01*
X138026666Y-128313333D01*
X138217142Y-128313333D01*
X138369523Y-128351428D01*
X138445714Y-128389523D01*
X138483809Y-128427619D01*
X138521904Y-128503809D01*
X138521904Y-128580000D01*
X138483809Y-128656190D01*
X138445714Y-128694285D01*
X138369523Y-128732380D01*
X138217142Y-128770476D01*
X138026666Y-128770476D01*
X137874285Y-128732380D01*
X137798095Y-128694285D01*
X137760000Y-128656190D01*
X137721904Y-128580000D01*
X138521904Y-127551428D02*
X138521904Y-128008571D01*
X138521904Y-127780000D02*
X137721904Y-127780000D01*
X137836190Y-127856190D01*
X137912380Y-127932380D01*
X137950476Y-128008571D01*
%TO.C,C106*%
X129968714Y-126799238D02*
X130006809Y-126837333D01*
X130044904Y-126951619D01*
X130044904Y-127027809D01*
X130006809Y-127142095D01*
X129930619Y-127218285D01*
X129854428Y-127256380D01*
X129702047Y-127294476D01*
X129587761Y-127294476D01*
X129435380Y-127256380D01*
X129359190Y-127218285D01*
X129283000Y-127142095D01*
X129244904Y-127027809D01*
X129244904Y-126951619D01*
X129283000Y-126837333D01*
X129321095Y-126799238D01*
X130044904Y-126037333D02*
X130044904Y-126494476D01*
X130044904Y-126265904D02*
X129244904Y-126265904D01*
X129359190Y-126342095D01*
X129435380Y-126418285D01*
X129473476Y-126494476D01*
X129244904Y-125542095D02*
X129244904Y-125465904D01*
X129283000Y-125389714D01*
X129321095Y-125351619D01*
X129397285Y-125313523D01*
X129549666Y-125275428D01*
X129740142Y-125275428D01*
X129892523Y-125313523D01*
X129968714Y-125351619D01*
X130006809Y-125389714D01*
X130044904Y-125465904D01*
X130044904Y-125542095D01*
X130006809Y-125618285D01*
X129968714Y-125656380D01*
X129892523Y-125694476D01*
X129740142Y-125732571D01*
X129549666Y-125732571D01*
X129397285Y-125694476D01*
X129321095Y-125656380D01*
X129283000Y-125618285D01*
X129244904Y-125542095D01*
X129244904Y-124589714D02*
X129244904Y-124742095D01*
X129283000Y-124818285D01*
X129321095Y-124856380D01*
X129435380Y-124932571D01*
X129587761Y-124970666D01*
X129892523Y-124970666D01*
X129968714Y-124932571D01*
X130006809Y-124894476D01*
X130044904Y-124818285D01*
X130044904Y-124665904D01*
X130006809Y-124589714D01*
X129968714Y-124551619D01*
X129892523Y-124513523D01*
X129702047Y-124513523D01*
X129625857Y-124551619D01*
X129587761Y-124589714D01*
X129549666Y-124665904D01*
X129549666Y-124818285D01*
X129587761Y-124894476D01*
X129625857Y-124932571D01*
X129702047Y-124970666D01*
%TO.C,C107*%
X124812714Y-123690238D02*
X124850809Y-123728333D01*
X124888904Y-123842619D01*
X124888904Y-123918809D01*
X124850809Y-124033095D01*
X124774619Y-124109285D01*
X124698428Y-124147380D01*
X124546047Y-124185476D01*
X124431761Y-124185476D01*
X124279380Y-124147380D01*
X124203190Y-124109285D01*
X124127000Y-124033095D01*
X124088904Y-123918809D01*
X124088904Y-123842619D01*
X124127000Y-123728333D01*
X124165095Y-123690238D01*
X124888904Y-122928333D02*
X124888904Y-123385476D01*
X124888904Y-123156904D02*
X124088904Y-123156904D01*
X124203190Y-123233095D01*
X124279380Y-123309285D01*
X124317476Y-123385476D01*
X124088904Y-122433095D02*
X124088904Y-122356904D01*
X124127000Y-122280714D01*
X124165095Y-122242619D01*
X124241285Y-122204523D01*
X124393666Y-122166428D01*
X124584142Y-122166428D01*
X124736523Y-122204523D01*
X124812714Y-122242619D01*
X124850809Y-122280714D01*
X124888904Y-122356904D01*
X124888904Y-122433095D01*
X124850809Y-122509285D01*
X124812714Y-122547380D01*
X124736523Y-122585476D01*
X124584142Y-122623571D01*
X124393666Y-122623571D01*
X124241285Y-122585476D01*
X124165095Y-122547380D01*
X124127000Y-122509285D01*
X124088904Y-122433095D01*
X124088904Y-121899761D02*
X124088904Y-121366428D01*
X124888904Y-121709285D01*
%TO.C,C108*%
X129079714Y-133723238D02*
X129117809Y-133761333D01*
X129155904Y-133875619D01*
X129155904Y-133951809D01*
X129117809Y-134066095D01*
X129041619Y-134142285D01*
X128965428Y-134180380D01*
X128813047Y-134218476D01*
X128698761Y-134218476D01*
X128546380Y-134180380D01*
X128470190Y-134142285D01*
X128394000Y-134066095D01*
X128355904Y-133951809D01*
X128355904Y-133875619D01*
X128394000Y-133761333D01*
X128432095Y-133723238D01*
X129155904Y-132961333D02*
X129155904Y-133418476D01*
X129155904Y-133189904D02*
X128355904Y-133189904D01*
X128470190Y-133266095D01*
X128546380Y-133342285D01*
X128584476Y-133418476D01*
X128355904Y-132466095D02*
X128355904Y-132389904D01*
X128394000Y-132313714D01*
X128432095Y-132275619D01*
X128508285Y-132237523D01*
X128660666Y-132199428D01*
X128851142Y-132199428D01*
X129003523Y-132237523D01*
X129079714Y-132275619D01*
X129117809Y-132313714D01*
X129155904Y-132389904D01*
X129155904Y-132466095D01*
X129117809Y-132542285D01*
X129079714Y-132580380D01*
X129003523Y-132618476D01*
X128851142Y-132656571D01*
X128660666Y-132656571D01*
X128508285Y-132618476D01*
X128432095Y-132580380D01*
X128394000Y-132542285D01*
X128355904Y-132466095D01*
X128698761Y-131742285D02*
X128660666Y-131818476D01*
X128622571Y-131856571D01*
X128546380Y-131894666D01*
X128508285Y-131894666D01*
X128432095Y-131856571D01*
X128394000Y-131818476D01*
X128355904Y-131742285D01*
X128355904Y-131589904D01*
X128394000Y-131513714D01*
X128432095Y-131475619D01*
X128508285Y-131437523D01*
X128546380Y-131437523D01*
X128622571Y-131475619D01*
X128660666Y-131513714D01*
X128698761Y-131589904D01*
X128698761Y-131742285D01*
X128736857Y-131818476D01*
X128774952Y-131856571D01*
X128851142Y-131894666D01*
X129003523Y-131894666D01*
X129079714Y-131856571D01*
X129117809Y-131818476D01*
X129155904Y-131742285D01*
X129155904Y-131589904D01*
X129117809Y-131513714D01*
X129079714Y-131475619D01*
X129003523Y-131437523D01*
X128851142Y-131437523D01*
X128774952Y-131475619D01*
X128736857Y-131513714D01*
X128698761Y-131589904D01*
%TO.C,C109*%
X108772761Y-109237714D02*
X108734666Y-109275809D01*
X108620380Y-109313904D01*
X108544190Y-109313904D01*
X108429904Y-109275809D01*
X108353714Y-109199619D01*
X108315619Y-109123428D01*
X108277523Y-108971047D01*
X108277523Y-108856761D01*
X108315619Y-108704380D01*
X108353714Y-108628190D01*
X108429904Y-108552000D01*
X108544190Y-108513904D01*
X108620380Y-108513904D01*
X108734666Y-108552000D01*
X108772761Y-108590095D01*
X109534666Y-109313904D02*
X109077523Y-109313904D01*
X109306095Y-109313904D02*
X109306095Y-108513904D01*
X109229904Y-108628190D01*
X109153714Y-108704380D01*
X109077523Y-108742476D01*
X110029904Y-108513904D02*
X110106095Y-108513904D01*
X110182285Y-108552000D01*
X110220380Y-108590095D01*
X110258476Y-108666285D01*
X110296571Y-108818666D01*
X110296571Y-109009142D01*
X110258476Y-109161523D01*
X110220380Y-109237714D01*
X110182285Y-109275809D01*
X110106095Y-109313904D01*
X110029904Y-109313904D01*
X109953714Y-109275809D01*
X109915619Y-109237714D01*
X109877523Y-109161523D01*
X109839428Y-109009142D01*
X109839428Y-108818666D01*
X109877523Y-108666285D01*
X109915619Y-108590095D01*
X109953714Y-108552000D01*
X110029904Y-108513904D01*
X110677523Y-109313904D02*
X110829904Y-109313904D01*
X110906095Y-109275809D01*
X110944190Y-109237714D01*
X111020380Y-109123428D01*
X111058476Y-108971047D01*
X111058476Y-108666285D01*
X111020380Y-108590095D01*
X110982285Y-108552000D01*
X110906095Y-108513904D01*
X110753714Y-108513904D01*
X110677523Y-108552000D01*
X110639428Y-108590095D01*
X110601333Y-108666285D01*
X110601333Y-108856761D01*
X110639428Y-108932952D01*
X110677523Y-108971047D01*
X110753714Y-109009142D01*
X110906095Y-109009142D01*
X110982285Y-108971047D01*
X111020380Y-108932952D01*
X111058476Y-108856761D01*
%TO.C,C110*%
X123758761Y-70629714D02*
X123720666Y-70667809D01*
X123606380Y-70705904D01*
X123530190Y-70705904D01*
X123415904Y-70667809D01*
X123339714Y-70591619D01*
X123301619Y-70515428D01*
X123263523Y-70363047D01*
X123263523Y-70248761D01*
X123301619Y-70096380D01*
X123339714Y-70020190D01*
X123415904Y-69944000D01*
X123530190Y-69905904D01*
X123606380Y-69905904D01*
X123720666Y-69944000D01*
X123758761Y-69982095D01*
X124520666Y-70705904D02*
X124063523Y-70705904D01*
X124292095Y-70705904D02*
X124292095Y-69905904D01*
X124215904Y-70020190D01*
X124139714Y-70096380D01*
X124063523Y-70134476D01*
X125282571Y-70705904D02*
X124825428Y-70705904D01*
X125054000Y-70705904D02*
X125054000Y-69905904D01*
X124977809Y-70020190D01*
X124901619Y-70096380D01*
X124825428Y-70134476D01*
X125777809Y-69905904D02*
X125854000Y-69905904D01*
X125930190Y-69944000D01*
X125968285Y-69982095D01*
X126006380Y-70058285D01*
X126044476Y-70210666D01*
X126044476Y-70401142D01*
X126006380Y-70553523D01*
X125968285Y-70629714D01*
X125930190Y-70667809D01*
X125854000Y-70705904D01*
X125777809Y-70705904D01*
X125701619Y-70667809D01*
X125663523Y-70629714D01*
X125625428Y-70553523D01*
X125587333Y-70401142D01*
X125587333Y-70210666D01*
X125625428Y-70058285D01*
X125663523Y-69982095D01*
X125701619Y-69944000D01*
X125777809Y-69905904D01*
%TO.C,C111*%
X123758761Y-68470714D02*
X123720666Y-68508809D01*
X123606380Y-68546904D01*
X123530190Y-68546904D01*
X123415904Y-68508809D01*
X123339714Y-68432619D01*
X123301619Y-68356428D01*
X123263523Y-68204047D01*
X123263523Y-68089761D01*
X123301619Y-67937380D01*
X123339714Y-67861190D01*
X123415904Y-67785000D01*
X123530190Y-67746904D01*
X123606380Y-67746904D01*
X123720666Y-67785000D01*
X123758761Y-67823095D01*
X124520666Y-68546904D02*
X124063523Y-68546904D01*
X124292095Y-68546904D02*
X124292095Y-67746904D01*
X124215904Y-67861190D01*
X124139714Y-67937380D01*
X124063523Y-67975476D01*
X125282571Y-68546904D02*
X124825428Y-68546904D01*
X125054000Y-68546904D02*
X125054000Y-67746904D01*
X124977809Y-67861190D01*
X124901619Y-67937380D01*
X124825428Y-67975476D01*
X126044476Y-68546904D02*
X125587333Y-68546904D01*
X125815904Y-68546904D02*
X125815904Y-67746904D01*
X125739714Y-67861190D01*
X125663523Y-67937380D01*
X125587333Y-67975476D01*
%TO.C,DL104*%
X157717809Y-63323904D02*
X157717809Y-62523904D01*
X157908285Y-62523904D01*
X158022571Y-62562000D01*
X158098761Y-62638190D01*
X158136857Y-62714380D01*
X158174952Y-62866761D01*
X158174952Y-62981047D01*
X158136857Y-63133428D01*
X158098761Y-63209619D01*
X158022571Y-63285809D01*
X157908285Y-63323904D01*
X157717809Y-63323904D01*
X158898761Y-63323904D02*
X158517809Y-63323904D01*
X158517809Y-62523904D01*
X159584476Y-63323904D02*
X159127333Y-63323904D01*
X159355904Y-63323904D02*
X159355904Y-62523904D01*
X159279714Y-62638190D01*
X159203523Y-62714380D01*
X159127333Y-62752476D01*
X160079714Y-62523904D02*
X160155904Y-62523904D01*
X160232095Y-62562000D01*
X160270190Y-62600095D01*
X160308285Y-62676285D01*
X160346380Y-62828666D01*
X160346380Y-63019142D01*
X160308285Y-63171523D01*
X160270190Y-63247714D01*
X160232095Y-63285809D01*
X160155904Y-63323904D01*
X160079714Y-63323904D01*
X160003523Y-63285809D01*
X159965428Y-63247714D01*
X159927333Y-63171523D01*
X159889238Y-63019142D01*
X159889238Y-62828666D01*
X159927333Y-62676285D01*
X159965428Y-62600095D01*
X160003523Y-62562000D01*
X160079714Y-62523904D01*
X161032095Y-62790571D02*
X161032095Y-63323904D01*
X160841619Y-62485809D02*
X160651142Y-63057238D01*
X161146380Y-63057238D01*
%TO.C,DL105*%
X157775809Y-132270904D02*
X157775809Y-131470904D01*
X157966285Y-131470904D01*
X158080571Y-131509000D01*
X158156761Y-131585190D01*
X158194857Y-131661380D01*
X158232952Y-131813761D01*
X158232952Y-131928047D01*
X158194857Y-132080428D01*
X158156761Y-132156619D01*
X158080571Y-132232809D01*
X157966285Y-132270904D01*
X157775809Y-132270904D01*
X158956761Y-132270904D02*
X158575809Y-132270904D01*
X158575809Y-131470904D01*
X159642476Y-132270904D02*
X159185333Y-132270904D01*
X159413904Y-132270904D02*
X159413904Y-131470904D01*
X159337714Y-131585190D01*
X159261523Y-131661380D01*
X159185333Y-131699476D01*
X160137714Y-131470904D02*
X160213904Y-131470904D01*
X160290095Y-131509000D01*
X160328190Y-131547095D01*
X160366285Y-131623285D01*
X160404380Y-131775666D01*
X160404380Y-131966142D01*
X160366285Y-132118523D01*
X160328190Y-132194714D01*
X160290095Y-132232809D01*
X160213904Y-132270904D01*
X160137714Y-132270904D01*
X160061523Y-132232809D01*
X160023428Y-132194714D01*
X159985333Y-132118523D01*
X159947238Y-131966142D01*
X159947238Y-131775666D01*
X159985333Y-131623285D01*
X160023428Y-131547095D01*
X160061523Y-131509000D01*
X160137714Y-131470904D01*
X161128190Y-131470904D02*
X160747238Y-131470904D01*
X160709142Y-131851857D01*
X160747238Y-131813761D01*
X160823428Y-131775666D01*
X161013904Y-131775666D01*
X161090095Y-131813761D01*
X161128190Y-131851857D01*
X161166285Y-131928047D01*
X161166285Y-132118523D01*
X161128190Y-132194714D01*
X161090095Y-132232809D01*
X161013904Y-132270904D01*
X160823428Y-132270904D01*
X160747238Y-132232809D01*
X160709142Y-132194714D01*
%TO.C,DL106*%
X96688809Y-132016904D02*
X96688809Y-131216904D01*
X96879285Y-131216904D01*
X96993571Y-131255000D01*
X97069761Y-131331190D01*
X97107857Y-131407380D01*
X97145952Y-131559761D01*
X97145952Y-131674047D01*
X97107857Y-131826428D01*
X97069761Y-131902619D01*
X96993571Y-131978809D01*
X96879285Y-132016904D01*
X96688809Y-132016904D01*
X97869761Y-132016904D02*
X97488809Y-132016904D01*
X97488809Y-131216904D01*
X98555476Y-132016904D02*
X98098333Y-132016904D01*
X98326904Y-132016904D02*
X98326904Y-131216904D01*
X98250714Y-131331190D01*
X98174523Y-131407380D01*
X98098333Y-131445476D01*
X99050714Y-131216904D02*
X99126904Y-131216904D01*
X99203095Y-131255000D01*
X99241190Y-131293095D01*
X99279285Y-131369285D01*
X99317380Y-131521666D01*
X99317380Y-131712142D01*
X99279285Y-131864523D01*
X99241190Y-131940714D01*
X99203095Y-131978809D01*
X99126904Y-132016904D01*
X99050714Y-132016904D01*
X98974523Y-131978809D01*
X98936428Y-131940714D01*
X98898333Y-131864523D01*
X98860238Y-131712142D01*
X98860238Y-131521666D01*
X98898333Y-131369285D01*
X98936428Y-131293095D01*
X98974523Y-131255000D01*
X99050714Y-131216904D01*
X100003095Y-131216904D02*
X99850714Y-131216904D01*
X99774523Y-131255000D01*
X99736428Y-131293095D01*
X99660238Y-131407380D01*
X99622142Y-131559761D01*
X99622142Y-131864523D01*
X99660238Y-131940714D01*
X99698333Y-131978809D01*
X99774523Y-132016904D01*
X99926904Y-132016904D01*
X100003095Y-131978809D01*
X100041190Y-131940714D01*
X100079285Y-131864523D01*
X100079285Y-131674047D01*
X100041190Y-131597857D01*
X100003095Y-131559761D01*
X99926904Y-131521666D01*
X99774523Y-131521666D01*
X99698333Y-131559761D01*
X99660238Y-131597857D01*
X99622142Y-131674047D01*
%TO.C,DL107*%
X96688809Y-63369904D02*
X96688809Y-62569904D01*
X96879285Y-62569904D01*
X96993571Y-62608000D01*
X97069761Y-62684190D01*
X97107857Y-62760380D01*
X97145952Y-62912761D01*
X97145952Y-63027047D01*
X97107857Y-63179428D01*
X97069761Y-63255619D01*
X96993571Y-63331809D01*
X96879285Y-63369904D01*
X96688809Y-63369904D01*
X97869761Y-63369904D02*
X97488809Y-63369904D01*
X97488809Y-62569904D01*
X98555476Y-63369904D02*
X98098333Y-63369904D01*
X98326904Y-63369904D02*
X98326904Y-62569904D01*
X98250714Y-62684190D01*
X98174523Y-62760380D01*
X98098333Y-62798476D01*
X99050714Y-62569904D02*
X99126904Y-62569904D01*
X99203095Y-62608000D01*
X99241190Y-62646095D01*
X99279285Y-62722285D01*
X99317380Y-62874666D01*
X99317380Y-63065142D01*
X99279285Y-63217523D01*
X99241190Y-63293714D01*
X99203095Y-63331809D01*
X99126904Y-63369904D01*
X99050714Y-63369904D01*
X98974523Y-63331809D01*
X98936428Y-63293714D01*
X98898333Y-63217523D01*
X98860238Y-63065142D01*
X98860238Y-62874666D01*
X98898333Y-62722285D01*
X98936428Y-62646095D01*
X98974523Y-62608000D01*
X99050714Y-62569904D01*
X99584047Y-62569904D02*
X100117380Y-62569904D01*
X99774523Y-63369904D01*
%TO.C,P107*%
X126412904Y-124147380D02*
X125612904Y-124147380D01*
X125612904Y-123842619D01*
X125651000Y-123766428D01*
X125689095Y-123728333D01*
X125765285Y-123690238D01*
X125879571Y-123690238D01*
X125955761Y-123728333D01*
X125993857Y-123766428D01*
X126031952Y-123842619D01*
X126031952Y-124147380D01*
X126412904Y-122928333D02*
X126412904Y-123385476D01*
X126412904Y-123156904D02*
X125612904Y-123156904D01*
X125727190Y-123233095D01*
X125803380Y-123309285D01*
X125841476Y-123385476D01*
X125612904Y-122433095D02*
X125612904Y-122356904D01*
X125651000Y-122280714D01*
X125689095Y-122242619D01*
X125765285Y-122204523D01*
X125917666Y-122166428D01*
X126108142Y-122166428D01*
X126260523Y-122204523D01*
X126336714Y-122242619D01*
X126374809Y-122280714D01*
X126412904Y-122356904D01*
X126412904Y-122433095D01*
X126374809Y-122509285D01*
X126336714Y-122547380D01*
X126260523Y-122585476D01*
X126108142Y-122623571D01*
X125917666Y-122623571D01*
X125765285Y-122585476D01*
X125689095Y-122547380D01*
X125651000Y-122509285D01*
X125612904Y-122433095D01*
X125612904Y-121899761D02*
X125612904Y-121366428D01*
X126412904Y-121709285D01*
%TO.C,P108*%
X109331619Y-111853904D02*
X109331619Y-111053904D01*
X109636380Y-111053904D01*
X109712571Y-111092000D01*
X109750666Y-111130095D01*
X109788761Y-111206285D01*
X109788761Y-111320571D01*
X109750666Y-111396761D01*
X109712571Y-111434857D01*
X109636380Y-111472952D01*
X109331619Y-111472952D01*
X110550666Y-111853904D02*
X110093523Y-111853904D01*
X110322095Y-111853904D02*
X110322095Y-111053904D01*
X110245904Y-111168190D01*
X110169714Y-111244380D01*
X110093523Y-111282476D01*
X111045904Y-111053904D02*
X111122095Y-111053904D01*
X111198285Y-111092000D01*
X111236380Y-111130095D01*
X111274476Y-111206285D01*
X111312571Y-111358666D01*
X111312571Y-111549142D01*
X111274476Y-111701523D01*
X111236380Y-111777714D01*
X111198285Y-111815809D01*
X111122095Y-111853904D01*
X111045904Y-111853904D01*
X110969714Y-111815809D01*
X110931619Y-111777714D01*
X110893523Y-111701523D01*
X110855428Y-111549142D01*
X110855428Y-111358666D01*
X110893523Y-111206285D01*
X110931619Y-111130095D01*
X110969714Y-111092000D01*
X111045904Y-111053904D01*
X111769714Y-111396761D02*
X111693523Y-111358666D01*
X111655428Y-111320571D01*
X111617333Y-111244380D01*
X111617333Y-111206285D01*
X111655428Y-111130095D01*
X111693523Y-111092000D01*
X111769714Y-111053904D01*
X111922095Y-111053904D01*
X111998285Y-111092000D01*
X112036380Y-111130095D01*
X112074476Y-111206285D01*
X112074476Y-111244380D01*
X112036380Y-111320571D01*
X111998285Y-111358666D01*
X111922095Y-111396761D01*
X111769714Y-111396761D01*
X111693523Y-111434857D01*
X111655428Y-111472952D01*
X111617333Y-111549142D01*
X111617333Y-111701523D01*
X111655428Y-111777714D01*
X111693523Y-111815809D01*
X111769714Y-111853904D01*
X111922095Y-111853904D01*
X111998285Y-111815809D01*
X112036380Y-111777714D01*
X112074476Y-111701523D01*
X112074476Y-111549142D01*
X112036380Y-111472952D01*
X111998285Y-111434857D01*
X111922095Y-111396761D01*
%TO.C,P109*%
X97456904Y-121480380D02*
X96656904Y-121480380D01*
X96656904Y-121175619D01*
X96695000Y-121099428D01*
X96733095Y-121061333D01*
X96809285Y-121023238D01*
X96923571Y-121023238D01*
X96999761Y-121061333D01*
X97037857Y-121099428D01*
X97075952Y-121175619D01*
X97075952Y-121480380D01*
X97456904Y-120261333D02*
X97456904Y-120718476D01*
X97456904Y-120489904D02*
X96656904Y-120489904D01*
X96771190Y-120566095D01*
X96847380Y-120642285D01*
X96885476Y-120718476D01*
X96656904Y-119766095D02*
X96656904Y-119689904D01*
X96695000Y-119613714D01*
X96733095Y-119575619D01*
X96809285Y-119537523D01*
X96961666Y-119499428D01*
X97152142Y-119499428D01*
X97304523Y-119537523D01*
X97380714Y-119575619D01*
X97418809Y-119613714D01*
X97456904Y-119689904D01*
X97456904Y-119766095D01*
X97418809Y-119842285D01*
X97380714Y-119880380D01*
X97304523Y-119918476D01*
X97152142Y-119956571D01*
X96961666Y-119956571D01*
X96809285Y-119918476D01*
X96733095Y-119880380D01*
X96695000Y-119842285D01*
X96656904Y-119766095D01*
X97456904Y-119118476D02*
X97456904Y-118966095D01*
X97418809Y-118889904D01*
X97380714Y-118851809D01*
X97266428Y-118775619D01*
X97114047Y-118737523D01*
X96809285Y-118737523D01*
X96733095Y-118775619D01*
X96695000Y-118813714D01*
X96656904Y-118889904D01*
X96656904Y-119042285D01*
X96695000Y-119118476D01*
X96733095Y-119156571D01*
X96809285Y-119194666D01*
X96999761Y-119194666D01*
X97075952Y-119156571D01*
X97114047Y-119118476D01*
X97152142Y-119042285D01*
X97152142Y-118889904D01*
X97114047Y-118813714D01*
X97075952Y-118775619D01*
X96999761Y-118737523D01*
X97456904Y-130114428D02*
X97456904Y-130571571D01*
X97456904Y-130343000D02*
X96656904Y-130343000D01*
X96771190Y-130419190D01*
X96847380Y-130495380D01*
X96885476Y-130571571D01*
%TO.C,R106*%
X130095904Y-130040238D02*
X129714952Y-130306904D01*
X130095904Y-130497380D02*
X129295904Y-130497380D01*
X129295904Y-130192619D01*
X129334000Y-130116428D01*
X129372095Y-130078333D01*
X129448285Y-130040238D01*
X129562571Y-130040238D01*
X129638761Y-130078333D01*
X129676857Y-130116428D01*
X129714952Y-130192619D01*
X129714952Y-130497380D01*
X130095904Y-129278333D02*
X130095904Y-129735476D01*
X130095904Y-129506904D02*
X129295904Y-129506904D01*
X129410190Y-129583095D01*
X129486380Y-129659285D01*
X129524476Y-129735476D01*
X129295904Y-128783095D02*
X129295904Y-128706904D01*
X129334000Y-128630714D01*
X129372095Y-128592619D01*
X129448285Y-128554523D01*
X129600666Y-128516428D01*
X129791142Y-128516428D01*
X129943523Y-128554523D01*
X130019714Y-128592619D01*
X130057809Y-128630714D01*
X130095904Y-128706904D01*
X130095904Y-128783095D01*
X130057809Y-128859285D01*
X130019714Y-128897380D01*
X129943523Y-128935476D01*
X129791142Y-128973571D01*
X129600666Y-128973571D01*
X129448285Y-128935476D01*
X129372095Y-128897380D01*
X129334000Y-128859285D01*
X129295904Y-128783095D01*
X129295904Y-127830714D02*
X129295904Y-127983095D01*
X129334000Y-128059285D01*
X129372095Y-128097380D01*
X129486380Y-128173571D01*
X129638761Y-128211666D01*
X129943523Y-128211666D01*
X130019714Y-128173571D01*
X130057809Y-128135476D01*
X130095904Y-128059285D01*
X130095904Y-127906904D01*
X130057809Y-127830714D01*
X130019714Y-127792619D01*
X129943523Y-127754523D01*
X129753047Y-127754523D01*
X129676857Y-127792619D01*
X129638761Y-127830714D01*
X129600666Y-127906904D01*
X129600666Y-128059285D01*
X129638761Y-128135476D01*
X129676857Y-128173571D01*
X129753047Y-128211666D01*
%TO.C,R107*%
X153844904Y-78986238D02*
X153463952Y-79252904D01*
X153844904Y-79443380D02*
X153044904Y-79443380D01*
X153044904Y-79138619D01*
X153083000Y-79062428D01*
X153121095Y-79024333D01*
X153197285Y-78986238D01*
X153311571Y-78986238D01*
X153387761Y-79024333D01*
X153425857Y-79062428D01*
X153463952Y-79138619D01*
X153463952Y-79443380D01*
X153844904Y-78224333D02*
X153844904Y-78681476D01*
X153844904Y-78452904D02*
X153044904Y-78452904D01*
X153159190Y-78529095D01*
X153235380Y-78605285D01*
X153273476Y-78681476D01*
X153044904Y-77729095D02*
X153044904Y-77652904D01*
X153083000Y-77576714D01*
X153121095Y-77538619D01*
X153197285Y-77500523D01*
X153349666Y-77462428D01*
X153540142Y-77462428D01*
X153692523Y-77500523D01*
X153768714Y-77538619D01*
X153806809Y-77576714D01*
X153844904Y-77652904D01*
X153844904Y-77729095D01*
X153806809Y-77805285D01*
X153768714Y-77843380D01*
X153692523Y-77881476D01*
X153540142Y-77919571D01*
X153349666Y-77919571D01*
X153197285Y-77881476D01*
X153121095Y-77843380D01*
X153083000Y-77805285D01*
X153044904Y-77729095D01*
X153044904Y-77195761D02*
X153044904Y-76662428D01*
X153844904Y-77005285D01*
%TO.C,R108*%
X153844904Y-75811238D02*
X153463952Y-76077904D01*
X153844904Y-76268380D02*
X153044904Y-76268380D01*
X153044904Y-75963619D01*
X153083000Y-75887428D01*
X153121095Y-75849333D01*
X153197285Y-75811238D01*
X153311571Y-75811238D01*
X153387761Y-75849333D01*
X153425857Y-75887428D01*
X153463952Y-75963619D01*
X153463952Y-76268380D01*
X153844904Y-75049333D02*
X153844904Y-75506476D01*
X153844904Y-75277904D02*
X153044904Y-75277904D01*
X153159190Y-75354095D01*
X153235380Y-75430285D01*
X153273476Y-75506476D01*
X153044904Y-74554095D02*
X153044904Y-74477904D01*
X153083000Y-74401714D01*
X153121095Y-74363619D01*
X153197285Y-74325523D01*
X153349666Y-74287428D01*
X153540142Y-74287428D01*
X153692523Y-74325523D01*
X153768714Y-74363619D01*
X153806809Y-74401714D01*
X153844904Y-74477904D01*
X153844904Y-74554095D01*
X153806809Y-74630285D01*
X153768714Y-74668380D01*
X153692523Y-74706476D01*
X153540142Y-74744571D01*
X153349666Y-74744571D01*
X153197285Y-74706476D01*
X153121095Y-74668380D01*
X153083000Y-74630285D01*
X153044904Y-74554095D01*
X153387761Y-73830285D02*
X153349666Y-73906476D01*
X153311571Y-73944571D01*
X153235380Y-73982666D01*
X153197285Y-73982666D01*
X153121095Y-73944571D01*
X153083000Y-73906476D01*
X153044904Y-73830285D01*
X153044904Y-73677904D01*
X153083000Y-73601714D01*
X153121095Y-73563619D01*
X153197285Y-73525523D01*
X153235380Y-73525523D01*
X153311571Y-73563619D01*
X153349666Y-73601714D01*
X153387761Y-73677904D01*
X153387761Y-73830285D01*
X153425857Y-73906476D01*
X153463952Y-73944571D01*
X153540142Y-73982666D01*
X153692523Y-73982666D01*
X153768714Y-73944571D01*
X153806809Y-73906476D01*
X153844904Y-73830285D01*
X153844904Y-73677904D01*
X153806809Y-73601714D01*
X153768714Y-73563619D01*
X153692523Y-73525523D01*
X153540142Y-73525523D01*
X153463952Y-73563619D01*
X153425857Y-73601714D01*
X153387761Y-73677904D01*
%TO.C,P106*%
X151114619Y-126749904D02*
X151114619Y-125949904D01*
X151419380Y-125949904D01*
X151495571Y-125988000D01*
X151533666Y-126026095D01*
X151571761Y-126102285D01*
X151571761Y-126216571D01*
X151533666Y-126292761D01*
X151495571Y-126330857D01*
X151419380Y-126368952D01*
X151114619Y-126368952D01*
X152333666Y-126749904D02*
X151876523Y-126749904D01*
X152105095Y-126749904D02*
X152105095Y-125949904D01*
X152028904Y-126064190D01*
X151952714Y-126140380D01*
X151876523Y-126178476D01*
X152828904Y-125949904D02*
X152905095Y-125949904D01*
X152981285Y-125988000D01*
X153019380Y-126026095D01*
X153057476Y-126102285D01*
X153095571Y-126254666D01*
X153095571Y-126445142D01*
X153057476Y-126597523D01*
X153019380Y-126673714D01*
X152981285Y-126711809D01*
X152905095Y-126749904D01*
X152828904Y-126749904D01*
X152752714Y-126711809D01*
X152714619Y-126673714D01*
X152676523Y-126597523D01*
X152638428Y-126445142D01*
X152638428Y-126254666D01*
X152676523Y-126102285D01*
X152714619Y-126026095D01*
X152752714Y-125988000D01*
X152828904Y-125949904D01*
X153781285Y-125949904D02*
X153628904Y-125949904D01*
X153552714Y-125988000D01*
X153514619Y-126026095D01*
X153438428Y-126140380D01*
X153400333Y-126292761D01*
X153400333Y-126597523D01*
X153438428Y-126673714D01*
X153476523Y-126711809D01*
X153552714Y-126749904D01*
X153705095Y-126749904D01*
X153781285Y-126711809D01*
X153819380Y-126673714D01*
X153857476Y-126597523D01*
X153857476Y-126407047D01*
X153819380Y-126330857D01*
X153781285Y-126292761D01*
X153705095Y-126254666D01*
X153552714Y-126254666D01*
X153476523Y-126292761D01*
X153438428Y-126330857D01*
X153400333Y-126407047D01*
X153488428Y-133726095D02*
X153526523Y-133688000D01*
X153602714Y-133649904D01*
X153793190Y-133649904D01*
X153869380Y-133688000D01*
X153907476Y-133726095D01*
X153945571Y-133802285D01*
X153945571Y-133878476D01*
X153907476Y-133992761D01*
X153450333Y-134449904D01*
X153945571Y-134449904D01*
X151445571Y-134449904D02*
X150988428Y-134449904D01*
X151217000Y-134449904D02*
X151217000Y-133649904D01*
X151140809Y-133764190D01*
X151064619Y-133840380D01*
X150988428Y-133878476D01*
%TO.C,R111*%
X153857761Y-104106904D02*
X153591095Y-103725952D01*
X153400619Y-104106904D02*
X153400619Y-103306904D01*
X153705380Y-103306904D01*
X153781571Y-103345000D01*
X153819666Y-103383095D01*
X153857761Y-103459285D01*
X153857761Y-103573571D01*
X153819666Y-103649761D01*
X153781571Y-103687857D01*
X153705380Y-103725952D01*
X153400619Y-103725952D01*
X154619666Y-104106904D02*
X154162523Y-104106904D01*
X154391095Y-104106904D02*
X154391095Y-103306904D01*
X154314904Y-103421190D01*
X154238714Y-103497380D01*
X154162523Y-103535476D01*
X155381571Y-104106904D02*
X154924428Y-104106904D01*
X155153000Y-104106904D02*
X155153000Y-103306904D01*
X155076809Y-103421190D01*
X155000619Y-103497380D01*
X154924428Y-103535476D01*
X156143476Y-104106904D02*
X155686333Y-104106904D01*
X155914904Y-104106904D02*
X155914904Y-103306904D01*
X155838714Y-103421190D01*
X155762523Y-103497380D01*
X155686333Y-103535476D01*
%TO.C,R112*%
X153857761Y-103090904D02*
X153591095Y-102709952D01*
X153400619Y-103090904D02*
X153400619Y-102290904D01*
X153705380Y-102290904D01*
X153781571Y-102329000D01*
X153819666Y-102367095D01*
X153857761Y-102443285D01*
X153857761Y-102557571D01*
X153819666Y-102633761D01*
X153781571Y-102671857D01*
X153705380Y-102709952D01*
X153400619Y-102709952D01*
X154619666Y-103090904D02*
X154162523Y-103090904D01*
X154391095Y-103090904D02*
X154391095Y-102290904D01*
X154314904Y-102405190D01*
X154238714Y-102481380D01*
X154162523Y-102519476D01*
X155381571Y-103090904D02*
X154924428Y-103090904D01*
X155153000Y-103090904D02*
X155153000Y-102290904D01*
X155076809Y-102405190D01*
X155000619Y-102481380D01*
X154924428Y-102519476D01*
X155686333Y-102367095D02*
X155724428Y-102329000D01*
X155800619Y-102290904D01*
X155991095Y-102290904D01*
X156067285Y-102329000D01*
X156105380Y-102367095D01*
X156143476Y-102443285D01*
X156143476Y-102519476D01*
X156105380Y-102633761D01*
X155648238Y-103090904D01*
X156143476Y-103090904D01*
%TO.C,R113*%
X153857761Y-95470904D02*
X153591095Y-95089952D01*
X153400619Y-95470904D02*
X153400619Y-94670904D01*
X153705380Y-94670904D01*
X153781571Y-94709000D01*
X153819666Y-94747095D01*
X153857761Y-94823285D01*
X153857761Y-94937571D01*
X153819666Y-95013761D01*
X153781571Y-95051857D01*
X153705380Y-95089952D01*
X153400619Y-95089952D01*
X154619666Y-95470904D02*
X154162523Y-95470904D01*
X154391095Y-95470904D02*
X154391095Y-94670904D01*
X154314904Y-94785190D01*
X154238714Y-94861380D01*
X154162523Y-94899476D01*
X155381571Y-95470904D02*
X154924428Y-95470904D01*
X155153000Y-95470904D02*
X155153000Y-94670904D01*
X155076809Y-94785190D01*
X155000619Y-94861380D01*
X154924428Y-94899476D01*
X155648238Y-94670904D02*
X156143476Y-94670904D01*
X155876809Y-94975666D01*
X155991095Y-94975666D01*
X156067285Y-95013761D01*
X156105380Y-95051857D01*
X156143476Y-95128047D01*
X156143476Y-95318523D01*
X156105380Y-95394714D01*
X156067285Y-95432809D01*
X155991095Y-95470904D01*
X155762523Y-95470904D01*
X155686333Y-95432809D01*
X155648238Y-95394714D01*
%TO.C,R114*%
X102917904Y-66032238D02*
X102536952Y-66298904D01*
X102917904Y-66489380D02*
X102117904Y-66489380D01*
X102117904Y-66184619D01*
X102156000Y-66108428D01*
X102194095Y-66070333D01*
X102270285Y-66032238D01*
X102384571Y-66032238D01*
X102460761Y-66070333D01*
X102498857Y-66108428D01*
X102536952Y-66184619D01*
X102536952Y-66489380D01*
X102917904Y-65270333D02*
X102917904Y-65727476D01*
X102917904Y-65498904D02*
X102117904Y-65498904D01*
X102232190Y-65575095D01*
X102308380Y-65651285D01*
X102346476Y-65727476D01*
X102917904Y-64508428D02*
X102917904Y-64965571D01*
X102917904Y-64737000D02*
X102117904Y-64737000D01*
X102232190Y-64813190D01*
X102308380Y-64889380D01*
X102346476Y-64965571D01*
X102384571Y-63822714D02*
X102917904Y-63822714D01*
X102079809Y-64013190D02*
X102651238Y-64203666D01*
X102651238Y-63708428D01*
%TO.C,R115*%
X105076904Y-65905238D02*
X104695952Y-66171904D01*
X105076904Y-66362380D02*
X104276904Y-66362380D01*
X104276904Y-66057619D01*
X104315000Y-65981428D01*
X104353095Y-65943333D01*
X104429285Y-65905238D01*
X104543571Y-65905238D01*
X104619761Y-65943333D01*
X104657857Y-65981428D01*
X104695952Y-66057619D01*
X104695952Y-66362380D01*
X105076904Y-65143333D02*
X105076904Y-65600476D01*
X105076904Y-65371904D02*
X104276904Y-65371904D01*
X104391190Y-65448095D01*
X104467380Y-65524285D01*
X104505476Y-65600476D01*
X105076904Y-64381428D02*
X105076904Y-64838571D01*
X105076904Y-64610000D02*
X104276904Y-64610000D01*
X104391190Y-64686190D01*
X104467380Y-64762380D01*
X104505476Y-64838571D01*
X104276904Y-63657619D02*
X104276904Y-64038571D01*
X104657857Y-64076666D01*
X104619761Y-64038571D01*
X104581666Y-63962380D01*
X104581666Y-63771904D01*
X104619761Y-63695714D01*
X104657857Y-63657619D01*
X104734047Y-63619523D01*
X104924523Y-63619523D01*
X105000714Y-63657619D01*
X105038809Y-63695714D01*
X105076904Y-63771904D01*
X105076904Y-63962380D01*
X105038809Y-64038571D01*
X105000714Y-64076666D01*
%TO.C,R116*%
X107235904Y-66032238D02*
X106854952Y-66298904D01*
X107235904Y-66489380D02*
X106435904Y-66489380D01*
X106435904Y-66184619D01*
X106474000Y-66108428D01*
X106512095Y-66070333D01*
X106588285Y-66032238D01*
X106702571Y-66032238D01*
X106778761Y-66070333D01*
X106816857Y-66108428D01*
X106854952Y-66184619D01*
X106854952Y-66489380D01*
X107235904Y-65270333D02*
X107235904Y-65727476D01*
X107235904Y-65498904D02*
X106435904Y-65498904D01*
X106550190Y-65575095D01*
X106626380Y-65651285D01*
X106664476Y-65727476D01*
X107235904Y-64508428D02*
X107235904Y-64965571D01*
X107235904Y-64737000D02*
X106435904Y-64737000D01*
X106550190Y-64813190D01*
X106626380Y-64889380D01*
X106664476Y-64965571D01*
X106435904Y-63822714D02*
X106435904Y-63975095D01*
X106474000Y-64051285D01*
X106512095Y-64089380D01*
X106626380Y-64165571D01*
X106778761Y-64203666D01*
X107083523Y-64203666D01*
X107159714Y-64165571D01*
X107197809Y-64127476D01*
X107235904Y-64051285D01*
X107235904Y-63898904D01*
X107197809Y-63822714D01*
X107159714Y-63784619D01*
X107083523Y-63746523D01*
X106893047Y-63746523D01*
X106816857Y-63784619D01*
X106778761Y-63822714D01*
X106740666Y-63898904D01*
X106740666Y-64051285D01*
X106778761Y-64127476D01*
X106816857Y-64165571D01*
X106893047Y-64203666D01*
%TO.C,D101*%
X145007619Y-121191904D02*
X145007619Y-120391904D01*
X145198095Y-120391904D01*
X145312380Y-120430000D01*
X145388571Y-120506190D01*
X145426666Y-120582380D01*
X145464761Y-120734761D01*
X145464761Y-120849047D01*
X145426666Y-121001428D01*
X145388571Y-121077619D01*
X145312380Y-121153809D01*
X145198095Y-121191904D01*
X145007619Y-121191904D01*
X146226666Y-121191904D02*
X145769523Y-121191904D01*
X145998095Y-121191904D02*
X145998095Y-120391904D01*
X145921904Y-120506190D01*
X145845714Y-120582380D01*
X145769523Y-120620476D01*
X146721904Y-120391904D02*
X146798095Y-120391904D01*
X146874285Y-120430000D01*
X146912380Y-120468095D01*
X146950476Y-120544285D01*
X146988571Y-120696666D01*
X146988571Y-120887142D01*
X146950476Y-121039523D01*
X146912380Y-121115714D01*
X146874285Y-121153809D01*
X146798095Y-121191904D01*
X146721904Y-121191904D01*
X146645714Y-121153809D01*
X146607619Y-121115714D01*
X146569523Y-121039523D01*
X146531428Y-120887142D01*
X146531428Y-120696666D01*
X146569523Y-120544285D01*
X146607619Y-120468095D01*
X146645714Y-120430000D01*
X146721904Y-120391904D01*
X147750476Y-121191904D02*
X147293333Y-121191904D01*
X147521904Y-121191904D02*
X147521904Y-120391904D01*
X147445714Y-120506190D01*
X147369523Y-120582380D01*
X147293333Y-120620476D01*
X144426666Y-122741904D02*
X144426666Y-121941904D01*
X144502857Y-122437142D02*
X144731428Y-122741904D01*
X144731428Y-122208571D02*
X144426666Y-122513333D01*
%TO.C,D102*%
X144371904Y-106282380D02*
X143571904Y-106282380D01*
X143571904Y-106091904D01*
X143610000Y-105977619D01*
X143686190Y-105901428D01*
X143762380Y-105863333D01*
X143914761Y-105825238D01*
X144029047Y-105825238D01*
X144181428Y-105863333D01*
X144257619Y-105901428D01*
X144333809Y-105977619D01*
X144371904Y-106091904D01*
X144371904Y-106282380D01*
X144371904Y-105063333D02*
X144371904Y-105520476D01*
X144371904Y-105291904D02*
X143571904Y-105291904D01*
X143686190Y-105368095D01*
X143762380Y-105444285D01*
X143800476Y-105520476D01*
X143571904Y-104568095D02*
X143571904Y-104491904D01*
X143610000Y-104415714D01*
X143648095Y-104377619D01*
X143724285Y-104339523D01*
X143876666Y-104301428D01*
X144067142Y-104301428D01*
X144219523Y-104339523D01*
X144295714Y-104377619D01*
X144333809Y-104415714D01*
X144371904Y-104491904D01*
X144371904Y-104568095D01*
X144333809Y-104644285D01*
X144295714Y-104682380D01*
X144219523Y-104720476D01*
X144067142Y-104758571D01*
X143876666Y-104758571D01*
X143724285Y-104720476D01*
X143648095Y-104682380D01*
X143610000Y-104644285D01*
X143571904Y-104568095D01*
X143648095Y-103996666D02*
X143610000Y-103958571D01*
X143571904Y-103882380D01*
X143571904Y-103691904D01*
X143610000Y-103615714D01*
X143648095Y-103577619D01*
X143724285Y-103539523D01*
X143800476Y-103539523D01*
X143914761Y-103577619D01*
X144371904Y-104034761D01*
X144371904Y-103539523D01*
X146471904Y-108563333D02*
X145671904Y-108563333D01*
X146167142Y-108487142D02*
X146471904Y-108258571D01*
X145938571Y-108258571D02*
X146243333Y-108563333D01*
%TO.C,J101*%
X105231428Y-85491904D02*
X105231428Y-86063333D01*
X105193333Y-86177619D01*
X105117142Y-86253809D01*
X105002857Y-86291904D01*
X104926666Y-86291904D01*
X106031428Y-86291904D02*
X105574285Y-86291904D01*
X105802857Y-86291904D02*
X105802857Y-85491904D01*
X105726666Y-85606190D01*
X105650476Y-85682380D01*
X105574285Y-85720476D01*
X106526666Y-85491904D02*
X106602857Y-85491904D01*
X106679047Y-85530000D01*
X106717142Y-85568095D01*
X106755238Y-85644285D01*
X106793333Y-85796666D01*
X106793333Y-85987142D01*
X106755238Y-86139523D01*
X106717142Y-86215714D01*
X106679047Y-86253809D01*
X106602857Y-86291904D01*
X106526666Y-86291904D01*
X106450476Y-86253809D01*
X106412380Y-86215714D01*
X106374285Y-86139523D01*
X106336190Y-85987142D01*
X106336190Y-85796666D01*
X106374285Y-85644285D01*
X106412380Y-85568095D01*
X106450476Y-85530000D01*
X106526666Y-85491904D01*
X107555238Y-86291904D02*
X107098095Y-86291904D01*
X107326666Y-86291904D02*
X107326666Y-85491904D01*
X107250476Y-85606190D01*
X107174285Y-85682380D01*
X107098095Y-85720476D01*
%TO.C,J102*%
X105181428Y-83341904D02*
X105181428Y-83913333D01*
X105143333Y-84027619D01*
X105067142Y-84103809D01*
X104952857Y-84141904D01*
X104876666Y-84141904D01*
X105981428Y-84141904D02*
X105524285Y-84141904D01*
X105752857Y-84141904D02*
X105752857Y-83341904D01*
X105676666Y-83456190D01*
X105600476Y-83532380D01*
X105524285Y-83570476D01*
X106476666Y-83341904D02*
X106552857Y-83341904D01*
X106629047Y-83380000D01*
X106667142Y-83418095D01*
X106705238Y-83494285D01*
X106743333Y-83646666D01*
X106743333Y-83837142D01*
X106705238Y-83989523D01*
X106667142Y-84065714D01*
X106629047Y-84103809D01*
X106552857Y-84141904D01*
X106476666Y-84141904D01*
X106400476Y-84103809D01*
X106362380Y-84065714D01*
X106324285Y-83989523D01*
X106286190Y-83837142D01*
X106286190Y-83646666D01*
X106324285Y-83494285D01*
X106362380Y-83418095D01*
X106400476Y-83380000D01*
X106476666Y-83341904D01*
X107048095Y-83418095D02*
X107086190Y-83380000D01*
X107162380Y-83341904D01*
X107352857Y-83341904D01*
X107429047Y-83380000D01*
X107467142Y-83418095D01*
X107505238Y-83494285D01*
X107505238Y-83570476D01*
X107467142Y-83684761D01*
X107010000Y-84141904D01*
X107505238Y-84141904D01*
%TO.C,J103*%
X105181428Y-81241904D02*
X105181428Y-81813333D01*
X105143333Y-81927619D01*
X105067142Y-82003809D01*
X104952857Y-82041904D01*
X104876666Y-82041904D01*
X105981428Y-82041904D02*
X105524285Y-82041904D01*
X105752857Y-82041904D02*
X105752857Y-81241904D01*
X105676666Y-81356190D01*
X105600476Y-81432380D01*
X105524285Y-81470476D01*
X106476666Y-81241904D02*
X106552857Y-81241904D01*
X106629047Y-81280000D01*
X106667142Y-81318095D01*
X106705238Y-81394285D01*
X106743333Y-81546666D01*
X106743333Y-81737142D01*
X106705238Y-81889523D01*
X106667142Y-81965714D01*
X106629047Y-82003809D01*
X106552857Y-82041904D01*
X106476666Y-82041904D01*
X106400476Y-82003809D01*
X106362380Y-81965714D01*
X106324285Y-81889523D01*
X106286190Y-81737142D01*
X106286190Y-81546666D01*
X106324285Y-81394285D01*
X106362380Y-81318095D01*
X106400476Y-81280000D01*
X106476666Y-81241904D01*
X107010000Y-81241904D02*
X107505238Y-81241904D01*
X107238571Y-81546666D01*
X107352857Y-81546666D01*
X107429047Y-81584761D01*
X107467142Y-81622857D01*
X107505238Y-81699047D01*
X107505238Y-81889523D01*
X107467142Y-81965714D01*
X107429047Y-82003809D01*
X107352857Y-82041904D01*
X107124285Y-82041904D01*
X107048095Y-82003809D01*
X107010000Y-81965714D01*
%TD*%
M02*
