%TF.GenerationSoftware,KiCad,Pcbnew,(5.1.6-0-10_14)*%
%TF.CreationDate,2021-04-08T13:55:21+02:00*%
%TF.ProjectId,gp-controlboard,67702d63-6f6e-4747-926f-6c626f617264,rev?*%
%TF.SameCoordinates,Original*%
%TF.FileFunction,Copper,L1,Top*%
%TF.FilePolarity,Positive*%
%FSLAX46Y46*%
G04 Gerber Fmt 4.6, Leading zero omitted, Abs format (unit mm)*
G04 Created by KiCad (PCBNEW (5.1.6-0-10_14)) date 2021-04-08 13:55:21*
%MOMM*%
%LPD*%
G01*
G04 APERTURE LIST*
%TA.AperFunction,Profile*%
%ADD10C,0.200000*%
%TD*%
%TA.AperFunction,Conductor*%
%ADD11C,1.000000*%
%TD*%
%TA.AperFunction,SMDPad,CuDef*%
%ADD12R,0.900000X1.700000*%
%TD*%
%TA.AperFunction,SMDPad,CuDef*%
%ADD13R,1.300000X0.900000*%
%TD*%
%TA.AperFunction,SMDPad,CuDef*%
%ADD14R,1.700000X0.900000*%
%TD*%
%TA.AperFunction,ComponentPad*%
%ADD15R,2.000000X2.000000*%
%TD*%
%TA.AperFunction,ComponentPad*%
%ADD16C,2.000000*%
%TD*%
%TA.AperFunction,ComponentPad*%
%ADD17C,1.400000*%
%TD*%
%TA.AperFunction,ComponentPad*%
%ADD18R,1.400000X1.400000*%
%TD*%
%TA.AperFunction,SMDPad,CuDef*%
%ADD19R,2.000000X1.000000*%
%TD*%
%TA.AperFunction,SMDPad,CuDef*%
%ADD20R,0.900000X1.300000*%
%TD*%
%TA.AperFunction,SMDPad,CuDef*%
%ADD21R,2.000000X1.800000*%
%TD*%
%TA.AperFunction,SMDPad,CuDef*%
%ADD22R,1.000000X1.900000*%
%TD*%
%TA.AperFunction,SMDPad,CuDef*%
%ADD23R,0.500000X0.900000*%
%TD*%
%TA.AperFunction,SMDPad,CuDef*%
%ADD24R,2.500000X1.600000*%
%TD*%
%TA.AperFunction,SMDPad,CuDef*%
%ADD25R,0.650000X1.060000*%
%TD*%
%TA.AperFunction,SMDPad,CuDef*%
%ADD26R,5.000000X5.000000*%
%TD*%
%TA.AperFunction,SMDPad,CuDef*%
%ADD27R,2.000000X0.900000*%
%TD*%
%TA.AperFunction,SMDPad,CuDef*%
%ADD28R,0.900000X2.000000*%
%TD*%
%TA.AperFunction,SMDPad,CuDef*%
%ADD29R,1.700000X1.600000*%
%TD*%
%TA.AperFunction,SMDPad,CuDef*%
%ADD30C,0.100000*%
%TD*%
%TA.AperFunction,ViaPad*%
%ADD31C,0.800000*%
%TD*%
%TA.AperFunction,ViaPad*%
%ADD32C,1.000000*%
%TD*%
%TA.AperFunction,Conductor*%
%ADD33C,0.250000*%
%TD*%
%TA.AperFunction,Conductor*%
%ADD34C,0.750000*%
%TD*%
%TA.AperFunction,Conductor*%
%ADD35C,0.200000*%
%TD*%
G04 APERTURE END LIST*
D10*
X105000000Y-140000000D02*
G75*
G02*
X100000000Y-135000000I0J5000000D01*
G01*
X240000000Y-135000000D02*
G75*
G02*
X235000000Y-140000000I-5000000J0D01*
G01*
X235000000Y-70000000D02*
G75*
G02*
X240000000Y-75000000I0J-5000000D01*
G01*
X100000000Y-135000000D02*
X100000000Y-70000000D01*
X235000000Y-140000000D02*
X105000000Y-140000000D01*
X240000000Y-75000000D02*
X240000000Y-135000000D01*
X100000000Y-70000000D02*
X235000000Y-70000000D01*
D11*
%TO.N,*%
%TO.C,VAL\u002A\u002A*%
X155000000Y-135000000D03*
%TD*%
%TO.N,*%
%TO.C,VAL\u002A\u002A*%
X235000000Y-75000000D03*
%TD*%
%TO.N,*%
%TO.C,VAL\u002A\u002A*%
X105000000Y-75000000D03*
%TD*%
D12*
%TO.P,C101,1*%
%TO.N,+5V*%
X187050000Y-119000000D03*
%TO.P,C101,2*%
%TO.N,GND*%
X189950000Y-119000000D03*
%TD*%
%TO.P,C102,2*%
%TO.N,GND*%
X190450000Y-128500000D03*
%TO.P,C102,1*%
%TO.N,+VBAT*%
X187550000Y-128500000D03*
%TD*%
%TO.P,C103,2*%
%TO.N,GND*%
X177200000Y-130750000D03*
%TO.P,C103,1*%
%TO.N,Net-(C103-Pad1)*%
X174300000Y-130750000D03*
%TD*%
%TO.P,C104,1*%
%TO.N,Net-(C104-Pad1)*%
X174300000Y-124250000D03*
%TO.P,C104,2*%
%TO.N,GND*%
X177200000Y-124250000D03*
%TD*%
D13*
%TO.P,C105,2*%
%TO.N,/ESP_ENABLE*%
X160200000Y-84150000D03*
%TO.P,C105,1*%
%TO.N,GND*%
X160200000Y-82250000D03*
%TD*%
D14*
%TO.P,C106,1*%
%TO.N,GND*%
X161000000Y-71750000D03*
%TO.P,C106,2*%
%TO.N,+3.3V*%
X161000000Y-74650000D03*
%TD*%
D13*
%TO.P,C107,1*%
%TO.N,+3.3V*%
X163600000Y-73550000D03*
%TO.P,C107,2*%
%TO.N,GND*%
X163600000Y-71650000D03*
%TD*%
%TO.P,C108,1*%
%TO.N,GND*%
X191200000Y-90550000D03*
%TO.P,C108,2*%
%TO.N,/ESP_BOOT*%
X191200000Y-88650000D03*
%TD*%
%TO.P,DL101,2*%
%TO.N,Net-(DL101-Pad2)*%
X161500000Y-131750000D03*
%TO.P,DL101,1*%
%TO.N,+5V*%
X161500000Y-133650000D03*
%TD*%
%TO.P,DL102,1*%
%TO.N,Net-(DL102-Pad1)*%
X194800000Y-125300000D03*
%TO.P,DL102,2*%
%TO.N,Net-(DL102-Pad2)*%
X194800000Y-127200000D03*
%TD*%
%TO.P,DL103,2*%
%TO.N,Net-(DL103-Pad2)*%
X192600000Y-127200000D03*
%TO.P,DL103,1*%
%TO.N,Net-(DL103-Pad1)*%
X192600000Y-125300000D03*
%TD*%
%TO.P,DL104,1*%
%TO.N,+3.3V*%
X163750000Y-133650000D03*
%TO.P,DL104,2*%
%TO.N,Net-(DL104-Pad2)*%
X163750000Y-131750000D03*
%TD*%
D15*
%TO.P,P101,1*%
%TO.N,+VBAT*%
X188750000Y-135000000D03*
D16*
%TO.P,P101,2*%
%TO.N,GND*%
X191250000Y-135000000D03*
%TD*%
D17*
%TO.P,P102,2*%
%TO.N,GND*%
X161600000Y-77330000D03*
D18*
%TO.P,P102,1*%
%TO.N,/ESP_ENABLE*%
X161600000Y-79870000D03*
%TD*%
D19*
%TO.P,P103,16*%
%TO.N,Net-(P103-Pad16)*%
X184660000Y-95950000D03*
%TO.P,P103,14*%
%TO.N,/POWER_C1*%
X184660000Y-101030000D03*
%TO.P,P103,12*%
%TO.N,/POWER_R2*%
X184660000Y-106110000D03*
%TO.P,P103,10*%
%TO.N,/DIRECTION_C3*%
X184660000Y-111190000D03*
%TO.P,P103,2*%
%TO.N,/UART_CMD_RX*%
X184660000Y-131510000D03*
%TO.P,P103,4*%
%TO.N,GND*%
X184660000Y-126430000D03*
%TO.P,P103,6*%
%TO.N,/DIRECTION_R2*%
X184660000Y-121350000D03*
%TO.P,P103,1*%
%TO.N,/UART_CMD_TX*%
X181350000Y-134050000D03*
%TO.P,P103,3*%
%TO.N,Net-(P103-Pad3)*%
X181350000Y-128970000D03*
%TO.P,P103,5*%
%TO.N,/DIRECTION_R1*%
X181350000Y-123890000D03*
%TO.P,P103,7*%
%TO.N,/DIRECTION_R3*%
X181350000Y-118810000D03*
%TO.P,P103,15*%
%TO.N,/POWER_C2*%
X181350000Y-98490000D03*
%TO.P,P103,13*%
%TO.N,/POWER_R3*%
X181350000Y-103570000D03*
%TO.P,P103,11*%
%TO.N,/POWER_R1*%
X181350000Y-108650000D03*
%TO.P,P103,9*%
%TO.N,/DIRECTION_C2*%
X181350000Y-113730000D03*
%TO.P,P103,8*%
%TO.N,/DIRECTION_C1*%
X184660000Y-116270000D03*
%TD*%
%TO.P,P104,8*%
%TO.N,/ADDR_0*%
X169420000Y-116270000D03*
%TO.P,P104,9*%
%TO.N,/ADDR_1*%
X166110000Y-113730000D03*
%TO.P,P104,11*%
%TO.N,Net-(P104-Pad11)*%
X166110000Y-108650000D03*
%TO.P,P104,13*%
%TO.N,Net-(P104-Pad13)*%
X166110000Y-103570000D03*
%TO.P,P104,15*%
%TO.N,Net-(P104-Pad15)*%
X166110000Y-98490000D03*
%TO.P,P104,7*%
%TO.N,/ESP2MCU_02*%
X166110000Y-118810000D03*
%TO.P,P104,5*%
%TO.N,Net-(P104-Pad5)*%
X166110000Y-123890000D03*
%TO.P,P104,3*%
%TO.N,Net-(P104-Pad3)*%
X166110000Y-128970000D03*
%TO.P,P104,1*%
%TO.N,Net-(P104-Pad1)*%
X166110000Y-134050000D03*
%TO.P,P104,6*%
%TO.N,/ESP2MCU_01*%
X169420000Y-121350000D03*
%TO.P,P104,4*%
%TO.N,+5V*%
X169420000Y-126430000D03*
%TO.P,P104,2*%
%TO.N,GND*%
X169420000Y-131510000D03*
%TO.P,P104,10*%
%TO.N,/ADDR_2*%
X169420000Y-111190000D03*
%TO.P,P104,12*%
%TO.N,/ADC_BAT_STATUS*%
X169420000Y-106110000D03*
%TO.P,P104,14*%
%TO.N,+3.3V*%
X169420000Y-101030000D03*
%TO.P,P104,16*%
%TO.N,Net-(P104-Pad16)*%
X169420000Y-95950000D03*
%TD*%
D17*
%TO.P,P105,2*%
%TO.N,/ESP_PROG_RX*%
X188400000Y-80600000D03*
D18*
%TO.P,P105,1*%
%TO.N,/ESP_PROG_TX*%
X188400000Y-78060000D03*
D17*
%TO.P,P105,3*%
%TO.N,GND*%
X188400000Y-83140000D03*
%TD*%
D18*
%TO.P,P106,1*%
%TO.N,/ESP_BOOT*%
X188400000Y-88330000D03*
D17*
%TO.P,P106,2*%
%TO.N,GND*%
X188400000Y-90870000D03*
%TD*%
D13*
%TO.P,R101,1*%
%TO.N,GND*%
X161500000Y-127800000D03*
%TO.P,R101,2*%
%TO.N,Net-(DL101-Pad2)*%
X161500000Y-129700000D03*
%TD*%
%TO.P,R102,1*%
%TO.N,+5V*%
X194800000Y-121900000D03*
%TO.P,R102,2*%
%TO.N,Net-(DL102-Pad1)*%
X194800000Y-123800000D03*
%TD*%
%TO.P,R103,2*%
%TO.N,Net-(DL103-Pad1)*%
X192600000Y-123750000D03*
%TO.P,R103,1*%
%TO.N,+5V*%
X192600000Y-121850000D03*
%TD*%
D20*
%TO.P,R104,1*%
%TO.N,Net-(R104-Pad1)*%
X188550000Y-121500000D03*
%TO.P,R104,2*%
%TO.N,GND*%
X190450000Y-121500000D03*
%TD*%
D13*
%TO.P,R105,2*%
%TO.N,Net-(DL104-Pad2)*%
X163750000Y-129650000D03*
%TO.P,R105,1*%
%TO.N,GND*%
X163750000Y-127750000D03*
%TD*%
%TO.P,R106,2*%
%TO.N,/ESP_ENABLE*%
X162600000Y-82250000D03*
%TO.P,R106,1*%
%TO.N,+3.3V*%
X162600000Y-84150000D03*
%TD*%
%TO.P,R107,1*%
%TO.N,/ADC_BAT_STATUS*%
X172200000Y-106000000D03*
%TO.P,R107,2*%
%TO.N,+VBAT*%
X172200000Y-104100000D03*
%TD*%
%TO.P,R108,2*%
%TO.N,/ADC_BAT_STATUS*%
X172200000Y-107450000D03*
%TO.P,R108,1*%
%TO.N,GND*%
X172200000Y-109350000D03*
%TD*%
D21*
%TO.P,SW101,1*%
%TO.N,/DIRECTION_C1*%
X103000000Y-83750000D03*
%TO.P,SW101,3*%
%TO.N,/DIRECTION_R1*%
X103000000Y-88750000D03*
%TO.P,SW101,2*%
%TO.N,/DIRECTION_C1*%
X117000000Y-83750000D03*
%TO.P,SW101,4*%
%TO.N,/DIRECTION_R1*%
X117000000Y-88750000D03*
%TD*%
%TO.P,SW102,4*%
%TO.N,/DIRECTION_R2*%
X117000000Y-107500000D03*
%TO.P,SW102,2*%
%TO.N,/DIRECTION_C1*%
X117000000Y-102500000D03*
%TO.P,SW102,3*%
%TO.N,/DIRECTION_R2*%
X103000000Y-107500000D03*
%TO.P,SW102,1*%
%TO.N,/DIRECTION_C1*%
X103000000Y-102500000D03*
%TD*%
%TO.P,SW103,1*%
%TO.N,/DIRECTION_C1*%
X103000000Y-121250000D03*
%TO.P,SW103,3*%
%TO.N,/DIRECTION_R3*%
X103000000Y-126250000D03*
%TO.P,SW103,2*%
%TO.N,/DIRECTION_C1*%
X117000000Y-121250000D03*
%TO.P,SW103,4*%
%TO.N,/DIRECTION_R3*%
X117000000Y-126250000D03*
%TD*%
%TO.P,SW104,4*%
%TO.N,/DIRECTION_R1*%
X137000000Y-82500000D03*
%TO.P,SW104,2*%
%TO.N,/DIRECTION_C2*%
X137000000Y-77500000D03*
%TO.P,SW104,3*%
%TO.N,/DIRECTION_R1*%
X123000000Y-82500000D03*
%TO.P,SW104,1*%
%TO.N,/DIRECTION_C2*%
X123000000Y-77500000D03*
%TD*%
%TO.P,SW105,1*%
%TO.N,/DIRECTION_C2*%
X123000000Y-127500000D03*
%TO.P,SW105,3*%
%TO.N,/DIRECTION_R3*%
X123000000Y-132500000D03*
%TO.P,SW105,2*%
%TO.N,/DIRECTION_C2*%
X137000000Y-127500000D03*
%TO.P,SW105,4*%
%TO.N,/DIRECTION_R3*%
X137000000Y-132500000D03*
%TD*%
%TO.P,SW106,4*%
%TO.N,/DIRECTION_R1*%
X157000000Y-88750000D03*
%TO.P,SW106,2*%
%TO.N,/DIRECTION_C3*%
X157000000Y-83750000D03*
%TO.P,SW106,3*%
%TO.N,/DIRECTION_R1*%
X143000000Y-88750000D03*
%TO.P,SW106,1*%
%TO.N,/DIRECTION_C3*%
X143000000Y-83750000D03*
%TD*%
%TO.P,SW107,1*%
%TO.N,/DIRECTION_C3*%
X143000000Y-102500000D03*
%TO.P,SW107,3*%
%TO.N,/DIRECTION_R2*%
X143000000Y-107500000D03*
%TO.P,SW107,2*%
%TO.N,/DIRECTION_C3*%
X157000000Y-102500000D03*
%TO.P,SW107,4*%
%TO.N,/DIRECTION_R2*%
X157000000Y-107500000D03*
%TD*%
%TO.P,SW108,4*%
%TO.N,/DIRECTION_R3*%
X157000000Y-126250000D03*
%TO.P,SW108,2*%
%TO.N,/DIRECTION_C3*%
X157000000Y-121250000D03*
%TO.P,SW108,3*%
%TO.N,/DIRECTION_R3*%
X143000000Y-126250000D03*
%TO.P,SW108,1*%
%TO.N,/DIRECTION_C3*%
X143000000Y-121250000D03*
%TD*%
%TO.P,SW109,1*%
%TO.N,/POWER_C1*%
X198000000Y-77500000D03*
%TO.P,SW109,3*%
%TO.N,/POWER_R1*%
X198000000Y-82500000D03*
%TO.P,SW109,2*%
%TO.N,/POWER_C1*%
X212000000Y-77500000D03*
%TO.P,SW109,4*%
%TO.N,/POWER_R1*%
X212000000Y-82500000D03*
%TD*%
%TO.P,SW110,4*%
%TO.N,/POWER_R2*%
X212000000Y-107500000D03*
%TO.P,SW110,2*%
%TO.N,/POWER_C1*%
X212000000Y-102500000D03*
%TO.P,SW110,3*%
%TO.N,/POWER_R2*%
X198000000Y-107500000D03*
%TO.P,SW110,1*%
%TO.N,/POWER_C1*%
X198000000Y-102500000D03*
%TD*%
%TO.P,SW111,4*%
%TO.N,/POWER_R3*%
X212000000Y-132500000D03*
%TO.P,SW111,2*%
%TO.N,/POWER_C1*%
X212000000Y-127500000D03*
%TO.P,SW111,3*%
%TO.N,/POWER_R3*%
X198000000Y-132500000D03*
%TO.P,SW111,1*%
%TO.N,/POWER_C1*%
X198000000Y-127500000D03*
%TD*%
D22*
%TO.P,SW112,3*%
%TO.N,+VBAT*%
X176250000Y-135200000D03*
%TO.P,SW112,2*%
%TO.N,Net-(C103-Pad1)*%
X174250000Y-135200000D03*
%TO.P,SW112,1*%
%TO.N,Net-(SW112-Pad1)*%
X172250000Y-135200000D03*
%TD*%
D21*
%TO.P,SW113,1*%
%TO.N,/POWER_C2*%
X218000000Y-77500000D03*
%TO.P,SW113,3*%
%TO.N,/POWER_R1*%
X218000000Y-82500000D03*
%TO.P,SW113,2*%
%TO.N,/POWER_C2*%
X232000000Y-77500000D03*
%TO.P,SW113,4*%
%TO.N,/POWER_R1*%
X232000000Y-82500000D03*
%TD*%
%TO.P,SW114,4*%
%TO.N,/POWER_R2*%
X232000000Y-107500000D03*
%TO.P,SW114,2*%
%TO.N,/POWER_C2*%
X232000000Y-102500000D03*
%TO.P,SW114,3*%
%TO.N,/POWER_R2*%
X218000000Y-107500000D03*
%TO.P,SW114,1*%
%TO.N,/POWER_C2*%
X218000000Y-102500000D03*
%TD*%
%TO.P,SW115,1*%
%TO.N,/POWER_C2*%
X218000000Y-127500000D03*
%TO.P,SW115,3*%
%TO.N,/POWER_R3*%
X218000000Y-132500000D03*
%TO.P,SW115,2*%
%TO.N,/POWER_C2*%
X232000000Y-127500000D03*
%TO.P,SW115,4*%
%TO.N,/POWER_R3*%
X232000000Y-132500000D03*
%TD*%
D23*
%TO.P,U101,1*%
%TO.N,+VBAT*%
X187500000Y-126250000D03*
%TO.P,U101,2*%
%TO.N,Net-(DL102-Pad2)*%
X188500000Y-126250000D03*
%TO.P,U101,3*%
%TO.N,Net-(DL103-Pad2)*%
X189500000Y-126250000D03*
%TO.P,U101,4*%
%TO.N,GND*%
X189500000Y-123250000D03*
%TO.P,U101,5*%
%TO.N,Net-(R104-Pad1)*%
X188500000Y-123250000D03*
%TO.P,U101,6*%
%TO.N,+5V*%
X187500000Y-123250000D03*
D24*
%TO.P,U101,7*%
%TO.N,GND*%
X188500000Y-124750000D03*
%TD*%
D25*
%TO.P,U102,1*%
%TO.N,Net-(C103-Pad1)*%
X174300000Y-128600000D03*
%TO.P,U102,2*%
%TO.N,GND*%
X175250000Y-128600000D03*
%TO.P,U102,3*%
%TO.N,Net-(C103-Pad1)*%
X176200000Y-128600000D03*
%TO.P,U102,4*%
%TO.N,Net-(U102-Pad4)*%
X176200000Y-126400000D03*
%TO.P,U102,5*%
%TO.N,Net-(C104-Pad1)*%
X174300000Y-126400000D03*
%TD*%
D26*
%TO.P,U103,39*%
%TO.N,GND*%
X174000000Y-79245000D03*
D27*
%TO.P,U103,1*%
X166500000Y-71745000D03*
%TO.P,U103,2*%
%TO.N,+3.3V*%
X166500000Y-73015000D03*
%TO.P,U103,3*%
%TO.N,/ESP_ENABLE*%
X166500000Y-74285000D03*
%TO.P,U103,4*%
%TO.N,Net-(U103-Pad4)*%
X166500000Y-75555000D03*
%TO.P,U103,5*%
%TO.N,Net-(U103-Pad5)*%
X166500000Y-76825000D03*
%TO.P,U103,6*%
%TO.N,Net-(U103-Pad6)*%
X166500000Y-78095000D03*
%TO.P,U103,7*%
%TO.N,Net-(U103-Pad7)*%
X166500000Y-79365000D03*
%TO.P,U103,8*%
%TO.N,Net-(U103-Pad8)*%
X166500000Y-80635000D03*
%TO.P,U103,9*%
%TO.N,Net-(U103-Pad9)*%
X166500000Y-81905000D03*
%TO.P,U103,10*%
%TO.N,Net-(U103-Pad10)*%
X166500000Y-83175000D03*
%TO.P,U103,11*%
%TO.N,Net-(U103-Pad11)*%
X166500000Y-84445000D03*
%TO.P,U103,12*%
%TO.N,Net-(U103-Pad12)*%
X166500000Y-85715000D03*
%TO.P,U103,13*%
%TO.N,Net-(U103-Pad13)*%
X166500000Y-86985000D03*
%TO.P,U103,14*%
%TO.N,Net-(U103-Pad14)*%
X166500000Y-88255000D03*
D28*
%TO.P,U103,15*%
%TO.N,GND*%
X169285000Y-89255000D03*
%TO.P,U103,16*%
%TO.N,Net-(U103-Pad16)*%
X170555000Y-89255000D03*
%TO.P,U103,17*%
%TO.N,Net-(U103-Pad17)*%
X171825000Y-89255000D03*
%TO.P,U103,18*%
%TO.N,Net-(U103-Pad18)*%
X173095000Y-89255000D03*
%TO.P,U103,19*%
%TO.N,Net-(U103-Pad19)*%
X174365000Y-89255000D03*
%TO.P,U103,20*%
%TO.N,Net-(U103-Pad20)*%
X175635000Y-89255000D03*
%TO.P,U103,21*%
%TO.N,Net-(U103-Pad21)*%
X176905000Y-89255000D03*
%TO.P,U103,22*%
%TO.N,Net-(U103-Pad22)*%
X178175000Y-89255000D03*
%TO.P,U103,23*%
%TO.N,Net-(U103-Pad23)*%
X179445000Y-89255000D03*
%TO.P,U103,24*%
%TO.N,Net-(U103-Pad24)*%
X180715000Y-89255000D03*
D27*
%TO.P,U103,25*%
%TO.N,/ESP_BOOT*%
X183500000Y-88255000D03*
%TO.P,U103,26*%
%TO.N,Net-(U103-Pad26)*%
X183500000Y-86985000D03*
%TO.P,U103,27*%
%TO.N,/UART_CMD_TX*%
X183500000Y-85715000D03*
%TO.P,U103,28*%
%TO.N,/UART_CMD_RX*%
X183500000Y-84445000D03*
%TO.P,U103,29*%
%TO.N,Net-(U103-Pad29)*%
X183500000Y-83175000D03*
%TO.P,U103,30*%
%TO.N,/ESP2MCU_02*%
X183500000Y-81905000D03*
%TO.P,U103,31*%
%TO.N,/ESP2MCU_01*%
X183500000Y-80635000D03*
%TO.P,U103,32*%
%TO.N,Net-(U103-Pad32)*%
X183500000Y-79365000D03*
%TO.P,U103,33*%
%TO.N,Net-(U103-Pad33)*%
X183500000Y-78095000D03*
%TO.P,U103,34*%
%TO.N,/ESP_PROG_RX*%
X183500000Y-76825000D03*
%TO.P,U103,35*%
%TO.N,/ESP_PROG_TX*%
X183500000Y-75555000D03*
%TO.P,U103,36*%
%TO.N,Net-(U103-Pad36)*%
X183500000Y-74285000D03*
%TO.P,U103,37*%
%TO.N,Net-(U103-Pad37)*%
X183500000Y-73015000D03*
%TO.P,U103,38*%
%TO.N,GND*%
X183500000Y-71745000D03*
%TD*%
D29*
%TO.P,D101,2*%
%TO.N,Net-(C104-Pad1)*%
X174250000Y-121450000D03*
%TO.P,D101,1*%
%TO.N,+3.3V*%
X174250000Y-117050000D03*
%TD*%
D13*
%TO.P,R109,2*%
%TO.N,/DIRECTION_R1*%
X179000000Y-122350000D03*
%TO.P,R109,1*%
%TO.N,+3.3V*%
X179000000Y-120450000D03*
%TD*%
%TO.P,R110,1*%
%TO.N,+3.3V*%
X187400000Y-115050000D03*
%TO.P,R110,2*%
%TO.N,/DIRECTION_R2*%
X187400000Y-116950000D03*
%TD*%
%TO.P,R111,2*%
%TO.N,/DIRECTION_R3*%
X179000000Y-115900000D03*
%TO.P,R111,1*%
%TO.N,+3.3V*%
X179000000Y-117800000D03*
%TD*%
%TO.P,R112,1*%
%TO.N,+3.3V*%
X178800000Y-106650000D03*
%TO.P,R112,2*%
%TO.N,/POWER_R1*%
X178800000Y-108550000D03*
%TD*%
%TO.P,R113,2*%
%TO.N,/POWER_R2*%
X187000000Y-106250000D03*
%TO.P,R113,1*%
%TO.N,+3.3V*%
X187000000Y-108150000D03*
%TD*%
%TO.P,R114,1*%
%TO.N,+3.3V*%
X178800000Y-101450000D03*
%TO.P,R114,2*%
%TO.N,/POWER_R3*%
X178800000Y-103350000D03*
%TD*%
%TA.AperFunction,SMDPad,CuDef*%
D30*
%TO.P,J101,1*%
%TO.N,GND*%
G36*
X162300000Y-112000000D02*
G01*
X162800000Y-112650000D01*
X161400000Y-112650000D01*
X161400000Y-111350000D01*
X162800000Y-111350000D01*
X162300000Y-112000000D01*
G37*
%TD.AperFunction*%
%TA.AperFunction,SMDPad,CuDef*%
%TO.P,J101,2*%
%TO.N,/ADDR_0*%
G36*
X164200000Y-112650000D02*
G01*
X163300000Y-112650000D01*
X162800000Y-112000000D01*
X163300000Y-111350000D01*
X164200000Y-111350000D01*
X164200000Y-112650000D01*
G37*
%TD.AperFunction*%
%TD*%
%TA.AperFunction,SMDPad,CuDef*%
%TO.P,J102,2*%
%TO.N,/ADDR_1*%
G36*
X164200000Y-110450000D02*
G01*
X163300000Y-110450000D01*
X162800000Y-109800000D01*
X163300000Y-109150000D01*
X164200000Y-109150000D01*
X164200000Y-110450000D01*
G37*
%TD.AperFunction*%
%TA.AperFunction,SMDPad,CuDef*%
%TO.P,J102,1*%
%TO.N,GND*%
G36*
X162300000Y-109800000D02*
G01*
X162800000Y-110450000D01*
X161400000Y-110450000D01*
X161400000Y-109150000D01*
X162800000Y-109150000D01*
X162300000Y-109800000D01*
G37*
%TD.AperFunction*%
%TD*%
%TA.AperFunction,SMDPad,CuDef*%
%TO.P,J103,1*%
%TO.N,GND*%
G36*
X162350000Y-107600000D02*
G01*
X162850000Y-108250000D01*
X161450000Y-108250000D01*
X161450000Y-106950000D01*
X162850000Y-106950000D01*
X162350000Y-107600000D01*
G37*
%TD.AperFunction*%
%TA.AperFunction,SMDPad,CuDef*%
%TO.P,J103,2*%
%TO.N,/ADDR_2*%
G36*
X164250000Y-108250000D02*
G01*
X163350000Y-108250000D01*
X162850000Y-107600000D01*
X163350000Y-106950000D01*
X164250000Y-106950000D01*
X164250000Y-108250000D01*
G37*
%TD.AperFunction*%
%TD*%
D31*
%TO.N,+5V*%
X170200000Y-123800000D03*
X183800000Y-122800000D03*
%TO.N,GND*%
X189500000Y-124750000D03*
X162600000Y-127800000D03*
X161850000Y-108750000D03*
X169000000Y-72000000D03*
X171000000Y-72000000D03*
X173000000Y-72000000D03*
X175000000Y-72000000D03*
X177000000Y-72000000D03*
X179000000Y-72000000D03*
X181000000Y-72000000D03*
X187750000Y-124750000D03*
D32*
X179070000Y-126430000D03*
D31*
X174000000Y-76050000D03*
X177200000Y-79250000D03*
X174000000Y-82550000D03*
X170800000Y-79250000D03*
X170800000Y-76100000D03*
X177150000Y-76100000D03*
X177200000Y-82550000D03*
X170800000Y-82550000D03*
%TO.N,+3.3V*%
X172200000Y-129800000D03*
X165600000Y-132000000D03*
%TO.N,/DIRECTION_C1*%
X105750000Y-83750000D03*
X105700000Y-102500000D03*
X105650000Y-121250000D03*
X160000000Y-117600000D03*
X183000000Y-114800000D03*
%TO.N,/DIRECTION_R1*%
X160000000Y-114800000D03*
X173000000Y-115000000D03*
%TO.N,/DIRECTION_R2*%
X160000000Y-116200000D03*
X178800000Y-114000000D03*
%TO.N,/DIRECTION_R3*%
X161200000Y-125400000D03*
X179981664Y-121399999D03*
%TO.N,/DIRECTION_C2*%
X125900000Y-127500000D03*
X125700000Y-77500000D03*
X160000000Y-119200000D03*
X181400000Y-115600000D03*
%TO.N,/DIRECTION_C3*%
X145800000Y-83800000D03*
X145800000Y-102400000D03*
X145550000Y-121250000D03*
X160000000Y-121200000D03*
X184675000Y-113400000D03*
%TO.N,/POWER_C1*%
X208700000Y-77500000D03*
X208700000Y-102500000D03*
X208700000Y-127500000D03*
%TO.N,/POWER_R1*%
X196200000Y-82600000D03*
X191600000Y-109600000D03*
%TO.N,/POWER_R3*%
X205700000Y-132500000D03*
X200800000Y-104800000D03*
%TO.N,/POWER_C2*%
X228800000Y-77600000D03*
X228700000Y-102500000D03*
X228700000Y-127500000D03*
%TO.N,/UART_CMD_TX*%
X186000000Y-133000000D03*
X185400000Y-87000000D03*
%TO.N,/UART_CMD_RX*%
X186400000Y-86200000D03*
X186400000Y-128400000D03*
%TO.N,/ESP2MCU_02*%
X161600000Y-102400000D03*
X176600000Y-92000000D03*
%TO.N,/ESP2MCU_01*%
X173400000Y-108400000D03*
X176800000Y-93000000D03*
%TD*%
D33*
%TO.N,+5V*%
X194750000Y-121850000D02*
X194800000Y-121900000D01*
X192600000Y-121850000D02*
X194750000Y-121850000D01*
D34*
X187500000Y-121700000D02*
X187050000Y-121250000D01*
X187500000Y-123250000D02*
X187500000Y-121700000D01*
X187050000Y-119000000D02*
X187050000Y-121250000D01*
D33*
X187050000Y-119000000D02*
X187600000Y-119000000D01*
X187600000Y-119000000D02*
X189200000Y-117400000D01*
X189200000Y-117400000D02*
X191200000Y-117400000D01*
X192600000Y-118800000D02*
X192600000Y-121850000D01*
X191200000Y-117400000D02*
X192600000Y-118800000D01*
X160250000Y-133650000D02*
X161500000Y-133650000D01*
X159800000Y-133200000D02*
X160250000Y-133650000D01*
X160970000Y-126430000D02*
X159800000Y-127600000D01*
X164770000Y-126430000D02*
X160970000Y-126430000D01*
X159800000Y-127600000D02*
X159800000Y-133200000D01*
X169420000Y-126430000D02*
X164770000Y-126430000D01*
X164770000Y-126430000D02*
X164170000Y-126430000D01*
X169420000Y-124580000D02*
X170200000Y-123800000D01*
X169420000Y-126430000D02*
X169420000Y-124580000D01*
X187050000Y-122800000D02*
X187500000Y-123250000D01*
X183800000Y-122800000D02*
X187050000Y-122800000D01*
D34*
%TO.N,GND*%
X190450000Y-128500000D02*
X190450000Y-131650000D01*
X191250000Y-132450000D02*
X191250000Y-135000000D01*
X190450000Y-131650000D02*
X191250000Y-132450000D01*
X189500000Y-122450000D02*
X190450000Y-121500000D01*
X189500000Y-123250000D02*
X189500000Y-122450000D01*
X190450000Y-119500000D02*
X189950000Y-119000000D01*
X190450000Y-121500000D02*
X190450000Y-119500000D01*
X176635002Y-130750000D02*
X177200000Y-130750000D01*
X175250000Y-129364998D02*
X176635002Y-130750000D01*
X175250000Y-128600000D02*
X175250000Y-129364998D01*
X177200000Y-124250000D02*
X177200000Y-124600000D01*
X177200000Y-124600000D02*
X178200000Y-125600000D01*
X177200000Y-129800000D02*
X177200000Y-130750000D01*
X178200000Y-128800000D02*
X177200000Y-129800000D01*
X188500000Y-124750000D02*
X187750000Y-124750000D01*
X184660000Y-125340000D02*
X184660000Y-126430000D01*
X185250000Y-124750000D02*
X184660000Y-125340000D01*
X163500000Y-71750000D02*
X163600000Y-71650000D01*
X161000000Y-71750000D02*
X163500000Y-71750000D01*
X166405000Y-71650000D02*
X166500000Y-71745000D01*
X163600000Y-71650000D02*
X166405000Y-71650000D01*
D33*
X188720000Y-90550000D02*
X188400000Y-90870000D01*
X191200000Y-90550000D02*
X188720000Y-90550000D01*
X160200000Y-78730000D02*
X161600000Y-77330000D01*
X160200000Y-82250000D02*
X160200000Y-78730000D01*
D34*
X188400000Y-90870000D02*
X184470000Y-90870000D01*
X184470000Y-90870000D02*
X183400000Y-89800000D01*
D33*
X163700000Y-127800000D02*
X163750000Y-127750000D01*
X161500000Y-127800000D02*
X162600000Y-127800000D01*
X163750000Y-127750000D02*
X163850000Y-127750000D01*
X164400000Y-127800000D02*
X167600000Y-127800000D01*
X169420000Y-129620000D02*
X169420000Y-131510000D01*
X167600000Y-127800000D02*
X169420000Y-129620000D01*
D34*
X184660000Y-126430000D02*
X180570000Y-126430000D01*
D33*
X161850000Y-112000000D02*
X161850000Y-109800000D01*
X161850000Y-107650000D02*
X161900000Y-107600000D01*
X161850000Y-109800000D02*
X161850000Y-108750000D01*
X170200000Y-109200000D02*
X172050000Y-109200000D01*
X162400000Y-106200000D02*
X167200000Y-106200000D01*
X161900000Y-106700000D02*
X162400000Y-106200000D01*
X172050000Y-109200000D02*
X172200000Y-109350000D01*
X167200000Y-106200000D02*
X170200000Y-109200000D01*
X161900000Y-107600000D02*
X161900000Y-106700000D01*
D34*
X179030000Y-126430000D02*
X179070000Y-126430000D01*
X177200000Y-124600000D02*
X179030000Y-126430000D01*
X179030000Y-127970000D02*
X177200000Y-129800000D01*
X179030000Y-126430000D02*
X179030000Y-127970000D01*
D33*
X162600000Y-127800000D02*
X163700000Y-127800000D01*
X161850000Y-108750000D02*
X161850000Y-107650000D01*
D34*
X187750000Y-124750000D02*
X185250000Y-124750000D01*
X189500000Y-123250000D02*
X189500000Y-124750000D01*
X179070000Y-126430000D02*
X184660000Y-126430000D01*
%TO.N,+VBAT*%
X176250000Y-135200000D02*
X176250000Y-136250000D01*
X176250000Y-136250000D02*
X177000000Y-137000000D01*
X188750000Y-135854998D02*
X188750000Y-135000000D01*
X187604999Y-136999999D02*
X188750000Y-135854998D01*
X177000000Y-137000000D02*
X187604999Y-136999999D01*
X188750000Y-132950000D02*
X188750000Y-135000000D01*
X187550000Y-131750000D02*
X188750000Y-132950000D01*
X187550000Y-128500000D02*
X187550000Y-131750000D01*
X187500000Y-128450000D02*
X187550000Y-128500000D01*
X187500000Y-126250000D02*
X187500000Y-128450000D01*
D33*
X175100000Y-137400000D02*
X176250000Y-136250000D01*
X170600000Y-134400000D02*
X170600000Y-136600000D01*
X171400000Y-113000000D02*
X171400000Y-133600000D01*
X171400000Y-133600000D02*
X170600000Y-134400000D01*
X174200000Y-105400000D02*
X174200000Y-110200000D01*
X170600000Y-136600000D02*
X171400000Y-137400000D01*
X174200000Y-110200000D02*
X171400000Y-113000000D01*
X171400000Y-137400000D02*
X175100000Y-137400000D01*
X172900000Y-104100000D02*
X174200000Y-105400000D01*
X172200000Y-104100000D02*
X172900000Y-104100000D01*
D34*
%TO.N,Net-(C103-Pad1)*%
X174300000Y-128600000D02*
X174300000Y-130750000D01*
X174300000Y-135150000D02*
X174250000Y-135200000D01*
X174300000Y-130750000D02*
X174300000Y-135150000D01*
D33*
X175980000Y-127600000D02*
X176200000Y-127820000D01*
X176200000Y-127820000D02*
X176200000Y-128600000D01*
X175980000Y-127600000D02*
X174400000Y-127600000D01*
X174300000Y-127700000D02*
X174300000Y-128600000D01*
X174400000Y-127600000D02*
X174300000Y-127700000D01*
D34*
%TO.N,Net-(C104-Pad1)*%
X174300000Y-124250000D02*
X174300000Y-126400000D01*
X174250000Y-124200000D02*
X174300000Y-124250000D01*
X174250000Y-121450000D02*
X174250000Y-124200000D01*
D33*
%TO.N,/ESP_ENABLE*%
X160700000Y-84150000D02*
X162600000Y-82250000D01*
X160200000Y-84150000D02*
X160700000Y-84150000D01*
X161600000Y-81250000D02*
X162600000Y-82250000D01*
X161600000Y-79870000D02*
X161600000Y-81250000D01*
X161600000Y-79870000D02*
X162530000Y-79870000D01*
X162530000Y-79870000D02*
X163800000Y-78600000D01*
X163800000Y-78600000D02*
X163800000Y-75600000D01*
X165115000Y-74285000D02*
X166500000Y-74285000D01*
X163800000Y-75600000D02*
X165115000Y-74285000D01*
%TO.N,+3.3V*%
X178250000Y-117050000D02*
X179000000Y-117800000D01*
X174250000Y-117050000D02*
X178250000Y-117050000D01*
X179000000Y-117800000D02*
X179000000Y-120450000D01*
D34*
X169420000Y-101030000D02*
X172830000Y-101030000D01*
X172830000Y-101030000D02*
X175600000Y-103800000D01*
X175600000Y-115700000D02*
X174250000Y-117050000D01*
X164135000Y-73015000D02*
X163600000Y-73550000D01*
X166500000Y-73015000D02*
X164135000Y-73015000D01*
X162500000Y-74650000D02*
X163600000Y-73550000D01*
X161000000Y-74650000D02*
X162500000Y-74650000D01*
X161000000Y-74650000D02*
X160550000Y-74650000D01*
X160550000Y-74650000D02*
X158974999Y-76225001D01*
X164430000Y-101030000D02*
X169420000Y-101030000D01*
X158974999Y-95574999D02*
X164430000Y-101030000D01*
D33*
X178150000Y-101450000D02*
X178800000Y-101450000D01*
X177400000Y-102200000D02*
X178150000Y-101450000D01*
X177400000Y-102200000D02*
X177400000Y-106000000D01*
X178050000Y-106650000D02*
X178800000Y-106650000D01*
X177400000Y-106000000D02*
X178050000Y-106650000D01*
X178800000Y-106650000D02*
X181050000Y-106650000D01*
X181050000Y-106650000D02*
X182000000Y-107600000D01*
X186450000Y-107600000D02*
X187000000Y-108150000D01*
X182000000Y-107600000D02*
X186450000Y-107600000D01*
X162600000Y-84150000D02*
X162600000Y-85800000D01*
X162600000Y-85800000D02*
X162000000Y-86400000D01*
X159949998Y-86400000D02*
X158974999Y-87374999D01*
X162000000Y-86400000D02*
X159949998Y-86400000D01*
D34*
X158974999Y-87374999D02*
X158974999Y-95574999D01*
X158974999Y-76225001D02*
X158974999Y-87374999D01*
D33*
X177400000Y-106000000D02*
X176200000Y-106000000D01*
X176200000Y-106000000D02*
X175600000Y-106600000D01*
D34*
X175600000Y-106600000D02*
X175600000Y-115700000D01*
X175600000Y-103800000D02*
X175600000Y-106600000D01*
D33*
X193200000Y-109400000D02*
X191950000Y-108150000D01*
X193200000Y-114000000D02*
X193200000Y-109400000D01*
X192150000Y-115050000D02*
X193200000Y-114000000D01*
X191950000Y-108150000D02*
X187000000Y-108150000D01*
X187400000Y-115050000D02*
X192150000Y-115050000D01*
X163950000Y-133650000D02*
X163750000Y-133650000D01*
X165600000Y-132000000D02*
X163950000Y-133650000D01*
X172200000Y-122600000D02*
X172200000Y-129800000D01*
X172800000Y-113800000D02*
X172200000Y-114400000D01*
X173600000Y-113800000D02*
X172800000Y-113800000D01*
X174250000Y-114450000D02*
X173600000Y-113800000D01*
X172200000Y-114400000D02*
X172200000Y-122600000D01*
X174250000Y-117050000D02*
X174250000Y-114450000D01*
%TO.N,/ESP_BOOT*%
X188325000Y-88255000D02*
X188400000Y-88330000D01*
X183500000Y-88255000D02*
X188325000Y-88255000D01*
X190880000Y-88330000D02*
X191200000Y-88650000D01*
X188400000Y-88330000D02*
X190880000Y-88330000D01*
%TO.N,Net-(DL101-Pad2)*%
X161500000Y-131750000D02*
X161500000Y-129700000D01*
%TO.N,Net-(DL102-Pad1)*%
X194800000Y-123800000D02*
X194800000Y-125300000D01*
%TO.N,Net-(DL102-Pad2)*%
X188500000Y-126250000D02*
X188500000Y-126700000D01*
X188500000Y-126700000D02*
X189000000Y-127200000D01*
X191035002Y-127200000D02*
X191400000Y-127564998D01*
X189000000Y-127200000D02*
X191035002Y-127200000D01*
X191400000Y-127564998D02*
X191400000Y-128200000D01*
X191400000Y-128200000D02*
X192200000Y-129000000D01*
X192200000Y-129000000D02*
X194400000Y-129000000D01*
X194800000Y-128600000D02*
X194800000Y-127200000D01*
X194400000Y-129000000D02*
X194800000Y-128600000D01*
%TO.N,Net-(DL103-Pad2)*%
X189500000Y-126250000D02*
X191050000Y-126250000D01*
X192000000Y-127200000D02*
X192600000Y-127200000D01*
X191050000Y-126250000D02*
X192000000Y-127200000D01*
%TO.N,Net-(DL103-Pad1)*%
X192600000Y-123750000D02*
X192600000Y-125300000D01*
%TO.N,Net-(DL104-Pad2)*%
X163750000Y-131750000D02*
X163750000Y-129650000D01*
%TO.N,/ADC_BAT_STATUS*%
X172090000Y-106110000D02*
X172200000Y-106000000D01*
X169420000Y-106110000D02*
X172090000Y-106110000D01*
X172200000Y-106000000D02*
X172200000Y-107450000D01*
%TO.N,/ESP_PROG_RX*%
X183500000Y-76825000D02*
X186025000Y-76825000D01*
X186025000Y-76825000D02*
X186800000Y-77600000D01*
X186800000Y-77600000D02*
X186800000Y-80000000D01*
X187400000Y-80600000D02*
X188400000Y-80600000D01*
X186800000Y-80000000D02*
X187400000Y-80600000D01*
%TO.N,/ESP_PROG_TX*%
X183500000Y-75555000D02*
X187155000Y-75555000D01*
X188400000Y-76800000D02*
X188400000Y-78060000D01*
X187155000Y-75555000D02*
X188400000Y-76800000D01*
%TO.N,Net-(R104-Pad1)*%
X188550000Y-123200000D02*
X188500000Y-123250000D01*
X188550000Y-121500000D02*
X188550000Y-123200000D01*
%TO.N,/DIRECTION_C1*%
X103000000Y-83750000D02*
X105150000Y-83750000D01*
X105150000Y-83750000D02*
X117000000Y-83750000D01*
X103000000Y-83750000D02*
X104750000Y-83750000D01*
X104300000Y-102500000D02*
X117000000Y-102500000D01*
X104700000Y-102500000D02*
X104300000Y-102500000D01*
X103000000Y-102500000D02*
X104300000Y-102500000D01*
X104550000Y-121250000D02*
X117000000Y-121250000D01*
X103000000Y-121250000D02*
X104550000Y-121250000D01*
X117000000Y-121250000D02*
X137750000Y-121250000D01*
X141400000Y-117600000D02*
X160000000Y-117600000D01*
X137750000Y-121250000D02*
X141400000Y-117600000D01*
X183190000Y-114800000D02*
X184660000Y-116270000D01*
X183000000Y-114800000D02*
X183190000Y-114800000D01*
%TO.N,/DIRECTION_R1*%
X103000000Y-88750000D02*
X117000000Y-88750000D01*
X117000000Y-88750000D02*
X120850000Y-88750000D01*
X123000000Y-86600000D02*
X123000000Y-82500000D01*
X120850000Y-88750000D02*
X123000000Y-86600000D01*
X123000000Y-82500000D02*
X137000000Y-82500000D01*
X137000000Y-82500000D02*
X137000000Y-86000000D01*
X139750000Y-88750000D02*
X143000000Y-88750000D01*
X137000000Y-86000000D02*
X139750000Y-88750000D01*
X143000000Y-88750000D02*
X157000000Y-88750000D01*
X179000000Y-122350000D02*
X179000000Y-123400000D01*
X179490000Y-123890000D02*
X181350000Y-123890000D01*
X179000000Y-123400000D02*
X179490000Y-123890000D01*
X160000000Y-114800000D02*
X159000000Y-113800000D01*
X159000000Y-113800000D02*
X159000000Y-98800000D01*
X157000000Y-96800000D02*
X157000000Y-88750000D01*
X159000000Y-98800000D02*
X157000000Y-96800000D01*
X173000000Y-118400000D02*
X173000000Y-115000000D01*
X173600000Y-119000000D02*
X173000000Y-118400000D01*
X179000000Y-122350000D02*
X175650000Y-119000000D01*
X175650000Y-119000000D02*
X173600000Y-119000000D01*
%TO.N,/DIRECTION_R2*%
X103000000Y-107500000D02*
X117000000Y-107500000D01*
X117000000Y-107500000D02*
X143000000Y-107500000D01*
X143000000Y-107500000D02*
X157000000Y-107500000D01*
X184660000Y-118790000D02*
X184660000Y-121350000D01*
X186500000Y-116950000D02*
X184660000Y-118790000D01*
X187400000Y-116950000D02*
X186500000Y-116950000D01*
X157000000Y-113200000D02*
X160000000Y-116200000D01*
X157000000Y-107500000D02*
X157000000Y-113200000D01*
X183516998Y-118790000D02*
X184660000Y-118790000D01*
X178800000Y-114073002D02*
X183516998Y-118790000D01*
X178800000Y-114000000D02*
X178800000Y-114073002D01*
%TO.N,/DIRECTION_R3*%
X103000000Y-126250000D02*
X117000000Y-126250000D01*
X117000000Y-126250000D02*
X117000000Y-130600000D01*
X118900000Y-132500000D02*
X123000000Y-132500000D01*
X117000000Y-130600000D02*
X118900000Y-132500000D01*
X123000000Y-132500000D02*
X137000000Y-132500000D01*
X137000000Y-132500000D02*
X141100000Y-132500000D01*
X141100000Y-132500000D02*
X143000000Y-130600000D01*
X143000000Y-130600000D02*
X143000000Y-126250000D01*
X143000000Y-126250000D02*
X157000000Y-126250000D01*
X160350000Y-126250000D02*
X161200000Y-125400000D01*
X157000000Y-126250000D02*
X160350000Y-126250000D01*
X179981664Y-121399999D02*
X180800001Y-121399999D01*
X181350000Y-120850000D02*
X181350000Y-118810000D01*
X180800001Y-121399999D02*
X181350000Y-120850000D01*
X179100000Y-115900000D02*
X181350000Y-118150000D01*
X179000000Y-115900000D02*
X179100000Y-115900000D01*
X181350000Y-118150000D02*
X181350000Y-118810000D01*
%TO.N,/DIRECTION_C2*%
X123000000Y-77500000D02*
X124500000Y-77500000D01*
X124300000Y-127500000D02*
X123000000Y-127500000D01*
X137000000Y-127500000D02*
X125900000Y-127500000D01*
X125900000Y-127500000D02*
X124300000Y-127500000D01*
X125700000Y-77500000D02*
X123000000Y-77500000D01*
X137000000Y-77500000D02*
X125700000Y-77500000D01*
X137000000Y-127500000D02*
X137000000Y-123400000D01*
X141200000Y-119200000D02*
X160000000Y-119200000D01*
X137000000Y-123400000D02*
X141200000Y-119200000D01*
X181400000Y-113780000D02*
X181350000Y-113730000D01*
X181400000Y-115600000D02*
X181400000Y-113780000D01*
%TO.N,/DIRECTION_C3*%
X157000000Y-83750000D02*
X145650000Y-83750000D01*
X145750000Y-83750000D02*
X145800000Y-83800000D01*
X145650000Y-83750000D02*
X145750000Y-83750000D01*
X145650000Y-83750000D02*
X143000000Y-83750000D01*
X143100000Y-102400000D02*
X143000000Y-102500000D01*
X145800000Y-102400000D02*
X143100000Y-102400000D01*
X156900000Y-102400000D02*
X157000000Y-102500000D01*
X145800000Y-102400000D02*
X156900000Y-102400000D01*
X145550000Y-121250000D02*
X157000000Y-121250000D01*
X143000000Y-121250000D02*
X145550000Y-121250000D01*
X159950000Y-121250000D02*
X160000000Y-121200000D01*
X157000000Y-121250000D02*
X159950000Y-121250000D01*
X184675000Y-111205000D02*
X184660000Y-111190000D01*
X184675000Y-113400000D02*
X184675000Y-111205000D01*
%TO.N,/POWER_C1*%
X196530000Y-101030000D02*
X198000000Y-102500000D01*
X184660000Y-101030000D02*
X196530000Y-101030000D01*
X198000000Y-77500000D02*
X208700000Y-77500000D01*
X208900000Y-77500000D02*
X208700000Y-77500000D01*
X208900000Y-77500000D02*
X212000000Y-77500000D01*
X208700000Y-102500000D02*
X212000000Y-102500000D01*
X198000000Y-102500000D02*
X208700000Y-102500000D01*
X208700000Y-127500000D02*
X212000000Y-127500000D01*
X198000000Y-127500000D02*
X208700000Y-127500000D01*
%TO.N,/POWER_R1*%
X181250000Y-108550000D02*
X181350000Y-108650000D01*
X178800000Y-108550000D02*
X181250000Y-108550000D01*
X198000000Y-82500000D02*
X212000000Y-82500000D01*
X212000000Y-82500000D02*
X218000000Y-82500000D01*
X218000000Y-82500000D02*
X232000000Y-82500000D01*
X197900000Y-82600000D02*
X198000000Y-82500000D01*
X196200000Y-82600000D02*
X197900000Y-82600000D01*
X182000000Y-109600000D02*
X181350000Y-108950000D01*
X191600000Y-109600000D02*
X182000000Y-109600000D01*
X181350000Y-108950000D02*
X181350000Y-108650000D01*
%TO.N,/POWER_R2*%
X186860000Y-106110000D02*
X187000000Y-106250000D01*
X184660000Y-106110000D02*
X186860000Y-106110000D01*
X198000000Y-107500000D02*
X212000000Y-107500000D01*
X212000000Y-107500000D02*
X218000000Y-107500000D01*
X218000000Y-107500000D02*
X232000000Y-107500000D01*
X196750000Y-106250000D02*
X198000000Y-107500000D01*
X187000000Y-106250000D02*
X196750000Y-106250000D01*
%TO.N,/POWER_R3*%
X181130000Y-103350000D02*
X181350000Y-103570000D01*
X178800000Y-103350000D02*
X181130000Y-103350000D01*
X212000000Y-132500000D02*
X218000000Y-132500000D01*
X218000000Y-132500000D02*
X232000000Y-132500000D01*
X205700000Y-132500000D02*
X212000000Y-132500000D01*
X198000000Y-132500000D02*
X205700000Y-132500000D01*
X194570000Y-103570000D02*
X181350000Y-103570000D01*
X195800000Y-104800000D02*
X194570000Y-103570000D01*
X200800000Y-104800000D02*
X195800000Y-104800000D01*
%TO.N,/POWER_C2*%
X181350000Y-98490000D02*
X216090000Y-98490000D01*
X218000000Y-100400000D02*
X218000000Y-102500000D01*
X216090000Y-98490000D02*
X218000000Y-100400000D01*
X228900000Y-77500000D02*
X228800000Y-77600000D01*
X218000000Y-77500000D02*
X228900000Y-77500000D01*
X228900000Y-77500000D02*
X232000000Y-77500000D01*
X228700000Y-102500000D02*
X232000000Y-102500000D01*
X218000000Y-102500000D02*
X228700000Y-102500000D01*
X228700000Y-127500000D02*
X232000000Y-127500000D01*
X218000000Y-127500000D02*
X228700000Y-127500000D01*
%TO.N,/UART_CMD_TX*%
X184950000Y-134050000D02*
X186000000Y-133000000D01*
X181350000Y-134050000D02*
X184950000Y-134050000D01*
X184680685Y-85715000D02*
X183500000Y-85715000D01*
X185400000Y-86434315D02*
X184680685Y-85715000D01*
X185400000Y-87000000D02*
X185400000Y-86434315D01*
%TO.N,/UART_CMD_RX*%
X184645000Y-84445000D02*
X186400000Y-86200000D01*
X183500000Y-84445000D02*
X184645000Y-84445000D01*
X186400000Y-128400000D02*
X186400000Y-131000000D01*
X185890000Y-131510000D02*
X184660000Y-131510000D01*
X186400000Y-131000000D02*
X185890000Y-131510000D01*
%TO.N,/ESP2MCU_02*%
X166110000Y-118810000D02*
X164410000Y-118810000D01*
X164410000Y-118810000D02*
X162200000Y-116600000D01*
X162200000Y-116600000D02*
X162200000Y-114800000D01*
X162200000Y-114800000D02*
X160600000Y-113200000D01*
X160600000Y-103400000D02*
X161600000Y-102400000D01*
X160600000Y-113200000D02*
X160600000Y-103400000D01*
X186200000Y-84200000D02*
X186200000Y-82600000D01*
X186800000Y-84800000D02*
X186200000Y-84200000D01*
X185505000Y-81905000D02*
X183500000Y-81905000D01*
X191600000Y-84800000D02*
X186800000Y-84800000D01*
X193200000Y-86400000D02*
X191600000Y-84800000D01*
X193200000Y-91400000D02*
X193200000Y-86400000D01*
X186200000Y-82600000D02*
X185505000Y-81905000D01*
X192200000Y-92400000D02*
X193200000Y-91400000D01*
X177800000Y-92400000D02*
X192200000Y-92400000D01*
X177400000Y-92000000D02*
X177800000Y-92400000D01*
X176600000Y-92000000D02*
X177400000Y-92000000D01*
%TO.N,/ESP2MCU_01*%
X185984998Y-80635000D02*
X186974999Y-81625001D01*
X183500000Y-80635000D02*
X185984998Y-80635000D01*
X186974999Y-81625001D02*
X189225001Y-81625001D01*
X186974999Y-81625001D02*
X191025001Y-81625001D01*
X191025001Y-81625001D02*
X193800000Y-84400000D01*
X193800000Y-84400000D02*
X193800000Y-91800000D01*
X192600000Y-93000000D02*
X176800000Y-93000000D01*
X193800000Y-91800000D02*
X192600000Y-93000000D01*
X170800000Y-112800000D02*
X173400000Y-110200000D01*
X173400000Y-110200000D02*
X173400000Y-108400000D01*
X170800000Y-118400000D02*
X170800000Y-112800000D01*
X169420000Y-119780000D02*
X170800000Y-118400000D01*
X169420000Y-121350000D02*
X169420000Y-119780000D01*
%TO.N,/ADDR_0*%
X163750000Y-112000000D02*
X163750000Y-115150000D01*
X164870000Y-116270000D02*
X169420000Y-116270000D01*
X163750000Y-115150000D02*
X164870000Y-116270000D01*
%TO.N,/ADDR_1*%
X163750000Y-109800000D02*
X164800000Y-109800000D01*
X166110000Y-111110000D02*
X166110000Y-113730000D01*
X164800000Y-109800000D02*
X166110000Y-111110000D01*
%TO.N,/ADDR_2*%
X169420000Y-109220000D02*
X169420000Y-111190000D01*
X167800000Y-107600000D02*
X169420000Y-109220000D01*
X163800000Y-107600000D02*
X167800000Y-107600000D01*
%TD*%
D35*
%TO.N,GND*%
G36*
X182146000Y-71629500D02*
G01*
X182234500Y-71718000D01*
X183473000Y-71718000D01*
X183473000Y-71698000D01*
X183527000Y-71698000D01*
X183527000Y-71718000D01*
X183547000Y-71718000D01*
X183547000Y-71772000D01*
X183527000Y-71772000D01*
X183527000Y-71792000D01*
X183473000Y-71792000D01*
X183473000Y-71772000D01*
X182234500Y-71772000D01*
X182146000Y-71860500D01*
X182144287Y-72195000D01*
X182151122Y-72264396D01*
X182171364Y-72331125D01*
X182197488Y-72380001D01*
X182171365Y-72428875D01*
X182151123Y-72495604D01*
X182144288Y-72565000D01*
X182144288Y-73465000D01*
X182151123Y-73534396D01*
X182171365Y-73601125D01*
X182197489Y-73650000D01*
X182171365Y-73698875D01*
X182151123Y-73765604D01*
X182144288Y-73835000D01*
X182144288Y-74735000D01*
X182151123Y-74804396D01*
X182171365Y-74871125D01*
X182197489Y-74920000D01*
X182171365Y-74968875D01*
X182151123Y-75035604D01*
X182144288Y-75105000D01*
X182144288Y-76005000D01*
X182151123Y-76074396D01*
X182171365Y-76141125D01*
X182197489Y-76190000D01*
X182171365Y-76238875D01*
X182151123Y-76305604D01*
X182144288Y-76375000D01*
X182144288Y-77275000D01*
X182151123Y-77344396D01*
X182171365Y-77411125D01*
X182197489Y-77460000D01*
X182171365Y-77508875D01*
X182151123Y-77575604D01*
X182144288Y-77645000D01*
X182144288Y-78545000D01*
X182151123Y-78614396D01*
X182171365Y-78681125D01*
X182197489Y-78730000D01*
X182171365Y-78778875D01*
X182151123Y-78845604D01*
X182144288Y-78915000D01*
X182144288Y-79815000D01*
X182151123Y-79884396D01*
X182171365Y-79951125D01*
X182197489Y-80000000D01*
X182171365Y-80048875D01*
X182151123Y-80115604D01*
X182144288Y-80185000D01*
X182144288Y-81085000D01*
X182151123Y-81154396D01*
X182171365Y-81221125D01*
X182197489Y-81270000D01*
X182171365Y-81318875D01*
X182151123Y-81385604D01*
X182144288Y-81455000D01*
X182144288Y-82355000D01*
X182151123Y-82424396D01*
X182171365Y-82491125D01*
X182197489Y-82540000D01*
X182171365Y-82588875D01*
X182151123Y-82655604D01*
X182144288Y-82725000D01*
X182144288Y-83625000D01*
X182151123Y-83694396D01*
X182171365Y-83761125D01*
X182197489Y-83810000D01*
X182171365Y-83858875D01*
X182151123Y-83925604D01*
X182144288Y-83995000D01*
X182144288Y-84895000D01*
X182151123Y-84964396D01*
X182171365Y-85031125D01*
X182197489Y-85080000D01*
X182171365Y-85128875D01*
X182151123Y-85195604D01*
X182144288Y-85265000D01*
X182144288Y-86165000D01*
X182151123Y-86234396D01*
X182171365Y-86301125D01*
X182197489Y-86350000D01*
X182171365Y-86398875D01*
X182151123Y-86465604D01*
X182144288Y-86535000D01*
X182144288Y-87435000D01*
X182151123Y-87504396D01*
X182171365Y-87571125D01*
X182197489Y-87620000D01*
X182171365Y-87668875D01*
X182151123Y-87735604D01*
X182144288Y-87805000D01*
X182144288Y-88705000D01*
X182151123Y-88774396D01*
X182171365Y-88841125D01*
X182204236Y-88902623D01*
X182248474Y-88956526D01*
X182302377Y-89000764D01*
X182363875Y-89033635D01*
X182430604Y-89053877D01*
X182500000Y-89060712D01*
X184500000Y-89060712D01*
X184500000Y-90300000D01*
X181516280Y-90300000D01*
X181520712Y-90255000D01*
X181520712Y-88255000D01*
X181513877Y-88185604D01*
X181493635Y-88118875D01*
X181460764Y-88057377D01*
X181416526Y-88003474D01*
X181362623Y-87959236D01*
X181301125Y-87926365D01*
X181234396Y-87906123D01*
X181165000Y-87899288D01*
X180265000Y-87899288D01*
X180195604Y-87906123D01*
X180128875Y-87926365D01*
X180080000Y-87952489D01*
X180031125Y-87926365D01*
X179964396Y-87906123D01*
X179895000Y-87899288D01*
X178995000Y-87899288D01*
X178925604Y-87906123D01*
X178858875Y-87926365D01*
X178810000Y-87952489D01*
X178761125Y-87926365D01*
X178694396Y-87906123D01*
X178625000Y-87899288D01*
X177725000Y-87899288D01*
X177655604Y-87906123D01*
X177588875Y-87926365D01*
X177540000Y-87952489D01*
X177491125Y-87926365D01*
X177424396Y-87906123D01*
X177355000Y-87899288D01*
X176455000Y-87899288D01*
X176385604Y-87906123D01*
X176318875Y-87926365D01*
X176270000Y-87952489D01*
X176221125Y-87926365D01*
X176154396Y-87906123D01*
X176085000Y-87899288D01*
X175185000Y-87899288D01*
X175115604Y-87906123D01*
X175048875Y-87926365D01*
X175000000Y-87952489D01*
X174951125Y-87926365D01*
X174884396Y-87906123D01*
X174815000Y-87899288D01*
X173915000Y-87899288D01*
X173845604Y-87906123D01*
X173778875Y-87926365D01*
X173730000Y-87952489D01*
X173681125Y-87926365D01*
X173614396Y-87906123D01*
X173545000Y-87899288D01*
X172645000Y-87899288D01*
X172575604Y-87906123D01*
X172508875Y-87926365D01*
X172460000Y-87952489D01*
X172411125Y-87926365D01*
X172344396Y-87906123D01*
X172275000Y-87899288D01*
X171375000Y-87899288D01*
X171305604Y-87906123D01*
X171238875Y-87926365D01*
X171190000Y-87952489D01*
X171141125Y-87926365D01*
X171074396Y-87906123D01*
X171005000Y-87899288D01*
X170105000Y-87899288D01*
X170035604Y-87906123D01*
X169968875Y-87926365D01*
X169920001Y-87952488D01*
X169871125Y-87926364D01*
X169804396Y-87906122D01*
X169735000Y-87899287D01*
X169400500Y-87901000D01*
X169312000Y-87989500D01*
X169312000Y-89228000D01*
X169332000Y-89228000D01*
X169332000Y-89282000D01*
X169312000Y-89282000D01*
X169312000Y-89302000D01*
X169258000Y-89302000D01*
X169258000Y-89282000D01*
X168569500Y-89282000D01*
X168481000Y-89370500D01*
X168479287Y-90255000D01*
X168483719Y-90300000D01*
X165300000Y-90300000D01*
X165300000Y-88998813D01*
X165302377Y-89000764D01*
X165363875Y-89033635D01*
X165430604Y-89053877D01*
X165500000Y-89060712D01*
X167500000Y-89060712D01*
X167569396Y-89053877D01*
X167636125Y-89033635D01*
X167697623Y-89000764D01*
X167751526Y-88956526D01*
X167795764Y-88902623D01*
X167828635Y-88841125D01*
X167848877Y-88774396D01*
X167855712Y-88705000D01*
X167855712Y-88255000D01*
X168479287Y-88255000D01*
X168481000Y-89139500D01*
X168569500Y-89228000D01*
X169258000Y-89228000D01*
X169258000Y-87989500D01*
X169169500Y-87901000D01*
X168835000Y-87899287D01*
X168765604Y-87906122D01*
X168698875Y-87926364D01*
X168637376Y-87959235D01*
X168583473Y-88003473D01*
X168539235Y-88057376D01*
X168506364Y-88118875D01*
X168486122Y-88185604D01*
X168479287Y-88255000D01*
X167855712Y-88255000D01*
X167855712Y-87805000D01*
X167848877Y-87735604D01*
X167828635Y-87668875D01*
X167802511Y-87620000D01*
X167828635Y-87571125D01*
X167848877Y-87504396D01*
X167855712Y-87435000D01*
X167855712Y-86535000D01*
X167848877Y-86465604D01*
X167828635Y-86398875D01*
X167802511Y-86350000D01*
X167828635Y-86301125D01*
X167848877Y-86234396D01*
X167855712Y-86165000D01*
X167855712Y-85265000D01*
X167848877Y-85195604D01*
X167828635Y-85128875D01*
X167802511Y-85080000D01*
X167828635Y-85031125D01*
X167848877Y-84964396D01*
X167855712Y-84895000D01*
X167855712Y-83995000D01*
X167848877Y-83925604D01*
X167828635Y-83858875D01*
X167802511Y-83810000D01*
X167828635Y-83761125D01*
X167848877Y-83694396D01*
X167855712Y-83625000D01*
X167855712Y-82725000D01*
X167848877Y-82655604D01*
X167828635Y-82588875D01*
X167802511Y-82540000D01*
X167828635Y-82491125D01*
X167848877Y-82424396D01*
X167855712Y-82355000D01*
X167855712Y-81745000D01*
X171144287Y-81745000D01*
X171151122Y-81814396D01*
X171171364Y-81881125D01*
X171204235Y-81942624D01*
X171248473Y-81996527D01*
X171302376Y-82040765D01*
X171363875Y-82073636D01*
X171430604Y-82093878D01*
X171500000Y-82100713D01*
X173884500Y-82099000D01*
X173973000Y-82010500D01*
X173973000Y-79272000D01*
X174027000Y-79272000D01*
X174027000Y-82010500D01*
X174115500Y-82099000D01*
X176500000Y-82100713D01*
X176569396Y-82093878D01*
X176636125Y-82073636D01*
X176697624Y-82040765D01*
X176751527Y-81996527D01*
X176795765Y-81942624D01*
X176828636Y-81881125D01*
X176848878Y-81814396D01*
X176855713Y-81745000D01*
X176854000Y-79360500D01*
X176765500Y-79272000D01*
X174027000Y-79272000D01*
X173973000Y-79272000D01*
X171234500Y-79272000D01*
X171146000Y-79360500D01*
X171144287Y-81745000D01*
X167855712Y-81745000D01*
X167855712Y-81455000D01*
X167848877Y-81385604D01*
X167828635Y-81318875D01*
X167802511Y-81270000D01*
X167828635Y-81221125D01*
X167848877Y-81154396D01*
X167855712Y-81085000D01*
X167855712Y-80185000D01*
X167848877Y-80115604D01*
X167828635Y-80048875D01*
X167802511Y-80000000D01*
X167828635Y-79951125D01*
X167848877Y-79884396D01*
X167855712Y-79815000D01*
X167855712Y-78915000D01*
X167848877Y-78845604D01*
X167828635Y-78778875D01*
X167802511Y-78730000D01*
X167828635Y-78681125D01*
X167848877Y-78614396D01*
X167855712Y-78545000D01*
X167855712Y-77645000D01*
X167848877Y-77575604D01*
X167828635Y-77508875D01*
X167802511Y-77460000D01*
X167828635Y-77411125D01*
X167848877Y-77344396D01*
X167855712Y-77275000D01*
X167855712Y-76745000D01*
X171144287Y-76745000D01*
X171146000Y-79129500D01*
X171234500Y-79218000D01*
X173973000Y-79218000D01*
X173973000Y-76479500D01*
X174027000Y-76479500D01*
X174027000Y-79218000D01*
X176765500Y-79218000D01*
X176854000Y-79129500D01*
X176855713Y-76745000D01*
X176848878Y-76675604D01*
X176828636Y-76608875D01*
X176795765Y-76547376D01*
X176751527Y-76493473D01*
X176697624Y-76449235D01*
X176636125Y-76416364D01*
X176569396Y-76396122D01*
X176500000Y-76389287D01*
X174115500Y-76391000D01*
X174027000Y-76479500D01*
X173973000Y-76479500D01*
X173884500Y-76391000D01*
X171500000Y-76389287D01*
X171430604Y-76396122D01*
X171363875Y-76416364D01*
X171302376Y-76449235D01*
X171248473Y-76493473D01*
X171204235Y-76547376D01*
X171171364Y-76608875D01*
X171151122Y-76675604D01*
X171144287Y-76745000D01*
X167855712Y-76745000D01*
X167855712Y-76375000D01*
X167848877Y-76305604D01*
X167828635Y-76238875D01*
X167802511Y-76190000D01*
X167828635Y-76141125D01*
X167848877Y-76074396D01*
X167855712Y-76005000D01*
X167855712Y-75105000D01*
X167848877Y-75035604D01*
X167828635Y-74968875D01*
X167802511Y-74920000D01*
X167828635Y-74871125D01*
X167848877Y-74804396D01*
X167855712Y-74735000D01*
X167855712Y-73835000D01*
X167848877Y-73765604D01*
X167828635Y-73698875D01*
X167802511Y-73650000D01*
X167828635Y-73601125D01*
X167848877Y-73534396D01*
X167855712Y-73465000D01*
X167855712Y-72565000D01*
X167848877Y-72495604D01*
X167828635Y-72428875D01*
X167802512Y-72380001D01*
X167828636Y-72331125D01*
X167848878Y-72264396D01*
X167855713Y-72195000D01*
X167854000Y-71860500D01*
X167765500Y-71772000D01*
X166527000Y-71772000D01*
X166527000Y-71792000D01*
X166473000Y-71792000D01*
X166473000Y-71772000D01*
X166453000Y-71772000D01*
X166453000Y-71718000D01*
X166473000Y-71718000D01*
X166473000Y-71698000D01*
X166527000Y-71698000D01*
X166527000Y-71718000D01*
X167765500Y-71718000D01*
X167854000Y-71629500D01*
X167855687Y-71300000D01*
X182144313Y-71300000D01*
X182146000Y-71629500D01*
G37*
X182146000Y-71629500D02*
X182234500Y-71718000D01*
X183473000Y-71718000D01*
X183473000Y-71698000D01*
X183527000Y-71698000D01*
X183527000Y-71718000D01*
X183547000Y-71718000D01*
X183547000Y-71772000D01*
X183527000Y-71772000D01*
X183527000Y-71792000D01*
X183473000Y-71792000D01*
X183473000Y-71772000D01*
X182234500Y-71772000D01*
X182146000Y-71860500D01*
X182144287Y-72195000D01*
X182151122Y-72264396D01*
X182171364Y-72331125D01*
X182197488Y-72380001D01*
X182171365Y-72428875D01*
X182151123Y-72495604D01*
X182144288Y-72565000D01*
X182144288Y-73465000D01*
X182151123Y-73534396D01*
X182171365Y-73601125D01*
X182197489Y-73650000D01*
X182171365Y-73698875D01*
X182151123Y-73765604D01*
X182144288Y-73835000D01*
X182144288Y-74735000D01*
X182151123Y-74804396D01*
X182171365Y-74871125D01*
X182197489Y-74920000D01*
X182171365Y-74968875D01*
X182151123Y-75035604D01*
X182144288Y-75105000D01*
X182144288Y-76005000D01*
X182151123Y-76074396D01*
X182171365Y-76141125D01*
X182197489Y-76190000D01*
X182171365Y-76238875D01*
X182151123Y-76305604D01*
X182144288Y-76375000D01*
X182144288Y-77275000D01*
X182151123Y-77344396D01*
X182171365Y-77411125D01*
X182197489Y-77460000D01*
X182171365Y-77508875D01*
X182151123Y-77575604D01*
X182144288Y-77645000D01*
X182144288Y-78545000D01*
X182151123Y-78614396D01*
X182171365Y-78681125D01*
X182197489Y-78730000D01*
X182171365Y-78778875D01*
X182151123Y-78845604D01*
X182144288Y-78915000D01*
X182144288Y-79815000D01*
X182151123Y-79884396D01*
X182171365Y-79951125D01*
X182197489Y-80000000D01*
X182171365Y-80048875D01*
X182151123Y-80115604D01*
X182144288Y-80185000D01*
X182144288Y-81085000D01*
X182151123Y-81154396D01*
X182171365Y-81221125D01*
X182197489Y-81270000D01*
X182171365Y-81318875D01*
X182151123Y-81385604D01*
X182144288Y-81455000D01*
X182144288Y-82355000D01*
X182151123Y-82424396D01*
X182171365Y-82491125D01*
X182197489Y-82540000D01*
X182171365Y-82588875D01*
X182151123Y-82655604D01*
X182144288Y-82725000D01*
X182144288Y-83625000D01*
X182151123Y-83694396D01*
X182171365Y-83761125D01*
X182197489Y-83810000D01*
X182171365Y-83858875D01*
X182151123Y-83925604D01*
X182144288Y-83995000D01*
X182144288Y-84895000D01*
X182151123Y-84964396D01*
X182171365Y-85031125D01*
X182197489Y-85080000D01*
X182171365Y-85128875D01*
X182151123Y-85195604D01*
X182144288Y-85265000D01*
X182144288Y-86165000D01*
X182151123Y-86234396D01*
X182171365Y-86301125D01*
X182197489Y-86350000D01*
X182171365Y-86398875D01*
X182151123Y-86465604D01*
X182144288Y-86535000D01*
X182144288Y-87435000D01*
X182151123Y-87504396D01*
X182171365Y-87571125D01*
X182197489Y-87620000D01*
X182171365Y-87668875D01*
X182151123Y-87735604D01*
X182144288Y-87805000D01*
X182144288Y-88705000D01*
X182151123Y-88774396D01*
X182171365Y-88841125D01*
X182204236Y-88902623D01*
X182248474Y-88956526D01*
X182302377Y-89000764D01*
X182363875Y-89033635D01*
X182430604Y-89053877D01*
X182500000Y-89060712D01*
X184500000Y-89060712D01*
X184500000Y-90300000D01*
X181516280Y-90300000D01*
X181520712Y-90255000D01*
X181520712Y-88255000D01*
X181513877Y-88185604D01*
X181493635Y-88118875D01*
X181460764Y-88057377D01*
X181416526Y-88003474D01*
X181362623Y-87959236D01*
X181301125Y-87926365D01*
X181234396Y-87906123D01*
X181165000Y-87899288D01*
X180265000Y-87899288D01*
X180195604Y-87906123D01*
X180128875Y-87926365D01*
X180080000Y-87952489D01*
X180031125Y-87926365D01*
X179964396Y-87906123D01*
X179895000Y-87899288D01*
X178995000Y-87899288D01*
X178925604Y-87906123D01*
X178858875Y-87926365D01*
X178810000Y-87952489D01*
X178761125Y-87926365D01*
X178694396Y-87906123D01*
X178625000Y-87899288D01*
X177725000Y-87899288D01*
X177655604Y-87906123D01*
X177588875Y-87926365D01*
X177540000Y-87952489D01*
X177491125Y-87926365D01*
X177424396Y-87906123D01*
X177355000Y-87899288D01*
X176455000Y-87899288D01*
X176385604Y-87906123D01*
X176318875Y-87926365D01*
X176270000Y-87952489D01*
X176221125Y-87926365D01*
X176154396Y-87906123D01*
X176085000Y-87899288D01*
X175185000Y-87899288D01*
X175115604Y-87906123D01*
X175048875Y-87926365D01*
X175000000Y-87952489D01*
X174951125Y-87926365D01*
X174884396Y-87906123D01*
X174815000Y-87899288D01*
X173915000Y-87899288D01*
X173845604Y-87906123D01*
X173778875Y-87926365D01*
X173730000Y-87952489D01*
X173681125Y-87926365D01*
X173614396Y-87906123D01*
X173545000Y-87899288D01*
X172645000Y-87899288D01*
X172575604Y-87906123D01*
X172508875Y-87926365D01*
X172460000Y-87952489D01*
X172411125Y-87926365D01*
X172344396Y-87906123D01*
X172275000Y-87899288D01*
X171375000Y-87899288D01*
X171305604Y-87906123D01*
X171238875Y-87926365D01*
X171190000Y-87952489D01*
X171141125Y-87926365D01*
X171074396Y-87906123D01*
X171005000Y-87899288D01*
X170105000Y-87899288D01*
X170035604Y-87906123D01*
X169968875Y-87926365D01*
X169920001Y-87952488D01*
X169871125Y-87926364D01*
X169804396Y-87906122D01*
X169735000Y-87899287D01*
X169400500Y-87901000D01*
X169312000Y-87989500D01*
X169312000Y-89228000D01*
X169332000Y-89228000D01*
X169332000Y-89282000D01*
X169312000Y-89282000D01*
X169312000Y-89302000D01*
X169258000Y-89302000D01*
X169258000Y-89282000D01*
X168569500Y-89282000D01*
X168481000Y-89370500D01*
X168479287Y-90255000D01*
X168483719Y-90300000D01*
X165300000Y-90300000D01*
X165300000Y-88998813D01*
X165302377Y-89000764D01*
X165363875Y-89033635D01*
X165430604Y-89053877D01*
X165500000Y-89060712D01*
X167500000Y-89060712D01*
X167569396Y-89053877D01*
X167636125Y-89033635D01*
X167697623Y-89000764D01*
X167751526Y-88956526D01*
X167795764Y-88902623D01*
X167828635Y-88841125D01*
X167848877Y-88774396D01*
X167855712Y-88705000D01*
X167855712Y-88255000D01*
X168479287Y-88255000D01*
X168481000Y-89139500D01*
X168569500Y-89228000D01*
X169258000Y-89228000D01*
X169258000Y-87989500D01*
X169169500Y-87901000D01*
X168835000Y-87899287D01*
X168765604Y-87906122D01*
X168698875Y-87926364D01*
X168637376Y-87959235D01*
X168583473Y-88003473D01*
X168539235Y-88057376D01*
X168506364Y-88118875D01*
X168486122Y-88185604D01*
X168479287Y-88255000D01*
X167855712Y-88255000D01*
X167855712Y-87805000D01*
X167848877Y-87735604D01*
X167828635Y-87668875D01*
X167802511Y-87620000D01*
X167828635Y-87571125D01*
X167848877Y-87504396D01*
X167855712Y-87435000D01*
X167855712Y-86535000D01*
X167848877Y-86465604D01*
X167828635Y-86398875D01*
X167802511Y-86350000D01*
X167828635Y-86301125D01*
X167848877Y-86234396D01*
X167855712Y-86165000D01*
X167855712Y-85265000D01*
X167848877Y-85195604D01*
X167828635Y-85128875D01*
X167802511Y-85080000D01*
X167828635Y-85031125D01*
X167848877Y-84964396D01*
X167855712Y-84895000D01*
X167855712Y-83995000D01*
X167848877Y-83925604D01*
X167828635Y-83858875D01*
X167802511Y-83810000D01*
X167828635Y-83761125D01*
X167848877Y-83694396D01*
X167855712Y-83625000D01*
X167855712Y-82725000D01*
X167848877Y-82655604D01*
X167828635Y-82588875D01*
X167802511Y-82540000D01*
X167828635Y-82491125D01*
X167848877Y-82424396D01*
X167855712Y-82355000D01*
X167855712Y-81745000D01*
X171144287Y-81745000D01*
X171151122Y-81814396D01*
X171171364Y-81881125D01*
X171204235Y-81942624D01*
X171248473Y-81996527D01*
X171302376Y-82040765D01*
X171363875Y-82073636D01*
X171430604Y-82093878D01*
X171500000Y-82100713D01*
X173884500Y-82099000D01*
X173973000Y-82010500D01*
X173973000Y-79272000D01*
X174027000Y-79272000D01*
X174027000Y-82010500D01*
X174115500Y-82099000D01*
X176500000Y-82100713D01*
X176569396Y-82093878D01*
X176636125Y-82073636D01*
X176697624Y-82040765D01*
X176751527Y-81996527D01*
X176795765Y-81942624D01*
X176828636Y-81881125D01*
X176848878Y-81814396D01*
X176855713Y-81745000D01*
X176854000Y-79360500D01*
X176765500Y-79272000D01*
X174027000Y-79272000D01*
X173973000Y-79272000D01*
X171234500Y-79272000D01*
X171146000Y-79360500D01*
X171144287Y-81745000D01*
X167855712Y-81745000D01*
X167855712Y-81455000D01*
X167848877Y-81385604D01*
X167828635Y-81318875D01*
X167802511Y-81270000D01*
X167828635Y-81221125D01*
X167848877Y-81154396D01*
X167855712Y-81085000D01*
X167855712Y-80185000D01*
X167848877Y-80115604D01*
X167828635Y-80048875D01*
X167802511Y-80000000D01*
X167828635Y-79951125D01*
X167848877Y-79884396D01*
X167855712Y-79815000D01*
X167855712Y-78915000D01*
X167848877Y-78845604D01*
X167828635Y-78778875D01*
X167802511Y-78730000D01*
X167828635Y-78681125D01*
X167848877Y-78614396D01*
X167855712Y-78545000D01*
X167855712Y-77645000D01*
X167848877Y-77575604D01*
X167828635Y-77508875D01*
X167802511Y-77460000D01*
X167828635Y-77411125D01*
X167848877Y-77344396D01*
X167855712Y-77275000D01*
X167855712Y-76745000D01*
X171144287Y-76745000D01*
X171146000Y-79129500D01*
X171234500Y-79218000D01*
X173973000Y-79218000D01*
X173973000Y-76479500D01*
X174027000Y-76479500D01*
X174027000Y-79218000D01*
X176765500Y-79218000D01*
X176854000Y-79129500D01*
X176855713Y-76745000D01*
X176848878Y-76675604D01*
X176828636Y-76608875D01*
X176795765Y-76547376D01*
X176751527Y-76493473D01*
X176697624Y-76449235D01*
X176636125Y-76416364D01*
X176569396Y-76396122D01*
X176500000Y-76389287D01*
X174115500Y-76391000D01*
X174027000Y-76479500D01*
X173973000Y-76479500D01*
X173884500Y-76391000D01*
X171500000Y-76389287D01*
X171430604Y-76396122D01*
X171363875Y-76416364D01*
X171302376Y-76449235D01*
X171248473Y-76493473D01*
X171204235Y-76547376D01*
X171171364Y-76608875D01*
X171151122Y-76675604D01*
X171144287Y-76745000D01*
X167855712Y-76745000D01*
X167855712Y-76375000D01*
X167848877Y-76305604D01*
X167828635Y-76238875D01*
X167802511Y-76190000D01*
X167828635Y-76141125D01*
X167848877Y-76074396D01*
X167855712Y-76005000D01*
X167855712Y-75105000D01*
X167848877Y-75035604D01*
X167828635Y-74968875D01*
X167802511Y-74920000D01*
X167828635Y-74871125D01*
X167848877Y-74804396D01*
X167855712Y-74735000D01*
X167855712Y-73835000D01*
X167848877Y-73765604D01*
X167828635Y-73698875D01*
X167802511Y-73650000D01*
X167828635Y-73601125D01*
X167848877Y-73534396D01*
X167855712Y-73465000D01*
X167855712Y-72565000D01*
X167848877Y-72495604D01*
X167828635Y-72428875D01*
X167802512Y-72380001D01*
X167828636Y-72331125D01*
X167848878Y-72264396D01*
X167855713Y-72195000D01*
X167854000Y-71860500D01*
X167765500Y-71772000D01*
X166527000Y-71772000D01*
X166527000Y-71792000D01*
X166473000Y-71792000D01*
X166473000Y-71772000D01*
X166453000Y-71772000D01*
X166453000Y-71718000D01*
X166473000Y-71718000D01*
X166473000Y-71698000D01*
X166527000Y-71698000D01*
X166527000Y-71718000D01*
X167765500Y-71718000D01*
X167854000Y-71629500D01*
X167855687Y-71300000D01*
X182144313Y-71300000D01*
X182146000Y-71629500D01*
%TD*%
M02*
