%TF.GenerationSoftware,KiCad,Pcbnew,(5.1.6-0-10_14)*%
%TF.CreationDate,2021-04-08T13:55:21+02:00*%
%TF.ProjectId,gp-controlboard,67702d63-6f6e-4747-926f-6c626f617264,rev?*%
%TF.SameCoordinates,Original*%
%TF.FileFunction,Legend,Top*%
%TF.FilePolarity,Positive*%
%FSLAX46Y46*%
G04 Gerber Fmt 4.6, Leading zero omitted, Abs format (unit mm)*
G04 Created by KiCad (PCBNEW (5.1.6-0-10_14)) date 2021-04-08 13:55:21*
%MOMM*%
%LPD*%
G01*
G04 APERTURE LIST*
%ADD10C,0.200000*%
%TA.AperFunction,Profile*%
%ADD11C,0.200000*%
%TD*%
%ADD12C,0.010000*%
%ADD13C,0.150000*%
%ADD14C,0.120000*%
G04 APERTURE END LIST*
D10*
X215987767Y-96178571D02*
X216175267Y-94678571D01*
X216103839Y-95250000D02*
X216255625Y-95178571D01*
X216541339Y-95178571D01*
X216675267Y-95250000D01*
X216737767Y-95321428D01*
X216791339Y-95464285D01*
X216737767Y-95892857D01*
X216648482Y-96035714D01*
X216568125Y-96107142D01*
X216416339Y-96178571D01*
X216130625Y-96178571D01*
X215996696Y-96107142D01*
X217327053Y-95178571D02*
X217559196Y-96178571D01*
X218041339Y-95178571D02*
X217559196Y-96178571D01*
X217371696Y-96535714D01*
X217291339Y-96607142D01*
X217139553Y-96678571D01*
X220594910Y-94750000D02*
X220460982Y-94678571D01*
X220246696Y-94678571D01*
X220023482Y-94750000D01*
X219862767Y-94892857D01*
X219773482Y-95035714D01*
X219666339Y-95321428D01*
X219639553Y-95535714D01*
X219675267Y-95821428D01*
X219728839Y-95964285D01*
X219853839Y-96107142D01*
X220059196Y-96178571D01*
X220202053Y-96178571D01*
X220425267Y-96107142D01*
X220505625Y-96035714D01*
X220568125Y-95535714D01*
X220282410Y-95535714D01*
X221130625Y-96178571D02*
X221318125Y-94678571D01*
X221827053Y-95750000D02*
X222541339Y-95750000D01*
X221630625Y-96178571D02*
X222318125Y-94678571D01*
X222630625Y-96178571D01*
X223130625Y-96178571D02*
X223318125Y-94678571D01*
X223684196Y-95750000D01*
X224318125Y-94678571D01*
X224130625Y-96178571D01*
X224844910Y-96178571D02*
X225032410Y-94678571D01*
X225398482Y-95750000D01*
X226032410Y-94678571D01*
X225844910Y-96178571D01*
X226541339Y-95750000D02*
X227255625Y-95750000D01*
X226344910Y-96178571D02*
X227032410Y-94678571D01*
X227344910Y-96178571D01*
X227818125Y-94678571D02*
X228675267Y-94678571D01*
X228059196Y-96178571D02*
X228246696Y-94678571D01*
X229568125Y-96107142D02*
X229416339Y-96178571D01*
X229130625Y-96178571D01*
X228996696Y-96107142D01*
X228943125Y-95964285D01*
X229014553Y-95392857D01*
X229103839Y-95250000D01*
X229255625Y-95178571D01*
X229541339Y-95178571D01*
X229675267Y-95250000D01*
X229728839Y-95392857D01*
X229710982Y-95535714D01*
X228978839Y-95678571D01*
X230916339Y-96178571D02*
X231014553Y-95392857D01*
X230960982Y-95250000D01*
X230827053Y-95178571D01*
X230541339Y-95178571D01*
X230389553Y-95250000D01*
X230925267Y-96107142D02*
X230773482Y-96178571D01*
X230416339Y-96178571D01*
X230282410Y-96107142D01*
X230228839Y-95964285D01*
X230246696Y-95821428D01*
X230335982Y-95678571D01*
X230487767Y-95607142D01*
X230844910Y-95607142D01*
X230996696Y-95535714D01*
X231630625Y-96178571D02*
X231755625Y-95178571D01*
X231737767Y-95321428D02*
X231818125Y-95250000D01*
X231969910Y-95178571D01*
X232184196Y-95178571D01*
X232318125Y-95250000D01*
X232371696Y-95392857D01*
X232273482Y-96178571D01*
X232371696Y-95392857D02*
X232460982Y-95250000D01*
X232612767Y-95178571D01*
X232827053Y-95178571D01*
X232960982Y-95250000D01*
X233014553Y-95392857D01*
X232916339Y-96178571D01*
X181057142Y-138142857D02*
X181285714Y-138142857D01*
X181400000Y-138200000D01*
X181514285Y-138314285D01*
X181571428Y-138542857D01*
X181571428Y-138942857D01*
X181514285Y-139171428D01*
X181400000Y-139285714D01*
X181285714Y-139342857D01*
X181057142Y-139342857D01*
X180942857Y-139285714D01*
X180828571Y-139171428D01*
X180771428Y-138942857D01*
X180771428Y-138542857D01*
X180828571Y-138314285D01*
X180942857Y-138200000D01*
X181057142Y-138142857D01*
X182085714Y-139342857D02*
X182085714Y-138142857D01*
X182771428Y-139342857D01*
X182771428Y-138142857D01*
X167657142Y-138142857D02*
X167885714Y-138142857D01*
X168000000Y-138200000D01*
X168114285Y-138314285D01*
X168171428Y-138542857D01*
X168171428Y-138942857D01*
X168114285Y-139171428D01*
X168000000Y-139285714D01*
X167885714Y-139342857D01*
X167657142Y-139342857D01*
X167542857Y-139285714D01*
X167428571Y-139171428D01*
X167371428Y-138942857D01*
X167371428Y-138542857D01*
X167428571Y-138314285D01*
X167542857Y-138200000D01*
X167657142Y-138142857D01*
X169085714Y-138714285D02*
X168685714Y-138714285D01*
X168685714Y-139342857D02*
X168685714Y-138142857D01*
X169257142Y-138142857D01*
X170114285Y-138714285D02*
X169714285Y-138714285D01*
X169714285Y-139342857D02*
X169714285Y-138142857D01*
X170285714Y-138142857D01*
X163885714Y-139400000D02*
X163885714Y-138485714D01*
X164342857Y-138942857D02*
X163428571Y-138942857D01*
X163142857Y-138028571D02*
X163142857Y-137285714D01*
X163600000Y-137685714D01*
X163600000Y-137514285D01*
X163657142Y-137400000D01*
X163714285Y-137342857D01*
X163828571Y-137285714D01*
X164114285Y-137285714D01*
X164228571Y-137342857D01*
X164285714Y-137400000D01*
X164342857Y-137514285D01*
X164342857Y-137857142D01*
X164285714Y-137971428D01*
X164228571Y-138028571D01*
X164228571Y-136771428D02*
X164285714Y-136714285D01*
X164342857Y-136771428D01*
X164285714Y-136828571D01*
X164228571Y-136771428D01*
X164342857Y-136771428D01*
X163142857Y-136314285D02*
X163142857Y-135571428D01*
X163600000Y-135971428D01*
X163600000Y-135800000D01*
X163657142Y-135685714D01*
X163714285Y-135628571D01*
X163828571Y-135571428D01*
X164114285Y-135571428D01*
X164228571Y-135628571D01*
X164285714Y-135685714D01*
X164342857Y-135800000D01*
X164342857Y-136142857D01*
X164285714Y-136257142D01*
X164228571Y-136314285D01*
X163142857Y-135228571D02*
X164342857Y-134828571D01*
X163142857Y-134428571D01*
X161485714Y-139342857D02*
X161485714Y-138428571D01*
X161942857Y-138885714D02*
X161028571Y-138885714D01*
X160742857Y-137285714D02*
X160742857Y-137857142D01*
X161314285Y-137914285D01*
X161257142Y-137857142D01*
X161200000Y-137742857D01*
X161200000Y-137457142D01*
X161257142Y-137342857D01*
X161314285Y-137285714D01*
X161428571Y-137228571D01*
X161714285Y-137228571D01*
X161828571Y-137285714D01*
X161885714Y-137342857D01*
X161942857Y-137457142D01*
X161942857Y-137742857D01*
X161885714Y-137857142D01*
X161828571Y-137914285D01*
X160742857Y-136885714D02*
X161942857Y-136485714D01*
X160742857Y-136085714D01*
D11*
X105000000Y-140000000D02*
G75*
G02*
X100000000Y-135000000I0J5000000D01*
G01*
X240000000Y-135000000D02*
G75*
G02*
X235000000Y-140000000I-5000000J0D01*
G01*
X235000000Y-70000000D02*
G75*
G02*
X240000000Y-75000000I0J-5000000D01*
G01*
X100000000Y-135000000D02*
X100000000Y-70000000D01*
X235000000Y-140000000D02*
X105000000Y-140000000D01*
X240000000Y-75000000D02*
X240000000Y-135000000D01*
X100000000Y-70000000D02*
X235000000Y-70000000D01*
D12*
%TO.C,G\u002A\u002A\u002A*%
G36*
X233317921Y-90043764D02*
G01*
X233556658Y-90165102D01*
X233740638Y-90349082D01*
X233856954Y-90580772D01*
X233892695Y-90845239D01*
X233878644Y-90973160D01*
X233820486Y-91124096D01*
X233712426Y-91292038D01*
X233579881Y-91445221D01*
X233448265Y-91551879D01*
X233396110Y-91576234D01*
X233364037Y-91591634D01*
X233340007Y-91623311D01*
X233322867Y-91684214D01*
X233311459Y-91787291D01*
X233304629Y-91945492D01*
X233301222Y-92171765D01*
X233300081Y-92479060D01*
X233300000Y-92653369D01*
X233300000Y-93700000D01*
X197924411Y-93700000D01*
X197857578Y-93850984D01*
X197720637Y-94045231D01*
X197518890Y-94189219D01*
X197278517Y-94274184D01*
X197025696Y-94291363D01*
X196786606Y-94231991D01*
X196758981Y-94218747D01*
X196619367Y-94121847D01*
X196483800Y-93989098D01*
X196458981Y-93958442D01*
X196379608Y-93835619D01*
X196338969Y-93708329D01*
X196325486Y-93534799D01*
X196325000Y-93475000D01*
X196333131Y-93282146D01*
X196365287Y-93146653D01*
X196433109Y-93026649D01*
X196459677Y-92990644D01*
X196653251Y-92807585D01*
X196884352Y-92698012D01*
X197132703Y-92660355D01*
X197378029Y-92693039D01*
X197600052Y-92794495D01*
X197778497Y-92963149D01*
X197857578Y-93099015D01*
X197924411Y-93250000D01*
X232850000Y-93250000D01*
X232849864Y-92437500D01*
X232849729Y-91625000D01*
X232663913Y-91525000D01*
X232454947Y-91364563D01*
X232320991Y-91161601D01*
X232257805Y-90933427D01*
X232259362Y-90823501D01*
X232500000Y-90823501D01*
X232528574Y-91037043D01*
X232625327Y-91194768D01*
X232765691Y-91302488D01*
X232991723Y-91389142D01*
X233221014Y-91375872D01*
X233351636Y-91324153D01*
X233518594Y-91190715D01*
X233613386Y-91016005D01*
X233640879Y-90820921D01*
X233605939Y-90626366D01*
X233513431Y-90453237D01*
X233368220Y-90322436D01*
X233175173Y-90254862D01*
X233101563Y-90250000D01*
X232848291Y-90288668D01*
X232659447Y-90400710D01*
X232541271Y-90580175D01*
X232500003Y-90821116D01*
X232500000Y-90823501D01*
X232259362Y-90823501D01*
X232261149Y-90697356D01*
X232326784Y-90470703D01*
X232450469Y-90270781D01*
X232627966Y-90114905D01*
X232855034Y-90020388D01*
X233037337Y-90000000D01*
X233317921Y-90043764D01*
G37*
X233317921Y-90043764D02*
X233556658Y-90165102D01*
X233740638Y-90349082D01*
X233856954Y-90580772D01*
X233892695Y-90845239D01*
X233878644Y-90973160D01*
X233820486Y-91124096D01*
X233712426Y-91292038D01*
X233579881Y-91445221D01*
X233448265Y-91551879D01*
X233396110Y-91576234D01*
X233364037Y-91591634D01*
X233340007Y-91623311D01*
X233322867Y-91684214D01*
X233311459Y-91787291D01*
X233304629Y-91945492D01*
X233301222Y-92171765D01*
X233300081Y-92479060D01*
X233300000Y-92653369D01*
X233300000Y-93700000D01*
X197924411Y-93700000D01*
X197857578Y-93850984D01*
X197720637Y-94045231D01*
X197518890Y-94189219D01*
X197278517Y-94274184D01*
X197025696Y-94291363D01*
X196786606Y-94231991D01*
X196758981Y-94218747D01*
X196619367Y-94121847D01*
X196483800Y-93989098D01*
X196458981Y-93958442D01*
X196379608Y-93835619D01*
X196338969Y-93708329D01*
X196325486Y-93534799D01*
X196325000Y-93475000D01*
X196333131Y-93282146D01*
X196365287Y-93146653D01*
X196433109Y-93026649D01*
X196459677Y-92990644D01*
X196653251Y-92807585D01*
X196884352Y-92698012D01*
X197132703Y-92660355D01*
X197378029Y-92693039D01*
X197600052Y-92794495D01*
X197778497Y-92963149D01*
X197857578Y-93099015D01*
X197924411Y-93250000D01*
X232850000Y-93250000D01*
X232849864Y-92437500D01*
X232849729Y-91625000D01*
X232663913Y-91525000D01*
X232454947Y-91364563D01*
X232320991Y-91161601D01*
X232257805Y-90933427D01*
X232259362Y-90823501D01*
X232500000Y-90823501D01*
X232528574Y-91037043D01*
X232625327Y-91194768D01*
X232765691Y-91302488D01*
X232991723Y-91389142D01*
X233221014Y-91375872D01*
X233351636Y-91324153D01*
X233518594Y-91190715D01*
X233613386Y-91016005D01*
X233640879Y-90820921D01*
X233605939Y-90626366D01*
X233513431Y-90453237D01*
X233368220Y-90322436D01*
X233175173Y-90254862D01*
X233101563Y-90250000D01*
X232848291Y-90288668D01*
X232659447Y-90400710D01*
X232541271Y-90580175D01*
X232500003Y-90821116D01*
X232500000Y-90823501D01*
X232259362Y-90823501D01*
X232261149Y-90697356D01*
X232326784Y-90470703D01*
X232450469Y-90270781D01*
X232627966Y-90114905D01*
X232855034Y-90020388D01*
X233037337Y-90000000D01*
X233317921Y-90043764D01*
G36*
X200197077Y-88603122D02*
G01*
X200467111Y-88611812D01*
X200686333Y-88625053D01*
X200835837Y-88641828D01*
X200884245Y-88653180D01*
X201096193Y-88773087D01*
X201239288Y-88938552D01*
X201299094Y-89132001D01*
X201300000Y-89159354D01*
X201300000Y-89350000D01*
X201078477Y-89350000D01*
X200937983Y-89342937D01*
X200868668Y-89312898D01*
X200842179Y-89246602D01*
X200840977Y-89238751D01*
X200810585Y-89152039D01*
X200739657Y-89088285D01*
X200615819Y-89044388D01*
X200426693Y-89017248D01*
X200159903Y-89003765D01*
X199890754Y-89000737D01*
X199628090Y-89003952D01*
X199391952Y-89013274D01*
X199205239Y-89027349D01*
X199090848Y-89044824D01*
X199078254Y-89048762D01*
X198950000Y-89097524D01*
X198950000Y-90538762D01*
X198951284Y-90995878D01*
X198955327Y-91360196D01*
X198962417Y-91638888D01*
X198972839Y-91839126D01*
X198986881Y-91968081D01*
X199004828Y-92032925D01*
X199010000Y-92040000D01*
X199077799Y-92065677D01*
X199226116Y-92083933D01*
X199460906Y-92095178D01*
X199788121Y-92099822D01*
X199881428Y-92100000D01*
X200195298Y-92098466D01*
X200424056Y-92092992D01*
X200582558Y-92082266D01*
X200685658Y-92064975D01*
X200748211Y-92039810D01*
X200771428Y-92021428D01*
X200809040Y-91960549D01*
X200833072Y-91856113D01*
X200845921Y-91689822D01*
X200849982Y-91443378D01*
X200850000Y-91421428D01*
X200850000Y-90900000D01*
X200000000Y-90900000D01*
X200000000Y-90500000D01*
X201300000Y-90500000D01*
X201300000Y-92130383D01*
X201122338Y-92302691D01*
X200944677Y-92475000D01*
X199934838Y-92489321D01*
X198925000Y-92503642D01*
X198737010Y-92368486D01*
X198570918Y-92203611D01*
X198496338Y-92054165D01*
X198479844Y-91942207D01*
X198467571Y-91736938D01*
X198459670Y-91444962D01*
X198456293Y-91072887D01*
X198457592Y-90627318D01*
X198459328Y-90441447D01*
X198475000Y-89007895D01*
X198600000Y-88872503D01*
X198696130Y-88779316D01*
X198799174Y-88709844D01*
X198925172Y-88660711D01*
X199090166Y-88628544D01*
X199310198Y-88609967D01*
X199601310Y-88601604D01*
X199895139Y-88599999D01*
X200197077Y-88603122D01*
G37*
X200197077Y-88603122D02*
X200467111Y-88611812D01*
X200686333Y-88625053D01*
X200835837Y-88641828D01*
X200884245Y-88653180D01*
X201096193Y-88773087D01*
X201239288Y-88938552D01*
X201299094Y-89132001D01*
X201300000Y-89159354D01*
X201300000Y-89350000D01*
X201078477Y-89350000D01*
X200937983Y-89342937D01*
X200868668Y-89312898D01*
X200842179Y-89246602D01*
X200840977Y-89238751D01*
X200810585Y-89152039D01*
X200739657Y-89088285D01*
X200615819Y-89044388D01*
X200426693Y-89017248D01*
X200159903Y-89003765D01*
X199890754Y-89000737D01*
X199628090Y-89003952D01*
X199391952Y-89013274D01*
X199205239Y-89027349D01*
X199090848Y-89044824D01*
X199078254Y-89048762D01*
X198950000Y-89097524D01*
X198950000Y-90538762D01*
X198951284Y-90995878D01*
X198955327Y-91360196D01*
X198962417Y-91638888D01*
X198972839Y-91839126D01*
X198986881Y-91968081D01*
X199004828Y-92032925D01*
X199010000Y-92040000D01*
X199077799Y-92065677D01*
X199226116Y-92083933D01*
X199460906Y-92095178D01*
X199788121Y-92099822D01*
X199881428Y-92100000D01*
X200195298Y-92098466D01*
X200424056Y-92092992D01*
X200582558Y-92082266D01*
X200685658Y-92064975D01*
X200748211Y-92039810D01*
X200771428Y-92021428D01*
X200809040Y-91960549D01*
X200833072Y-91856113D01*
X200845921Y-91689822D01*
X200849982Y-91443378D01*
X200850000Y-91421428D01*
X200850000Y-90900000D01*
X200000000Y-90900000D01*
X200000000Y-90500000D01*
X201300000Y-90500000D01*
X201300000Y-92130383D01*
X201122338Y-92302691D01*
X200944677Y-92475000D01*
X199934838Y-92489321D01*
X198925000Y-92503642D01*
X198737010Y-92368486D01*
X198570918Y-92203611D01*
X198496338Y-92054165D01*
X198479844Y-91942207D01*
X198467571Y-91736938D01*
X198459670Y-91444962D01*
X198456293Y-91072887D01*
X198457592Y-90627318D01*
X198459328Y-90441447D01*
X198475000Y-89007895D01*
X198600000Y-88872503D01*
X198696130Y-88779316D01*
X198799174Y-88709844D01*
X198925172Y-88660711D01*
X199090166Y-88628544D01*
X199310198Y-88609967D01*
X199601310Y-88601604D01*
X199895139Y-88599999D01*
X200197077Y-88603122D01*
G36*
X202751174Y-92500000D02*
G01*
X202248825Y-92500000D01*
X202261912Y-90562500D01*
X202275000Y-88625000D01*
X202725000Y-88625000D01*
X202751174Y-92500000D01*
G37*
X202751174Y-92500000D02*
X202248825Y-92500000D01*
X202261912Y-90562500D01*
X202275000Y-88625000D01*
X202725000Y-88625000D01*
X202751174Y-92500000D01*
G36*
X205468189Y-88621563D02*
G01*
X205525331Y-88659921D01*
X205541648Y-88685191D01*
X205571238Y-88756737D01*
X205628014Y-88908188D01*
X205707602Y-89126998D01*
X205805627Y-89400619D01*
X205917715Y-89716503D01*
X206039492Y-90062102D01*
X206166584Y-90424868D01*
X206294616Y-90792255D01*
X206419215Y-91151714D01*
X206536006Y-91490698D01*
X206640614Y-91796659D01*
X206728667Y-92057049D01*
X206795789Y-92259321D01*
X206837606Y-92390926D01*
X206850000Y-92438276D01*
X206802752Y-92481015D01*
X206667271Y-92499459D01*
X206630590Y-92500000D01*
X206411180Y-92500000D01*
X206271563Y-92098929D01*
X206131946Y-91697859D01*
X205209280Y-91711429D01*
X204286614Y-91725000D01*
X204025000Y-92475000D01*
X203783205Y-92490414D01*
X203639568Y-92495427D01*
X203573683Y-92481202D01*
X203563982Y-92440127D01*
X203570695Y-92415414D01*
X203593061Y-92349307D01*
X203644320Y-92199448D01*
X203720765Y-91976622D01*
X203818691Y-91691614D01*
X203934391Y-91355209D01*
X203969365Y-91253599D01*
X204450000Y-91253599D01*
X204497504Y-91270305D01*
X204630080Y-91284102D01*
X204832816Y-91294095D01*
X205090805Y-91299389D01*
X205222799Y-91300000D01*
X205995599Y-91300000D01*
X205610299Y-90177708D01*
X205501288Y-89865256D01*
X205401610Y-89589166D01*
X205316061Y-89361951D01*
X205249439Y-89196124D01*
X205206540Y-89104200D01*
X205193436Y-89090208D01*
X205168697Y-89145828D01*
X205118182Y-89279638D01*
X205047635Y-89474926D01*
X204962799Y-89714978D01*
X204869418Y-89983080D01*
X204773235Y-90262522D01*
X204679994Y-90536588D01*
X204595437Y-90788568D01*
X204525307Y-91001746D01*
X204475349Y-91159411D01*
X204451306Y-91244850D01*
X204450000Y-91253599D01*
X203969365Y-91253599D01*
X204064159Y-90978194D01*
X204204289Y-90571353D01*
X204237490Y-90475000D01*
X204875000Y-88625000D01*
X205184505Y-88610191D01*
X205363123Y-88606780D01*
X205468189Y-88621563D01*
G37*
X205468189Y-88621563D02*
X205525331Y-88659921D01*
X205541648Y-88685191D01*
X205571238Y-88756737D01*
X205628014Y-88908188D01*
X205707602Y-89126998D01*
X205805627Y-89400619D01*
X205917715Y-89716503D01*
X206039492Y-90062102D01*
X206166584Y-90424868D01*
X206294616Y-90792255D01*
X206419215Y-91151714D01*
X206536006Y-91490698D01*
X206640614Y-91796659D01*
X206728667Y-92057049D01*
X206795789Y-92259321D01*
X206837606Y-92390926D01*
X206850000Y-92438276D01*
X206802752Y-92481015D01*
X206667271Y-92499459D01*
X206630590Y-92500000D01*
X206411180Y-92500000D01*
X206271563Y-92098929D01*
X206131946Y-91697859D01*
X205209280Y-91711429D01*
X204286614Y-91725000D01*
X204025000Y-92475000D01*
X203783205Y-92490414D01*
X203639568Y-92495427D01*
X203573683Y-92481202D01*
X203563982Y-92440127D01*
X203570695Y-92415414D01*
X203593061Y-92349307D01*
X203644320Y-92199448D01*
X203720765Y-91976622D01*
X203818691Y-91691614D01*
X203934391Y-91355209D01*
X203969365Y-91253599D01*
X204450000Y-91253599D01*
X204497504Y-91270305D01*
X204630080Y-91284102D01*
X204832816Y-91294095D01*
X205090805Y-91299389D01*
X205222799Y-91300000D01*
X205995599Y-91300000D01*
X205610299Y-90177708D01*
X205501288Y-89865256D01*
X205401610Y-89589166D01*
X205316061Y-89361951D01*
X205249439Y-89196124D01*
X205206540Y-89104200D01*
X205193436Y-89090208D01*
X205168697Y-89145828D01*
X205118182Y-89279638D01*
X205047635Y-89474926D01*
X204962799Y-89714978D01*
X204869418Y-89983080D01*
X204773235Y-90262522D01*
X204679994Y-90536588D01*
X204595437Y-90788568D01*
X204525307Y-91001746D01*
X204475349Y-91159411D01*
X204451306Y-91244850D01*
X204450000Y-91253599D01*
X203969365Y-91253599D01*
X204064159Y-90978194D01*
X204204289Y-90571353D01*
X204237490Y-90475000D01*
X204875000Y-88625000D01*
X205184505Y-88610191D01*
X205363123Y-88606780D01*
X205468189Y-88621563D01*
G36*
X211650000Y-88600000D02*
G01*
X211650000Y-92500000D01*
X211201312Y-92500000D01*
X211188156Y-90788430D01*
X211175000Y-89076861D01*
X210522426Y-90775930D01*
X209869852Y-92475000D01*
X209489122Y-92475000D01*
X209288420Y-91975000D01*
X209213047Y-91784562D01*
X209110174Y-91520799D01*
X208987611Y-91203945D01*
X208853168Y-90854231D01*
X208714656Y-90491891D01*
X208631359Y-90272927D01*
X208175000Y-89070854D01*
X208175000Y-92475000D01*
X207936910Y-92490263D01*
X207698820Y-92505527D01*
X207711910Y-90565263D01*
X207725000Y-88625000D01*
X208463127Y-88625000D01*
X209056498Y-90175000D01*
X209198935Y-90547231D01*
X209329966Y-90889962D01*
X209445297Y-91191932D01*
X209540631Y-91441884D01*
X209611673Y-91628557D01*
X209654127Y-91740691D01*
X209664453Y-91768554D01*
X209685039Y-91734049D01*
X209736979Y-91616356D01*
X209816112Y-91425766D01*
X209918277Y-91172574D01*
X210039314Y-90867070D01*
X210175060Y-90519549D01*
X210296118Y-90206054D01*
X210913200Y-88599999D01*
X211281600Y-88599999D01*
X211650000Y-88600000D01*
G37*
X211650000Y-88600000D02*
X211650000Y-92500000D01*
X211201312Y-92500000D01*
X211188156Y-90788430D01*
X211175000Y-89076861D01*
X210522426Y-90775930D01*
X209869852Y-92475000D01*
X209489122Y-92475000D01*
X209288420Y-91975000D01*
X209213047Y-91784562D01*
X209110174Y-91520799D01*
X208987611Y-91203945D01*
X208853168Y-90854231D01*
X208714656Y-90491891D01*
X208631359Y-90272927D01*
X208175000Y-89070854D01*
X208175000Y-92475000D01*
X207936910Y-92490263D01*
X207698820Y-92505527D01*
X207711910Y-90565263D01*
X207725000Y-88625000D01*
X208463127Y-88625000D01*
X209056498Y-90175000D01*
X209198935Y-90547231D01*
X209329966Y-90889962D01*
X209445297Y-91191932D01*
X209540631Y-91441884D01*
X209611673Y-91628557D01*
X209654127Y-91740691D01*
X209664453Y-91768554D01*
X209685039Y-91734049D01*
X209736979Y-91616356D01*
X209816112Y-91425766D01*
X209918277Y-91172574D01*
X210039314Y-90867070D01*
X210175060Y-90519549D01*
X210296118Y-90206054D01*
X210913200Y-88599999D01*
X211281600Y-88599999D01*
X211650000Y-88600000D01*
G36*
X213131363Y-88610396D02*
G01*
X213512726Y-88625000D01*
X214106079Y-90175000D01*
X214248519Y-90547233D01*
X214379565Y-90889966D01*
X214494921Y-91191938D01*
X214590289Y-91441890D01*
X214661373Y-91628562D01*
X214703874Y-91740695D01*
X214714234Y-91768554D01*
X214734872Y-91734049D01*
X214786859Y-91616354D01*
X214866034Y-91425763D01*
X214968234Y-91172568D01*
X215089297Y-90867062D01*
X215225060Y-90519538D01*
X215346118Y-90206054D01*
X215963200Y-88599999D01*
X216331600Y-88599999D01*
X216700000Y-88600000D01*
X216700000Y-92500000D01*
X216251312Y-92500000D01*
X216238156Y-90788430D01*
X216225000Y-89076861D01*
X215572426Y-90775930D01*
X214919852Y-92475000D01*
X214539297Y-92475000D01*
X214288177Y-91850000D01*
X214192727Y-91609208D01*
X214072150Y-91300100D01*
X213936241Y-90948064D01*
X213794790Y-90578490D01*
X213657593Y-90216766D01*
X213631029Y-90146278D01*
X213225000Y-89067557D01*
X213225000Y-92475000D01*
X212987500Y-92490239D01*
X212750000Y-92505479D01*
X212750000Y-88595793D01*
X213131363Y-88610396D01*
G37*
X213131363Y-88610396D02*
X213512726Y-88625000D01*
X214106079Y-90175000D01*
X214248519Y-90547233D01*
X214379565Y-90889966D01*
X214494921Y-91191938D01*
X214590289Y-91441890D01*
X214661373Y-91628562D01*
X214703874Y-91740695D01*
X214714234Y-91768554D01*
X214734872Y-91734049D01*
X214786859Y-91616354D01*
X214866034Y-91425763D01*
X214968234Y-91172568D01*
X215089297Y-90867062D01*
X215225060Y-90519538D01*
X215346118Y-90206054D01*
X215963200Y-88599999D01*
X216331600Y-88599999D01*
X216700000Y-88600000D01*
X216700000Y-92500000D01*
X216251312Y-92500000D01*
X216238156Y-90788430D01*
X216225000Y-89076861D01*
X215572426Y-90775930D01*
X214919852Y-92475000D01*
X214539297Y-92475000D01*
X214288177Y-91850000D01*
X214192727Y-91609208D01*
X214072150Y-91300100D01*
X213936241Y-90948064D01*
X213794790Y-90578490D01*
X213657593Y-90216766D01*
X213631029Y-90146278D01*
X213225000Y-89067557D01*
X213225000Y-92475000D01*
X212987500Y-92490239D01*
X212750000Y-92505479D01*
X212750000Y-88595793D01*
X213131363Y-88610396D01*
G36*
X219185534Y-88610339D02*
G01*
X219510197Y-88625000D01*
X220147974Y-90450000D01*
X220291253Y-90860274D01*
X220425173Y-91244295D01*
X220545901Y-91591026D01*
X220649603Y-91889433D01*
X220732445Y-92128481D01*
X220790592Y-92297135D01*
X220820211Y-92384361D01*
X220822170Y-92390414D01*
X220837550Y-92459298D01*
X220811485Y-92490866D01*
X220721975Y-92496015D01*
X220620254Y-92490414D01*
X220381919Y-92475000D01*
X220246537Y-92100000D01*
X220111156Y-91725000D01*
X219192596Y-91711440D01*
X218274037Y-91697881D01*
X218131536Y-92098940D01*
X217989036Y-92500000D01*
X217769518Y-92500000D01*
X217637235Y-92490680D01*
X217559047Y-92467163D01*
X217550000Y-92454163D01*
X217565648Y-92399820D01*
X217610028Y-92262273D01*
X217679294Y-92052861D01*
X217769598Y-91782925D01*
X217877094Y-91463803D01*
X217932544Y-91300000D01*
X218407516Y-91300000D01*
X219178758Y-91300000D01*
X219443668Y-91298124D01*
X219669314Y-91292950D01*
X219838652Y-91285155D01*
X219934639Y-91275417D01*
X219950000Y-91269330D01*
X219934306Y-91202383D01*
X219890922Y-91062823D01*
X219825397Y-90866062D01*
X219743278Y-90627510D01*
X219650112Y-90362577D01*
X219551448Y-90086674D01*
X219452832Y-89815212D01*
X219359813Y-89563601D01*
X219277937Y-89347251D01*
X219212754Y-89181573D01*
X219169809Y-89081978D01*
X219154941Y-89060773D01*
X219133569Y-89124984D01*
X219085302Y-89269723D01*
X219014919Y-89480666D01*
X218927200Y-89743490D01*
X218826925Y-90043870D01*
X218770624Y-90212500D01*
X218407516Y-91300000D01*
X217932544Y-91300000D01*
X217997935Y-91106836D01*
X218128275Y-90723363D01*
X218264267Y-90324724D01*
X218402063Y-89922259D01*
X218537818Y-89527308D01*
X218667685Y-89151211D01*
X218786063Y-88810339D01*
X218860872Y-88595678D01*
X219185534Y-88610339D01*
G37*
X219185534Y-88610339D02*
X219510197Y-88625000D01*
X220147974Y-90450000D01*
X220291253Y-90860274D01*
X220425173Y-91244295D01*
X220545901Y-91591026D01*
X220649603Y-91889433D01*
X220732445Y-92128481D01*
X220790592Y-92297135D01*
X220820211Y-92384361D01*
X220822170Y-92390414D01*
X220837550Y-92459298D01*
X220811485Y-92490866D01*
X220721975Y-92496015D01*
X220620254Y-92490414D01*
X220381919Y-92475000D01*
X220246537Y-92100000D01*
X220111156Y-91725000D01*
X219192596Y-91711440D01*
X218274037Y-91697881D01*
X218131536Y-92098940D01*
X217989036Y-92500000D01*
X217769518Y-92500000D01*
X217637235Y-92490680D01*
X217559047Y-92467163D01*
X217550000Y-92454163D01*
X217565648Y-92399820D01*
X217610028Y-92262273D01*
X217679294Y-92052861D01*
X217769598Y-91782925D01*
X217877094Y-91463803D01*
X217932544Y-91300000D01*
X218407516Y-91300000D01*
X219178758Y-91300000D01*
X219443668Y-91298124D01*
X219669314Y-91292950D01*
X219838652Y-91285155D01*
X219934639Y-91275417D01*
X219950000Y-91269330D01*
X219934306Y-91202383D01*
X219890922Y-91062823D01*
X219825397Y-90866062D01*
X219743278Y-90627510D01*
X219650112Y-90362577D01*
X219551448Y-90086674D01*
X219452832Y-89815212D01*
X219359813Y-89563601D01*
X219277937Y-89347251D01*
X219212754Y-89181573D01*
X219169809Y-89081978D01*
X219154941Y-89060773D01*
X219133569Y-89124984D01*
X219085302Y-89269723D01*
X219014919Y-89480666D01*
X218927200Y-89743490D01*
X218826925Y-90043870D01*
X218770624Y-90212500D01*
X218407516Y-91300000D01*
X217932544Y-91300000D01*
X217997935Y-91106836D01*
X218128275Y-90723363D01*
X218264267Y-90324724D01*
X218402063Y-89922259D01*
X218537818Y-89527308D01*
X218667685Y-89151211D01*
X218786063Y-88810339D01*
X218860872Y-88595678D01*
X219185534Y-88610339D01*
G36*
X223219615Y-88607352D02*
G01*
X223461166Y-88610560D01*
X223640190Y-88616568D01*
X223736054Y-88624828D01*
X223871325Y-88677474D01*
X224021240Y-88775428D01*
X224073554Y-88820398D01*
X224250000Y-88986807D01*
X224250000Y-90199372D01*
X224052108Y-90342724D01*
X223854217Y-90486076D01*
X224077108Y-90646145D01*
X224300000Y-90806213D01*
X224299234Y-91465606D01*
X224296055Y-91716254D01*
X224287905Y-91933077D01*
X224275954Y-92095234D01*
X224261375Y-92181882D01*
X224258645Y-92187723D01*
X224194934Y-92255844D01*
X224085333Y-92348218D01*
X224049697Y-92375223D01*
X223992062Y-92416009D01*
X223935065Y-92446771D01*
X223864419Y-92468922D01*
X223765834Y-92483877D01*
X223625026Y-92493048D01*
X223427706Y-92497849D01*
X223159587Y-92499695D01*
X222806382Y-92499999D01*
X222788716Y-92500000D01*
X222408277Y-92498564D01*
X222118265Y-92493902D01*
X221909147Y-92485477D01*
X221771387Y-92472754D01*
X221695450Y-92455197D01*
X221672809Y-92437322D01*
X221667718Y-92374639D01*
X221663683Y-92223384D01*
X221660769Y-91994981D01*
X221659041Y-91700854D01*
X221658562Y-91352426D01*
X221659399Y-90961121D01*
X221660505Y-90750000D01*
X222150000Y-90750000D01*
X222150000Y-92100000D01*
X222939999Y-92100000D01*
X223286550Y-92096736D01*
X223539004Y-92086676D01*
X223703061Y-92069419D01*
X223784422Y-92044562D01*
X223789999Y-92040000D01*
X223821676Y-91954167D01*
X223841862Y-91775343D01*
X223849885Y-91509951D01*
X223850000Y-91468404D01*
X223849032Y-91237532D01*
X223842705Y-91084912D01*
X223825883Y-90988797D01*
X223793433Y-90927440D01*
X223740217Y-90879094D01*
X223704781Y-90853404D01*
X223637230Y-90811889D01*
X223558701Y-90783149D01*
X223450334Y-90764892D01*
X223293269Y-90754822D01*
X223068647Y-90750646D01*
X222854781Y-90750000D01*
X222150000Y-90750000D01*
X221660505Y-90750000D01*
X221661614Y-90538361D01*
X221661879Y-90499822D01*
X221662927Y-90350000D01*
X222150000Y-90350000D01*
X222784406Y-90350000D01*
X223052817Y-90348457D01*
X223242284Y-90341860D01*
X223373840Y-90327257D01*
X223468518Y-90301692D01*
X223547353Y-90262215D01*
X223585679Y-90237500D01*
X223684652Y-90161536D01*
X223748254Y-90078874D01*
X223782928Y-89967061D01*
X223795116Y-89803646D01*
X223791263Y-89566177D01*
X223789825Y-89526136D01*
X223780093Y-89342664D01*
X223757446Y-89207893D01*
X223708238Y-89114292D01*
X223618820Y-89054333D01*
X223475544Y-89020485D01*
X223264761Y-89005219D01*
X222972826Y-89001006D01*
X222837500Y-89000737D01*
X222150000Y-89000000D01*
X222150000Y-90350000D01*
X221662927Y-90350000D01*
X221675000Y-88625000D01*
X222625000Y-88610333D01*
X222934553Y-88607194D01*
X223219615Y-88607352D01*
G37*
X223219615Y-88607352D02*
X223461166Y-88610560D01*
X223640190Y-88616568D01*
X223736054Y-88624828D01*
X223871325Y-88677474D01*
X224021240Y-88775428D01*
X224073554Y-88820398D01*
X224250000Y-88986807D01*
X224250000Y-90199372D01*
X224052108Y-90342724D01*
X223854217Y-90486076D01*
X224077108Y-90646145D01*
X224300000Y-90806213D01*
X224299234Y-91465606D01*
X224296055Y-91716254D01*
X224287905Y-91933077D01*
X224275954Y-92095234D01*
X224261375Y-92181882D01*
X224258645Y-92187723D01*
X224194934Y-92255844D01*
X224085333Y-92348218D01*
X224049697Y-92375223D01*
X223992062Y-92416009D01*
X223935065Y-92446771D01*
X223864419Y-92468922D01*
X223765834Y-92483877D01*
X223625026Y-92493048D01*
X223427706Y-92497849D01*
X223159587Y-92499695D01*
X222806382Y-92499999D01*
X222788716Y-92500000D01*
X222408277Y-92498564D01*
X222118265Y-92493902D01*
X221909147Y-92485477D01*
X221771387Y-92472754D01*
X221695450Y-92455197D01*
X221672809Y-92437322D01*
X221667718Y-92374639D01*
X221663683Y-92223384D01*
X221660769Y-91994981D01*
X221659041Y-91700854D01*
X221658562Y-91352426D01*
X221659399Y-90961121D01*
X221660505Y-90750000D01*
X222150000Y-90750000D01*
X222150000Y-92100000D01*
X222939999Y-92100000D01*
X223286550Y-92096736D01*
X223539004Y-92086676D01*
X223703061Y-92069419D01*
X223784422Y-92044562D01*
X223789999Y-92040000D01*
X223821676Y-91954167D01*
X223841862Y-91775343D01*
X223849885Y-91509951D01*
X223850000Y-91468404D01*
X223849032Y-91237532D01*
X223842705Y-91084912D01*
X223825883Y-90988797D01*
X223793433Y-90927440D01*
X223740217Y-90879094D01*
X223704781Y-90853404D01*
X223637230Y-90811889D01*
X223558701Y-90783149D01*
X223450334Y-90764892D01*
X223293269Y-90754822D01*
X223068647Y-90750646D01*
X222854781Y-90750000D01*
X222150000Y-90750000D01*
X221660505Y-90750000D01*
X221661614Y-90538361D01*
X221661879Y-90499822D01*
X221662927Y-90350000D01*
X222150000Y-90350000D01*
X222784406Y-90350000D01*
X223052817Y-90348457D01*
X223242284Y-90341860D01*
X223373840Y-90327257D01*
X223468518Y-90301692D01*
X223547353Y-90262215D01*
X223585679Y-90237500D01*
X223684652Y-90161536D01*
X223748254Y-90078874D01*
X223782928Y-89967061D01*
X223795116Y-89803646D01*
X223791263Y-89566177D01*
X223789825Y-89526136D01*
X223780093Y-89342664D01*
X223757446Y-89207893D01*
X223708238Y-89114292D01*
X223618820Y-89054333D01*
X223475544Y-89020485D01*
X223264761Y-89005219D01*
X222972826Y-89001006D01*
X222837500Y-89000737D01*
X222150000Y-89000000D01*
X222150000Y-90350000D01*
X221662927Y-90350000D01*
X221675000Y-88625000D01*
X222625000Y-88610333D01*
X222934553Y-88607194D01*
X223219615Y-88607352D01*
G36*
X227194723Y-88601713D02*
G01*
X227484324Y-88608557D01*
X227703927Y-88623088D01*
X227868514Y-88647862D01*
X227993070Y-88685436D01*
X228092579Y-88738365D01*
X228182025Y-88809207D01*
X228212500Y-88837535D01*
X228350000Y-88968709D01*
X228350000Y-92130383D01*
X228172324Y-92302691D01*
X227994649Y-92475000D01*
X226859824Y-92489245D01*
X225725000Y-92503490D01*
X225534907Y-92373180D01*
X225407222Y-92265808D01*
X225314841Y-92152729D01*
X225297407Y-92118180D01*
X225285297Y-92037487D01*
X225274329Y-91870589D01*
X225264914Y-91631278D01*
X225257462Y-91333346D01*
X225252384Y-90990584D01*
X225250090Y-90616785D01*
X225250000Y-90525581D01*
X225250000Y-89097524D01*
X225750000Y-89097524D01*
X225750000Y-90538762D01*
X225751284Y-90995878D01*
X225755327Y-91360196D01*
X225762417Y-91638888D01*
X225772839Y-91839126D01*
X225786881Y-91968081D01*
X225804828Y-92032925D01*
X225810000Y-92040000D01*
X225871951Y-92063720D01*
X226008366Y-92081147D01*
X226226098Y-92092695D01*
X226532000Y-92098775D01*
X226806428Y-92100000D01*
X227144600Y-92098795D01*
X227396574Y-92094470D01*
X227576130Y-92085958D01*
X227697049Y-92072193D01*
X227773112Y-92052106D01*
X227818098Y-92024633D01*
X227821428Y-92021428D01*
X227844964Y-91986412D01*
X227863384Y-91926498D01*
X227877287Y-91830513D01*
X227887270Y-91687281D01*
X227893931Y-91485627D01*
X227897868Y-91214376D01*
X227899677Y-90862353D01*
X227900000Y-90552550D01*
X227899449Y-90138449D01*
X227897374Y-89813078D01*
X227893136Y-89565175D01*
X227886099Y-89383474D01*
X227875626Y-89256711D01*
X227861078Y-89173622D01*
X227841819Y-89122941D01*
X227817474Y-89093622D01*
X227737973Y-89067891D01*
X227578772Y-89045750D01*
X227360124Y-89027701D01*
X227102281Y-89014248D01*
X226825495Y-89005892D01*
X226550019Y-89003137D01*
X226296106Y-89006487D01*
X226084008Y-89016443D01*
X225933978Y-89033508D01*
X225886381Y-89045672D01*
X225750000Y-89097524D01*
X225250000Y-89097524D01*
X225250000Y-89057672D01*
X225385165Y-88897037D01*
X225472848Y-88801921D01*
X225564833Y-88729431D01*
X225675734Y-88676543D01*
X225820166Y-88640231D01*
X226012742Y-88617470D01*
X226268078Y-88605236D01*
X226600787Y-88600502D01*
X226820139Y-88599999D01*
X227194723Y-88601713D01*
G37*
X227194723Y-88601713D02*
X227484324Y-88608557D01*
X227703927Y-88623088D01*
X227868514Y-88647862D01*
X227993070Y-88685436D01*
X228092579Y-88738365D01*
X228182025Y-88809207D01*
X228212500Y-88837535D01*
X228350000Y-88968709D01*
X228350000Y-92130383D01*
X228172324Y-92302691D01*
X227994649Y-92475000D01*
X226859824Y-92489245D01*
X225725000Y-92503490D01*
X225534907Y-92373180D01*
X225407222Y-92265808D01*
X225314841Y-92152729D01*
X225297407Y-92118180D01*
X225285297Y-92037487D01*
X225274329Y-91870589D01*
X225264914Y-91631278D01*
X225257462Y-91333346D01*
X225252384Y-90990584D01*
X225250090Y-90616785D01*
X225250000Y-90525581D01*
X225250000Y-89097524D01*
X225750000Y-89097524D01*
X225750000Y-90538762D01*
X225751284Y-90995878D01*
X225755327Y-91360196D01*
X225762417Y-91638888D01*
X225772839Y-91839126D01*
X225786881Y-91968081D01*
X225804828Y-92032925D01*
X225810000Y-92040000D01*
X225871951Y-92063720D01*
X226008366Y-92081147D01*
X226226098Y-92092695D01*
X226532000Y-92098775D01*
X226806428Y-92100000D01*
X227144600Y-92098795D01*
X227396574Y-92094470D01*
X227576130Y-92085958D01*
X227697049Y-92072193D01*
X227773112Y-92052106D01*
X227818098Y-92024633D01*
X227821428Y-92021428D01*
X227844964Y-91986412D01*
X227863384Y-91926498D01*
X227877287Y-91830513D01*
X227887270Y-91687281D01*
X227893931Y-91485627D01*
X227897868Y-91214376D01*
X227899677Y-90862353D01*
X227900000Y-90552550D01*
X227899449Y-90138449D01*
X227897374Y-89813078D01*
X227893136Y-89565175D01*
X227886099Y-89383474D01*
X227875626Y-89256711D01*
X227861078Y-89173622D01*
X227841819Y-89122941D01*
X227817474Y-89093622D01*
X227737973Y-89067891D01*
X227578772Y-89045750D01*
X227360124Y-89027701D01*
X227102281Y-89014248D01*
X226825495Y-89005892D01*
X226550019Y-89003137D01*
X226296106Y-89006487D01*
X226084008Y-89016443D01*
X225933978Y-89033508D01*
X225886381Y-89045672D01*
X225750000Y-89097524D01*
X225250000Y-89097524D01*
X225250000Y-89057672D01*
X225385165Y-88897037D01*
X225472848Y-88801921D01*
X225564833Y-88729431D01*
X225675734Y-88676543D01*
X225820166Y-88640231D01*
X226012742Y-88617470D01*
X226268078Y-88605236D01*
X226600787Y-88600502D01*
X226820139Y-88599999D01*
X227194723Y-88601713D01*
G36*
X231790425Y-88810937D02*
G01*
X231805850Y-88996875D01*
X231190425Y-89010937D01*
X230575000Y-89025000D01*
X230548704Y-92500000D01*
X230101295Y-92500000D01*
X230088147Y-90762500D01*
X230075000Y-89025000D01*
X229459574Y-89010937D01*
X228844149Y-88996875D01*
X228859574Y-88810937D01*
X228875000Y-88625000D01*
X231775000Y-88625000D01*
X231790425Y-88810937D01*
G37*
X231790425Y-88810937D02*
X231805850Y-88996875D01*
X231190425Y-89010937D01*
X230575000Y-89025000D01*
X230548704Y-92500000D01*
X230101295Y-92500000D01*
X230088147Y-90762500D01*
X230075000Y-89025000D01*
X229459574Y-89010937D01*
X228844149Y-88996875D01*
X228859574Y-88810937D01*
X228875000Y-88625000D01*
X231775000Y-88625000D01*
X231790425Y-88810937D01*
G36*
X233408298Y-86831833D02*
G01*
X233627266Y-86969665D01*
X233740322Y-87090644D01*
X233820044Y-87213748D01*
X233860885Y-87340780D01*
X233874487Y-87513610D01*
X233875000Y-87575000D01*
X233866868Y-87767853D01*
X233834712Y-87903346D01*
X233766890Y-88023350D01*
X233740322Y-88059355D01*
X233546748Y-88242414D01*
X233315647Y-88351987D01*
X233067296Y-88389644D01*
X232821970Y-88356960D01*
X232599947Y-88255504D01*
X232421502Y-88086850D01*
X232342421Y-87950984D01*
X232275588Y-87800000D01*
X197350000Y-87800000D01*
X197350000Y-89437867D01*
X197501012Y-89500419D01*
X197706923Y-89636279D01*
X197862470Y-89838217D01*
X197954959Y-90079677D01*
X197971700Y-90334105D01*
X197951757Y-90443472D01*
X197835776Y-90703079D01*
X197653550Y-90901522D01*
X197422088Y-91028213D01*
X197158399Y-91072560D01*
X196975000Y-91051585D01*
X196704972Y-90946462D01*
X196504241Y-90769403D01*
X196371381Y-90519025D01*
X196348242Y-90443472D01*
X196327451Y-90189456D01*
X196389394Y-89937802D01*
X196521435Y-89714673D01*
X196710939Y-89546229D01*
X196804903Y-89497968D01*
X196961831Y-89432967D01*
X196943415Y-88403983D01*
X196925000Y-87375000D01*
X232275650Y-87349860D01*
X232342451Y-87198945D01*
X232484162Y-86989924D01*
X232681880Y-86847130D01*
X232915328Y-86772137D01*
X233164226Y-86766514D01*
X233408298Y-86831833D01*
G37*
X233408298Y-86831833D02*
X233627266Y-86969665D01*
X233740322Y-87090644D01*
X233820044Y-87213748D01*
X233860885Y-87340780D01*
X233874487Y-87513610D01*
X233875000Y-87575000D01*
X233866868Y-87767853D01*
X233834712Y-87903346D01*
X233766890Y-88023350D01*
X233740322Y-88059355D01*
X233546748Y-88242414D01*
X233315647Y-88351987D01*
X233067296Y-88389644D01*
X232821970Y-88356960D01*
X232599947Y-88255504D01*
X232421502Y-88086850D01*
X232342421Y-87950984D01*
X232275588Y-87800000D01*
X197350000Y-87800000D01*
X197350000Y-89437867D01*
X197501012Y-89500419D01*
X197706923Y-89636279D01*
X197862470Y-89838217D01*
X197954959Y-90079677D01*
X197971700Y-90334105D01*
X197951757Y-90443472D01*
X197835776Y-90703079D01*
X197653550Y-90901522D01*
X197422088Y-91028213D01*
X197158399Y-91072560D01*
X196975000Y-91051585D01*
X196704972Y-90946462D01*
X196504241Y-90769403D01*
X196371381Y-90519025D01*
X196348242Y-90443472D01*
X196327451Y-90189456D01*
X196389394Y-89937802D01*
X196521435Y-89714673D01*
X196710939Y-89546229D01*
X196804903Y-89497968D01*
X196961831Y-89432967D01*
X196943415Y-88403983D01*
X196925000Y-87375000D01*
X232275650Y-87349860D01*
X232342451Y-87198945D01*
X232484162Y-86989924D01*
X232681880Y-86847130D01*
X232915328Y-86772137D01*
X233164226Y-86766514D01*
X233408298Y-86831833D01*
D13*
%TO.C,C101*%
X186900000Y-118100000D02*
X190100000Y-118100000D01*
X190100000Y-119900000D02*
X186900000Y-119900000D01*
%TO.C,C102*%
X190600000Y-129400000D02*
X187400000Y-129400000D01*
X187400000Y-127600000D02*
X190600000Y-127600000D01*
%TO.C,C103*%
X177350000Y-131650000D02*
X174150000Y-131650000D01*
X174150000Y-129850000D02*
X177350000Y-129850000D01*
%TO.C,C104*%
X174150000Y-123350000D02*
X177350000Y-123350000D01*
X177350000Y-125150000D02*
X174150000Y-125150000D01*
%TO.C,C105*%
X159500000Y-84200000D02*
X159500000Y-82200000D01*
X160900000Y-82200000D02*
X160900000Y-84200000D01*
%TO.C,C106*%
X161900000Y-71600000D02*
X161900000Y-74800000D01*
X160100000Y-74800000D02*
X160100000Y-71600000D01*
%TO.C,C107*%
X162900000Y-73600000D02*
X162900000Y-71600000D01*
X164300000Y-71600000D02*
X164300000Y-73600000D01*
%TO.C,C108*%
X190500000Y-90600000D02*
X190500000Y-88600000D01*
X191900000Y-88600000D02*
X191900000Y-90600000D01*
%TO.C,DL101*%
X161100000Y-133000000D02*
X161500000Y-132400000D01*
X161500000Y-132400000D02*
X161900000Y-133000000D01*
X162300000Y-131700000D02*
X162300000Y-133700000D01*
X160700000Y-133700000D02*
X160700000Y-131700000D01*
%TO.C,DL102*%
X195600000Y-125250000D02*
X195600000Y-127250000D01*
X194000000Y-127250000D02*
X194000000Y-125250000D01*
X194800000Y-126550000D02*
X194400000Y-125950000D01*
X195200000Y-125950000D02*
X194800000Y-126550000D01*
%TO.C,DL103*%
X193000000Y-125950000D02*
X192600000Y-126550000D01*
X192600000Y-126550000D02*
X192200000Y-125950000D01*
X191800000Y-127250000D02*
X191800000Y-125250000D01*
X193400000Y-125250000D02*
X193400000Y-127250000D01*
%TO.C,DL104*%
X162950000Y-133700000D02*
X162950000Y-131700000D01*
X164550000Y-131700000D02*
X164550000Y-133700000D01*
X163750000Y-132400000D02*
X164150000Y-133000000D01*
X163350000Y-133000000D02*
X163750000Y-132400000D01*
%TO.C,P101*%
X187230000Y-138100000D02*
X187230000Y-139500000D01*
X187230000Y-139500000D02*
X192770000Y-139500000D01*
X192770000Y-139500000D02*
X192770000Y-138100000D01*
X187230000Y-138100000D02*
X192770000Y-138100000D01*
X192770000Y-138100000D02*
X192770000Y-131900000D01*
X192770000Y-131900000D02*
X187230000Y-131900000D01*
X187230000Y-131900000D02*
X187230000Y-138100000D01*
%TO.C,P102*%
X162870000Y-81140000D02*
X160330000Y-81140000D01*
X162870000Y-76060000D02*
X162870000Y-81140000D01*
X160330000Y-76060000D02*
X162870000Y-76060000D01*
X160330000Y-81140000D02*
X160330000Y-76060000D01*
X160330000Y-78600000D02*
X162870000Y-78600000D01*
%TO.C,P103*%
X185300000Y-134500000D02*
X185300000Y-133500000D01*
X185300000Y-134500000D02*
X184800000Y-134000000D01*
X184800000Y-134000000D02*
X185300000Y-133500000D01*
X181750000Y-134600000D02*
X181750000Y-136000000D01*
X181750000Y-136000000D02*
X184250000Y-136000000D01*
X184250000Y-136000000D02*
X184250000Y-132100000D01*
X184250000Y-130950000D02*
X184250000Y-127000000D01*
X184250000Y-125850000D02*
X184250000Y-121950000D01*
X184250000Y-120800000D02*
X184250000Y-116850000D01*
X184250000Y-115750000D02*
X184250000Y-111750000D01*
X184250000Y-110650000D02*
X184250000Y-106650000D01*
X184250000Y-105550000D02*
X184250000Y-101600000D01*
X184250000Y-100500000D02*
X184250000Y-96500000D01*
X184250000Y-95400000D02*
X184250000Y-94000000D01*
X184250000Y-94000000D02*
X181750000Y-94000000D01*
X181750000Y-94000000D02*
X181750000Y-97900000D01*
X181750000Y-99050000D02*
X181750000Y-103000000D01*
X181750000Y-104150000D02*
X181750000Y-108100000D01*
X181750000Y-109200000D02*
X181750000Y-113150000D01*
X181750000Y-114300000D02*
X181750000Y-118250000D01*
X181750000Y-119400000D02*
X181750000Y-123350000D01*
X181750000Y-124450000D02*
X181750000Y-128400000D01*
X181750000Y-129500000D02*
X181750000Y-133500000D01*
%TO.C,P104*%
X166510000Y-129500000D02*
X166510000Y-133500000D01*
X166510000Y-124450000D02*
X166510000Y-128400000D01*
X166510000Y-119400000D02*
X166510000Y-123350000D01*
X166510000Y-114300000D02*
X166510000Y-118250000D01*
X166510000Y-109200000D02*
X166510000Y-113150000D01*
X166510000Y-104150000D02*
X166510000Y-108100000D01*
X166510000Y-99050000D02*
X166510000Y-103000000D01*
X166510000Y-94000000D02*
X166510000Y-97900000D01*
X169010000Y-94000000D02*
X166510000Y-94000000D01*
X169010000Y-95400000D02*
X169010000Y-94000000D01*
X169010000Y-100500000D02*
X169010000Y-96500000D01*
X169010000Y-105550000D02*
X169010000Y-101600000D01*
X169010000Y-110650000D02*
X169010000Y-106650000D01*
X169010000Y-115750000D02*
X169010000Y-111750000D01*
X169010000Y-120800000D02*
X169010000Y-116850000D01*
X169010000Y-125850000D02*
X169010000Y-121950000D01*
X169010000Y-130950000D02*
X169010000Y-127000000D01*
X169010000Y-136000000D02*
X169010000Y-132100000D01*
X166510000Y-136000000D02*
X169010000Y-136000000D01*
X166510000Y-134600000D02*
X166510000Y-136000000D01*
X169560000Y-134000000D02*
X170060000Y-133500000D01*
X170060000Y-134500000D02*
X169560000Y-134000000D01*
X170060000Y-134500000D02*
X170060000Y-133500000D01*
%TO.C,P105*%
X187130000Y-76790000D02*
X189670000Y-76790000D01*
X187130000Y-84410000D02*
X187130000Y-76790000D01*
X189670000Y-84410000D02*
X187130000Y-84410000D01*
X189670000Y-76790000D02*
X189670000Y-84410000D01*
X189670000Y-79330000D02*
X187130000Y-79330000D01*
%TO.C,P106*%
X189670000Y-89600000D02*
X187130000Y-89600000D01*
X189670000Y-87060000D02*
X189670000Y-92140000D01*
X189670000Y-92140000D02*
X187130000Y-92140000D01*
X187130000Y-92140000D02*
X187130000Y-87060000D01*
X187130000Y-87060000D02*
X189670000Y-87060000D01*
%TO.C,R101*%
X162200000Y-127750000D02*
X162200000Y-129750000D01*
X160800000Y-129750000D02*
X160800000Y-127750000D01*
%TO.C,R102*%
X195500000Y-121850000D02*
X195500000Y-123850000D01*
X194100000Y-123850000D02*
X194100000Y-121850000D01*
%TO.C,R103*%
X191900000Y-123800000D02*
X191900000Y-121800000D01*
X193300000Y-121800000D02*
X193300000Y-123800000D01*
%TO.C,R104*%
X188500000Y-120800000D02*
X190500000Y-120800000D01*
X190500000Y-122200000D02*
X188500000Y-122200000D01*
%TO.C,R105*%
X163050000Y-129700000D02*
X163050000Y-127700000D01*
X164450000Y-127700000D02*
X164450000Y-129700000D01*
%TO.C,R106*%
X163300000Y-82200000D02*
X163300000Y-84200000D01*
X161900000Y-84200000D02*
X161900000Y-82200000D01*
%TO.C,R107*%
X171500000Y-106050000D02*
X171500000Y-104050000D01*
X172900000Y-104050000D02*
X172900000Y-106050000D01*
%TO.C,R108*%
X172900000Y-107400000D02*
X172900000Y-109400000D01*
X171500000Y-109400000D02*
X171500000Y-107400000D01*
D14*
%TO.C,SW101*%
X113500000Y-86250000D02*
G75*
G03*
X113500000Y-86250000I-3500000J0D01*
G01*
X104000000Y-87750000D02*
X104000000Y-84750000D01*
X104000000Y-91750000D02*
X104000000Y-89750000D01*
X115500000Y-92250000D02*
X104500000Y-92250000D01*
X116000000Y-89750000D02*
X116000000Y-91750000D01*
X116000000Y-84750000D02*
X116000000Y-87750000D01*
X116000000Y-80750000D02*
X116000000Y-82750000D01*
X104500000Y-80250000D02*
X115500000Y-80250000D01*
X104000000Y-82750000D02*
X104000000Y-80750000D01*
X104000000Y-80750000D02*
G75*
G02*
X104500000Y-80250000I500000J0D01*
G01*
X116000000Y-91750000D02*
G75*
G02*
X115500000Y-92250000I-500000J0D01*
G01*
X104500000Y-92250000D02*
G75*
G02*
X104000000Y-91750000I0J500000D01*
G01*
X115500000Y-80250000D02*
G75*
G02*
X116000000Y-80750000I0J-500000D01*
G01*
%TO.C,SW102*%
X104000000Y-101500000D02*
X104000000Y-99500000D01*
X104500000Y-99000000D02*
X115500000Y-99000000D01*
X116000000Y-99500000D02*
X116000000Y-101500000D01*
X116000000Y-103500000D02*
X116000000Y-106500000D01*
X116000000Y-108500000D02*
X116000000Y-110500000D01*
X115500000Y-111000000D02*
X104500000Y-111000000D01*
X104000000Y-110500000D02*
X104000000Y-108500000D01*
X104000000Y-106500000D02*
X104000000Y-103500000D01*
X113500000Y-105000000D02*
G75*
G03*
X113500000Y-105000000I-3500000J0D01*
G01*
X115500000Y-99000000D02*
G75*
G02*
X116000000Y-99500000I0J-500000D01*
G01*
X104500000Y-111000000D02*
G75*
G02*
X104000000Y-110500000I0J500000D01*
G01*
X116000000Y-110500000D02*
G75*
G02*
X115500000Y-111000000I-500000J0D01*
G01*
X104000000Y-99500000D02*
G75*
G02*
X104500000Y-99000000I500000J0D01*
G01*
%TO.C,SW103*%
X113500000Y-123750000D02*
G75*
G03*
X113500000Y-123750000I-3500000J0D01*
G01*
X104000000Y-125250000D02*
X104000000Y-122250000D01*
X104000000Y-129250000D02*
X104000000Y-127250000D01*
X115500000Y-129750000D02*
X104500000Y-129750000D01*
X116000000Y-127250000D02*
X116000000Y-129250000D01*
X116000000Y-122250000D02*
X116000000Y-125250000D01*
X116000000Y-118250000D02*
X116000000Y-120250000D01*
X104500000Y-117750000D02*
X115500000Y-117750000D01*
X104000000Y-120250000D02*
X104000000Y-118250000D01*
X104000000Y-118250000D02*
G75*
G02*
X104500000Y-117750000I500000J0D01*
G01*
X116000000Y-129250000D02*
G75*
G02*
X115500000Y-129750000I-500000J0D01*
G01*
X104500000Y-129750000D02*
G75*
G02*
X104000000Y-129250000I0J500000D01*
G01*
X115500000Y-117750000D02*
G75*
G02*
X116000000Y-118250000I0J-500000D01*
G01*
%TO.C,SW104*%
X124000000Y-76500000D02*
X124000000Y-74500000D01*
X124500000Y-74000000D02*
X135500000Y-74000000D01*
X136000000Y-74500000D02*
X136000000Y-76500000D01*
X136000000Y-78500000D02*
X136000000Y-81500000D01*
X136000000Y-83500000D02*
X136000000Y-85500000D01*
X135500000Y-86000000D02*
X124500000Y-86000000D01*
X124000000Y-85500000D02*
X124000000Y-83500000D01*
X124000000Y-81500000D02*
X124000000Y-78500000D01*
X133500000Y-80000000D02*
G75*
G03*
X133500000Y-80000000I-3500000J0D01*
G01*
X135500000Y-74000000D02*
G75*
G02*
X136000000Y-74500000I0J-500000D01*
G01*
X124500000Y-86000000D02*
G75*
G02*
X124000000Y-85500000I0J500000D01*
G01*
X136000000Y-85500000D02*
G75*
G02*
X135500000Y-86000000I-500000J0D01*
G01*
X124000000Y-74500000D02*
G75*
G02*
X124500000Y-74000000I500000J0D01*
G01*
%TO.C,SW105*%
X133500000Y-130000000D02*
G75*
G03*
X133500000Y-130000000I-3500000J0D01*
G01*
X124000000Y-131500000D02*
X124000000Y-128500000D01*
X124000000Y-135500000D02*
X124000000Y-133500000D01*
X135500000Y-136000000D02*
X124500000Y-136000000D01*
X136000000Y-133500000D02*
X136000000Y-135500000D01*
X136000000Y-128500000D02*
X136000000Y-131500000D01*
X136000000Y-124500000D02*
X136000000Y-126500000D01*
X124500000Y-124000000D02*
X135500000Y-124000000D01*
X124000000Y-126500000D02*
X124000000Y-124500000D01*
X124000000Y-124500000D02*
G75*
G02*
X124500000Y-124000000I500000J0D01*
G01*
X136000000Y-135500000D02*
G75*
G02*
X135500000Y-136000000I-500000J0D01*
G01*
X124500000Y-136000000D02*
G75*
G02*
X124000000Y-135500000I0J500000D01*
G01*
X135500000Y-124000000D02*
G75*
G02*
X136000000Y-124500000I0J-500000D01*
G01*
%TO.C,SW106*%
X144000000Y-82750000D02*
X144000000Y-80750000D01*
X144500000Y-80250000D02*
X155500000Y-80250000D01*
X156000000Y-80750000D02*
X156000000Y-82750000D01*
X156000000Y-84750000D02*
X156000000Y-87750000D01*
X156000000Y-89750000D02*
X156000000Y-91750000D01*
X155500000Y-92250000D02*
X144500000Y-92250000D01*
X144000000Y-91750000D02*
X144000000Y-89750000D01*
X144000000Y-87750000D02*
X144000000Y-84750000D01*
X153500000Y-86250000D02*
G75*
G03*
X153500000Y-86250000I-3500000J0D01*
G01*
X155500000Y-80250000D02*
G75*
G02*
X156000000Y-80750000I0J-500000D01*
G01*
X144500000Y-92250000D02*
G75*
G02*
X144000000Y-91750000I0J500000D01*
G01*
X156000000Y-91750000D02*
G75*
G02*
X155500000Y-92250000I-500000J0D01*
G01*
X144000000Y-80750000D02*
G75*
G02*
X144500000Y-80250000I500000J0D01*
G01*
%TO.C,SW107*%
X153500000Y-105000000D02*
G75*
G03*
X153500000Y-105000000I-3500000J0D01*
G01*
X144000000Y-106500000D02*
X144000000Y-103500000D01*
X144000000Y-110500000D02*
X144000000Y-108500000D01*
X155500000Y-111000000D02*
X144500000Y-111000000D01*
X156000000Y-108500000D02*
X156000000Y-110500000D01*
X156000000Y-103500000D02*
X156000000Y-106500000D01*
X156000000Y-99500000D02*
X156000000Y-101500000D01*
X144500000Y-99000000D02*
X155500000Y-99000000D01*
X144000000Y-101500000D02*
X144000000Y-99500000D01*
X144000000Y-99500000D02*
G75*
G02*
X144500000Y-99000000I500000J0D01*
G01*
X156000000Y-110500000D02*
G75*
G02*
X155500000Y-111000000I-500000J0D01*
G01*
X144500000Y-111000000D02*
G75*
G02*
X144000000Y-110500000I0J500000D01*
G01*
X155500000Y-99000000D02*
G75*
G02*
X156000000Y-99500000I0J-500000D01*
G01*
%TO.C,SW108*%
X144000000Y-120250000D02*
X144000000Y-118250000D01*
X144500000Y-117750000D02*
X155500000Y-117750000D01*
X156000000Y-118250000D02*
X156000000Y-120250000D01*
X156000000Y-122250000D02*
X156000000Y-125250000D01*
X156000000Y-127250000D02*
X156000000Y-129250000D01*
X155500000Y-129750000D02*
X144500000Y-129750000D01*
X144000000Y-129250000D02*
X144000000Y-127250000D01*
X144000000Y-125250000D02*
X144000000Y-122250000D01*
X153500000Y-123750000D02*
G75*
G03*
X153500000Y-123750000I-3500000J0D01*
G01*
X155500000Y-117750000D02*
G75*
G02*
X156000000Y-118250000I0J-500000D01*
G01*
X144500000Y-129750000D02*
G75*
G02*
X144000000Y-129250000I0J500000D01*
G01*
X156000000Y-129250000D02*
G75*
G02*
X155500000Y-129750000I-500000J0D01*
G01*
X144000000Y-118250000D02*
G75*
G02*
X144500000Y-117750000I500000J0D01*
G01*
%TO.C,SW109*%
X208500000Y-80000000D02*
G75*
G03*
X208500000Y-80000000I-3500000J0D01*
G01*
X199000000Y-81500000D02*
X199000000Y-78500000D01*
X199000000Y-85500000D02*
X199000000Y-83500000D01*
X210500000Y-86000000D02*
X199500000Y-86000000D01*
X211000000Y-83500000D02*
X211000000Y-85500000D01*
X211000000Y-78500000D02*
X211000000Y-81500000D01*
X211000000Y-74500000D02*
X211000000Y-76500000D01*
X199500000Y-74000000D02*
X210500000Y-74000000D01*
X199000000Y-76500000D02*
X199000000Y-74500000D01*
X199000000Y-74500000D02*
G75*
G02*
X199500000Y-74000000I500000J0D01*
G01*
X211000000Y-85500000D02*
G75*
G02*
X210500000Y-86000000I-500000J0D01*
G01*
X199500000Y-86000000D02*
G75*
G02*
X199000000Y-85500000I0J500000D01*
G01*
X210500000Y-74000000D02*
G75*
G02*
X211000000Y-74500000I0J-500000D01*
G01*
%TO.C,SW110*%
X199000000Y-101500000D02*
X199000000Y-99500000D01*
X199500000Y-99000000D02*
X210500000Y-99000000D01*
X211000000Y-99500000D02*
X211000000Y-101500000D01*
X211000000Y-103500000D02*
X211000000Y-106500000D01*
X211000000Y-108500000D02*
X211000000Y-110500000D01*
X210500000Y-111000000D02*
X199500000Y-111000000D01*
X199000000Y-110500000D02*
X199000000Y-108500000D01*
X199000000Y-106500000D02*
X199000000Y-103500000D01*
X208500000Y-105000000D02*
G75*
G03*
X208500000Y-105000000I-3500000J0D01*
G01*
X210500000Y-99000000D02*
G75*
G02*
X211000000Y-99500000I0J-500000D01*
G01*
X199500000Y-111000000D02*
G75*
G02*
X199000000Y-110500000I0J500000D01*
G01*
X211000000Y-110500000D02*
G75*
G02*
X210500000Y-111000000I-500000J0D01*
G01*
X199000000Y-99500000D02*
G75*
G02*
X199500000Y-99000000I500000J0D01*
G01*
%TO.C,SW111*%
X199000000Y-126500000D02*
X199000000Y-124500000D01*
X199500000Y-124000000D02*
X210500000Y-124000000D01*
X211000000Y-124500000D02*
X211000000Y-126500000D01*
X211000000Y-128500000D02*
X211000000Y-131500000D01*
X211000000Y-133500000D02*
X211000000Y-135500000D01*
X210500000Y-136000000D02*
X199500000Y-136000000D01*
X199000000Y-135500000D02*
X199000000Y-133500000D01*
X199000000Y-131500000D02*
X199000000Y-128500000D01*
X208500000Y-130000000D02*
G75*
G03*
X208500000Y-130000000I-3500000J0D01*
G01*
X210500000Y-124000000D02*
G75*
G02*
X211000000Y-124500000I0J-500000D01*
G01*
X199500000Y-136000000D02*
G75*
G02*
X199000000Y-135500000I0J500000D01*
G01*
X211000000Y-135500000D02*
G75*
G02*
X210500000Y-136000000I-500000J0D01*
G01*
X199000000Y-124500000D02*
G75*
G02*
X199500000Y-124000000I500000J0D01*
G01*
%TO.C,SW112*%
X175250000Y-141300000D02*
X175250000Y-139500000D01*
X175050000Y-141500000D02*
X175250000Y-141300000D01*
X173850000Y-141500000D02*
X175050000Y-141500000D01*
X173650000Y-141300000D02*
X173850000Y-141500000D01*
X173650000Y-139500000D02*
X173650000Y-141300000D01*
X170850000Y-139500000D02*
X170850000Y-136500000D01*
X171700000Y-139500000D02*
X170850000Y-139500000D01*
X177950000Y-139500000D02*
X172550000Y-139500000D01*
X179650000Y-139500000D02*
X178800000Y-139500000D01*
X179650000Y-136500000D02*
X179650000Y-139500000D01*
X170850000Y-136500000D02*
X179650000Y-136500000D01*
%TO.C,SW113*%
X228500000Y-80000000D02*
G75*
G03*
X228500000Y-80000000I-3500000J0D01*
G01*
X219000000Y-81500000D02*
X219000000Y-78500000D01*
X219000000Y-85500000D02*
X219000000Y-83500000D01*
X230500000Y-86000000D02*
X219500000Y-86000000D01*
X231000000Y-83500000D02*
X231000000Y-85500000D01*
X231000000Y-78500000D02*
X231000000Y-81500000D01*
X231000000Y-74500000D02*
X231000000Y-76500000D01*
X219500000Y-74000000D02*
X230500000Y-74000000D01*
X219000000Y-76500000D02*
X219000000Y-74500000D01*
X219000000Y-74500000D02*
G75*
G02*
X219500000Y-74000000I500000J0D01*
G01*
X231000000Y-85500000D02*
G75*
G02*
X230500000Y-86000000I-500000J0D01*
G01*
X219500000Y-86000000D02*
G75*
G02*
X219000000Y-85500000I0J500000D01*
G01*
X230500000Y-74000000D02*
G75*
G02*
X231000000Y-74500000I0J-500000D01*
G01*
%TO.C,SW114*%
X219000000Y-101500000D02*
X219000000Y-99500000D01*
X219500000Y-99000000D02*
X230500000Y-99000000D01*
X231000000Y-99500000D02*
X231000000Y-101500000D01*
X231000000Y-103500000D02*
X231000000Y-106500000D01*
X231000000Y-108500000D02*
X231000000Y-110500000D01*
X230500000Y-111000000D02*
X219500000Y-111000000D01*
X219000000Y-110500000D02*
X219000000Y-108500000D01*
X219000000Y-106500000D02*
X219000000Y-103500000D01*
X228500000Y-105000000D02*
G75*
G03*
X228500000Y-105000000I-3500000J0D01*
G01*
X230500000Y-99000000D02*
G75*
G02*
X231000000Y-99500000I0J-500000D01*
G01*
X219500000Y-111000000D02*
G75*
G02*
X219000000Y-110500000I0J500000D01*
G01*
X231000000Y-110500000D02*
G75*
G02*
X230500000Y-111000000I-500000J0D01*
G01*
X219000000Y-99500000D02*
G75*
G02*
X219500000Y-99000000I500000J0D01*
G01*
%TO.C,SW115*%
X228500000Y-130000000D02*
G75*
G03*
X228500000Y-130000000I-3500000J0D01*
G01*
X219000000Y-131500000D02*
X219000000Y-128500000D01*
X219000000Y-135500000D02*
X219000000Y-133500000D01*
X230500000Y-136000000D02*
X219500000Y-136000000D01*
X231000000Y-133500000D02*
X231000000Y-135500000D01*
X231000000Y-128500000D02*
X231000000Y-131500000D01*
X231000000Y-124500000D02*
X231000000Y-126500000D01*
X219500000Y-124000000D02*
X230500000Y-124000000D01*
X219000000Y-126500000D02*
X219000000Y-124500000D01*
X219000000Y-124500000D02*
G75*
G02*
X219500000Y-124000000I500000J0D01*
G01*
X231000000Y-135500000D02*
G75*
G02*
X230500000Y-136000000I-500000J0D01*
G01*
X219500000Y-136000000D02*
G75*
G02*
X219000000Y-135500000I0J500000D01*
G01*
X230500000Y-124000000D02*
G75*
G02*
X231000000Y-124500000I0J-500000D01*
G01*
D13*
%TO.C,U101*%
X186900000Y-123250000D02*
X187100000Y-123250000D01*
X186900000Y-126250000D02*
X186900000Y-123250000D01*
X187100000Y-126250000D02*
X186900000Y-126250000D01*
X190100000Y-126250000D02*
X189900000Y-126250000D01*
X190100000Y-123250000D02*
X190100000Y-126250000D01*
X189900000Y-123250000D02*
X190100000Y-123250000D01*
X187900000Y-127350000D02*
X187500000Y-126950000D01*
X187100000Y-127350000D02*
X187900000Y-127350000D01*
X187500000Y-126950000D02*
X187100000Y-127350000D01*
%TO.C,U102*%
X173750000Y-126700000D02*
X173850000Y-126700000D01*
X173750000Y-128300000D02*
X173750000Y-126700000D01*
X174750000Y-126700000D02*
X175750000Y-126700000D01*
X176750000Y-128300000D02*
X176650000Y-128300000D01*
X176750000Y-126700000D02*
X176750000Y-128300000D01*
X173750000Y-128300000D02*
X173850000Y-128300000D01*
X176750000Y-126700000D02*
X176650000Y-126700000D01*
D14*
%TO.C,U103*%
X165880000Y-89100000D02*
X165880000Y-89880000D01*
X165880000Y-89880000D02*
X168650000Y-89880000D01*
X184120000Y-89100000D02*
X184120000Y-89880000D01*
X184120000Y-89880000D02*
X181350000Y-89880000D01*
X165880000Y-64135000D02*
X184120000Y-64135000D01*
X184120000Y-64135000D02*
X184120000Y-70555000D01*
X165880000Y-64135000D02*
X165880000Y-70555000D01*
X165880000Y-70555000D02*
X165500000Y-70555000D01*
D13*
%TO.C,D101*%
X175250000Y-116950000D02*
X175650000Y-116950000D01*
X175650000Y-116950000D02*
X175650000Y-121550000D01*
X175650000Y-121550000D02*
X175250000Y-121550000D01*
X175250000Y-117650000D02*
X175650000Y-117650000D01*
X172850000Y-117650000D02*
X173250000Y-117650000D01*
X172850000Y-121550000D02*
X173250000Y-121550000D01*
X172850000Y-121550000D02*
X172850000Y-116950000D01*
X172850000Y-116950000D02*
X173250000Y-116950000D01*
X173650000Y-119650000D02*
X174250000Y-118850000D01*
X174250000Y-118850000D02*
X174850000Y-119650000D01*
X173650000Y-119650000D02*
X174850000Y-119650000D01*
X174250000Y-120050000D02*
X174250000Y-119650000D01*
X174250000Y-118450000D02*
X174250000Y-118850000D01*
X174850000Y-118850000D02*
X173650000Y-118850000D01*
%TO.C,R109*%
X178300000Y-122400000D02*
X178300000Y-120400000D01*
X179700000Y-120400000D02*
X179700000Y-122400000D01*
%TO.C,R110*%
X188100000Y-115000000D02*
X188100000Y-117000000D01*
X186700000Y-117000000D02*
X186700000Y-115000000D01*
%TO.C,R111*%
X179700000Y-115850000D02*
X179700000Y-117850000D01*
X178300000Y-117850000D02*
X178300000Y-115850000D01*
%TO.C,R112*%
X179500000Y-106600000D02*
X179500000Y-108600000D01*
X178100000Y-108600000D02*
X178100000Y-106600000D01*
%TO.C,R113*%
X187700000Y-106200000D02*
X187700000Y-108200000D01*
X186300000Y-108200000D02*
X186300000Y-106200000D01*
%TO.C,R114*%
X179500000Y-101400000D02*
X179500000Y-103400000D01*
X178100000Y-103400000D02*
X178100000Y-101400000D01*
%TO.C,J101*%
X161800000Y-111300000D02*
X163800000Y-111300000D01*
X163800000Y-112700000D02*
X161800000Y-112700000D01*
%TO.C,J102*%
X163800000Y-110500000D02*
X161800000Y-110500000D01*
X161800000Y-109100000D02*
X163800000Y-109100000D01*
%TO.C,J103*%
X161850000Y-106900000D02*
X163850000Y-106900000D01*
X163850000Y-108300000D02*
X161850000Y-108300000D01*
%TD*%
%TO.C,C101*%
X191504761Y-119485714D02*
X191466666Y-119523809D01*
X191352380Y-119561904D01*
X191276190Y-119561904D01*
X191161904Y-119523809D01*
X191085714Y-119447619D01*
X191047619Y-119371428D01*
X191009523Y-119219047D01*
X191009523Y-119104761D01*
X191047619Y-118952380D01*
X191085714Y-118876190D01*
X191161904Y-118800000D01*
X191276190Y-118761904D01*
X191352380Y-118761904D01*
X191466666Y-118800000D01*
X191504761Y-118838095D01*
X192266666Y-119561904D02*
X191809523Y-119561904D01*
X192038095Y-119561904D02*
X192038095Y-118761904D01*
X191961904Y-118876190D01*
X191885714Y-118952380D01*
X191809523Y-118990476D01*
X192761904Y-118761904D02*
X192838095Y-118761904D01*
X192914285Y-118800000D01*
X192952380Y-118838095D01*
X192990476Y-118914285D01*
X193028571Y-119066666D01*
X193028571Y-119257142D01*
X192990476Y-119409523D01*
X192952380Y-119485714D01*
X192914285Y-119523809D01*
X192838095Y-119561904D01*
X192761904Y-119561904D01*
X192685714Y-119523809D01*
X192647619Y-119485714D01*
X192609523Y-119409523D01*
X192571428Y-119257142D01*
X192571428Y-119066666D01*
X192609523Y-118914285D01*
X192647619Y-118838095D01*
X192685714Y-118800000D01*
X192761904Y-118761904D01*
X193790476Y-119561904D02*
X193333333Y-119561904D01*
X193561904Y-119561904D02*
X193561904Y-118761904D01*
X193485714Y-118876190D01*
X193409523Y-118952380D01*
X193333333Y-118990476D01*
%TO.C,C102*%
X191854761Y-129535714D02*
X191816666Y-129573809D01*
X191702380Y-129611904D01*
X191626190Y-129611904D01*
X191511904Y-129573809D01*
X191435714Y-129497619D01*
X191397619Y-129421428D01*
X191359523Y-129269047D01*
X191359523Y-129154761D01*
X191397619Y-129002380D01*
X191435714Y-128926190D01*
X191511904Y-128850000D01*
X191626190Y-128811904D01*
X191702380Y-128811904D01*
X191816666Y-128850000D01*
X191854761Y-128888095D01*
X192616666Y-129611904D02*
X192159523Y-129611904D01*
X192388095Y-129611904D02*
X192388095Y-128811904D01*
X192311904Y-128926190D01*
X192235714Y-129002380D01*
X192159523Y-129040476D01*
X193111904Y-128811904D02*
X193188095Y-128811904D01*
X193264285Y-128850000D01*
X193302380Y-128888095D01*
X193340476Y-128964285D01*
X193378571Y-129116666D01*
X193378571Y-129307142D01*
X193340476Y-129459523D01*
X193302380Y-129535714D01*
X193264285Y-129573809D01*
X193188095Y-129611904D01*
X193111904Y-129611904D01*
X193035714Y-129573809D01*
X192997619Y-129535714D01*
X192959523Y-129459523D01*
X192921428Y-129307142D01*
X192921428Y-129116666D01*
X192959523Y-128964285D01*
X192997619Y-128888095D01*
X193035714Y-128850000D01*
X193111904Y-128811904D01*
X193683333Y-128888095D02*
X193721428Y-128850000D01*
X193797619Y-128811904D01*
X193988095Y-128811904D01*
X194064285Y-128850000D01*
X194102380Y-128888095D01*
X194140476Y-128964285D01*
X194140476Y-129040476D01*
X194102380Y-129154761D01*
X193645238Y-129611904D01*
X194140476Y-129611904D01*
%TO.C,C103*%
X178604761Y-131035714D02*
X178566666Y-131073809D01*
X178452380Y-131111904D01*
X178376190Y-131111904D01*
X178261904Y-131073809D01*
X178185714Y-130997619D01*
X178147619Y-130921428D01*
X178109523Y-130769047D01*
X178109523Y-130654761D01*
X178147619Y-130502380D01*
X178185714Y-130426190D01*
X178261904Y-130350000D01*
X178376190Y-130311904D01*
X178452380Y-130311904D01*
X178566666Y-130350000D01*
X178604761Y-130388095D01*
X179366666Y-131111904D02*
X178909523Y-131111904D01*
X179138095Y-131111904D02*
X179138095Y-130311904D01*
X179061904Y-130426190D01*
X178985714Y-130502380D01*
X178909523Y-130540476D01*
X179861904Y-130311904D02*
X179938095Y-130311904D01*
X180014285Y-130350000D01*
X180052380Y-130388095D01*
X180090476Y-130464285D01*
X180128571Y-130616666D01*
X180128571Y-130807142D01*
X180090476Y-130959523D01*
X180052380Y-131035714D01*
X180014285Y-131073809D01*
X179938095Y-131111904D01*
X179861904Y-131111904D01*
X179785714Y-131073809D01*
X179747619Y-131035714D01*
X179709523Y-130959523D01*
X179671428Y-130807142D01*
X179671428Y-130616666D01*
X179709523Y-130464285D01*
X179747619Y-130388095D01*
X179785714Y-130350000D01*
X179861904Y-130311904D01*
X180395238Y-130311904D02*
X180890476Y-130311904D01*
X180623809Y-130616666D01*
X180738095Y-130616666D01*
X180814285Y-130654761D01*
X180852380Y-130692857D01*
X180890476Y-130769047D01*
X180890476Y-130959523D01*
X180852380Y-131035714D01*
X180814285Y-131073809D01*
X180738095Y-131111904D01*
X180509523Y-131111904D01*
X180433333Y-131073809D01*
X180395238Y-131035714D01*
%TO.C,C104*%
X178604761Y-125535714D02*
X178566666Y-125573809D01*
X178452380Y-125611904D01*
X178376190Y-125611904D01*
X178261904Y-125573809D01*
X178185714Y-125497619D01*
X178147619Y-125421428D01*
X178109523Y-125269047D01*
X178109523Y-125154761D01*
X178147619Y-125002380D01*
X178185714Y-124926190D01*
X178261904Y-124850000D01*
X178376190Y-124811904D01*
X178452380Y-124811904D01*
X178566666Y-124850000D01*
X178604761Y-124888095D01*
X179366666Y-125611904D02*
X178909523Y-125611904D01*
X179138095Y-125611904D02*
X179138095Y-124811904D01*
X179061904Y-124926190D01*
X178985714Y-125002380D01*
X178909523Y-125040476D01*
X179861904Y-124811904D02*
X179938095Y-124811904D01*
X180014285Y-124850000D01*
X180052380Y-124888095D01*
X180090476Y-124964285D01*
X180128571Y-125116666D01*
X180128571Y-125307142D01*
X180090476Y-125459523D01*
X180052380Y-125535714D01*
X180014285Y-125573809D01*
X179938095Y-125611904D01*
X179861904Y-125611904D01*
X179785714Y-125573809D01*
X179747619Y-125535714D01*
X179709523Y-125459523D01*
X179671428Y-125307142D01*
X179671428Y-125116666D01*
X179709523Y-124964285D01*
X179747619Y-124888095D01*
X179785714Y-124850000D01*
X179861904Y-124811904D01*
X180814285Y-125078571D02*
X180814285Y-125611904D01*
X180623809Y-124773809D02*
X180433333Y-125345238D01*
X180928571Y-125345238D01*
%TO.C,C105*%
X160535714Y-87395238D02*
X160573809Y-87433333D01*
X160611904Y-87547619D01*
X160611904Y-87623809D01*
X160573809Y-87738095D01*
X160497619Y-87814285D01*
X160421428Y-87852380D01*
X160269047Y-87890476D01*
X160154761Y-87890476D01*
X160002380Y-87852380D01*
X159926190Y-87814285D01*
X159850000Y-87738095D01*
X159811904Y-87623809D01*
X159811904Y-87547619D01*
X159850000Y-87433333D01*
X159888095Y-87395238D01*
X160611904Y-86633333D02*
X160611904Y-87090476D01*
X160611904Y-86861904D02*
X159811904Y-86861904D01*
X159926190Y-86938095D01*
X160002380Y-87014285D01*
X160040476Y-87090476D01*
X159811904Y-86138095D02*
X159811904Y-86061904D01*
X159850000Y-85985714D01*
X159888095Y-85947619D01*
X159964285Y-85909523D01*
X160116666Y-85871428D01*
X160307142Y-85871428D01*
X160459523Y-85909523D01*
X160535714Y-85947619D01*
X160573809Y-85985714D01*
X160611904Y-86061904D01*
X160611904Y-86138095D01*
X160573809Y-86214285D01*
X160535714Y-86252380D01*
X160459523Y-86290476D01*
X160307142Y-86328571D01*
X160116666Y-86328571D01*
X159964285Y-86290476D01*
X159888095Y-86252380D01*
X159850000Y-86214285D01*
X159811904Y-86138095D01*
X159811904Y-85147619D02*
X159811904Y-85528571D01*
X160192857Y-85566666D01*
X160154761Y-85528571D01*
X160116666Y-85452380D01*
X160116666Y-85261904D01*
X160154761Y-85185714D01*
X160192857Y-85147619D01*
X160269047Y-85109523D01*
X160459523Y-85109523D01*
X160535714Y-85147619D01*
X160573809Y-85185714D01*
X160611904Y-85261904D01*
X160611904Y-85452380D01*
X160573809Y-85528571D01*
X160535714Y-85566666D01*
%TO.C,C106*%
X158285714Y-74145238D02*
X158323809Y-74183333D01*
X158361904Y-74297619D01*
X158361904Y-74373809D01*
X158323809Y-74488095D01*
X158247619Y-74564285D01*
X158171428Y-74602380D01*
X158019047Y-74640476D01*
X157904761Y-74640476D01*
X157752380Y-74602380D01*
X157676190Y-74564285D01*
X157600000Y-74488095D01*
X157561904Y-74373809D01*
X157561904Y-74297619D01*
X157600000Y-74183333D01*
X157638095Y-74145238D01*
X158361904Y-73383333D02*
X158361904Y-73840476D01*
X158361904Y-73611904D02*
X157561904Y-73611904D01*
X157676190Y-73688095D01*
X157752380Y-73764285D01*
X157790476Y-73840476D01*
X157561904Y-72888095D02*
X157561904Y-72811904D01*
X157600000Y-72735714D01*
X157638095Y-72697619D01*
X157714285Y-72659523D01*
X157866666Y-72621428D01*
X158057142Y-72621428D01*
X158209523Y-72659523D01*
X158285714Y-72697619D01*
X158323809Y-72735714D01*
X158361904Y-72811904D01*
X158361904Y-72888095D01*
X158323809Y-72964285D01*
X158285714Y-73002380D01*
X158209523Y-73040476D01*
X158057142Y-73078571D01*
X157866666Y-73078571D01*
X157714285Y-73040476D01*
X157638095Y-73002380D01*
X157600000Y-72964285D01*
X157561904Y-72888095D01*
X157561904Y-71935714D02*
X157561904Y-72088095D01*
X157600000Y-72164285D01*
X157638095Y-72202380D01*
X157752380Y-72278571D01*
X157904761Y-72316666D01*
X158209523Y-72316666D01*
X158285714Y-72278571D01*
X158323809Y-72240476D01*
X158361904Y-72164285D01*
X158361904Y-72011904D01*
X158323809Y-71935714D01*
X158285714Y-71897619D01*
X158209523Y-71859523D01*
X158019047Y-71859523D01*
X157942857Y-71897619D01*
X157904761Y-71935714D01*
X157866666Y-72011904D01*
X157866666Y-72164285D01*
X157904761Y-72240476D01*
X157942857Y-72278571D01*
X158019047Y-72316666D01*
%TO.C,C107*%
X159535714Y-74145238D02*
X159573809Y-74183333D01*
X159611904Y-74297619D01*
X159611904Y-74373809D01*
X159573809Y-74488095D01*
X159497619Y-74564285D01*
X159421428Y-74602380D01*
X159269047Y-74640476D01*
X159154761Y-74640476D01*
X159002380Y-74602380D01*
X158926190Y-74564285D01*
X158850000Y-74488095D01*
X158811904Y-74373809D01*
X158811904Y-74297619D01*
X158850000Y-74183333D01*
X158888095Y-74145238D01*
X159611904Y-73383333D02*
X159611904Y-73840476D01*
X159611904Y-73611904D02*
X158811904Y-73611904D01*
X158926190Y-73688095D01*
X159002380Y-73764285D01*
X159040476Y-73840476D01*
X158811904Y-72888095D02*
X158811904Y-72811904D01*
X158850000Y-72735714D01*
X158888095Y-72697619D01*
X158964285Y-72659523D01*
X159116666Y-72621428D01*
X159307142Y-72621428D01*
X159459523Y-72659523D01*
X159535714Y-72697619D01*
X159573809Y-72735714D01*
X159611904Y-72811904D01*
X159611904Y-72888095D01*
X159573809Y-72964285D01*
X159535714Y-73002380D01*
X159459523Y-73040476D01*
X159307142Y-73078571D01*
X159116666Y-73078571D01*
X158964285Y-73040476D01*
X158888095Y-73002380D01*
X158850000Y-72964285D01*
X158811904Y-72888095D01*
X158811904Y-72354761D02*
X158811904Y-71821428D01*
X159611904Y-72164285D01*
%TO.C,C108*%
X191485714Y-87295238D02*
X191523809Y-87333333D01*
X191561904Y-87447619D01*
X191561904Y-87523809D01*
X191523809Y-87638095D01*
X191447619Y-87714285D01*
X191371428Y-87752380D01*
X191219047Y-87790476D01*
X191104761Y-87790476D01*
X190952380Y-87752380D01*
X190876190Y-87714285D01*
X190800000Y-87638095D01*
X190761904Y-87523809D01*
X190761904Y-87447619D01*
X190800000Y-87333333D01*
X190838095Y-87295238D01*
X191561904Y-86533333D02*
X191561904Y-86990476D01*
X191561904Y-86761904D02*
X190761904Y-86761904D01*
X190876190Y-86838095D01*
X190952380Y-86914285D01*
X190990476Y-86990476D01*
X190761904Y-86038095D02*
X190761904Y-85961904D01*
X190800000Y-85885714D01*
X190838095Y-85847619D01*
X190914285Y-85809523D01*
X191066666Y-85771428D01*
X191257142Y-85771428D01*
X191409523Y-85809523D01*
X191485714Y-85847619D01*
X191523809Y-85885714D01*
X191561904Y-85961904D01*
X191561904Y-86038095D01*
X191523809Y-86114285D01*
X191485714Y-86152380D01*
X191409523Y-86190476D01*
X191257142Y-86228571D01*
X191066666Y-86228571D01*
X190914285Y-86190476D01*
X190838095Y-86152380D01*
X190800000Y-86114285D01*
X190761904Y-86038095D01*
X191104761Y-85314285D02*
X191066666Y-85390476D01*
X191028571Y-85428571D01*
X190952380Y-85466666D01*
X190914285Y-85466666D01*
X190838095Y-85428571D01*
X190800000Y-85390476D01*
X190761904Y-85314285D01*
X190761904Y-85161904D01*
X190800000Y-85085714D01*
X190838095Y-85047619D01*
X190914285Y-85009523D01*
X190952380Y-85009523D01*
X191028571Y-85047619D01*
X191066666Y-85085714D01*
X191104761Y-85161904D01*
X191104761Y-85314285D01*
X191142857Y-85390476D01*
X191180952Y-85428571D01*
X191257142Y-85466666D01*
X191409523Y-85466666D01*
X191485714Y-85428571D01*
X191523809Y-85390476D01*
X191561904Y-85314285D01*
X191561904Y-85161904D01*
X191523809Y-85085714D01*
X191485714Y-85047619D01*
X191409523Y-85009523D01*
X191257142Y-85009523D01*
X191180952Y-85047619D01*
X191142857Y-85085714D01*
X191104761Y-85161904D01*
%TO.C,DL101*%
X160761904Y-126876190D02*
X159961904Y-126876190D01*
X159961904Y-126685714D01*
X160000000Y-126571428D01*
X160076190Y-126495238D01*
X160152380Y-126457142D01*
X160304761Y-126419047D01*
X160419047Y-126419047D01*
X160571428Y-126457142D01*
X160647619Y-126495238D01*
X160723809Y-126571428D01*
X160761904Y-126685714D01*
X160761904Y-126876190D01*
X160761904Y-125695238D02*
X160761904Y-126076190D01*
X159961904Y-126076190D01*
X160761904Y-125009523D02*
X160761904Y-125466666D01*
X160761904Y-125238095D02*
X159961904Y-125238095D01*
X160076190Y-125314285D01*
X160152380Y-125390476D01*
X160190476Y-125466666D01*
X159961904Y-124514285D02*
X159961904Y-124438095D01*
X160000000Y-124361904D01*
X160038095Y-124323809D01*
X160114285Y-124285714D01*
X160266666Y-124247619D01*
X160457142Y-124247619D01*
X160609523Y-124285714D01*
X160685714Y-124323809D01*
X160723809Y-124361904D01*
X160761904Y-124438095D01*
X160761904Y-124514285D01*
X160723809Y-124590476D01*
X160685714Y-124628571D01*
X160609523Y-124666666D01*
X160457142Y-124704761D01*
X160266666Y-124704761D01*
X160114285Y-124666666D01*
X160038095Y-124628571D01*
X160000000Y-124590476D01*
X159961904Y-124514285D01*
X160761904Y-123485714D02*
X160761904Y-123942857D01*
X160761904Y-123714285D02*
X159961904Y-123714285D01*
X160076190Y-123790476D01*
X160152380Y-123866666D01*
X160190476Y-123942857D01*
X161861904Y-130933333D02*
X161061904Y-130933333D01*
X161557142Y-130857142D02*
X161861904Y-130628571D01*
X161328571Y-130628571D02*
X161633333Y-130933333D01*
%TO.C,DL102*%
X198111904Y-126176190D02*
X197311904Y-126176190D01*
X197311904Y-125985714D01*
X197350000Y-125871428D01*
X197426190Y-125795238D01*
X197502380Y-125757142D01*
X197654761Y-125719047D01*
X197769047Y-125719047D01*
X197921428Y-125757142D01*
X197997619Y-125795238D01*
X198073809Y-125871428D01*
X198111904Y-125985714D01*
X198111904Y-126176190D01*
X198111904Y-124995238D02*
X198111904Y-125376190D01*
X197311904Y-125376190D01*
X198111904Y-124309523D02*
X198111904Y-124766666D01*
X198111904Y-124538095D02*
X197311904Y-124538095D01*
X197426190Y-124614285D01*
X197502380Y-124690476D01*
X197540476Y-124766666D01*
X197311904Y-123814285D02*
X197311904Y-123738095D01*
X197350000Y-123661904D01*
X197388095Y-123623809D01*
X197464285Y-123585714D01*
X197616666Y-123547619D01*
X197807142Y-123547619D01*
X197959523Y-123585714D01*
X198035714Y-123623809D01*
X198073809Y-123661904D01*
X198111904Y-123738095D01*
X198111904Y-123814285D01*
X198073809Y-123890476D01*
X198035714Y-123928571D01*
X197959523Y-123966666D01*
X197807142Y-124004761D01*
X197616666Y-124004761D01*
X197464285Y-123966666D01*
X197388095Y-123928571D01*
X197350000Y-123890476D01*
X197311904Y-123814285D01*
X197388095Y-123242857D02*
X197350000Y-123204761D01*
X197311904Y-123128571D01*
X197311904Y-122938095D01*
X197350000Y-122861904D01*
X197388095Y-122823809D01*
X197464285Y-122785714D01*
X197540476Y-122785714D01*
X197654761Y-122823809D01*
X198111904Y-123280952D01*
X198111904Y-122785714D01*
X195161904Y-128283333D02*
X194361904Y-128283333D01*
X194857142Y-128207142D02*
X195161904Y-127978571D01*
X194628571Y-127978571D02*
X194933333Y-128283333D01*
%TO.C,DL103*%
X196861904Y-126176190D02*
X196061904Y-126176190D01*
X196061904Y-125985714D01*
X196100000Y-125871428D01*
X196176190Y-125795238D01*
X196252380Y-125757142D01*
X196404761Y-125719047D01*
X196519047Y-125719047D01*
X196671428Y-125757142D01*
X196747619Y-125795238D01*
X196823809Y-125871428D01*
X196861904Y-125985714D01*
X196861904Y-126176190D01*
X196861904Y-124995238D02*
X196861904Y-125376190D01*
X196061904Y-125376190D01*
X196861904Y-124309523D02*
X196861904Y-124766666D01*
X196861904Y-124538095D02*
X196061904Y-124538095D01*
X196176190Y-124614285D01*
X196252380Y-124690476D01*
X196290476Y-124766666D01*
X196061904Y-123814285D02*
X196061904Y-123738095D01*
X196100000Y-123661904D01*
X196138095Y-123623809D01*
X196214285Y-123585714D01*
X196366666Y-123547619D01*
X196557142Y-123547619D01*
X196709523Y-123585714D01*
X196785714Y-123623809D01*
X196823809Y-123661904D01*
X196861904Y-123738095D01*
X196861904Y-123814285D01*
X196823809Y-123890476D01*
X196785714Y-123928571D01*
X196709523Y-123966666D01*
X196557142Y-124004761D01*
X196366666Y-124004761D01*
X196214285Y-123966666D01*
X196138095Y-123928571D01*
X196100000Y-123890476D01*
X196061904Y-123814285D01*
X196061904Y-123280952D02*
X196061904Y-122785714D01*
X196366666Y-123052380D01*
X196366666Y-122938095D01*
X196404761Y-122861904D01*
X196442857Y-122823809D01*
X196519047Y-122785714D01*
X196709523Y-122785714D01*
X196785714Y-122823809D01*
X196823809Y-122861904D01*
X196861904Y-122938095D01*
X196861904Y-123166666D01*
X196823809Y-123242857D01*
X196785714Y-123280952D01*
X192961904Y-128283333D02*
X192161904Y-128283333D01*
X192657142Y-128207142D02*
X192961904Y-127978571D01*
X192428571Y-127978571D02*
X192733333Y-128283333D01*
%TO.C,DL104*%
X163161904Y-126876190D02*
X162361904Y-126876190D01*
X162361904Y-126685714D01*
X162400000Y-126571428D01*
X162476190Y-126495238D01*
X162552380Y-126457142D01*
X162704761Y-126419047D01*
X162819047Y-126419047D01*
X162971428Y-126457142D01*
X163047619Y-126495238D01*
X163123809Y-126571428D01*
X163161904Y-126685714D01*
X163161904Y-126876190D01*
X163161904Y-125695238D02*
X163161904Y-126076190D01*
X162361904Y-126076190D01*
X163161904Y-125009523D02*
X163161904Y-125466666D01*
X163161904Y-125238095D02*
X162361904Y-125238095D01*
X162476190Y-125314285D01*
X162552380Y-125390476D01*
X162590476Y-125466666D01*
X162361904Y-124514285D02*
X162361904Y-124438095D01*
X162400000Y-124361904D01*
X162438095Y-124323809D01*
X162514285Y-124285714D01*
X162666666Y-124247619D01*
X162857142Y-124247619D01*
X163009523Y-124285714D01*
X163085714Y-124323809D01*
X163123809Y-124361904D01*
X163161904Y-124438095D01*
X163161904Y-124514285D01*
X163123809Y-124590476D01*
X163085714Y-124628571D01*
X163009523Y-124666666D01*
X162857142Y-124704761D01*
X162666666Y-124704761D01*
X162514285Y-124666666D01*
X162438095Y-124628571D01*
X162400000Y-124590476D01*
X162361904Y-124514285D01*
X162628571Y-123561904D02*
X163161904Y-123561904D01*
X162323809Y-123752380D02*
X162895238Y-123942857D01*
X162895238Y-123447619D01*
X164111904Y-130933333D02*
X163311904Y-130933333D01*
X163807142Y-130857142D02*
X164111904Y-130628571D01*
X163578571Y-130628571D02*
X163883333Y-130933333D01*
%TO.C,P101*%
X188647619Y-131461904D02*
X188647619Y-130661904D01*
X188952380Y-130661904D01*
X189028571Y-130700000D01*
X189066666Y-130738095D01*
X189104761Y-130814285D01*
X189104761Y-130928571D01*
X189066666Y-131004761D01*
X189028571Y-131042857D01*
X188952380Y-131080952D01*
X188647619Y-131080952D01*
X189866666Y-131461904D02*
X189409523Y-131461904D01*
X189638095Y-131461904D02*
X189638095Y-130661904D01*
X189561904Y-130776190D01*
X189485714Y-130852380D01*
X189409523Y-130890476D01*
X190361904Y-130661904D02*
X190438095Y-130661904D01*
X190514285Y-130700000D01*
X190552380Y-130738095D01*
X190590476Y-130814285D01*
X190628571Y-130966666D01*
X190628571Y-131157142D01*
X190590476Y-131309523D01*
X190552380Y-131385714D01*
X190514285Y-131423809D01*
X190438095Y-131461904D01*
X190361904Y-131461904D01*
X190285714Y-131423809D01*
X190247619Y-131385714D01*
X190209523Y-131309523D01*
X190171428Y-131157142D01*
X190171428Y-130966666D01*
X190209523Y-130814285D01*
X190247619Y-130738095D01*
X190285714Y-130700000D01*
X190361904Y-130661904D01*
X191390476Y-131461904D02*
X190933333Y-131461904D01*
X191161904Y-131461904D02*
X191161904Y-130661904D01*
X191085714Y-130776190D01*
X191009523Y-130852380D01*
X190933333Y-130890476D01*
X190945238Y-138857142D02*
X191554761Y-138857142D01*
X188445238Y-138857142D02*
X189054761Y-138857142D01*
X188750000Y-139161904D02*
X188750000Y-138552380D01*
%TO.C,P102*%
X159761904Y-79952380D02*
X158961904Y-79952380D01*
X158961904Y-79647619D01*
X159000000Y-79571428D01*
X159038095Y-79533333D01*
X159114285Y-79495238D01*
X159228571Y-79495238D01*
X159304761Y-79533333D01*
X159342857Y-79571428D01*
X159380952Y-79647619D01*
X159380952Y-79952380D01*
X159761904Y-78733333D02*
X159761904Y-79190476D01*
X159761904Y-78961904D02*
X158961904Y-78961904D01*
X159076190Y-79038095D01*
X159152380Y-79114285D01*
X159190476Y-79190476D01*
X158961904Y-78238095D02*
X158961904Y-78161904D01*
X159000000Y-78085714D01*
X159038095Y-78047619D01*
X159114285Y-78009523D01*
X159266666Y-77971428D01*
X159457142Y-77971428D01*
X159609523Y-78009523D01*
X159685714Y-78047619D01*
X159723809Y-78085714D01*
X159761904Y-78161904D01*
X159761904Y-78238095D01*
X159723809Y-78314285D01*
X159685714Y-78352380D01*
X159609523Y-78390476D01*
X159457142Y-78428571D01*
X159266666Y-78428571D01*
X159114285Y-78390476D01*
X159038095Y-78352380D01*
X159000000Y-78314285D01*
X158961904Y-78238095D01*
X159038095Y-77666666D02*
X159000000Y-77628571D01*
X158961904Y-77552380D01*
X158961904Y-77361904D01*
X159000000Y-77285714D01*
X159038095Y-77247619D01*
X159114285Y-77209523D01*
X159190476Y-77209523D01*
X159304761Y-77247619D01*
X159761904Y-77704761D01*
X159761904Y-77209523D01*
X161961904Y-81871428D02*
X161961904Y-82328571D01*
X161961904Y-82100000D02*
X161161904Y-82100000D01*
X161276190Y-82176190D01*
X161352380Y-82252380D01*
X161390476Y-82328571D01*
%TO.C,P103*%
X181647619Y-93611904D02*
X181647619Y-92811904D01*
X181952380Y-92811904D01*
X182028571Y-92850000D01*
X182066666Y-92888095D01*
X182104761Y-92964285D01*
X182104761Y-93078571D01*
X182066666Y-93154761D01*
X182028571Y-93192857D01*
X181952380Y-93230952D01*
X181647619Y-93230952D01*
X182866666Y-93611904D02*
X182409523Y-93611904D01*
X182638095Y-93611904D02*
X182638095Y-92811904D01*
X182561904Y-92926190D01*
X182485714Y-93002380D01*
X182409523Y-93040476D01*
X183361904Y-92811904D02*
X183438095Y-92811904D01*
X183514285Y-92850000D01*
X183552380Y-92888095D01*
X183590476Y-92964285D01*
X183628571Y-93116666D01*
X183628571Y-93307142D01*
X183590476Y-93459523D01*
X183552380Y-93535714D01*
X183514285Y-93573809D01*
X183438095Y-93611904D01*
X183361904Y-93611904D01*
X183285714Y-93573809D01*
X183247619Y-93535714D01*
X183209523Y-93459523D01*
X183171428Y-93307142D01*
X183171428Y-93116666D01*
X183209523Y-92964285D01*
X183247619Y-92888095D01*
X183285714Y-92850000D01*
X183361904Y-92811904D01*
X183895238Y-92811904D02*
X184390476Y-92811904D01*
X184123809Y-93116666D01*
X184238095Y-93116666D01*
X184314285Y-93154761D01*
X184352380Y-93192857D01*
X184390476Y-93269047D01*
X184390476Y-93459523D01*
X184352380Y-93535714D01*
X184314285Y-93573809D01*
X184238095Y-93611904D01*
X184009523Y-93611904D01*
X183933333Y-93573809D01*
X183895238Y-93535714D01*
%TO.C,P104*%
X166397619Y-93611904D02*
X166397619Y-92811904D01*
X166702380Y-92811904D01*
X166778571Y-92850000D01*
X166816666Y-92888095D01*
X166854761Y-92964285D01*
X166854761Y-93078571D01*
X166816666Y-93154761D01*
X166778571Y-93192857D01*
X166702380Y-93230952D01*
X166397619Y-93230952D01*
X167616666Y-93611904D02*
X167159523Y-93611904D01*
X167388095Y-93611904D02*
X167388095Y-92811904D01*
X167311904Y-92926190D01*
X167235714Y-93002380D01*
X167159523Y-93040476D01*
X168111904Y-92811904D02*
X168188095Y-92811904D01*
X168264285Y-92850000D01*
X168302380Y-92888095D01*
X168340476Y-92964285D01*
X168378571Y-93116666D01*
X168378571Y-93307142D01*
X168340476Y-93459523D01*
X168302380Y-93535714D01*
X168264285Y-93573809D01*
X168188095Y-93611904D01*
X168111904Y-93611904D01*
X168035714Y-93573809D01*
X167997619Y-93535714D01*
X167959523Y-93459523D01*
X167921428Y-93307142D01*
X167921428Y-93116666D01*
X167959523Y-92964285D01*
X167997619Y-92888095D01*
X168035714Y-92850000D01*
X168111904Y-92811904D01*
X169064285Y-93078571D02*
X169064285Y-93611904D01*
X168873809Y-92773809D02*
X168683333Y-93345238D01*
X169178571Y-93345238D01*
%TO.C,P105*%
X190961904Y-81952380D02*
X190161904Y-81952380D01*
X190161904Y-81647619D01*
X190200000Y-81571428D01*
X190238095Y-81533333D01*
X190314285Y-81495238D01*
X190428571Y-81495238D01*
X190504761Y-81533333D01*
X190542857Y-81571428D01*
X190580952Y-81647619D01*
X190580952Y-81952380D01*
X190961904Y-80733333D02*
X190961904Y-81190476D01*
X190961904Y-80961904D02*
X190161904Y-80961904D01*
X190276190Y-81038095D01*
X190352380Y-81114285D01*
X190390476Y-81190476D01*
X190161904Y-80238095D02*
X190161904Y-80161904D01*
X190200000Y-80085714D01*
X190238095Y-80047619D01*
X190314285Y-80009523D01*
X190466666Y-79971428D01*
X190657142Y-79971428D01*
X190809523Y-80009523D01*
X190885714Y-80047619D01*
X190923809Y-80085714D01*
X190961904Y-80161904D01*
X190961904Y-80238095D01*
X190923809Y-80314285D01*
X190885714Y-80352380D01*
X190809523Y-80390476D01*
X190657142Y-80428571D01*
X190466666Y-80428571D01*
X190314285Y-80390476D01*
X190238095Y-80352380D01*
X190200000Y-80314285D01*
X190161904Y-80238095D01*
X190161904Y-79247619D02*
X190161904Y-79628571D01*
X190542857Y-79666666D01*
X190504761Y-79628571D01*
X190466666Y-79552380D01*
X190466666Y-79361904D01*
X190504761Y-79285714D01*
X190542857Y-79247619D01*
X190619047Y-79209523D01*
X190809523Y-79209523D01*
X190885714Y-79247619D01*
X190923809Y-79285714D01*
X190961904Y-79361904D01*
X190961904Y-79552380D01*
X190923809Y-79628571D01*
X190885714Y-79666666D01*
%TO.C,P106*%
X188761904Y-95352380D02*
X187961904Y-95352380D01*
X187961904Y-95047619D01*
X188000000Y-94971428D01*
X188038095Y-94933333D01*
X188114285Y-94895238D01*
X188228571Y-94895238D01*
X188304761Y-94933333D01*
X188342857Y-94971428D01*
X188380952Y-95047619D01*
X188380952Y-95352380D01*
X188761904Y-94133333D02*
X188761904Y-94590476D01*
X188761904Y-94361904D02*
X187961904Y-94361904D01*
X188076190Y-94438095D01*
X188152380Y-94514285D01*
X188190476Y-94590476D01*
X187961904Y-93638095D02*
X187961904Y-93561904D01*
X188000000Y-93485714D01*
X188038095Y-93447619D01*
X188114285Y-93409523D01*
X188266666Y-93371428D01*
X188457142Y-93371428D01*
X188609523Y-93409523D01*
X188685714Y-93447619D01*
X188723809Y-93485714D01*
X188761904Y-93561904D01*
X188761904Y-93638095D01*
X188723809Y-93714285D01*
X188685714Y-93752380D01*
X188609523Y-93790476D01*
X188457142Y-93828571D01*
X188266666Y-93828571D01*
X188114285Y-93790476D01*
X188038095Y-93752380D01*
X188000000Y-93714285D01*
X187961904Y-93638095D01*
X187961904Y-92685714D02*
X187961904Y-92838095D01*
X188000000Y-92914285D01*
X188038095Y-92952380D01*
X188152380Y-93028571D01*
X188304761Y-93066666D01*
X188609523Y-93066666D01*
X188685714Y-93028571D01*
X188723809Y-92990476D01*
X188761904Y-92914285D01*
X188761904Y-92761904D01*
X188723809Y-92685714D01*
X188685714Y-92647619D01*
X188609523Y-92609523D01*
X188419047Y-92609523D01*
X188342857Y-92647619D01*
X188304761Y-92685714D01*
X188266666Y-92761904D01*
X188266666Y-92914285D01*
X188304761Y-92990476D01*
X188342857Y-93028571D01*
X188419047Y-93066666D01*
%TO.C,R101*%
X161961904Y-126295238D02*
X161580952Y-126561904D01*
X161961904Y-126752380D02*
X161161904Y-126752380D01*
X161161904Y-126447619D01*
X161200000Y-126371428D01*
X161238095Y-126333333D01*
X161314285Y-126295238D01*
X161428571Y-126295238D01*
X161504761Y-126333333D01*
X161542857Y-126371428D01*
X161580952Y-126447619D01*
X161580952Y-126752380D01*
X161961904Y-125533333D02*
X161961904Y-125990476D01*
X161961904Y-125761904D02*
X161161904Y-125761904D01*
X161276190Y-125838095D01*
X161352380Y-125914285D01*
X161390476Y-125990476D01*
X161161904Y-125038095D02*
X161161904Y-124961904D01*
X161200000Y-124885714D01*
X161238095Y-124847619D01*
X161314285Y-124809523D01*
X161466666Y-124771428D01*
X161657142Y-124771428D01*
X161809523Y-124809523D01*
X161885714Y-124847619D01*
X161923809Y-124885714D01*
X161961904Y-124961904D01*
X161961904Y-125038095D01*
X161923809Y-125114285D01*
X161885714Y-125152380D01*
X161809523Y-125190476D01*
X161657142Y-125228571D01*
X161466666Y-125228571D01*
X161314285Y-125190476D01*
X161238095Y-125152380D01*
X161200000Y-125114285D01*
X161161904Y-125038095D01*
X161961904Y-124009523D02*
X161961904Y-124466666D01*
X161961904Y-124238095D02*
X161161904Y-124238095D01*
X161276190Y-124314285D01*
X161352380Y-124390476D01*
X161390476Y-124466666D01*
%TO.C,R102*%
X198111904Y-121895238D02*
X197730952Y-122161904D01*
X198111904Y-122352380D02*
X197311904Y-122352380D01*
X197311904Y-122047619D01*
X197350000Y-121971428D01*
X197388095Y-121933333D01*
X197464285Y-121895238D01*
X197578571Y-121895238D01*
X197654761Y-121933333D01*
X197692857Y-121971428D01*
X197730952Y-122047619D01*
X197730952Y-122352380D01*
X198111904Y-121133333D02*
X198111904Y-121590476D01*
X198111904Y-121361904D02*
X197311904Y-121361904D01*
X197426190Y-121438095D01*
X197502380Y-121514285D01*
X197540476Y-121590476D01*
X197311904Y-120638095D02*
X197311904Y-120561904D01*
X197350000Y-120485714D01*
X197388095Y-120447619D01*
X197464285Y-120409523D01*
X197616666Y-120371428D01*
X197807142Y-120371428D01*
X197959523Y-120409523D01*
X198035714Y-120447619D01*
X198073809Y-120485714D01*
X198111904Y-120561904D01*
X198111904Y-120638095D01*
X198073809Y-120714285D01*
X198035714Y-120752380D01*
X197959523Y-120790476D01*
X197807142Y-120828571D01*
X197616666Y-120828571D01*
X197464285Y-120790476D01*
X197388095Y-120752380D01*
X197350000Y-120714285D01*
X197311904Y-120638095D01*
X197388095Y-120066666D02*
X197350000Y-120028571D01*
X197311904Y-119952380D01*
X197311904Y-119761904D01*
X197350000Y-119685714D01*
X197388095Y-119647619D01*
X197464285Y-119609523D01*
X197540476Y-119609523D01*
X197654761Y-119647619D01*
X198111904Y-120104761D01*
X198111904Y-119609523D01*
%TO.C,R103*%
X196861904Y-121895238D02*
X196480952Y-122161904D01*
X196861904Y-122352380D02*
X196061904Y-122352380D01*
X196061904Y-122047619D01*
X196100000Y-121971428D01*
X196138095Y-121933333D01*
X196214285Y-121895238D01*
X196328571Y-121895238D01*
X196404761Y-121933333D01*
X196442857Y-121971428D01*
X196480952Y-122047619D01*
X196480952Y-122352380D01*
X196861904Y-121133333D02*
X196861904Y-121590476D01*
X196861904Y-121361904D02*
X196061904Y-121361904D01*
X196176190Y-121438095D01*
X196252380Y-121514285D01*
X196290476Y-121590476D01*
X196061904Y-120638095D02*
X196061904Y-120561904D01*
X196100000Y-120485714D01*
X196138095Y-120447619D01*
X196214285Y-120409523D01*
X196366666Y-120371428D01*
X196557142Y-120371428D01*
X196709523Y-120409523D01*
X196785714Y-120447619D01*
X196823809Y-120485714D01*
X196861904Y-120561904D01*
X196861904Y-120638095D01*
X196823809Y-120714285D01*
X196785714Y-120752380D01*
X196709523Y-120790476D01*
X196557142Y-120828571D01*
X196366666Y-120828571D01*
X196214285Y-120790476D01*
X196138095Y-120752380D01*
X196100000Y-120714285D01*
X196061904Y-120638095D01*
X196061904Y-120104761D02*
X196061904Y-119609523D01*
X196366666Y-119876190D01*
X196366666Y-119761904D01*
X196404761Y-119685714D01*
X196442857Y-119647619D01*
X196519047Y-119609523D01*
X196709523Y-119609523D01*
X196785714Y-119647619D01*
X196823809Y-119685714D01*
X196861904Y-119761904D01*
X196861904Y-119990476D01*
X196823809Y-120066666D01*
X196785714Y-120104761D01*
%TO.C,R104*%
X191904761Y-120761904D02*
X191638095Y-120380952D01*
X191447619Y-120761904D02*
X191447619Y-119961904D01*
X191752380Y-119961904D01*
X191828571Y-120000000D01*
X191866666Y-120038095D01*
X191904761Y-120114285D01*
X191904761Y-120228571D01*
X191866666Y-120304761D01*
X191828571Y-120342857D01*
X191752380Y-120380952D01*
X191447619Y-120380952D01*
X192666666Y-120761904D02*
X192209523Y-120761904D01*
X192438095Y-120761904D02*
X192438095Y-119961904D01*
X192361904Y-120076190D01*
X192285714Y-120152380D01*
X192209523Y-120190476D01*
X193161904Y-119961904D02*
X193238095Y-119961904D01*
X193314285Y-120000000D01*
X193352380Y-120038095D01*
X193390476Y-120114285D01*
X193428571Y-120266666D01*
X193428571Y-120457142D01*
X193390476Y-120609523D01*
X193352380Y-120685714D01*
X193314285Y-120723809D01*
X193238095Y-120761904D01*
X193161904Y-120761904D01*
X193085714Y-120723809D01*
X193047619Y-120685714D01*
X193009523Y-120609523D01*
X192971428Y-120457142D01*
X192971428Y-120266666D01*
X193009523Y-120114285D01*
X193047619Y-120038095D01*
X193085714Y-120000000D01*
X193161904Y-119961904D01*
X194114285Y-120228571D02*
X194114285Y-120761904D01*
X193923809Y-119923809D02*
X193733333Y-120495238D01*
X194228571Y-120495238D01*
%TO.C,R105*%
X164361904Y-126295238D02*
X163980952Y-126561904D01*
X164361904Y-126752380D02*
X163561904Y-126752380D01*
X163561904Y-126447619D01*
X163600000Y-126371428D01*
X163638095Y-126333333D01*
X163714285Y-126295238D01*
X163828571Y-126295238D01*
X163904761Y-126333333D01*
X163942857Y-126371428D01*
X163980952Y-126447619D01*
X163980952Y-126752380D01*
X164361904Y-125533333D02*
X164361904Y-125990476D01*
X164361904Y-125761904D02*
X163561904Y-125761904D01*
X163676190Y-125838095D01*
X163752380Y-125914285D01*
X163790476Y-125990476D01*
X163561904Y-125038095D02*
X163561904Y-124961904D01*
X163600000Y-124885714D01*
X163638095Y-124847619D01*
X163714285Y-124809523D01*
X163866666Y-124771428D01*
X164057142Y-124771428D01*
X164209523Y-124809523D01*
X164285714Y-124847619D01*
X164323809Y-124885714D01*
X164361904Y-124961904D01*
X164361904Y-125038095D01*
X164323809Y-125114285D01*
X164285714Y-125152380D01*
X164209523Y-125190476D01*
X164057142Y-125228571D01*
X163866666Y-125228571D01*
X163714285Y-125190476D01*
X163638095Y-125152380D01*
X163600000Y-125114285D01*
X163561904Y-125038095D01*
X163561904Y-124047619D02*
X163561904Y-124428571D01*
X163942857Y-124466666D01*
X163904761Y-124428571D01*
X163866666Y-124352380D01*
X163866666Y-124161904D01*
X163904761Y-124085714D01*
X163942857Y-124047619D01*
X164019047Y-124009523D01*
X164209523Y-124009523D01*
X164285714Y-124047619D01*
X164323809Y-124085714D01*
X164361904Y-124161904D01*
X164361904Y-124352380D01*
X164323809Y-124428571D01*
X164285714Y-124466666D01*
%TO.C,R106*%
X162861904Y-87395238D02*
X162480952Y-87661904D01*
X162861904Y-87852380D02*
X162061904Y-87852380D01*
X162061904Y-87547619D01*
X162100000Y-87471428D01*
X162138095Y-87433333D01*
X162214285Y-87395238D01*
X162328571Y-87395238D01*
X162404761Y-87433333D01*
X162442857Y-87471428D01*
X162480952Y-87547619D01*
X162480952Y-87852380D01*
X162861904Y-86633333D02*
X162861904Y-87090476D01*
X162861904Y-86861904D02*
X162061904Y-86861904D01*
X162176190Y-86938095D01*
X162252380Y-87014285D01*
X162290476Y-87090476D01*
X162061904Y-86138095D02*
X162061904Y-86061904D01*
X162100000Y-85985714D01*
X162138095Y-85947619D01*
X162214285Y-85909523D01*
X162366666Y-85871428D01*
X162557142Y-85871428D01*
X162709523Y-85909523D01*
X162785714Y-85947619D01*
X162823809Y-85985714D01*
X162861904Y-86061904D01*
X162861904Y-86138095D01*
X162823809Y-86214285D01*
X162785714Y-86252380D01*
X162709523Y-86290476D01*
X162557142Y-86328571D01*
X162366666Y-86328571D01*
X162214285Y-86290476D01*
X162138095Y-86252380D01*
X162100000Y-86214285D01*
X162061904Y-86138095D01*
X162061904Y-85185714D02*
X162061904Y-85338095D01*
X162100000Y-85414285D01*
X162138095Y-85452380D01*
X162252380Y-85528571D01*
X162404761Y-85566666D01*
X162709523Y-85566666D01*
X162785714Y-85528571D01*
X162823809Y-85490476D01*
X162861904Y-85414285D01*
X162861904Y-85261904D01*
X162823809Y-85185714D01*
X162785714Y-85147619D01*
X162709523Y-85109523D01*
X162519047Y-85109523D01*
X162442857Y-85147619D01*
X162404761Y-85185714D01*
X162366666Y-85261904D01*
X162366666Y-85414285D01*
X162404761Y-85490476D01*
X162442857Y-85528571D01*
X162519047Y-85566666D01*
%TO.C,R107*%
X174111904Y-105945238D02*
X173730952Y-106211904D01*
X174111904Y-106402380D02*
X173311904Y-106402380D01*
X173311904Y-106097619D01*
X173350000Y-106021428D01*
X173388095Y-105983333D01*
X173464285Y-105945238D01*
X173578571Y-105945238D01*
X173654761Y-105983333D01*
X173692857Y-106021428D01*
X173730952Y-106097619D01*
X173730952Y-106402380D01*
X174111904Y-105183333D02*
X174111904Y-105640476D01*
X174111904Y-105411904D02*
X173311904Y-105411904D01*
X173426190Y-105488095D01*
X173502380Y-105564285D01*
X173540476Y-105640476D01*
X173311904Y-104688095D02*
X173311904Y-104611904D01*
X173350000Y-104535714D01*
X173388095Y-104497619D01*
X173464285Y-104459523D01*
X173616666Y-104421428D01*
X173807142Y-104421428D01*
X173959523Y-104459523D01*
X174035714Y-104497619D01*
X174073809Y-104535714D01*
X174111904Y-104611904D01*
X174111904Y-104688095D01*
X174073809Y-104764285D01*
X174035714Y-104802380D01*
X173959523Y-104840476D01*
X173807142Y-104878571D01*
X173616666Y-104878571D01*
X173464285Y-104840476D01*
X173388095Y-104802380D01*
X173350000Y-104764285D01*
X173311904Y-104688095D01*
X173311904Y-104154761D02*
X173311904Y-103621428D01*
X174111904Y-103964285D01*
%TO.C,R108*%
X170961904Y-109295238D02*
X170580952Y-109561904D01*
X170961904Y-109752380D02*
X170161904Y-109752380D01*
X170161904Y-109447619D01*
X170200000Y-109371428D01*
X170238095Y-109333333D01*
X170314285Y-109295238D01*
X170428571Y-109295238D01*
X170504761Y-109333333D01*
X170542857Y-109371428D01*
X170580952Y-109447619D01*
X170580952Y-109752380D01*
X170961904Y-108533333D02*
X170961904Y-108990476D01*
X170961904Y-108761904D02*
X170161904Y-108761904D01*
X170276190Y-108838095D01*
X170352380Y-108914285D01*
X170390476Y-108990476D01*
X170161904Y-108038095D02*
X170161904Y-107961904D01*
X170200000Y-107885714D01*
X170238095Y-107847619D01*
X170314285Y-107809523D01*
X170466666Y-107771428D01*
X170657142Y-107771428D01*
X170809523Y-107809523D01*
X170885714Y-107847619D01*
X170923809Y-107885714D01*
X170961904Y-107961904D01*
X170961904Y-108038095D01*
X170923809Y-108114285D01*
X170885714Y-108152380D01*
X170809523Y-108190476D01*
X170657142Y-108228571D01*
X170466666Y-108228571D01*
X170314285Y-108190476D01*
X170238095Y-108152380D01*
X170200000Y-108114285D01*
X170161904Y-108038095D01*
X170504761Y-107314285D02*
X170466666Y-107390476D01*
X170428571Y-107428571D01*
X170352380Y-107466666D01*
X170314285Y-107466666D01*
X170238095Y-107428571D01*
X170200000Y-107390476D01*
X170161904Y-107314285D01*
X170161904Y-107161904D01*
X170200000Y-107085714D01*
X170238095Y-107047619D01*
X170314285Y-107009523D01*
X170352380Y-107009523D01*
X170428571Y-107047619D01*
X170466666Y-107085714D01*
X170504761Y-107161904D01*
X170504761Y-107314285D01*
X170542857Y-107390476D01*
X170580952Y-107428571D01*
X170657142Y-107466666D01*
X170809523Y-107466666D01*
X170885714Y-107428571D01*
X170923809Y-107390476D01*
X170961904Y-107314285D01*
X170961904Y-107161904D01*
X170923809Y-107085714D01*
X170885714Y-107047619D01*
X170809523Y-107009523D01*
X170657142Y-107009523D01*
X170580952Y-107047619D01*
X170542857Y-107085714D01*
X170504761Y-107161904D01*
%TO.C,SW101*%
X108171428Y-79473809D02*
X108285714Y-79511904D01*
X108476190Y-79511904D01*
X108552380Y-79473809D01*
X108590476Y-79435714D01*
X108628571Y-79359523D01*
X108628571Y-79283333D01*
X108590476Y-79207142D01*
X108552380Y-79169047D01*
X108476190Y-79130952D01*
X108323809Y-79092857D01*
X108247619Y-79054761D01*
X108209523Y-79016666D01*
X108171428Y-78940476D01*
X108171428Y-78864285D01*
X108209523Y-78788095D01*
X108247619Y-78750000D01*
X108323809Y-78711904D01*
X108514285Y-78711904D01*
X108628571Y-78750000D01*
X108895238Y-78711904D02*
X109085714Y-79511904D01*
X109238095Y-78940476D01*
X109390476Y-79511904D01*
X109580952Y-78711904D01*
X110304761Y-79511904D02*
X109847619Y-79511904D01*
X110076190Y-79511904D02*
X110076190Y-78711904D01*
X110000000Y-78826190D01*
X109923809Y-78902380D01*
X109847619Y-78940476D01*
X110800000Y-78711904D02*
X110876190Y-78711904D01*
X110952380Y-78750000D01*
X110990476Y-78788095D01*
X111028571Y-78864285D01*
X111066666Y-79016666D01*
X111066666Y-79207142D01*
X111028571Y-79359523D01*
X110990476Y-79435714D01*
X110952380Y-79473809D01*
X110876190Y-79511904D01*
X110800000Y-79511904D01*
X110723809Y-79473809D01*
X110685714Y-79435714D01*
X110647619Y-79359523D01*
X110609523Y-79207142D01*
X110609523Y-79016666D01*
X110647619Y-78864285D01*
X110685714Y-78788095D01*
X110723809Y-78750000D01*
X110800000Y-78711904D01*
X111828571Y-79511904D02*
X111371428Y-79511904D01*
X111600000Y-79511904D02*
X111600000Y-78711904D01*
X111523809Y-78826190D01*
X111447619Y-78902380D01*
X111371428Y-78940476D01*
%TO.C,SW102*%
X108171428Y-98223809D02*
X108285714Y-98261904D01*
X108476190Y-98261904D01*
X108552380Y-98223809D01*
X108590476Y-98185714D01*
X108628571Y-98109523D01*
X108628571Y-98033333D01*
X108590476Y-97957142D01*
X108552380Y-97919047D01*
X108476190Y-97880952D01*
X108323809Y-97842857D01*
X108247619Y-97804761D01*
X108209523Y-97766666D01*
X108171428Y-97690476D01*
X108171428Y-97614285D01*
X108209523Y-97538095D01*
X108247619Y-97500000D01*
X108323809Y-97461904D01*
X108514285Y-97461904D01*
X108628571Y-97500000D01*
X108895238Y-97461904D02*
X109085714Y-98261904D01*
X109238095Y-97690476D01*
X109390476Y-98261904D01*
X109580952Y-97461904D01*
X110304761Y-98261904D02*
X109847619Y-98261904D01*
X110076190Y-98261904D02*
X110076190Y-97461904D01*
X110000000Y-97576190D01*
X109923809Y-97652380D01*
X109847619Y-97690476D01*
X110800000Y-97461904D02*
X110876190Y-97461904D01*
X110952380Y-97500000D01*
X110990476Y-97538095D01*
X111028571Y-97614285D01*
X111066666Y-97766666D01*
X111066666Y-97957142D01*
X111028571Y-98109523D01*
X110990476Y-98185714D01*
X110952380Y-98223809D01*
X110876190Y-98261904D01*
X110800000Y-98261904D01*
X110723809Y-98223809D01*
X110685714Y-98185714D01*
X110647619Y-98109523D01*
X110609523Y-97957142D01*
X110609523Y-97766666D01*
X110647619Y-97614285D01*
X110685714Y-97538095D01*
X110723809Y-97500000D01*
X110800000Y-97461904D01*
X111371428Y-97538095D02*
X111409523Y-97500000D01*
X111485714Y-97461904D01*
X111676190Y-97461904D01*
X111752380Y-97500000D01*
X111790476Y-97538095D01*
X111828571Y-97614285D01*
X111828571Y-97690476D01*
X111790476Y-97804761D01*
X111333333Y-98261904D01*
X111828571Y-98261904D01*
%TO.C,SW103*%
X108171428Y-116973809D02*
X108285714Y-117011904D01*
X108476190Y-117011904D01*
X108552380Y-116973809D01*
X108590476Y-116935714D01*
X108628571Y-116859523D01*
X108628571Y-116783333D01*
X108590476Y-116707142D01*
X108552380Y-116669047D01*
X108476190Y-116630952D01*
X108323809Y-116592857D01*
X108247619Y-116554761D01*
X108209523Y-116516666D01*
X108171428Y-116440476D01*
X108171428Y-116364285D01*
X108209523Y-116288095D01*
X108247619Y-116250000D01*
X108323809Y-116211904D01*
X108514285Y-116211904D01*
X108628571Y-116250000D01*
X108895238Y-116211904D02*
X109085714Y-117011904D01*
X109238095Y-116440476D01*
X109390476Y-117011904D01*
X109580952Y-116211904D01*
X110304761Y-117011904D02*
X109847619Y-117011904D01*
X110076190Y-117011904D02*
X110076190Y-116211904D01*
X110000000Y-116326190D01*
X109923809Y-116402380D01*
X109847619Y-116440476D01*
X110800000Y-116211904D02*
X110876190Y-116211904D01*
X110952380Y-116250000D01*
X110990476Y-116288095D01*
X111028571Y-116364285D01*
X111066666Y-116516666D01*
X111066666Y-116707142D01*
X111028571Y-116859523D01*
X110990476Y-116935714D01*
X110952380Y-116973809D01*
X110876190Y-117011904D01*
X110800000Y-117011904D01*
X110723809Y-116973809D01*
X110685714Y-116935714D01*
X110647619Y-116859523D01*
X110609523Y-116707142D01*
X110609523Y-116516666D01*
X110647619Y-116364285D01*
X110685714Y-116288095D01*
X110723809Y-116250000D01*
X110800000Y-116211904D01*
X111333333Y-116211904D02*
X111828571Y-116211904D01*
X111561904Y-116516666D01*
X111676190Y-116516666D01*
X111752380Y-116554761D01*
X111790476Y-116592857D01*
X111828571Y-116669047D01*
X111828571Y-116859523D01*
X111790476Y-116935714D01*
X111752380Y-116973809D01*
X111676190Y-117011904D01*
X111447619Y-117011904D01*
X111371428Y-116973809D01*
X111333333Y-116935714D01*
%TO.C,SW104*%
X128171428Y-73223809D02*
X128285714Y-73261904D01*
X128476190Y-73261904D01*
X128552380Y-73223809D01*
X128590476Y-73185714D01*
X128628571Y-73109523D01*
X128628571Y-73033333D01*
X128590476Y-72957142D01*
X128552380Y-72919047D01*
X128476190Y-72880952D01*
X128323809Y-72842857D01*
X128247619Y-72804761D01*
X128209523Y-72766666D01*
X128171428Y-72690476D01*
X128171428Y-72614285D01*
X128209523Y-72538095D01*
X128247619Y-72500000D01*
X128323809Y-72461904D01*
X128514285Y-72461904D01*
X128628571Y-72500000D01*
X128895238Y-72461904D02*
X129085714Y-73261904D01*
X129238095Y-72690476D01*
X129390476Y-73261904D01*
X129580952Y-72461904D01*
X130304761Y-73261904D02*
X129847619Y-73261904D01*
X130076190Y-73261904D02*
X130076190Y-72461904D01*
X130000000Y-72576190D01*
X129923809Y-72652380D01*
X129847619Y-72690476D01*
X130800000Y-72461904D02*
X130876190Y-72461904D01*
X130952380Y-72500000D01*
X130990476Y-72538095D01*
X131028571Y-72614285D01*
X131066666Y-72766666D01*
X131066666Y-72957142D01*
X131028571Y-73109523D01*
X130990476Y-73185714D01*
X130952380Y-73223809D01*
X130876190Y-73261904D01*
X130800000Y-73261904D01*
X130723809Y-73223809D01*
X130685714Y-73185714D01*
X130647619Y-73109523D01*
X130609523Y-72957142D01*
X130609523Y-72766666D01*
X130647619Y-72614285D01*
X130685714Y-72538095D01*
X130723809Y-72500000D01*
X130800000Y-72461904D01*
X131752380Y-72728571D02*
X131752380Y-73261904D01*
X131561904Y-72423809D02*
X131371428Y-72995238D01*
X131866666Y-72995238D01*
%TO.C,SW105*%
X128171428Y-123223809D02*
X128285714Y-123261904D01*
X128476190Y-123261904D01*
X128552380Y-123223809D01*
X128590476Y-123185714D01*
X128628571Y-123109523D01*
X128628571Y-123033333D01*
X128590476Y-122957142D01*
X128552380Y-122919047D01*
X128476190Y-122880952D01*
X128323809Y-122842857D01*
X128247619Y-122804761D01*
X128209523Y-122766666D01*
X128171428Y-122690476D01*
X128171428Y-122614285D01*
X128209523Y-122538095D01*
X128247619Y-122500000D01*
X128323809Y-122461904D01*
X128514285Y-122461904D01*
X128628571Y-122500000D01*
X128895238Y-122461904D02*
X129085714Y-123261904D01*
X129238095Y-122690476D01*
X129390476Y-123261904D01*
X129580952Y-122461904D01*
X130304761Y-123261904D02*
X129847619Y-123261904D01*
X130076190Y-123261904D02*
X130076190Y-122461904D01*
X130000000Y-122576190D01*
X129923809Y-122652380D01*
X129847619Y-122690476D01*
X130800000Y-122461904D02*
X130876190Y-122461904D01*
X130952380Y-122500000D01*
X130990476Y-122538095D01*
X131028571Y-122614285D01*
X131066666Y-122766666D01*
X131066666Y-122957142D01*
X131028571Y-123109523D01*
X130990476Y-123185714D01*
X130952380Y-123223809D01*
X130876190Y-123261904D01*
X130800000Y-123261904D01*
X130723809Y-123223809D01*
X130685714Y-123185714D01*
X130647619Y-123109523D01*
X130609523Y-122957142D01*
X130609523Y-122766666D01*
X130647619Y-122614285D01*
X130685714Y-122538095D01*
X130723809Y-122500000D01*
X130800000Y-122461904D01*
X131790476Y-122461904D02*
X131409523Y-122461904D01*
X131371428Y-122842857D01*
X131409523Y-122804761D01*
X131485714Y-122766666D01*
X131676190Y-122766666D01*
X131752380Y-122804761D01*
X131790476Y-122842857D01*
X131828571Y-122919047D01*
X131828571Y-123109523D01*
X131790476Y-123185714D01*
X131752380Y-123223809D01*
X131676190Y-123261904D01*
X131485714Y-123261904D01*
X131409523Y-123223809D01*
X131371428Y-123185714D01*
%TO.C,SW106*%
X148171428Y-79473809D02*
X148285714Y-79511904D01*
X148476190Y-79511904D01*
X148552380Y-79473809D01*
X148590476Y-79435714D01*
X148628571Y-79359523D01*
X148628571Y-79283333D01*
X148590476Y-79207142D01*
X148552380Y-79169047D01*
X148476190Y-79130952D01*
X148323809Y-79092857D01*
X148247619Y-79054761D01*
X148209523Y-79016666D01*
X148171428Y-78940476D01*
X148171428Y-78864285D01*
X148209523Y-78788095D01*
X148247619Y-78750000D01*
X148323809Y-78711904D01*
X148514285Y-78711904D01*
X148628571Y-78750000D01*
X148895238Y-78711904D02*
X149085714Y-79511904D01*
X149238095Y-78940476D01*
X149390476Y-79511904D01*
X149580952Y-78711904D01*
X150304761Y-79511904D02*
X149847619Y-79511904D01*
X150076190Y-79511904D02*
X150076190Y-78711904D01*
X150000000Y-78826190D01*
X149923809Y-78902380D01*
X149847619Y-78940476D01*
X150800000Y-78711904D02*
X150876190Y-78711904D01*
X150952380Y-78750000D01*
X150990476Y-78788095D01*
X151028571Y-78864285D01*
X151066666Y-79016666D01*
X151066666Y-79207142D01*
X151028571Y-79359523D01*
X150990476Y-79435714D01*
X150952380Y-79473809D01*
X150876190Y-79511904D01*
X150800000Y-79511904D01*
X150723809Y-79473809D01*
X150685714Y-79435714D01*
X150647619Y-79359523D01*
X150609523Y-79207142D01*
X150609523Y-79016666D01*
X150647619Y-78864285D01*
X150685714Y-78788095D01*
X150723809Y-78750000D01*
X150800000Y-78711904D01*
X151752380Y-78711904D02*
X151600000Y-78711904D01*
X151523809Y-78750000D01*
X151485714Y-78788095D01*
X151409523Y-78902380D01*
X151371428Y-79054761D01*
X151371428Y-79359523D01*
X151409523Y-79435714D01*
X151447619Y-79473809D01*
X151523809Y-79511904D01*
X151676190Y-79511904D01*
X151752380Y-79473809D01*
X151790476Y-79435714D01*
X151828571Y-79359523D01*
X151828571Y-79169047D01*
X151790476Y-79092857D01*
X151752380Y-79054761D01*
X151676190Y-79016666D01*
X151523809Y-79016666D01*
X151447619Y-79054761D01*
X151409523Y-79092857D01*
X151371428Y-79169047D01*
%TO.C,SW107*%
X148171428Y-98223809D02*
X148285714Y-98261904D01*
X148476190Y-98261904D01*
X148552380Y-98223809D01*
X148590476Y-98185714D01*
X148628571Y-98109523D01*
X148628571Y-98033333D01*
X148590476Y-97957142D01*
X148552380Y-97919047D01*
X148476190Y-97880952D01*
X148323809Y-97842857D01*
X148247619Y-97804761D01*
X148209523Y-97766666D01*
X148171428Y-97690476D01*
X148171428Y-97614285D01*
X148209523Y-97538095D01*
X148247619Y-97500000D01*
X148323809Y-97461904D01*
X148514285Y-97461904D01*
X148628571Y-97500000D01*
X148895238Y-97461904D02*
X149085714Y-98261904D01*
X149238095Y-97690476D01*
X149390476Y-98261904D01*
X149580952Y-97461904D01*
X150304761Y-98261904D02*
X149847619Y-98261904D01*
X150076190Y-98261904D02*
X150076190Y-97461904D01*
X150000000Y-97576190D01*
X149923809Y-97652380D01*
X149847619Y-97690476D01*
X150800000Y-97461904D02*
X150876190Y-97461904D01*
X150952380Y-97500000D01*
X150990476Y-97538095D01*
X151028571Y-97614285D01*
X151066666Y-97766666D01*
X151066666Y-97957142D01*
X151028571Y-98109523D01*
X150990476Y-98185714D01*
X150952380Y-98223809D01*
X150876190Y-98261904D01*
X150800000Y-98261904D01*
X150723809Y-98223809D01*
X150685714Y-98185714D01*
X150647619Y-98109523D01*
X150609523Y-97957142D01*
X150609523Y-97766666D01*
X150647619Y-97614285D01*
X150685714Y-97538095D01*
X150723809Y-97500000D01*
X150800000Y-97461904D01*
X151333333Y-97461904D02*
X151866666Y-97461904D01*
X151523809Y-98261904D01*
%TO.C,SW108*%
X148171428Y-116973809D02*
X148285714Y-117011904D01*
X148476190Y-117011904D01*
X148552380Y-116973809D01*
X148590476Y-116935714D01*
X148628571Y-116859523D01*
X148628571Y-116783333D01*
X148590476Y-116707142D01*
X148552380Y-116669047D01*
X148476190Y-116630952D01*
X148323809Y-116592857D01*
X148247619Y-116554761D01*
X148209523Y-116516666D01*
X148171428Y-116440476D01*
X148171428Y-116364285D01*
X148209523Y-116288095D01*
X148247619Y-116250000D01*
X148323809Y-116211904D01*
X148514285Y-116211904D01*
X148628571Y-116250000D01*
X148895238Y-116211904D02*
X149085714Y-117011904D01*
X149238095Y-116440476D01*
X149390476Y-117011904D01*
X149580952Y-116211904D01*
X150304761Y-117011904D02*
X149847619Y-117011904D01*
X150076190Y-117011904D02*
X150076190Y-116211904D01*
X150000000Y-116326190D01*
X149923809Y-116402380D01*
X149847619Y-116440476D01*
X150800000Y-116211904D02*
X150876190Y-116211904D01*
X150952380Y-116250000D01*
X150990476Y-116288095D01*
X151028571Y-116364285D01*
X151066666Y-116516666D01*
X151066666Y-116707142D01*
X151028571Y-116859523D01*
X150990476Y-116935714D01*
X150952380Y-116973809D01*
X150876190Y-117011904D01*
X150800000Y-117011904D01*
X150723809Y-116973809D01*
X150685714Y-116935714D01*
X150647619Y-116859523D01*
X150609523Y-116707142D01*
X150609523Y-116516666D01*
X150647619Y-116364285D01*
X150685714Y-116288095D01*
X150723809Y-116250000D01*
X150800000Y-116211904D01*
X151523809Y-116554761D02*
X151447619Y-116516666D01*
X151409523Y-116478571D01*
X151371428Y-116402380D01*
X151371428Y-116364285D01*
X151409523Y-116288095D01*
X151447619Y-116250000D01*
X151523809Y-116211904D01*
X151676190Y-116211904D01*
X151752380Y-116250000D01*
X151790476Y-116288095D01*
X151828571Y-116364285D01*
X151828571Y-116402380D01*
X151790476Y-116478571D01*
X151752380Y-116516666D01*
X151676190Y-116554761D01*
X151523809Y-116554761D01*
X151447619Y-116592857D01*
X151409523Y-116630952D01*
X151371428Y-116707142D01*
X151371428Y-116859523D01*
X151409523Y-116935714D01*
X151447619Y-116973809D01*
X151523809Y-117011904D01*
X151676190Y-117011904D01*
X151752380Y-116973809D01*
X151790476Y-116935714D01*
X151828571Y-116859523D01*
X151828571Y-116707142D01*
X151790476Y-116630952D01*
X151752380Y-116592857D01*
X151676190Y-116554761D01*
%TO.C,SW109*%
X203171428Y-73223809D02*
X203285714Y-73261904D01*
X203476190Y-73261904D01*
X203552380Y-73223809D01*
X203590476Y-73185714D01*
X203628571Y-73109523D01*
X203628571Y-73033333D01*
X203590476Y-72957142D01*
X203552380Y-72919047D01*
X203476190Y-72880952D01*
X203323809Y-72842857D01*
X203247619Y-72804761D01*
X203209523Y-72766666D01*
X203171428Y-72690476D01*
X203171428Y-72614285D01*
X203209523Y-72538095D01*
X203247619Y-72500000D01*
X203323809Y-72461904D01*
X203514285Y-72461904D01*
X203628571Y-72500000D01*
X203895238Y-72461904D02*
X204085714Y-73261904D01*
X204238095Y-72690476D01*
X204390476Y-73261904D01*
X204580952Y-72461904D01*
X205304761Y-73261904D02*
X204847619Y-73261904D01*
X205076190Y-73261904D02*
X205076190Y-72461904D01*
X205000000Y-72576190D01*
X204923809Y-72652380D01*
X204847619Y-72690476D01*
X205800000Y-72461904D02*
X205876190Y-72461904D01*
X205952380Y-72500000D01*
X205990476Y-72538095D01*
X206028571Y-72614285D01*
X206066666Y-72766666D01*
X206066666Y-72957142D01*
X206028571Y-73109523D01*
X205990476Y-73185714D01*
X205952380Y-73223809D01*
X205876190Y-73261904D01*
X205800000Y-73261904D01*
X205723809Y-73223809D01*
X205685714Y-73185714D01*
X205647619Y-73109523D01*
X205609523Y-72957142D01*
X205609523Y-72766666D01*
X205647619Y-72614285D01*
X205685714Y-72538095D01*
X205723809Y-72500000D01*
X205800000Y-72461904D01*
X206447619Y-73261904D02*
X206600000Y-73261904D01*
X206676190Y-73223809D01*
X206714285Y-73185714D01*
X206790476Y-73071428D01*
X206828571Y-72919047D01*
X206828571Y-72614285D01*
X206790476Y-72538095D01*
X206752380Y-72500000D01*
X206676190Y-72461904D01*
X206523809Y-72461904D01*
X206447619Y-72500000D01*
X206409523Y-72538095D01*
X206371428Y-72614285D01*
X206371428Y-72804761D01*
X206409523Y-72880952D01*
X206447619Y-72919047D01*
X206523809Y-72957142D01*
X206676190Y-72957142D01*
X206752380Y-72919047D01*
X206790476Y-72880952D01*
X206828571Y-72804761D01*
%TO.C,SW110*%
X203171428Y-98223809D02*
X203285714Y-98261904D01*
X203476190Y-98261904D01*
X203552380Y-98223809D01*
X203590476Y-98185714D01*
X203628571Y-98109523D01*
X203628571Y-98033333D01*
X203590476Y-97957142D01*
X203552380Y-97919047D01*
X203476190Y-97880952D01*
X203323809Y-97842857D01*
X203247619Y-97804761D01*
X203209523Y-97766666D01*
X203171428Y-97690476D01*
X203171428Y-97614285D01*
X203209523Y-97538095D01*
X203247619Y-97500000D01*
X203323809Y-97461904D01*
X203514285Y-97461904D01*
X203628571Y-97500000D01*
X203895238Y-97461904D02*
X204085714Y-98261904D01*
X204238095Y-97690476D01*
X204390476Y-98261904D01*
X204580952Y-97461904D01*
X205304761Y-98261904D02*
X204847619Y-98261904D01*
X205076190Y-98261904D02*
X205076190Y-97461904D01*
X205000000Y-97576190D01*
X204923809Y-97652380D01*
X204847619Y-97690476D01*
X206066666Y-98261904D02*
X205609523Y-98261904D01*
X205838095Y-98261904D02*
X205838095Y-97461904D01*
X205761904Y-97576190D01*
X205685714Y-97652380D01*
X205609523Y-97690476D01*
X206561904Y-97461904D02*
X206638095Y-97461904D01*
X206714285Y-97500000D01*
X206752380Y-97538095D01*
X206790476Y-97614285D01*
X206828571Y-97766666D01*
X206828571Y-97957142D01*
X206790476Y-98109523D01*
X206752380Y-98185714D01*
X206714285Y-98223809D01*
X206638095Y-98261904D01*
X206561904Y-98261904D01*
X206485714Y-98223809D01*
X206447619Y-98185714D01*
X206409523Y-98109523D01*
X206371428Y-97957142D01*
X206371428Y-97766666D01*
X206409523Y-97614285D01*
X206447619Y-97538095D01*
X206485714Y-97500000D01*
X206561904Y-97461904D01*
%TO.C,SW111*%
X203171428Y-123223809D02*
X203285714Y-123261904D01*
X203476190Y-123261904D01*
X203552380Y-123223809D01*
X203590476Y-123185714D01*
X203628571Y-123109523D01*
X203628571Y-123033333D01*
X203590476Y-122957142D01*
X203552380Y-122919047D01*
X203476190Y-122880952D01*
X203323809Y-122842857D01*
X203247619Y-122804761D01*
X203209523Y-122766666D01*
X203171428Y-122690476D01*
X203171428Y-122614285D01*
X203209523Y-122538095D01*
X203247619Y-122500000D01*
X203323809Y-122461904D01*
X203514285Y-122461904D01*
X203628571Y-122500000D01*
X203895238Y-122461904D02*
X204085714Y-123261904D01*
X204238095Y-122690476D01*
X204390476Y-123261904D01*
X204580952Y-122461904D01*
X205304761Y-123261904D02*
X204847619Y-123261904D01*
X205076190Y-123261904D02*
X205076190Y-122461904D01*
X205000000Y-122576190D01*
X204923809Y-122652380D01*
X204847619Y-122690476D01*
X206066666Y-123261904D02*
X205609523Y-123261904D01*
X205838095Y-123261904D02*
X205838095Y-122461904D01*
X205761904Y-122576190D01*
X205685714Y-122652380D01*
X205609523Y-122690476D01*
X206828571Y-123261904D02*
X206371428Y-123261904D01*
X206600000Y-123261904D02*
X206600000Y-122461904D01*
X206523809Y-122576190D01*
X206447619Y-122652380D01*
X206371428Y-122690476D01*
%TO.C,SW112*%
X173421428Y-133723809D02*
X173535714Y-133761904D01*
X173726190Y-133761904D01*
X173802380Y-133723809D01*
X173840476Y-133685714D01*
X173878571Y-133609523D01*
X173878571Y-133533333D01*
X173840476Y-133457142D01*
X173802380Y-133419047D01*
X173726190Y-133380952D01*
X173573809Y-133342857D01*
X173497619Y-133304761D01*
X173459523Y-133266666D01*
X173421428Y-133190476D01*
X173421428Y-133114285D01*
X173459523Y-133038095D01*
X173497619Y-133000000D01*
X173573809Y-132961904D01*
X173764285Y-132961904D01*
X173878571Y-133000000D01*
X174145238Y-132961904D02*
X174335714Y-133761904D01*
X174488095Y-133190476D01*
X174640476Y-133761904D01*
X174830952Y-132961904D01*
X175554761Y-133761904D02*
X175097619Y-133761904D01*
X175326190Y-133761904D02*
X175326190Y-132961904D01*
X175250000Y-133076190D01*
X175173809Y-133152380D01*
X175097619Y-133190476D01*
X176316666Y-133761904D02*
X175859523Y-133761904D01*
X176088095Y-133761904D02*
X176088095Y-132961904D01*
X176011904Y-133076190D01*
X175935714Y-133152380D01*
X175859523Y-133190476D01*
X176621428Y-133038095D02*
X176659523Y-133000000D01*
X176735714Y-132961904D01*
X176926190Y-132961904D01*
X177002380Y-133000000D01*
X177040476Y-133038095D01*
X177078571Y-133114285D01*
X177078571Y-133190476D01*
X177040476Y-133304761D01*
X176583333Y-133761904D01*
X177078571Y-133761904D01*
%TO.C,SW113*%
X223171428Y-73223809D02*
X223285714Y-73261904D01*
X223476190Y-73261904D01*
X223552380Y-73223809D01*
X223590476Y-73185714D01*
X223628571Y-73109523D01*
X223628571Y-73033333D01*
X223590476Y-72957142D01*
X223552380Y-72919047D01*
X223476190Y-72880952D01*
X223323809Y-72842857D01*
X223247619Y-72804761D01*
X223209523Y-72766666D01*
X223171428Y-72690476D01*
X223171428Y-72614285D01*
X223209523Y-72538095D01*
X223247619Y-72500000D01*
X223323809Y-72461904D01*
X223514285Y-72461904D01*
X223628571Y-72500000D01*
X223895238Y-72461904D02*
X224085714Y-73261904D01*
X224238095Y-72690476D01*
X224390476Y-73261904D01*
X224580952Y-72461904D01*
X225304761Y-73261904D02*
X224847619Y-73261904D01*
X225076190Y-73261904D02*
X225076190Y-72461904D01*
X225000000Y-72576190D01*
X224923809Y-72652380D01*
X224847619Y-72690476D01*
X226066666Y-73261904D02*
X225609523Y-73261904D01*
X225838095Y-73261904D02*
X225838095Y-72461904D01*
X225761904Y-72576190D01*
X225685714Y-72652380D01*
X225609523Y-72690476D01*
X226333333Y-72461904D02*
X226828571Y-72461904D01*
X226561904Y-72766666D01*
X226676190Y-72766666D01*
X226752380Y-72804761D01*
X226790476Y-72842857D01*
X226828571Y-72919047D01*
X226828571Y-73109523D01*
X226790476Y-73185714D01*
X226752380Y-73223809D01*
X226676190Y-73261904D01*
X226447619Y-73261904D01*
X226371428Y-73223809D01*
X226333333Y-73185714D01*
%TO.C,SW114*%
X223171428Y-98223809D02*
X223285714Y-98261904D01*
X223476190Y-98261904D01*
X223552380Y-98223809D01*
X223590476Y-98185714D01*
X223628571Y-98109523D01*
X223628571Y-98033333D01*
X223590476Y-97957142D01*
X223552380Y-97919047D01*
X223476190Y-97880952D01*
X223323809Y-97842857D01*
X223247619Y-97804761D01*
X223209523Y-97766666D01*
X223171428Y-97690476D01*
X223171428Y-97614285D01*
X223209523Y-97538095D01*
X223247619Y-97500000D01*
X223323809Y-97461904D01*
X223514285Y-97461904D01*
X223628571Y-97500000D01*
X223895238Y-97461904D02*
X224085714Y-98261904D01*
X224238095Y-97690476D01*
X224390476Y-98261904D01*
X224580952Y-97461904D01*
X225304761Y-98261904D02*
X224847619Y-98261904D01*
X225076190Y-98261904D02*
X225076190Y-97461904D01*
X225000000Y-97576190D01*
X224923809Y-97652380D01*
X224847619Y-97690476D01*
X226066666Y-98261904D02*
X225609523Y-98261904D01*
X225838095Y-98261904D02*
X225838095Y-97461904D01*
X225761904Y-97576190D01*
X225685714Y-97652380D01*
X225609523Y-97690476D01*
X226752380Y-97728571D02*
X226752380Y-98261904D01*
X226561904Y-97423809D02*
X226371428Y-97995238D01*
X226866666Y-97995238D01*
%TO.C,SW115*%
X223171428Y-123223809D02*
X223285714Y-123261904D01*
X223476190Y-123261904D01*
X223552380Y-123223809D01*
X223590476Y-123185714D01*
X223628571Y-123109523D01*
X223628571Y-123033333D01*
X223590476Y-122957142D01*
X223552380Y-122919047D01*
X223476190Y-122880952D01*
X223323809Y-122842857D01*
X223247619Y-122804761D01*
X223209523Y-122766666D01*
X223171428Y-122690476D01*
X223171428Y-122614285D01*
X223209523Y-122538095D01*
X223247619Y-122500000D01*
X223323809Y-122461904D01*
X223514285Y-122461904D01*
X223628571Y-122500000D01*
X223895238Y-122461904D02*
X224085714Y-123261904D01*
X224238095Y-122690476D01*
X224390476Y-123261904D01*
X224580952Y-122461904D01*
X225304761Y-123261904D02*
X224847619Y-123261904D01*
X225076190Y-123261904D02*
X225076190Y-122461904D01*
X225000000Y-122576190D01*
X224923809Y-122652380D01*
X224847619Y-122690476D01*
X226066666Y-123261904D02*
X225609523Y-123261904D01*
X225838095Y-123261904D02*
X225838095Y-122461904D01*
X225761904Y-122576190D01*
X225685714Y-122652380D01*
X225609523Y-122690476D01*
X226790476Y-122461904D02*
X226409523Y-122461904D01*
X226371428Y-122842857D01*
X226409523Y-122804761D01*
X226485714Y-122766666D01*
X226676190Y-122766666D01*
X226752380Y-122804761D01*
X226790476Y-122842857D01*
X226828571Y-122919047D01*
X226828571Y-123109523D01*
X226790476Y-123185714D01*
X226752380Y-123223809D01*
X226676190Y-123261904D01*
X226485714Y-123261904D01*
X226409523Y-123223809D01*
X226371428Y-123185714D01*
%TO.C,U101*%
X185761904Y-126121428D02*
X186409523Y-126121428D01*
X186485714Y-126083333D01*
X186523809Y-126045238D01*
X186561904Y-125969047D01*
X186561904Y-125816666D01*
X186523809Y-125740476D01*
X186485714Y-125702380D01*
X186409523Y-125664285D01*
X185761904Y-125664285D01*
X186561904Y-124864285D02*
X186561904Y-125321428D01*
X186561904Y-125092857D02*
X185761904Y-125092857D01*
X185876190Y-125169047D01*
X185952380Y-125245238D01*
X185990476Y-125321428D01*
X185761904Y-124369047D02*
X185761904Y-124292857D01*
X185800000Y-124216666D01*
X185838095Y-124178571D01*
X185914285Y-124140476D01*
X186066666Y-124102380D01*
X186257142Y-124102380D01*
X186409523Y-124140476D01*
X186485714Y-124178571D01*
X186523809Y-124216666D01*
X186561904Y-124292857D01*
X186561904Y-124369047D01*
X186523809Y-124445238D01*
X186485714Y-124483333D01*
X186409523Y-124521428D01*
X186257142Y-124559523D01*
X186066666Y-124559523D01*
X185914285Y-124521428D01*
X185838095Y-124483333D01*
X185800000Y-124445238D01*
X185761904Y-124369047D01*
X186561904Y-123340476D02*
X186561904Y-123797619D01*
X186561904Y-123569047D02*
X185761904Y-123569047D01*
X185876190Y-123645238D01*
X185952380Y-123721428D01*
X185990476Y-123797619D01*
%TO.C,U102*%
X172561904Y-128871428D02*
X173209523Y-128871428D01*
X173285714Y-128833333D01*
X173323809Y-128795238D01*
X173361904Y-128719047D01*
X173361904Y-128566666D01*
X173323809Y-128490476D01*
X173285714Y-128452380D01*
X173209523Y-128414285D01*
X172561904Y-128414285D01*
X173361904Y-127614285D02*
X173361904Y-128071428D01*
X173361904Y-127842857D02*
X172561904Y-127842857D01*
X172676190Y-127919047D01*
X172752380Y-127995238D01*
X172790476Y-128071428D01*
X172561904Y-127119047D02*
X172561904Y-127042857D01*
X172600000Y-126966666D01*
X172638095Y-126928571D01*
X172714285Y-126890476D01*
X172866666Y-126852380D01*
X173057142Y-126852380D01*
X173209523Y-126890476D01*
X173285714Y-126928571D01*
X173323809Y-126966666D01*
X173361904Y-127042857D01*
X173361904Y-127119047D01*
X173323809Y-127195238D01*
X173285714Y-127233333D01*
X173209523Y-127271428D01*
X173057142Y-127309523D01*
X172866666Y-127309523D01*
X172714285Y-127271428D01*
X172638095Y-127233333D01*
X172600000Y-127195238D01*
X172561904Y-127119047D01*
X172638095Y-126547619D02*
X172600000Y-126509523D01*
X172561904Y-126433333D01*
X172561904Y-126242857D01*
X172600000Y-126166666D01*
X172638095Y-126128571D01*
X172714285Y-126090476D01*
X172790476Y-126090476D01*
X172904761Y-126128571D01*
X173361904Y-126585714D01*
X173361904Y-126090476D01*
%TO.C,U103*%
X163952380Y-78214285D02*
X164761904Y-78214285D01*
X164857142Y-78166666D01*
X164904761Y-78119047D01*
X164952380Y-78023809D01*
X164952380Y-77833333D01*
X164904761Y-77738095D01*
X164857142Y-77690476D01*
X164761904Y-77642857D01*
X163952380Y-77642857D01*
X164952380Y-76642857D02*
X164952380Y-77214285D01*
X164952380Y-76928571D02*
X163952380Y-76928571D01*
X164095238Y-77023809D01*
X164190476Y-77119047D01*
X164238095Y-77214285D01*
X163952380Y-76023809D02*
X163952380Y-75928571D01*
X164000000Y-75833333D01*
X164047619Y-75785714D01*
X164142857Y-75738095D01*
X164333333Y-75690476D01*
X164571428Y-75690476D01*
X164761904Y-75738095D01*
X164857142Y-75785714D01*
X164904761Y-75833333D01*
X164952380Y-75928571D01*
X164952380Y-76023809D01*
X164904761Y-76119047D01*
X164857142Y-76166666D01*
X164761904Y-76214285D01*
X164571428Y-76261904D01*
X164333333Y-76261904D01*
X164142857Y-76214285D01*
X164047619Y-76166666D01*
X164000000Y-76119047D01*
X163952380Y-76023809D01*
X163952380Y-75357142D02*
X163952380Y-74738095D01*
X164333333Y-75071428D01*
X164333333Y-74928571D01*
X164380952Y-74833333D01*
X164428571Y-74785714D01*
X164523809Y-74738095D01*
X164761904Y-74738095D01*
X164857142Y-74785714D01*
X164904761Y-74833333D01*
X164952380Y-74928571D01*
X164952380Y-75214285D01*
X164904761Y-75309523D01*
X164857142Y-75357142D01*
%TO.C,D101*%
X172411904Y-120602380D02*
X171611904Y-120602380D01*
X171611904Y-120411904D01*
X171650000Y-120297619D01*
X171726190Y-120221428D01*
X171802380Y-120183333D01*
X171954761Y-120145238D01*
X172069047Y-120145238D01*
X172221428Y-120183333D01*
X172297619Y-120221428D01*
X172373809Y-120297619D01*
X172411904Y-120411904D01*
X172411904Y-120602380D01*
X172411904Y-119383333D02*
X172411904Y-119840476D01*
X172411904Y-119611904D02*
X171611904Y-119611904D01*
X171726190Y-119688095D01*
X171802380Y-119764285D01*
X171840476Y-119840476D01*
X171611904Y-118888095D02*
X171611904Y-118811904D01*
X171650000Y-118735714D01*
X171688095Y-118697619D01*
X171764285Y-118659523D01*
X171916666Y-118621428D01*
X172107142Y-118621428D01*
X172259523Y-118659523D01*
X172335714Y-118697619D01*
X172373809Y-118735714D01*
X172411904Y-118811904D01*
X172411904Y-118888095D01*
X172373809Y-118964285D01*
X172335714Y-119002380D01*
X172259523Y-119040476D01*
X172107142Y-119078571D01*
X171916666Y-119078571D01*
X171764285Y-119040476D01*
X171688095Y-119002380D01*
X171650000Y-118964285D01*
X171611904Y-118888095D01*
X172411904Y-117859523D02*
X172411904Y-118316666D01*
X172411904Y-118088095D02*
X171611904Y-118088095D01*
X171726190Y-118164285D01*
X171802380Y-118240476D01*
X171840476Y-118316666D01*
X174611904Y-115883333D02*
X173811904Y-115883333D01*
X174307142Y-115807142D02*
X174611904Y-115578571D01*
X174078571Y-115578571D02*
X174383333Y-115883333D01*
%TO.C,R109*%
X177861904Y-122295238D02*
X177480952Y-122561904D01*
X177861904Y-122752380D02*
X177061904Y-122752380D01*
X177061904Y-122447619D01*
X177100000Y-122371428D01*
X177138095Y-122333333D01*
X177214285Y-122295238D01*
X177328571Y-122295238D01*
X177404761Y-122333333D01*
X177442857Y-122371428D01*
X177480952Y-122447619D01*
X177480952Y-122752380D01*
X177861904Y-121533333D02*
X177861904Y-121990476D01*
X177861904Y-121761904D02*
X177061904Y-121761904D01*
X177176190Y-121838095D01*
X177252380Y-121914285D01*
X177290476Y-121990476D01*
X177061904Y-121038095D02*
X177061904Y-120961904D01*
X177100000Y-120885714D01*
X177138095Y-120847619D01*
X177214285Y-120809523D01*
X177366666Y-120771428D01*
X177557142Y-120771428D01*
X177709523Y-120809523D01*
X177785714Y-120847619D01*
X177823809Y-120885714D01*
X177861904Y-120961904D01*
X177861904Y-121038095D01*
X177823809Y-121114285D01*
X177785714Y-121152380D01*
X177709523Y-121190476D01*
X177557142Y-121228571D01*
X177366666Y-121228571D01*
X177214285Y-121190476D01*
X177138095Y-121152380D01*
X177100000Y-121114285D01*
X177061904Y-121038095D01*
X177861904Y-120390476D02*
X177861904Y-120238095D01*
X177823809Y-120161904D01*
X177785714Y-120123809D01*
X177671428Y-120047619D01*
X177519047Y-120009523D01*
X177214285Y-120009523D01*
X177138095Y-120047619D01*
X177100000Y-120085714D01*
X177061904Y-120161904D01*
X177061904Y-120314285D01*
X177100000Y-120390476D01*
X177138095Y-120428571D01*
X177214285Y-120466666D01*
X177404761Y-120466666D01*
X177480952Y-120428571D01*
X177519047Y-120390476D01*
X177557142Y-120314285D01*
X177557142Y-120161904D01*
X177519047Y-120085714D01*
X177480952Y-120047619D01*
X177404761Y-120009523D01*
%TO.C,R110*%
X189361904Y-116895238D02*
X188980952Y-117161904D01*
X189361904Y-117352380D02*
X188561904Y-117352380D01*
X188561904Y-117047619D01*
X188600000Y-116971428D01*
X188638095Y-116933333D01*
X188714285Y-116895238D01*
X188828571Y-116895238D01*
X188904761Y-116933333D01*
X188942857Y-116971428D01*
X188980952Y-117047619D01*
X188980952Y-117352380D01*
X189361904Y-116133333D02*
X189361904Y-116590476D01*
X189361904Y-116361904D02*
X188561904Y-116361904D01*
X188676190Y-116438095D01*
X188752380Y-116514285D01*
X188790476Y-116590476D01*
X189361904Y-115371428D02*
X189361904Y-115828571D01*
X189361904Y-115600000D02*
X188561904Y-115600000D01*
X188676190Y-115676190D01*
X188752380Y-115752380D01*
X188790476Y-115828571D01*
X188561904Y-114876190D02*
X188561904Y-114800000D01*
X188600000Y-114723809D01*
X188638095Y-114685714D01*
X188714285Y-114647619D01*
X188866666Y-114609523D01*
X189057142Y-114609523D01*
X189209523Y-114647619D01*
X189285714Y-114685714D01*
X189323809Y-114723809D01*
X189361904Y-114800000D01*
X189361904Y-114876190D01*
X189323809Y-114952380D01*
X189285714Y-114990476D01*
X189209523Y-115028571D01*
X189057142Y-115066666D01*
X188866666Y-115066666D01*
X188714285Y-115028571D01*
X188638095Y-114990476D01*
X188600000Y-114952380D01*
X188561904Y-114876190D01*
%TO.C,R111*%
X177761904Y-117745238D02*
X177380952Y-118011904D01*
X177761904Y-118202380D02*
X176961904Y-118202380D01*
X176961904Y-117897619D01*
X177000000Y-117821428D01*
X177038095Y-117783333D01*
X177114285Y-117745238D01*
X177228571Y-117745238D01*
X177304761Y-117783333D01*
X177342857Y-117821428D01*
X177380952Y-117897619D01*
X177380952Y-118202380D01*
X177761904Y-116983333D02*
X177761904Y-117440476D01*
X177761904Y-117211904D02*
X176961904Y-117211904D01*
X177076190Y-117288095D01*
X177152380Y-117364285D01*
X177190476Y-117440476D01*
X177761904Y-116221428D02*
X177761904Y-116678571D01*
X177761904Y-116450000D02*
X176961904Y-116450000D01*
X177076190Y-116526190D01*
X177152380Y-116602380D01*
X177190476Y-116678571D01*
X177761904Y-115459523D02*
X177761904Y-115916666D01*
X177761904Y-115688095D02*
X176961904Y-115688095D01*
X177076190Y-115764285D01*
X177152380Y-115840476D01*
X177190476Y-115916666D01*
%TO.C,R112*%
X177611904Y-108395238D02*
X177230952Y-108661904D01*
X177611904Y-108852380D02*
X176811904Y-108852380D01*
X176811904Y-108547619D01*
X176850000Y-108471428D01*
X176888095Y-108433333D01*
X176964285Y-108395238D01*
X177078571Y-108395238D01*
X177154761Y-108433333D01*
X177192857Y-108471428D01*
X177230952Y-108547619D01*
X177230952Y-108852380D01*
X177611904Y-107633333D02*
X177611904Y-108090476D01*
X177611904Y-107861904D02*
X176811904Y-107861904D01*
X176926190Y-107938095D01*
X177002380Y-108014285D01*
X177040476Y-108090476D01*
X177611904Y-106871428D02*
X177611904Y-107328571D01*
X177611904Y-107100000D02*
X176811904Y-107100000D01*
X176926190Y-107176190D01*
X177002380Y-107252380D01*
X177040476Y-107328571D01*
X176888095Y-106566666D02*
X176850000Y-106528571D01*
X176811904Y-106452380D01*
X176811904Y-106261904D01*
X176850000Y-106185714D01*
X176888095Y-106147619D01*
X176964285Y-106109523D01*
X177040476Y-106109523D01*
X177154761Y-106147619D01*
X177611904Y-106604761D01*
X177611904Y-106109523D01*
%TO.C,R113*%
X189111904Y-108145238D02*
X188730952Y-108411904D01*
X189111904Y-108602380D02*
X188311904Y-108602380D01*
X188311904Y-108297619D01*
X188350000Y-108221428D01*
X188388095Y-108183333D01*
X188464285Y-108145238D01*
X188578571Y-108145238D01*
X188654761Y-108183333D01*
X188692857Y-108221428D01*
X188730952Y-108297619D01*
X188730952Y-108602380D01*
X189111904Y-107383333D02*
X189111904Y-107840476D01*
X189111904Y-107611904D02*
X188311904Y-107611904D01*
X188426190Y-107688095D01*
X188502380Y-107764285D01*
X188540476Y-107840476D01*
X189111904Y-106621428D02*
X189111904Y-107078571D01*
X189111904Y-106850000D02*
X188311904Y-106850000D01*
X188426190Y-106926190D01*
X188502380Y-107002380D01*
X188540476Y-107078571D01*
X188311904Y-106354761D02*
X188311904Y-105859523D01*
X188616666Y-106126190D01*
X188616666Y-106011904D01*
X188654761Y-105935714D01*
X188692857Y-105897619D01*
X188769047Y-105859523D01*
X188959523Y-105859523D01*
X189035714Y-105897619D01*
X189073809Y-105935714D01*
X189111904Y-106011904D01*
X189111904Y-106240476D01*
X189073809Y-106316666D01*
X189035714Y-106354761D01*
%TO.C,R114*%
X177611904Y-103295238D02*
X177230952Y-103561904D01*
X177611904Y-103752380D02*
X176811904Y-103752380D01*
X176811904Y-103447619D01*
X176850000Y-103371428D01*
X176888095Y-103333333D01*
X176964285Y-103295238D01*
X177078571Y-103295238D01*
X177154761Y-103333333D01*
X177192857Y-103371428D01*
X177230952Y-103447619D01*
X177230952Y-103752380D01*
X177611904Y-102533333D02*
X177611904Y-102990476D01*
X177611904Y-102761904D02*
X176811904Y-102761904D01*
X176926190Y-102838095D01*
X177002380Y-102914285D01*
X177040476Y-102990476D01*
X177611904Y-101771428D02*
X177611904Y-102228571D01*
X177611904Y-102000000D02*
X176811904Y-102000000D01*
X176926190Y-102076190D01*
X177002380Y-102152380D01*
X177040476Y-102228571D01*
X177078571Y-101085714D02*
X177611904Y-101085714D01*
X176773809Y-101276190D02*
X177345238Y-101466666D01*
X177345238Y-100971428D01*
%TO.C,J101*%
X158771428Y-111561904D02*
X158771428Y-112133333D01*
X158733333Y-112247619D01*
X158657142Y-112323809D01*
X158542857Y-112361904D01*
X158466666Y-112361904D01*
X159571428Y-112361904D02*
X159114285Y-112361904D01*
X159342857Y-112361904D02*
X159342857Y-111561904D01*
X159266666Y-111676190D01*
X159190476Y-111752380D01*
X159114285Y-111790476D01*
X160066666Y-111561904D02*
X160142857Y-111561904D01*
X160219047Y-111600000D01*
X160257142Y-111638095D01*
X160295238Y-111714285D01*
X160333333Y-111866666D01*
X160333333Y-112057142D01*
X160295238Y-112209523D01*
X160257142Y-112285714D01*
X160219047Y-112323809D01*
X160142857Y-112361904D01*
X160066666Y-112361904D01*
X159990476Y-112323809D01*
X159952380Y-112285714D01*
X159914285Y-112209523D01*
X159876190Y-112057142D01*
X159876190Y-111866666D01*
X159914285Y-111714285D01*
X159952380Y-111638095D01*
X159990476Y-111600000D01*
X160066666Y-111561904D01*
X161095238Y-112361904D02*
X160638095Y-112361904D01*
X160866666Y-112361904D02*
X160866666Y-111561904D01*
X160790476Y-111676190D01*
X160714285Y-111752380D01*
X160638095Y-111790476D01*
%TO.C,J102*%
X158771428Y-109361904D02*
X158771428Y-109933333D01*
X158733333Y-110047619D01*
X158657142Y-110123809D01*
X158542857Y-110161904D01*
X158466666Y-110161904D01*
X159571428Y-110161904D02*
X159114285Y-110161904D01*
X159342857Y-110161904D02*
X159342857Y-109361904D01*
X159266666Y-109476190D01*
X159190476Y-109552380D01*
X159114285Y-109590476D01*
X160066666Y-109361904D02*
X160142857Y-109361904D01*
X160219047Y-109400000D01*
X160257142Y-109438095D01*
X160295238Y-109514285D01*
X160333333Y-109666666D01*
X160333333Y-109857142D01*
X160295238Y-110009523D01*
X160257142Y-110085714D01*
X160219047Y-110123809D01*
X160142857Y-110161904D01*
X160066666Y-110161904D01*
X159990476Y-110123809D01*
X159952380Y-110085714D01*
X159914285Y-110009523D01*
X159876190Y-109857142D01*
X159876190Y-109666666D01*
X159914285Y-109514285D01*
X159952380Y-109438095D01*
X159990476Y-109400000D01*
X160066666Y-109361904D01*
X160638095Y-109438095D02*
X160676190Y-109400000D01*
X160752380Y-109361904D01*
X160942857Y-109361904D01*
X161019047Y-109400000D01*
X161057142Y-109438095D01*
X161095238Y-109514285D01*
X161095238Y-109590476D01*
X161057142Y-109704761D01*
X160600000Y-110161904D01*
X161095238Y-110161904D01*
%TO.C,J103*%
X158771428Y-107161904D02*
X158771428Y-107733333D01*
X158733333Y-107847619D01*
X158657142Y-107923809D01*
X158542857Y-107961904D01*
X158466666Y-107961904D01*
X159571428Y-107961904D02*
X159114285Y-107961904D01*
X159342857Y-107961904D02*
X159342857Y-107161904D01*
X159266666Y-107276190D01*
X159190476Y-107352380D01*
X159114285Y-107390476D01*
X160066666Y-107161904D02*
X160142857Y-107161904D01*
X160219047Y-107200000D01*
X160257142Y-107238095D01*
X160295238Y-107314285D01*
X160333333Y-107466666D01*
X160333333Y-107657142D01*
X160295238Y-107809523D01*
X160257142Y-107885714D01*
X160219047Y-107923809D01*
X160142857Y-107961904D01*
X160066666Y-107961904D01*
X159990476Y-107923809D01*
X159952380Y-107885714D01*
X159914285Y-107809523D01*
X159876190Y-107657142D01*
X159876190Y-107466666D01*
X159914285Y-107314285D01*
X159952380Y-107238095D01*
X159990476Y-107200000D01*
X160066666Y-107161904D01*
X160600000Y-107161904D02*
X161095238Y-107161904D01*
X160828571Y-107466666D01*
X160942857Y-107466666D01*
X161019047Y-107504761D01*
X161057142Y-107542857D01*
X161095238Y-107619047D01*
X161095238Y-107809523D01*
X161057142Y-107885714D01*
X161019047Y-107923809D01*
X160942857Y-107961904D01*
X160714285Y-107961904D01*
X160638095Y-107923809D01*
X160600000Y-107885714D01*
%TD*%
M02*
