%TF.GenerationSoftware,KiCad,Pcbnew,(5.1.6-0-10_14)*%
%TF.CreationDate,2021-04-08T13:55:21+02:00*%
%TF.ProjectId,gp-controlboard,67702d63-6f6e-4747-926f-6c626f617264,rev?*%
%TF.SameCoordinates,Original*%
%TF.FileFunction,Paste,Top*%
%TF.FilePolarity,Positive*%
%FSLAX46Y46*%
G04 Gerber Fmt 4.6, Leading zero omitted, Abs format (unit mm)*
G04 Created by KiCad (PCBNEW (5.1.6-0-10_14)) date 2021-04-08 13:55:21*
%MOMM*%
%LPD*%
G01*
G04 APERTURE LIST*
%TA.AperFunction,Profile*%
%ADD10C,0.200000*%
%TD*%
%ADD11R,0.900000X1.700000*%
%ADD12R,1.300000X0.900000*%
%ADD13R,1.700000X0.900000*%
%ADD14R,2.000000X1.000000*%
%ADD15R,0.900000X1.300000*%
%ADD16R,2.000000X1.800000*%
%ADD17R,1.000000X1.900000*%
%ADD18R,0.500000X0.900000*%
%ADD19R,2.500000X1.600000*%
%ADD20R,0.650000X1.060000*%
%ADD21R,5.000000X5.000000*%
%ADD22R,2.000000X0.900000*%
%ADD23R,0.900000X2.000000*%
%ADD24R,1.700000X1.600000*%
%ADD25C,0.100000*%
G04 APERTURE END LIST*
D10*
X105000000Y-140000000D02*
G75*
G02*
X100000000Y-135000000I0J5000000D01*
G01*
X240000000Y-135000000D02*
G75*
G02*
X235000000Y-140000000I-5000000J0D01*
G01*
X235000000Y-70000000D02*
G75*
G02*
X240000000Y-75000000I0J-5000000D01*
G01*
X100000000Y-135000000D02*
X100000000Y-70000000D01*
X235000000Y-140000000D02*
X105000000Y-140000000D01*
X240000000Y-75000000D02*
X240000000Y-135000000D01*
X100000000Y-70000000D02*
X235000000Y-70000000D01*
D11*
%TO.C,C101*%
X187050000Y-119000000D03*
X189950000Y-119000000D03*
%TD*%
%TO.C,C102*%
X190450000Y-128500000D03*
X187550000Y-128500000D03*
%TD*%
%TO.C,C103*%
X177200000Y-130750000D03*
X174300000Y-130750000D03*
%TD*%
%TO.C,C104*%
X174300000Y-124250000D03*
X177200000Y-124250000D03*
%TD*%
D12*
%TO.C,C105*%
X160200000Y-84150000D03*
X160200000Y-82250000D03*
%TD*%
D13*
%TO.C,C106*%
X161000000Y-71750000D03*
X161000000Y-74650000D03*
%TD*%
D12*
%TO.C,C107*%
X163600000Y-73550000D03*
X163600000Y-71650000D03*
%TD*%
%TO.C,C108*%
X191200000Y-90550000D03*
X191200000Y-88650000D03*
%TD*%
%TO.C,DL101*%
X161500000Y-131750000D03*
X161500000Y-133650000D03*
%TD*%
%TO.C,DL102*%
X194800000Y-125300000D03*
X194800000Y-127200000D03*
%TD*%
%TO.C,DL103*%
X192600000Y-127200000D03*
X192600000Y-125300000D03*
%TD*%
%TO.C,DL104*%
X163750000Y-133650000D03*
X163750000Y-131750000D03*
%TD*%
D14*
%TO.C,P103*%
X184660000Y-95950000D03*
X184660000Y-101030000D03*
X184660000Y-106110000D03*
X184660000Y-111190000D03*
X184660000Y-131510000D03*
X184660000Y-126430000D03*
X184660000Y-121350000D03*
X181350000Y-134050000D03*
X181350000Y-128970000D03*
X181350000Y-123890000D03*
X181350000Y-118810000D03*
X181350000Y-98490000D03*
X181350000Y-103570000D03*
X181350000Y-108650000D03*
X181350000Y-113730000D03*
X184660000Y-116270000D03*
%TD*%
%TO.C,P104*%
X169420000Y-116270000D03*
X166110000Y-113730000D03*
X166110000Y-108650000D03*
X166110000Y-103570000D03*
X166110000Y-98490000D03*
X166110000Y-118810000D03*
X166110000Y-123890000D03*
X166110000Y-128970000D03*
X166110000Y-134050000D03*
X169420000Y-121350000D03*
X169420000Y-126430000D03*
X169420000Y-131510000D03*
X169420000Y-111190000D03*
X169420000Y-106110000D03*
X169420000Y-101030000D03*
X169420000Y-95950000D03*
%TD*%
D12*
%TO.C,R101*%
X161500000Y-127800000D03*
X161500000Y-129700000D03*
%TD*%
%TO.C,R102*%
X194800000Y-121900000D03*
X194800000Y-123800000D03*
%TD*%
%TO.C,R103*%
X192600000Y-123750000D03*
X192600000Y-121850000D03*
%TD*%
D15*
%TO.C,R104*%
X188550000Y-121500000D03*
X190450000Y-121500000D03*
%TD*%
D12*
%TO.C,R105*%
X163750000Y-129650000D03*
X163750000Y-127750000D03*
%TD*%
%TO.C,R106*%
X162600000Y-82250000D03*
X162600000Y-84150000D03*
%TD*%
%TO.C,R107*%
X172200000Y-106000000D03*
X172200000Y-104100000D03*
%TD*%
%TO.C,R108*%
X172200000Y-107450000D03*
X172200000Y-109350000D03*
%TD*%
D16*
%TO.C,SW101*%
X103000000Y-83750000D03*
X103000000Y-88750000D03*
X117000000Y-83750000D03*
X117000000Y-88750000D03*
%TD*%
%TO.C,SW102*%
X117000000Y-107500000D03*
X117000000Y-102500000D03*
X103000000Y-107500000D03*
X103000000Y-102500000D03*
%TD*%
%TO.C,SW103*%
X103000000Y-121250000D03*
X103000000Y-126250000D03*
X117000000Y-121250000D03*
X117000000Y-126250000D03*
%TD*%
%TO.C,SW104*%
X137000000Y-82500000D03*
X137000000Y-77500000D03*
X123000000Y-82500000D03*
X123000000Y-77500000D03*
%TD*%
%TO.C,SW105*%
X123000000Y-127500000D03*
X123000000Y-132500000D03*
X137000000Y-127500000D03*
X137000000Y-132500000D03*
%TD*%
%TO.C,SW106*%
X157000000Y-88750000D03*
X157000000Y-83750000D03*
X143000000Y-88750000D03*
X143000000Y-83750000D03*
%TD*%
%TO.C,SW107*%
X143000000Y-102500000D03*
X143000000Y-107500000D03*
X157000000Y-102500000D03*
X157000000Y-107500000D03*
%TD*%
%TO.C,SW108*%
X157000000Y-126250000D03*
X157000000Y-121250000D03*
X143000000Y-126250000D03*
X143000000Y-121250000D03*
%TD*%
%TO.C,SW109*%
X198000000Y-77500000D03*
X198000000Y-82500000D03*
X212000000Y-77500000D03*
X212000000Y-82500000D03*
%TD*%
%TO.C,SW110*%
X212000000Y-107500000D03*
X212000000Y-102500000D03*
X198000000Y-107500000D03*
X198000000Y-102500000D03*
%TD*%
%TO.C,SW111*%
X212000000Y-132500000D03*
X212000000Y-127500000D03*
X198000000Y-132500000D03*
X198000000Y-127500000D03*
%TD*%
D17*
%TO.C,SW112*%
X176250000Y-135200000D03*
X174250000Y-135200000D03*
X172250000Y-135200000D03*
%TD*%
D16*
%TO.C,SW113*%
X218000000Y-77500000D03*
X218000000Y-82500000D03*
X232000000Y-77500000D03*
X232000000Y-82500000D03*
%TD*%
%TO.C,SW114*%
X232000000Y-107500000D03*
X232000000Y-102500000D03*
X218000000Y-107500000D03*
X218000000Y-102500000D03*
%TD*%
%TO.C,SW115*%
X218000000Y-127500000D03*
X218000000Y-132500000D03*
X232000000Y-127500000D03*
X232000000Y-132500000D03*
%TD*%
D18*
%TO.C,U101*%
X187500000Y-126250000D03*
X188500000Y-126250000D03*
X189500000Y-126250000D03*
X189500000Y-123250000D03*
X188500000Y-123250000D03*
X187500000Y-123250000D03*
D19*
X188500000Y-124750000D03*
%TD*%
D20*
%TO.C,U102*%
X174300000Y-128600000D03*
X175250000Y-128600000D03*
X176200000Y-128600000D03*
X176200000Y-126400000D03*
X174300000Y-126400000D03*
%TD*%
D21*
%TO.C,U103*%
X174000000Y-79245000D03*
D22*
X166500000Y-71745000D03*
X166500000Y-73015000D03*
X166500000Y-74285000D03*
X166500000Y-75555000D03*
X166500000Y-76825000D03*
X166500000Y-78095000D03*
X166500000Y-79365000D03*
X166500000Y-80635000D03*
X166500000Y-81905000D03*
X166500000Y-83175000D03*
X166500000Y-84445000D03*
X166500000Y-85715000D03*
X166500000Y-86985000D03*
X166500000Y-88255000D03*
D23*
X169285000Y-89255000D03*
X170555000Y-89255000D03*
X171825000Y-89255000D03*
X173095000Y-89255000D03*
X174365000Y-89255000D03*
X175635000Y-89255000D03*
X176905000Y-89255000D03*
X178175000Y-89255000D03*
X179445000Y-89255000D03*
X180715000Y-89255000D03*
D22*
X183500000Y-88255000D03*
X183500000Y-86985000D03*
X183500000Y-85715000D03*
X183500000Y-84445000D03*
X183500000Y-83175000D03*
X183500000Y-81905000D03*
X183500000Y-80635000D03*
X183500000Y-79365000D03*
X183500000Y-78095000D03*
X183500000Y-76825000D03*
X183500000Y-75555000D03*
X183500000Y-74285000D03*
X183500000Y-73015000D03*
X183500000Y-71745000D03*
%TD*%
D24*
%TO.C,D101*%
X174250000Y-121450000D03*
X174250000Y-117050000D03*
%TD*%
D12*
%TO.C,R109*%
X179000000Y-122350000D03*
X179000000Y-120450000D03*
%TD*%
%TO.C,R110*%
X187400000Y-115050000D03*
X187400000Y-116950000D03*
%TD*%
%TO.C,R111*%
X179000000Y-115900000D03*
X179000000Y-117800000D03*
%TD*%
%TO.C,R112*%
X178800000Y-106650000D03*
X178800000Y-108550000D03*
%TD*%
%TO.C,R113*%
X187000000Y-106250000D03*
X187000000Y-108150000D03*
%TD*%
%TO.C,R114*%
X178800000Y-101450000D03*
X178800000Y-103350000D03*
%TD*%
D25*
%TO.C,J101*%
G36*
X162300000Y-112000000D02*
G01*
X162800000Y-112650000D01*
X161400000Y-112650000D01*
X161400000Y-111350000D01*
X162800000Y-111350000D01*
X162300000Y-112000000D01*
G37*
G36*
X164200000Y-112650000D02*
G01*
X163300000Y-112650000D01*
X162800000Y-112000000D01*
X163300000Y-111350000D01*
X164200000Y-111350000D01*
X164200000Y-112650000D01*
G37*
%TD*%
%TO.C,J102*%
G36*
X164200000Y-110450000D02*
G01*
X163300000Y-110450000D01*
X162800000Y-109800000D01*
X163300000Y-109150000D01*
X164200000Y-109150000D01*
X164200000Y-110450000D01*
G37*
G36*
X162300000Y-109800000D02*
G01*
X162800000Y-110450000D01*
X161400000Y-110450000D01*
X161400000Y-109150000D01*
X162800000Y-109150000D01*
X162300000Y-109800000D01*
G37*
%TD*%
%TO.C,J103*%
G36*
X162350000Y-107600000D02*
G01*
X162850000Y-108250000D01*
X161450000Y-108250000D01*
X161450000Y-106950000D01*
X162850000Y-106950000D01*
X162350000Y-107600000D01*
G37*
G36*
X164250000Y-108250000D02*
G01*
X163350000Y-108250000D01*
X162850000Y-107600000D01*
X163350000Y-106950000D01*
X164250000Y-106950000D01*
X164250000Y-108250000D01*
G37*
%TD*%
M02*
