M48
; DRILL file {KiCad (5.1.6-0-10_14)} date Thursday, April 08, 2021 at 01:55:32 PM
; FORMAT={-:-/ absolute / metric / decimal}
; #@! TF.CreationDate,2021-04-08T13:55:32+02:00
; #@! TF.GenerationSoftware,Kicad,Pcbnew,(5.1.6-0-10_14)
; #@! TF.FileFunction,Plated,1,2,PTH
FMAT,2
METRIC
T1C0.400
T2C0.500
T3C0.800
T4C1.200
%
G90
G05
T1
X105.65Y-121.25
X105.7Y-102.5
X105.75Y-83.75
X125.7Y-77.5
X125.9Y-127.5
X145.55Y-121.25
X145.8Y-83.8
X145.8Y-102.4
X160.0Y-114.8
X160.0Y-116.2
X160.0Y-117.6
X160.0Y-119.2
X160.0Y-121.2
X161.2Y-125.4
X161.6Y-102.4
X161.85Y-108.75
X162.6Y-127.8
X165.6Y-132.0
X169.0Y-72.0
X170.2Y-123.8
X170.8Y-76.1
X170.8Y-79.25
X170.8Y-82.55
X171.0Y-72.0
X172.2Y-129.8
X173.0Y-72.0
X173.0Y-115.0
X173.4Y-108.4
X174.0Y-76.05
X174.0Y-82.55
X175.0Y-72.0
X176.6Y-92.0
X176.8Y-93.0
X177.0Y-72.0
X177.15Y-76.1
X177.2Y-79.25
X177.2Y-82.55
X178.8Y-114.0
X179.0Y-72.0
X179.982Y-121.4
X181.0Y-72.0
X181.4Y-115.6
X183.0Y-114.8
X183.8Y-122.8
X184.675Y-113.4
X185.4Y-87.0
X186.0Y-133.0
X186.4Y-86.2
X186.4Y-128.4
X187.75Y-124.75
X189.5Y-124.75
X191.6Y-109.6
X196.2Y-82.6
X200.8Y-104.8
X205.7Y-132.5
X208.7Y-77.5
X208.7Y-102.5
X208.7Y-127.5
X228.7Y-102.5
X228.7Y-127.5
X228.8Y-77.6
T2
X179.07Y-126.43
T3
X188.4Y-78.06
X188.4Y-80.6
X188.4Y-83.14
X188.4Y-88.33
X188.4Y-90.87
X161.6Y-77.33
X161.6Y-79.87
T4
X188.75Y-135.0
X191.25Y-135.0
T0
M30
