%TF.GenerationSoftware,KiCad,Pcbnew,(5.1.6-0-10_14)*%
%TF.CreationDate,2021-04-08T13:55:21+02:00*%
%TF.ProjectId,gp-controlboard,67702d63-6f6e-4747-926f-6c626f617264,rev?*%
%TF.SameCoordinates,Original*%
%TF.FileFunction,Copper,L2,Bot*%
%TF.FilePolarity,Positive*%
%FSLAX46Y46*%
G04 Gerber Fmt 4.6, Leading zero omitted, Abs format (unit mm)*
G04 Created by KiCad (PCBNEW (5.1.6-0-10_14)) date 2021-04-08 13:55:21*
%MOMM*%
%LPD*%
G01*
G04 APERTURE LIST*
%TA.AperFunction,Profile*%
%ADD10C,0.200000*%
%TD*%
%TA.AperFunction,ComponentPad*%
%ADD11R,2.000000X2.000000*%
%TD*%
%TA.AperFunction,ComponentPad*%
%ADD12C,2.000000*%
%TD*%
%TA.AperFunction,ComponentPad*%
%ADD13C,1.400000*%
%TD*%
%TA.AperFunction,ComponentPad*%
%ADD14R,1.400000X1.400000*%
%TD*%
%TA.AperFunction,ViaPad*%
%ADD15C,0.800000*%
%TD*%
%TA.AperFunction,ViaPad*%
%ADD16C,1.000000*%
%TD*%
%TA.AperFunction,Conductor*%
%ADD17C,0.250000*%
%TD*%
%TA.AperFunction,Conductor*%
%ADD18C,0.254000*%
%TD*%
G04 APERTURE END LIST*
D10*
X105000000Y-140000000D02*
G75*
G02*
X100000000Y-135000000I0J5000000D01*
G01*
X240000000Y-135000000D02*
G75*
G02*
X235000000Y-140000000I-5000000J0D01*
G01*
X235000000Y-70000000D02*
G75*
G02*
X240000000Y-75000000I0J-5000000D01*
G01*
X100000000Y-135000000D02*
X100000000Y-70000000D01*
X235000000Y-140000000D02*
X105000000Y-140000000D01*
X240000000Y-75000000D02*
X240000000Y-135000000D01*
X100000000Y-70000000D02*
X235000000Y-70000000D01*
D11*
%TO.P,P101,1*%
%TO.N,+VBAT*%
X188750000Y-135000000D03*
D12*
%TO.P,P101,2*%
%TO.N,GND*%
X191250000Y-135000000D03*
%TD*%
D13*
%TO.P,P102,2*%
%TO.N,GND*%
X161600000Y-77330000D03*
D14*
%TO.P,P102,1*%
%TO.N,/ESP_ENABLE*%
X161600000Y-79870000D03*
%TD*%
D13*
%TO.P,P105,2*%
%TO.N,/ESP_PROG_RX*%
X188400000Y-80600000D03*
D14*
%TO.P,P105,1*%
%TO.N,/ESP_PROG_TX*%
X188400000Y-78060000D03*
D13*
%TO.P,P105,3*%
%TO.N,GND*%
X188400000Y-83140000D03*
%TD*%
D14*
%TO.P,P106,1*%
%TO.N,/ESP_BOOT*%
X188400000Y-88330000D03*
D13*
%TO.P,P106,2*%
%TO.N,GND*%
X188400000Y-90870000D03*
%TD*%
D15*
%TO.N,+5V*%
X170200000Y-123800000D03*
X183800000Y-122800000D03*
%TO.N,GND*%
X189500000Y-124750000D03*
X162600000Y-127800000D03*
X161850000Y-108750000D03*
X169000000Y-72000000D03*
X171000000Y-72000000D03*
X173000000Y-72000000D03*
X175000000Y-72000000D03*
X177000000Y-72000000D03*
X179000000Y-72000000D03*
X181000000Y-72000000D03*
X187750000Y-124750000D03*
D16*
X179070000Y-126430000D03*
D15*
X174000000Y-76050000D03*
X177200000Y-79250000D03*
X174000000Y-82550000D03*
X170800000Y-79250000D03*
X170800000Y-76100000D03*
X177150000Y-76100000D03*
X177200000Y-82550000D03*
X170800000Y-82550000D03*
%TO.N,+3.3V*%
X172200000Y-129800000D03*
X165600000Y-132000000D03*
%TO.N,/DIRECTION_C1*%
X105750000Y-83750000D03*
X105700000Y-102500000D03*
X105650000Y-121250000D03*
X160000000Y-117600000D03*
X183000000Y-114800000D03*
%TO.N,/DIRECTION_R1*%
X160000000Y-114800000D03*
X173000000Y-115000000D03*
%TO.N,/DIRECTION_R2*%
X160000000Y-116200000D03*
X178800000Y-114000000D03*
%TO.N,/DIRECTION_R3*%
X161200000Y-125400000D03*
X179981664Y-121399999D03*
%TO.N,/DIRECTION_C2*%
X125900000Y-127500000D03*
X125700000Y-77500000D03*
X160000000Y-119200000D03*
X181400000Y-115600000D03*
%TO.N,/DIRECTION_C3*%
X145800000Y-83800000D03*
X145800000Y-102400000D03*
X145550000Y-121250000D03*
X160000000Y-121200000D03*
X184675000Y-113400000D03*
%TO.N,/POWER_C1*%
X208700000Y-77500000D03*
X208700000Y-102500000D03*
X208700000Y-127500000D03*
%TO.N,/POWER_R1*%
X196200000Y-82600000D03*
X191600000Y-109600000D03*
%TO.N,/POWER_R3*%
X205700000Y-132500000D03*
X200800000Y-104800000D03*
%TO.N,/POWER_C2*%
X228800000Y-77600000D03*
X228700000Y-102500000D03*
X228700000Y-127500000D03*
%TO.N,/UART_CMD_TX*%
X186000000Y-133000000D03*
X185400000Y-87000000D03*
%TO.N,/UART_CMD_RX*%
X186400000Y-86200000D03*
X186400000Y-128400000D03*
%TO.N,/ESP2MCU_02*%
X161600000Y-102400000D03*
X176600000Y-92000000D03*
%TO.N,/ESP2MCU_01*%
X173400000Y-108400000D03*
X176800000Y-93000000D03*
%TD*%
D17*
%TO.N,+5V*%
X171200000Y-122800000D02*
X183800000Y-122800000D01*
X170200000Y-123800000D02*
X171200000Y-122800000D01*
%TO.N,+3.3V*%
X172200000Y-129800000D02*
X172200000Y-130800000D01*
X172200000Y-130800000D02*
X171800000Y-131200000D01*
X166400000Y-131200000D02*
X165600000Y-132000000D01*
X171800000Y-131200000D02*
X166400000Y-131200000D01*
%TO.N,/DIRECTION_C1*%
X105750000Y-83750000D02*
X105700000Y-102500000D01*
X105700000Y-102500000D02*
X105650000Y-121250000D01*
X160000000Y-117600000D02*
X176800000Y-117600000D01*
X176800000Y-117600000D02*
X179600000Y-114800000D01*
X179600000Y-114800000D02*
X183000000Y-114800000D01*
%TO.N,/DIRECTION_R1*%
X172800000Y-114800000D02*
X173000000Y-115000000D01*
X160000000Y-114800000D02*
X172800000Y-114800000D01*
%TO.N,/DIRECTION_R2*%
X160000000Y-116200000D02*
X172200000Y-116200000D01*
X176600000Y-116200000D02*
X178800000Y-114000000D01*
X172200000Y-116200000D02*
X176600000Y-116200000D01*
%TO.N,/DIRECTION_R3*%
X165200001Y-121399999D02*
X179981664Y-121399999D01*
X161200000Y-125400000D02*
X165200001Y-121399999D01*
%TO.N,/DIRECTION_C2*%
X125900000Y-127500000D02*
X125900000Y-77700000D01*
X125900000Y-77700000D02*
X125700000Y-77500000D01*
X177800000Y-119200000D02*
X181400000Y-115600000D01*
X160000000Y-119200000D02*
X177800000Y-119200000D01*
%TO.N,/DIRECTION_C3*%
X145800000Y-83800000D02*
X145800000Y-102400000D01*
X145800000Y-121000000D02*
X145550000Y-121250000D01*
X145800000Y-102400000D02*
X145800000Y-121000000D01*
X160000000Y-121200000D02*
X160400000Y-120800000D01*
X160400000Y-120800000D02*
X160600000Y-120600000D01*
X160600000Y-120600000D02*
X182200000Y-120600000D01*
X184675000Y-118125000D02*
X184675000Y-113400000D01*
X182200000Y-120600000D02*
X184675000Y-118125000D01*
%TO.N,/POWER_C1*%
X208700000Y-77500000D02*
X208700000Y-102500000D01*
X208700000Y-102500000D02*
X208700000Y-127500000D01*
%TO.N,/POWER_R1*%
X193800000Y-109600000D02*
X195200000Y-108200000D01*
X195200000Y-83600000D02*
X196200000Y-82600000D01*
X195200000Y-108200000D02*
X195200000Y-83600000D01*
X191600000Y-109600000D02*
X193800000Y-109600000D01*
%TO.N,/POWER_R3*%
X205700000Y-106100000D02*
X205700000Y-132500000D01*
X204400000Y-104800000D02*
X205700000Y-106100000D01*
X200800000Y-104800000D02*
X204400000Y-104800000D01*
%TO.N,/POWER_C2*%
X228800000Y-102400000D02*
X228700000Y-102500000D01*
X228800000Y-77600000D02*
X228800000Y-102400000D01*
X228700000Y-102500000D02*
X228700000Y-127500000D01*
%TO.N,/UART_CMD_TX*%
X185400000Y-132400000D02*
X185400000Y-87000000D01*
X186000000Y-133000000D02*
X185400000Y-132400000D01*
%TO.N,/UART_CMD_RX*%
X186400000Y-86200000D02*
X186400000Y-128400000D01*
%TO.N,/ESP2MCU_02*%
X161600000Y-102400000D02*
X162400000Y-101600000D01*
X162400000Y-101600000D02*
X171000000Y-101600000D01*
X171000000Y-101600000D02*
X172800000Y-99800000D01*
X172800000Y-95800000D02*
X176600000Y-92000000D01*
X172800000Y-99800000D02*
X172800000Y-95800000D01*
%TO.N,/ESP2MCU_01*%
X173400000Y-108400000D02*
X173400000Y-96400000D01*
X173400000Y-96400000D02*
X176800000Y-93000000D01*
%TD*%
D18*
%TO.N,GND*%
G36*
X235754747Y-70805281D02*
G01*
X236485643Y-71005231D01*
X237169575Y-71331450D01*
X237784928Y-71773626D01*
X238312259Y-72317789D01*
X238734886Y-72946726D01*
X239039463Y-73640570D01*
X239217715Y-74383039D01*
X239265000Y-75026949D01*
X239265001Y-134967258D01*
X239194719Y-135754748D01*
X238994769Y-136485643D01*
X238668550Y-137169575D01*
X238226374Y-137784928D01*
X237682211Y-138312259D01*
X237053274Y-138734886D01*
X236359429Y-139039464D01*
X235616961Y-139217714D01*
X234973051Y-139265000D01*
X179410000Y-139265000D01*
X179410000Y-139148061D01*
X179370226Y-138948102D01*
X179292205Y-138759744D01*
X179178937Y-138590226D01*
X179034774Y-138446063D01*
X178865256Y-138332795D01*
X178676898Y-138254774D01*
X178476939Y-138215000D01*
X178273061Y-138215000D01*
X178073102Y-138254774D01*
X177884744Y-138332795D01*
X177715226Y-138446063D01*
X177571063Y-138590226D01*
X177457795Y-138759744D01*
X177379774Y-138948102D01*
X177340000Y-139148061D01*
X177340000Y-139265000D01*
X173160000Y-139265000D01*
X173160000Y-139148061D01*
X173120226Y-138948102D01*
X173042205Y-138759744D01*
X172928937Y-138590226D01*
X172784774Y-138446063D01*
X172615256Y-138332795D01*
X172426898Y-138254774D01*
X172226939Y-138215000D01*
X172023061Y-138215000D01*
X171823102Y-138254774D01*
X171634744Y-138332795D01*
X171465226Y-138446063D01*
X171321063Y-138590226D01*
X171207795Y-138759744D01*
X171129774Y-138948102D01*
X171090000Y-139148061D01*
X171090000Y-139265000D01*
X105032731Y-139265000D01*
X104245252Y-139194719D01*
X103514357Y-138994769D01*
X102830425Y-138668550D01*
X102215072Y-138226374D01*
X101687741Y-137682211D01*
X101265114Y-137053274D01*
X100960536Y-136359429D01*
X100782286Y-135616961D01*
X100735000Y-134973051D01*
X100735000Y-131898061D01*
X164565000Y-131898061D01*
X164565000Y-132101939D01*
X164604774Y-132301898D01*
X164682795Y-132490256D01*
X164796063Y-132659774D01*
X164940226Y-132803937D01*
X165109744Y-132917205D01*
X165298102Y-132995226D01*
X165498061Y-133035000D01*
X165701939Y-133035000D01*
X165901898Y-132995226D01*
X166090256Y-132917205D01*
X166259774Y-132803937D01*
X166403937Y-132659774D01*
X166517205Y-132490256D01*
X166595226Y-132301898D01*
X166635000Y-132101939D01*
X166635000Y-132039802D01*
X166714802Y-131960000D01*
X171762678Y-131960000D01*
X171800000Y-131963676D01*
X171837322Y-131960000D01*
X171837333Y-131960000D01*
X171948986Y-131949003D01*
X172092247Y-131905546D01*
X172224276Y-131834974D01*
X172340001Y-131740001D01*
X172363803Y-131710998D01*
X172711002Y-131363800D01*
X172740001Y-131340001D01*
X172834974Y-131224276D01*
X172905546Y-131092247D01*
X172949003Y-130948986D01*
X172960000Y-130837333D01*
X172960000Y-130837324D01*
X172963676Y-130800001D01*
X172960000Y-130762678D01*
X172960000Y-130503711D01*
X173003937Y-130459774D01*
X173117205Y-130290256D01*
X173195226Y-130101898D01*
X173235000Y-129901939D01*
X173235000Y-129698061D01*
X173195226Y-129498102D01*
X173117205Y-129309744D01*
X173003937Y-129140226D01*
X172859774Y-128996063D01*
X172690256Y-128882795D01*
X172501898Y-128804774D01*
X172301939Y-128765000D01*
X172098061Y-128765000D01*
X171898102Y-128804774D01*
X171709744Y-128882795D01*
X171540226Y-128996063D01*
X171396063Y-129140226D01*
X171282795Y-129309744D01*
X171204774Y-129498102D01*
X171165000Y-129698061D01*
X171165000Y-129901939D01*
X171204774Y-130101898D01*
X171282795Y-130290256D01*
X171382850Y-130440000D01*
X166437323Y-130440000D01*
X166400000Y-130436324D01*
X166362677Y-130440000D01*
X166362667Y-130440000D01*
X166251014Y-130450997D01*
X166107753Y-130494454D01*
X165975724Y-130565026D01*
X165859999Y-130659999D01*
X165836201Y-130688998D01*
X165560198Y-130965000D01*
X165498061Y-130965000D01*
X165298102Y-131004774D01*
X165109744Y-131082795D01*
X164940226Y-131196063D01*
X164796063Y-131340226D01*
X164682795Y-131509744D01*
X164604774Y-131698102D01*
X164565000Y-131898061D01*
X100735000Y-131898061D01*
X100735000Y-121148061D01*
X104615000Y-121148061D01*
X104615000Y-121351939D01*
X104654774Y-121551898D01*
X104732795Y-121740256D01*
X104846063Y-121909774D01*
X104990226Y-122053937D01*
X105159744Y-122167205D01*
X105348102Y-122245226D01*
X105548061Y-122285000D01*
X105751939Y-122285000D01*
X105951898Y-122245226D01*
X106140256Y-122167205D01*
X106309774Y-122053937D01*
X106453937Y-121909774D01*
X106567205Y-121740256D01*
X106645226Y-121551898D01*
X106685000Y-121351939D01*
X106685000Y-121148061D01*
X106645226Y-120948102D01*
X106567205Y-120759744D01*
X106453937Y-120590226D01*
X106411874Y-120548163D01*
X106458120Y-103205591D01*
X106503937Y-103159774D01*
X106617205Y-102990256D01*
X106695226Y-102801898D01*
X106735000Y-102601939D01*
X106735000Y-102398061D01*
X106695226Y-102198102D01*
X106617205Y-102009744D01*
X106503937Y-101840226D01*
X106461874Y-101798163D01*
X106508120Y-84455591D01*
X106553937Y-84409774D01*
X106667205Y-84240256D01*
X106745226Y-84051898D01*
X106785000Y-83851939D01*
X106785000Y-83648061D01*
X106745226Y-83448102D01*
X106667205Y-83259744D01*
X106553937Y-83090226D01*
X106409774Y-82946063D01*
X106240256Y-82832795D01*
X106051898Y-82754774D01*
X105851939Y-82715000D01*
X105648061Y-82715000D01*
X105448102Y-82754774D01*
X105259744Y-82832795D01*
X105090226Y-82946063D01*
X104946063Y-83090226D01*
X104832795Y-83259744D01*
X104754774Y-83448102D01*
X104715000Y-83648061D01*
X104715000Y-83851939D01*
X104754774Y-84051898D01*
X104832795Y-84240256D01*
X104946063Y-84409774D01*
X104988126Y-84451837D01*
X104941880Y-101794409D01*
X104896063Y-101840226D01*
X104782795Y-102009744D01*
X104704774Y-102198102D01*
X104665000Y-102398061D01*
X104665000Y-102601939D01*
X104704774Y-102801898D01*
X104782795Y-102990256D01*
X104896063Y-103159774D01*
X104938126Y-103201837D01*
X104891880Y-120544409D01*
X104846063Y-120590226D01*
X104732795Y-120759744D01*
X104654774Y-120948102D01*
X104615000Y-121148061D01*
X100735000Y-121148061D01*
X100735000Y-77398061D01*
X124665000Y-77398061D01*
X124665000Y-77601939D01*
X124704774Y-77801898D01*
X124782795Y-77990256D01*
X124896063Y-78159774D01*
X125040226Y-78303937D01*
X125140001Y-78370604D01*
X125140000Y-126796289D01*
X125096063Y-126840226D01*
X124982795Y-127009744D01*
X124904774Y-127198102D01*
X124865000Y-127398061D01*
X124865000Y-127601939D01*
X124904774Y-127801898D01*
X124982795Y-127990256D01*
X125096063Y-128159774D01*
X125240226Y-128303937D01*
X125409744Y-128417205D01*
X125598102Y-128495226D01*
X125798061Y-128535000D01*
X126001939Y-128535000D01*
X126201898Y-128495226D01*
X126390256Y-128417205D01*
X126559774Y-128303937D01*
X126703937Y-128159774D01*
X126817205Y-127990256D01*
X126895226Y-127801898D01*
X126935000Y-127601939D01*
X126935000Y-127398061D01*
X126895226Y-127198102D01*
X126817205Y-127009744D01*
X126703937Y-126840226D01*
X126660000Y-126796289D01*
X126660000Y-121148061D01*
X144515000Y-121148061D01*
X144515000Y-121351939D01*
X144554774Y-121551898D01*
X144632795Y-121740256D01*
X144746063Y-121909774D01*
X144890226Y-122053937D01*
X145059744Y-122167205D01*
X145248102Y-122245226D01*
X145448061Y-122285000D01*
X145651939Y-122285000D01*
X145851898Y-122245226D01*
X146040256Y-122167205D01*
X146209774Y-122053937D01*
X146353937Y-121909774D01*
X146467205Y-121740256D01*
X146545226Y-121551898D01*
X146585000Y-121351939D01*
X146585000Y-121148061D01*
X146560985Y-121027327D01*
X146563676Y-121000001D01*
X146560000Y-120962678D01*
X146560000Y-114698061D01*
X158965000Y-114698061D01*
X158965000Y-114901939D01*
X159004774Y-115101898D01*
X159082795Y-115290256D01*
X159196063Y-115459774D01*
X159236289Y-115500000D01*
X159196063Y-115540226D01*
X159082795Y-115709744D01*
X159004774Y-115898102D01*
X158965000Y-116098061D01*
X158965000Y-116301939D01*
X159004774Y-116501898D01*
X159082795Y-116690256D01*
X159196063Y-116859774D01*
X159236289Y-116900000D01*
X159196063Y-116940226D01*
X159082795Y-117109744D01*
X159004774Y-117298102D01*
X158965000Y-117498061D01*
X158965000Y-117701939D01*
X159004774Y-117901898D01*
X159082795Y-118090256D01*
X159196063Y-118259774D01*
X159336289Y-118400000D01*
X159196063Y-118540226D01*
X159082795Y-118709744D01*
X159004774Y-118898102D01*
X158965000Y-119098061D01*
X158965000Y-119301939D01*
X159004774Y-119501898D01*
X159082795Y-119690256D01*
X159196063Y-119859774D01*
X159340226Y-120003937D01*
X159509744Y-120117205D01*
X159698102Y-120195226D01*
X159722103Y-120200000D01*
X159698102Y-120204774D01*
X159509744Y-120282795D01*
X159340226Y-120396063D01*
X159196063Y-120540226D01*
X159082795Y-120709744D01*
X159004774Y-120898102D01*
X158965000Y-121098061D01*
X158965000Y-121301939D01*
X159004774Y-121501898D01*
X159082795Y-121690256D01*
X159196063Y-121859774D01*
X159340226Y-122003937D01*
X159509744Y-122117205D01*
X159698102Y-122195226D01*
X159898061Y-122235000D01*
X160101939Y-122235000D01*
X160301898Y-122195226D01*
X160490256Y-122117205D01*
X160659774Y-122003937D01*
X160803937Y-121859774D01*
X160917205Y-121690256D01*
X160995226Y-121501898D01*
X161023451Y-121360000D01*
X164165198Y-121360000D01*
X161160199Y-124365000D01*
X161098061Y-124365000D01*
X160898102Y-124404774D01*
X160709744Y-124482795D01*
X160540226Y-124596063D01*
X160396063Y-124740226D01*
X160282795Y-124909744D01*
X160204774Y-125098102D01*
X160165000Y-125298061D01*
X160165000Y-125501939D01*
X160204774Y-125701898D01*
X160282795Y-125890256D01*
X160396063Y-126059774D01*
X160540226Y-126203937D01*
X160709744Y-126317205D01*
X160898102Y-126395226D01*
X161098061Y-126435000D01*
X161301939Y-126435000D01*
X161501898Y-126395226D01*
X161690256Y-126317205D01*
X161859774Y-126203937D01*
X162003937Y-126059774D01*
X162117205Y-125890256D01*
X162195226Y-125701898D01*
X162235000Y-125501939D01*
X162235000Y-125439801D01*
X165514803Y-122159999D01*
X170785129Y-122159999D01*
X170775724Y-122165026D01*
X170659999Y-122259999D01*
X170636201Y-122288997D01*
X170160199Y-122765000D01*
X170098061Y-122765000D01*
X169898102Y-122804774D01*
X169709744Y-122882795D01*
X169540226Y-122996063D01*
X169396063Y-123140226D01*
X169282795Y-123309744D01*
X169204774Y-123498102D01*
X169165000Y-123698061D01*
X169165000Y-123901939D01*
X169204774Y-124101898D01*
X169282795Y-124290256D01*
X169396063Y-124459774D01*
X169540226Y-124603937D01*
X169709744Y-124717205D01*
X169898102Y-124795226D01*
X170098061Y-124835000D01*
X170301939Y-124835000D01*
X170501898Y-124795226D01*
X170690256Y-124717205D01*
X170859774Y-124603937D01*
X171003937Y-124459774D01*
X171117205Y-124290256D01*
X171195226Y-124101898D01*
X171235000Y-123901939D01*
X171235000Y-123839801D01*
X171514802Y-123560000D01*
X183096289Y-123560000D01*
X183140226Y-123603937D01*
X183309744Y-123717205D01*
X183498102Y-123795226D01*
X183698061Y-123835000D01*
X183901939Y-123835000D01*
X184101898Y-123795226D01*
X184290256Y-123717205D01*
X184459774Y-123603937D01*
X184603937Y-123459774D01*
X184640000Y-123405801D01*
X184640000Y-132362678D01*
X184636324Y-132400000D01*
X184640000Y-132437322D01*
X184640000Y-132437332D01*
X184650997Y-132548985D01*
X184684604Y-132659774D01*
X184694454Y-132692246D01*
X184765026Y-132824276D01*
X184786969Y-132851013D01*
X184859999Y-132940001D01*
X184889002Y-132963803D01*
X184965000Y-133039801D01*
X184965000Y-133101939D01*
X185004774Y-133301898D01*
X185082795Y-133490256D01*
X185196063Y-133659774D01*
X185340226Y-133803937D01*
X185509744Y-133917205D01*
X185698102Y-133995226D01*
X185898061Y-134035000D01*
X186101939Y-134035000D01*
X186277897Y-134000000D01*
X187111928Y-134000000D01*
X187111928Y-136000000D01*
X187124188Y-136124482D01*
X187160498Y-136244180D01*
X187219463Y-136354494D01*
X187298815Y-136451185D01*
X187395506Y-136530537D01*
X187505820Y-136589502D01*
X187625518Y-136625812D01*
X187750000Y-136638072D01*
X187956084Y-136638072D01*
X187809550Y-136784606D01*
X187679866Y-136978692D01*
X187590539Y-137194348D01*
X187545000Y-137423288D01*
X187545000Y-137656712D01*
X187590539Y-137885652D01*
X187679866Y-138101308D01*
X187809550Y-138295394D01*
X187974606Y-138460450D01*
X188168692Y-138590134D01*
X188384348Y-138679461D01*
X188613288Y-138725000D01*
X188846712Y-138725000D01*
X189075652Y-138679461D01*
X189291308Y-138590134D01*
X189485394Y-138460450D01*
X189650450Y-138295394D01*
X189780134Y-138101308D01*
X189869461Y-137885652D01*
X189915000Y-137656712D01*
X189915000Y-137423288D01*
X189869461Y-137194348D01*
X189780134Y-136978692D01*
X189650450Y-136784606D01*
X189503916Y-136638072D01*
X189750000Y-136638072D01*
X189874482Y-136625812D01*
X189994180Y-136589502D01*
X190104494Y-136530537D01*
X190201185Y-136451185D01*
X190280537Y-136354494D01*
X190335976Y-136250777D01*
X190389956Y-136399814D01*
X190652394Y-136527483D01*
X190514606Y-136619550D01*
X190349550Y-136784606D01*
X190219866Y-136978692D01*
X190130539Y-137194348D01*
X190085000Y-137423288D01*
X190085000Y-137656712D01*
X190130539Y-137885652D01*
X190219866Y-138101308D01*
X190349550Y-138295394D01*
X190514606Y-138460450D01*
X190708692Y-138590134D01*
X190924348Y-138679461D01*
X191153288Y-138725000D01*
X191386712Y-138725000D01*
X191615652Y-138679461D01*
X191831308Y-138590134D01*
X192025394Y-138460450D01*
X192190450Y-138295394D01*
X192320134Y-138101308D01*
X192409461Y-137885652D01*
X192455000Y-137656712D01*
X192455000Y-137423288D01*
X192409461Y-137194348D01*
X192320134Y-136978692D01*
X192190450Y-136784606D01*
X192025394Y-136619550D01*
X191869909Y-136515658D01*
X191936088Y-136492795D01*
X192110044Y-136399814D01*
X192205808Y-136135413D01*
X191250000Y-135179605D01*
X191235858Y-135193748D01*
X191056253Y-135014143D01*
X191070395Y-135000000D01*
X191429605Y-135000000D01*
X192385413Y-135955808D01*
X192649814Y-135860044D01*
X192790704Y-135570429D01*
X192872384Y-135258892D01*
X192891718Y-134937405D01*
X192847961Y-134618325D01*
X192742795Y-134313912D01*
X192649814Y-134139956D01*
X192385413Y-134044192D01*
X191429605Y-135000000D01*
X191070395Y-135000000D01*
X191056253Y-134985858D01*
X191235858Y-134806253D01*
X191250000Y-134820395D01*
X192205808Y-133864587D01*
X192110044Y-133600186D01*
X191820429Y-133459296D01*
X191508892Y-133377616D01*
X191187405Y-133358282D01*
X190868325Y-133402039D01*
X190563912Y-133507205D01*
X190389956Y-133600186D01*
X190335976Y-133749223D01*
X190280537Y-133645506D01*
X190201185Y-133548815D01*
X190104494Y-133469463D01*
X189994180Y-133410498D01*
X189874482Y-133374188D01*
X189750000Y-133361928D01*
X187750000Y-133361928D01*
X187625518Y-133374188D01*
X187505820Y-133410498D01*
X187395506Y-133469463D01*
X187298815Y-133548815D01*
X187219463Y-133645506D01*
X187160498Y-133755820D01*
X187124188Y-133875518D01*
X187111928Y-134000000D01*
X186277897Y-134000000D01*
X186301898Y-133995226D01*
X186490256Y-133917205D01*
X186659774Y-133803937D01*
X186803937Y-133659774D01*
X186917205Y-133490256D01*
X186995226Y-133301898D01*
X187035000Y-133101939D01*
X187035000Y-132898061D01*
X186995226Y-132698102D01*
X186917205Y-132509744D01*
X186803937Y-132340226D01*
X186659774Y-132196063D01*
X186490256Y-132082795D01*
X186301898Y-132004774D01*
X186160000Y-131976549D01*
X186160000Y-129407538D01*
X186298061Y-129435000D01*
X186501939Y-129435000D01*
X186701898Y-129395226D01*
X186890256Y-129317205D01*
X187059774Y-129203937D01*
X187203937Y-129059774D01*
X187317205Y-128890256D01*
X187395226Y-128701898D01*
X187435000Y-128501939D01*
X187435000Y-128298061D01*
X187395226Y-128098102D01*
X187317205Y-127909744D01*
X187203937Y-127740226D01*
X187160000Y-127696289D01*
X187160000Y-109498061D01*
X190565000Y-109498061D01*
X190565000Y-109701939D01*
X190604774Y-109901898D01*
X190682795Y-110090256D01*
X190796063Y-110259774D01*
X190940226Y-110403937D01*
X191109744Y-110517205D01*
X191298102Y-110595226D01*
X191498061Y-110635000D01*
X191701939Y-110635000D01*
X191901898Y-110595226D01*
X192090256Y-110517205D01*
X192259774Y-110403937D01*
X192303711Y-110360000D01*
X193762678Y-110360000D01*
X193800000Y-110363676D01*
X193837322Y-110360000D01*
X193837333Y-110360000D01*
X193948986Y-110349003D01*
X194092247Y-110305546D01*
X194224276Y-110234974D01*
X194340001Y-110140001D01*
X194363804Y-110110997D01*
X195711004Y-108763798D01*
X195740001Y-108740001D01*
X195779192Y-108692247D01*
X195834974Y-108624277D01*
X195905546Y-108492247D01*
X195905546Y-108492246D01*
X195949003Y-108348986D01*
X195960000Y-108237333D01*
X195960000Y-108237323D01*
X195963676Y-108200000D01*
X195960000Y-108162678D01*
X195960000Y-104698061D01*
X199765000Y-104698061D01*
X199765000Y-104901939D01*
X199804774Y-105101898D01*
X199882795Y-105290256D01*
X199996063Y-105459774D01*
X200140226Y-105603937D01*
X200309744Y-105717205D01*
X200498102Y-105795226D01*
X200698061Y-105835000D01*
X200901939Y-105835000D01*
X201101898Y-105795226D01*
X201290256Y-105717205D01*
X201459774Y-105603937D01*
X201503711Y-105560000D01*
X204085199Y-105560000D01*
X204940000Y-106414802D01*
X204940001Y-131796288D01*
X204896063Y-131840226D01*
X204782795Y-132009744D01*
X204704774Y-132198102D01*
X204665000Y-132398061D01*
X204665000Y-132601939D01*
X204704774Y-132801898D01*
X204782795Y-132990256D01*
X204896063Y-133159774D01*
X205040226Y-133303937D01*
X205209744Y-133417205D01*
X205398102Y-133495226D01*
X205598061Y-133535000D01*
X205801939Y-133535000D01*
X206001898Y-133495226D01*
X206190256Y-133417205D01*
X206359774Y-133303937D01*
X206503937Y-133159774D01*
X206617205Y-132990256D01*
X206695226Y-132801898D01*
X206735000Y-132601939D01*
X206735000Y-132398061D01*
X206695226Y-132198102D01*
X206617205Y-132009744D01*
X206503937Y-131840226D01*
X206460000Y-131796289D01*
X206460000Y-106137325D01*
X206463676Y-106100000D01*
X206460000Y-106062675D01*
X206460000Y-106062667D01*
X206449003Y-105951014D01*
X206405546Y-105807753D01*
X206334974Y-105675724D01*
X206240001Y-105559999D01*
X206211004Y-105536202D01*
X204963804Y-104289003D01*
X204940001Y-104259999D01*
X204824276Y-104165026D01*
X204692247Y-104094454D01*
X204548986Y-104050997D01*
X204437333Y-104040000D01*
X204437322Y-104040000D01*
X204400000Y-104036324D01*
X204362678Y-104040000D01*
X201503711Y-104040000D01*
X201459774Y-103996063D01*
X201290256Y-103882795D01*
X201101898Y-103804774D01*
X200901939Y-103765000D01*
X200698061Y-103765000D01*
X200498102Y-103804774D01*
X200309744Y-103882795D01*
X200140226Y-103996063D01*
X199996063Y-104140226D01*
X199882795Y-104309744D01*
X199804774Y-104498102D01*
X199765000Y-104698061D01*
X195960000Y-104698061D01*
X195960000Y-83914801D01*
X196239802Y-83635000D01*
X196301939Y-83635000D01*
X196501898Y-83595226D01*
X196690256Y-83517205D01*
X196859774Y-83403937D01*
X197003937Y-83259774D01*
X197117205Y-83090256D01*
X197195226Y-82901898D01*
X197235000Y-82701939D01*
X197235000Y-82498061D01*
X197195226Y-82298102D01*
X197117205Y-82109744D01*
X197003937Y-81940226D01*
X196859774Y-81796063D01*
X196690256Y-81682795D01*
X196501898Y-81604774D01*
X196301939Y-81565000D01*
X196098061Y-81565000D01*
X195898102Y-81604774D01*
X195709744Y-81682795D01*
X195540226Y-81796063D01*
X195396063Y-81940226D01*
X195282795Y-82109744D01*
X195204774Y-82298102D01*
X195165000Y-82498061D01*
X195165000Y-82560198D01*
X194688998Y-83036201D01*
X194660000Y-83059999D01*
X194636202Y-83088997D01*
X194636201Y-83088998D01*
X194565026Y-83175724D01*
X194494454Y-83307754D01*
X194473836Y-83375725D01*
X194450998Y-83451014D01*
X194450149Y-83459636D01*
X194436324Y-83600000D01*
X194440001Y-83637333D01*
X194440000Y-107885198D01*
X193485199Y-108840000D01*
X192303711Y-108840000D01*
X192259774Y-108796063D01*
X192090256Y-108682795D01*
X191901898Y-108604774D01*
X191701939Y-108565000D01*
X191498061Y-108565000D01*
X191298102Y-108604774D01*
X191109744Y-108682795D01*
X190940226Y-108796063D01*
X190796063Y-108940226D01*
X190682795Y-109109744D01*
X190604774Y-109298102D01*
X190565000Y-109498061D01*
X187160000Y-109498061D01*
X187160000Y-91791269D01*
X187658336Y-91791269D01*
X187717797Y-92025037D01*
X187956242Y-92135934D01*
X188211740Y-92198183D01*
X188474473Y-92209390D01*
X188734344Y-92169125D01*
X188981366Y-92078935D01*
X189082203Y-92025037D01*
X189141664Y-91791269D01*
X188400000Y-91049605D01*
X187658336Y-91791269D01*
X187160000Y-91791269D01*
X187160000Y-91366282D01*
X187191065Y-91451366D01*
X187244963Y-91552203D01*
X187478731Y-91611664D01*
X188220395Y-90870000D01*
X188579605Y-90870000D01*
X189321269Y-91611664D01*
X189555037Y-91552203D01*
X189665934Y-91313758D01*
X189728183Y-91058260D01*
X189739390Y-90795527D01*
X189699125Y-90535656D01*
X189608935Y-90288634D01*
X189555037Y-90187797D01*
X189321269Y-90128336D01*
X188579605Y-90870000D01*
X188220395Y-90870000D01*
X187478731Y-90128336D01*
X187244963Y-90187797D01*
X187160000Y-90370480D01*
X187160000Y-89366790D01*
X187169463Y-89384494D01*
X187248815Y-89481185D01*
X187345506Y-89560537D01*
X187455820Y-89619502D01*
X187575518Y-89655812D01*
X187700000Y-89668072D01*
X187805525Y-89668072D01*
X187717797Y-89714963D01*
X187658336Y-89948731D01*
X188400000Y-90690395D01*
X189141664Y-89948731D01*
X189082203Y-89714963D01*
X188981380Y-89668072D01*
X189100000Y-89668072D01*
X189224482Y-89655812D01*
X189344180Y-89619502D01*
X189454494Y-89560537D01*
X189551185Y-89481185D01*
X189630537Y-89384494D01*
X189689502Y-89274180D01*
X189725812Y-89154482D01*
X189738072Y-89030000D01*
X189738072Y-87630000D01*
X189725812Y-87505518D01*
X189689502Y-87385820D01*
X189630537Y-87275506D01*
X189551185Y-87178815D01*
X189454494Y-87099463D01*
X189344180Y-87040498D01*
X189224482Y-87004188D01*
X189100000Y-86991928D01*
X187700000Y-86991928D01*
X187575518Y-87004188D01*
X187455820Y-87040498D01*
X187345506Y-87099463D01*
X187248815Y-87178815D01*
X187169463Y-87275506D01*
X187160000Y-87293210D01*
X187160000Y-86903711D01*
X187203937Y-86859774D01*
X187317205Y-86690256D01*
X187395226Y-86501898D01*
X187435000Y-86301939D01*
X187435000Y-86098061D01*
X187395226Y-85898102D01*
X187317205Y-85709744D01*
X187203937Y-85540226D01*
X187059774Y-85396063D01*
X186890256Y-85282795D01*
X186701898Y-85204774D01*
X186501939Y-85165000D01*
X186298061Y-85165000D01*
X186098102Y-85204774D01*
X185909744Y-85282795D01*
X185740226Y-85396063D01*
X185596063Y-85540226D01*
X185482795Y-85709744D01*
X185404774Y-85898102D01*
X185391467Y-85965000D01*
X185298061Y-85965000D01*
X185098102Y-86004774D01*
X184909744Y-86082795D01*
X184740226Y-86196063D01*
X184596063Y-86340226D01*
X184482795Y-86509744D01*
X184404774Y-86698102D01*
X184365000Y-86898061D01*
X184365000Y-87101939D01*
X184404774Y-87301898D01*
X184482795Y-87490256D01*
X184596063Y-87659774D01*
X184640001Y-87703712D01*
X184640000Y-112365000D01*
X184573061Y-112365000D01*
X184373102Y-112404774D01*
X184184744Y-112482795D01*
X184015226Y-112596063D01*
X183871063Y-112740226D01*
X183757795Y-112909744D01*
X183679774Y-113098102D01*
X183640000Y-113298061D01*
X183640000Y-113501939D01*
X183679774Y-113701898D01*
X183757795Y-113890256D01*
X183871063Y-114059774D01*
X183915001Y-114103712D01*
X183915001Y-114306445D01*
X183803937Y-114140226D01*
X183659774Y-113996063D01*
X183490256Y-113882795D01*
X183301898Y-113804774D01*
X183101939Y-113765000D01*
X182898061Y-113765000D01*
X182698102Y-113804774D01*
X182509744Y-113882795D01*
X182340226Y-113996063D01*
X182296289Y-114040000D01*
X179835000Y-114040000D01*
X179835000Y-113898061D01*
X179795226Y-113698102D01*
X179717205Y-113509744D01*
X179603937Y-113340226D01*
X179459774Y-113196063D01*
X179290256Y-113082795D01*
X179101898Y-113004774D01*
X178901939Y-112965000D01*
X178698061Y-112965000D01*
X178498102Y-113004774D01*
X178309744Y-113082795D01*
X178140226Y-113196063D01*
X177996063Y-113340226D01*
X177882795Y-113509744D01*
X177804774Y-113698102D01*
X177765000Y-113898061D01*
X177765000Y-113960198D01*
X176285199Y-115440000D01*
X173938022Y-115440000D01*
X173995226Y-115301898D01*
X174035000Y-115101939D01*
X174035000Y-114898061D01*
X173995226Y-114698102D01*
X173917205Y-114509744D01*
X173803937Y-114340226D01*
X173659774Y-114196063D01*
X173490256Y-114082795D01*
X173301898Y-114004774D01*
X173101939Y-113965000D01*
X172898061Y-113965000D01*
X172698102Y-114004774D01*
X172613060Y-114040000D01*
X160703711Y-114040000D01*
X160659774Y-113996063D01*
X160490256Y-113882795D01*
X160301898Y-113804774D01*
X160101939Y-113765000D01*
X159898061Y-113765000D01*
X159698102Y-113804774D01*
X159509744Y-113882795D01*
X159340226Y-113996063D01*
X159196063Y-114140226D01*
X159082795Y-114309744D01*
X159004774Y-114498102D01*
X158965000Y-114698061D01*
X146560000Y-114698061D01*
X146560000Y-103103711D01*
X146603937Y-103059774D01*
X146717205Y-102890256D01*
X146795226Y-102701898D01*
X146835000Y-102501939D01*
X146835000Y-102298061D01*
X160565000Y-102298061D01*
X160565000Y-102501939D01*
X160604774Y-102701898D01*
X160682795Y-102890256D01*
X160796063Y-103059774D01*
X160940226Y-103203937D01*
X161109744Y-103317205D01*
X161298102Y-103395226D01*
X161498061Y-103435000D01*
X161701939Y-103435000D01*
X161901898Y-103395226D01*
X162090256Y-103317205D01*
X162259774Y-103203937D01*
X162403937Y-103059774D01*
X162517205Y-102890256D01*
X162595226Y-102701898D01*
X162635000Y-102501939D01*
X162635000Y-102439802D01*
X162714802Y-102360000D01*
X170962678Y-102360000D01*
X171000000Y-102363676D01*
X171037322Y-102360000D01*
X171037333Y-102360000D01*
X171148986Y-102349003D01*
X171292247Y-102305546D01*
X171424276Y-102234974D01*
X171540001Y-102140001D01*
X171563803Y-102110998D01*
X172640001Y-101034802D01*
X172640000Y-107696289D01*
X172596063Y-107740226D01*
X172482795Y-107909744D01*
X172404774Y-108098102D01*
X172365000Y-108298061D01*
X172365000Y-108501939D01*
X172404774Y-108701898D01*
X172482795Y-108890256D01*
X172596063Y-109059774D01*
X172740226Y-109203937D01*
X172909744Y-109317205D01*
X173098102Y-109395226D01*
X173298061Y-109435000D01*
X173501939Y-109435000D01*
X173701898Y-109395226D01*
X173890256Y-109317205D01*
X174059774Y-109203937D01*
X174203937Y-109059774D01*
X174317205Y-108890256D01*
X174395226Y-108701898D01*
X174435000Y-108501939D01*
X174435000Y-108298061D01*
X174395226Y-108098102D01*
X174317205Y-107909744D01*
X174203937Y-107740226D01*
X174160000Y-107696289D01*
X174160000Y-96714801D01*
X176839802Y-94035000D01*
X176901939Y-94035000D01*
X177101898Y-93995226D01*
X177290256Y-93917205D01*
X177459774Y-93803937D01*
X177603937Y-93659774D01*
X177717205Y-93490256D01*
X177795226Y-93301898D01*
X177835000Y-93101939D01*
X177835000Y-92898061D01*
X177795226Y-92698102D01*
X177717205Y-92509744D01*
X177603937Y-92340226D01*
X177586551Y-92322840D01*
X177595226Y-92301898D01*
X177635000Y-92101939D01*
X177635000Y-91898061D01*
X177595226Y-91698102D01*
X177517205Y-91509744D01*
X177403937Y-91340226D01*
X177259774Y-91196063D01*
X177090256Y-91082795D01*
X176901898Y-91004774D01*
X176701939Y-90965000D01*
X176498061Y-90965000D01*
X176298102Y-91004774D01*
X176109744Y-91082795D01*
X175940226Y-91196063D01*
X175796063Y-91340226D01*
X175682795Y-91509744D01*
X175604774Y-91698102D01*
X175565000Y-91898061D01*
X175565000Y-91960198D01*
X172288998Y-95236201D01*
X172260000Y-95259999D01*
X172236202Y-95288997D01*
X172236201Y-95288998D01*
X172165026Y-95375724D01*
X172094454Y-95507754D01*
X172064180Y-95607558D01*
X172050998Y-95651014D01*
X172040001Y-95762667D01*
X172036324Y-95800000D01*
X172040001Y-95837332D01*
X172040000Y-99485197D01*
X170685199Y-100840000D01*
X162437323Y-100840000D01*
X162400000Y-100836324D01*
X162362677Y-100840000D01*
X162362667Y-100840000D01*
X162251014Y-100850997D01*
X162107753Y-100894454D01*
X161975724Y-100965026D01*
X161859999Y-101059999D01*
X161836201Y-101088998D01*
X161560198Y-101365000D01*
X161498061Y-101365000D01*
X161298102Y-101404774D01*
X161109744Y-101482795D01*
X160940226Y-101596063D01*
X160796063Y-101740226D01*
X160682795Y-101909744D01*
X160604774Y-102098102D01*
X160565000Y-102298061D01*
X146835000Y-102298061D01*
X146795226Y-102098102D01*
X146717205Y-101909744D01*
X146603937Y-101740226D01*
X146560000Y-101696289D01*
X146560000Y-84503711D01*
X146603937Y-84459774D01*
X146717205Y-84290256D01*
X146795226Y-84101898D01*
X146803307Y-84061269D01*
X187658336Y-84061269D01*
X187717797Y-84295037D01*
X187956242Y-84405934D01*
X188211740Y-84468183D01*
X188474473Y-84479390D01*
X188734344Y-84439125D01*
X188981366Y-84348935D01*
X189082203Y-84295037D01*
X189141664Y-84061269D01*
X188400000Y-83319605D01*
X187658336Y-84061269D01*
X146803307Y-84061269D01*
X146835000Y-83901939D01*
X146835000Y-83698061D01*
X146795226Y-83498102D01*
X146717205Y-83309744D01*
X146653548Y-83214473D01*
X187060610Y-83214473D01*
X187100875Y-83474344D01*
X187191065Y-83721366D01*
X187244963Y-83822203D01*
X187478731Y-83881664D01*
X188220395Y-83140000D01*
X188579605Y-83140000D01*
X189321269Y-83881664D01*
X189555037Y-83822203D01*
X189665934Y-83583758D01*
X189728183Y-83328260D01*
X189739390Y-83065527D01*
X189699125Y-82805656D01*
X189608935Y-82558634D01*
X189555037Y-82457797D01*
X189321269Y-82398336D01*
X188579605Y-83140000D01*
X188220395Y-83140000D01*
X187478731Y-82398336D01*
X187244963Y-82457797D01*
X187134066Y-82696242D01*
X187071817Y-82951740D01*
X187060610Y-83214473D01*
X146653548Y-83214473D01*
X146603937Y-83140226D01*
X146459774Y-82996063D01*
X146290256Y-82882795D01*
X146101898Y-82804774D01*
X145901939Y-82765000D01*
X145698061Y-82765000D01*
X145498102Y-82804774D01*
X145309744Y-82882795D01*
X145140226Y-82996063D01*
X144996063Y-83140226D01*
X144882795Y-83309744D01*
X144804774Y-83498102D01*
X144765000Y-83698061D01*
X144765000Y-83901939D01*
X144804774Y-84101898D01*
X144882795Y-84290256D01*
X144996063Y-84459774D01*
X145040000Y-84503711D01*
X145040001Y-101696288D01*
X144996063Y-101740226D01*
X144882795Y-101909744D01*
X144804774Y-102098102D01*
X144765000Y-102298061D01*
X144765000Y-102501939D01*
X144804774Y-102701898D01*
X144882795Y-102890256D01*
X144996063Y-103059774D01*
X145040000Y-103103711D01*
X145040001Y-120345987D01*
X144890226Y-120446063D01*
X144746063Y-120590226D01*
X144632795Y-120759744D01*
X144554774Y-120948102D01*
X144515000Y-121148061D01*
X126660000Y-121148061D01*
X126660000Y-79170000D01*
X160261928Y-79170000D01*
X160261928Y-80570000D01*
X160274188Y-80694482D01*
X160310498Y-80814180D01*
X160369463Y-80924494D01*
X160448815Y-81021185D01*
X160545506Y-81100537D01*
X160655820Y-81159502D01*
X160775518Y-81195812D01*
X160900000Y-81208072D01*
X162300000Y-81208072D01*
X162424482Y-81195812D01*
X162544180Y-81159502D01*
X162654494Y-81100537D01*
X162751185Y-81021185D01*
X162830537Y-80924494D01*
X162889502Y-80814180D01*
X162925812Y-80694482D01*
X162938072Y-80570000D01*
X162938072Y-79170000D01*
X162925812Y-79045518D01*
X162889502Y-78925820D01*
X162830537Y-78815506D01*
X162751185Y-78718815D01*
X162654494Y-78639463D01*
X162544180Y-78580498D01*
X162424482Y-78544188D01*
X162300000Y-78531928D01*
X162194475Y-78531928D01*
X162282203Y-78485037D01*
X162341664Y-78251269D01*
X161600000Y-77509605D01*
X160858336Y-78251269D01*
X160917797Y-78485037D01*
X161018620Y-78531928D01*
X160900000Y-78531928D01*
X160775518Y-78544188D01*
X160655820Y-78580498D01*
X160545506Y-78639463D01*
X160448815Y-78718815D01*
X160369463Y-78815506D01*
X160310498Y-78925820D01*
X160274188Y-79045518D01*
X160261928Y-79170000D01*
X126660000Y-79170000D01*
X126660000Y-77886940D01*
X126695226Y-77801898D01*
X126735000Y-77601939D01*
X126735000Y-77404473D01*
X160260610Y-77404473D01*
X160300875Y-77664344D01*
X160391065Y-77911366D01*
X160444963Y-78012203D01*
X160678731Y-78071664D01*
X161420395Y-77330000D01*
X161779605Y-77330000D01*
X162521269Y-78071664D01*
X162755037Y-78012203D01*
X162865934Y-77773758D01*
X162928183Y-77518260D01*
X162934933Y-77360000D01*
X187061928Y-77360000D01*
X187061928Y-78760000D01*
X187074188Y-78884482D01*
X187110498Y-79004180D01*
X187169463Y-79114494D01*
X187248815Y-79211185D01*
X187345506Y-79290537D01*
X187455820Y-79349502D01*
X187575518Y-79385812D01*
X187700000Y-79398072D01*
X187813190Y-79398072D01*
X187767641Y-79416939D01*
X187548987Y-79563038D01*
X187363038Y-79748987D01*
X187216939Y-79967641D01*
X187116304Y-80210595D01*
X187065000Y-80468514D01*
X187065000Y-80731486D01*
X187116304Y-80989405D01*
X187216939Y-81232359D01*
X187363038Y-81451013D01*
X187548987Y-81636962D01*
X187767641Y-81783061D01*
X187981444Y-81871621D01*
X187818634Y-81931065D01*
X187717797Y-81984963D01*
X187658336Y-82218731D01*
X188400000Y-82960395D01*
X189141664Y-82218731D01*
X189082203Y-81984963D01*
X188843758Y-81874066D01*
X188824173Y-81869294D01*
X189032359Y-81783061D01*
X189251013Y-81636962D01*
X189436962Y-81451013D01*
X189583061Y-81232359D01*
X189683696Y-80989405D01*
X189735000Y-80731486D01*
X189735000Y-80468514D01*
X189683696Y-80210595D01*
X189583061Y-79967641D01*
X189436962Y-79748987D01*
X189251013Y-79563038D01*
X189032359Y-79416939D01*
X188986810Y-79398072D01*
X189100000Y-79398072D01*
X189224482Y-79385812D01*
X189344180Y-79349502D01*
X189454494Y-79290537D01*
X189551185Y-79211185D01*
X189630537Y-79114494D01*
X189689502Y-79004180D01*
X189725812Y-78884482D01*
X189738072Y-78760000D01*
X189738072Y-77398061D01*
X207665000Y-77398061D01*
X207665000Y-77601939D01*
X207704774Y-77801898D01*
X207782795Y-77990256D01*
X207896063Y-78159774D01*
X207940000Y-78203711D01*
X207940001Y-101796288D01*
X207896063Y-101840226D01*
X207782795Y-102009744D01*
X207704774Y-102198102D01*
X207665000Y-102398061D01*
X207665000Y-102601939D01*
X207704774Y-102801898D01*
X207782795Y-102990256D01*
X207896063Y-103159774D01*
X207940000Y-103203711D01*
X207940001Y-126796288D01*
X207896063Y-126840226D01*
X207782795Y-127009744D01*
X207704774Y-127198102D01*
X207665000Y-127398061D01*
X207665000Y-127601939D01*
X207704774Y-127801898D01*
X207782795Y-127990256D01*
X207896063Y-128159774D01*
X208040226Y-128303937D01*
X208209744Y-128417205D01*
X208398102Y-128495226D01*
X208598061Y-128535000D01*
X208801939Y-128535000D01*
X209001898Y-128495226D01*
X209190256Y-128417205D01*
X209359774Y-128303937D01*
X209503937Y-128159774D01*
X209617205Y-127990256D01*
X209695226Y-127801898D01*
X209735000Y-127601939D01*
X209735000Y-127398061D01*
X209695226Y-127198102D01*
X209617205Y-127009744D01*
X209503937Y-126840226D01*
X209460000Y-126796289D01*
X209460000Y-103203711D01*
X209503937Y-103159774D01*
X209617205Y-102990256D01*
X209695226Y-102801898D01*
X209735000Y-102601939D01*
X209735000Y-102398061D01*
X227665000Y-102398061D01*
X227665000Y-102601939D01*
X227704774Y-102801898D01*
X227782795Y-102990256D01*
X227896063Y-103159774D01*
X227940000Y-103203711D01*
X227940001Y-126796288D01*
X227896063Y-126840226D01*
X227782795Y-127009744D01*
X227704774Y-127198102D01*
X227665000Y-127398061D01*
X227665000Y-127601939D01*
X227704774Y-127801898D01*
X227782795Y-127990256D01*
X227896063Y-128159774D01*
X228040226Y-128303937D01*
X228209744Y-128417205D01*
X228398102Y-128495226D01*
X228598061Y-128535000D01*
X228801939Y-128535000D01*
X229001898Y-128495226D01*
X229190256Y-128417205D01*
X229359774Y-128303937D01*
X229503937Y-128159774D01*
X229617205Y-127990256D01*
X229695226Y-127801898D01*
X229735000Y-127601939D01*
X229735000Y-127398061D01*
X229695226Y-127198102D01*
X229617205Y-127009744D01*
X229503937Y-126840226D01*
X229460000Y-126796289D01*
X229460000Y-103203711D01*
X229503937Y-103159774D01*
X229617205Y-102990256D01*
X229695226Y-102801898D01*
X229735000Y-102601939D01*
X229735000Y-102398061D01*
X229695226Y-102198102D01*
X229617205Y-102009744D01*
X229560000Y-101924130D01*
X229560000Y-78303711D01*
X229603937Y-78259774D01*
X229717205Y-78090256D01*
X229795226Y-77901898D01*
X229835000Y-77701939D01*
X229835000Y-77498061D01*
X229795226Y-77298102D01*
X229717205Y-77109744D01*
X229603937Y-76940226D01*
X229459774Y-76796063D01*
X229290256Y-76682795D01*
X229101898Y-76604774D01*
X228901939Y-76565000D01*
X228698061Y-76565000D01*
X228498102Y-76604774D01*
X228309744Y-76682795D01*
X228140226Y-76796063D01*
X227996063Y-76940226D01*
X227882795Y-77109744D01*
X227804774Y-77298102D01*
X227765000Y-77498061D01*
X227765000Y-77701939D01*
X227804774Y-77901898D01*
X227882795Y-78090256D01*
X227996063Y-78259774D01*
X228040000Y-78303711D01*
X228040001Y-101696288D01*
X227896063Y-101840226D01*
X227782795Y-102009744D01*
X227704774Y-102198102D01*
X227665000Y-102398061D01*
X209735000Y-102398061D01*
X209695226Y-102198102D01*
X209617205Y-102009744D01*
X209503937Y-101840226D01*
X209460000Y-101796289D01*
X209460000Y-78203711D01*
X209503937Y-78159774D01*
X209617205Y-77990256D01*
X209695226Y-77801898D01*
X209735000Y-77601939D01*
X209735000Y-77398061D01*
X209695226Y-77198102D01*
X209617205Y-77009744D01*
X209503937Y-76840226D01*
X209359774Y-76696063D01*
X209190256Y-76582795D01*
X209001898Y-76504774D01*
X208801939Y-76465000D01*
X208598061Y-76465000D01*
X208398102Y-76504774D01*
X208209744Y-76582795D01*
X208040226Y-76696063D01*
X207896063Y-76840226D01*
X207782795Y-77009744D01*
X207704774Y-77198102D01*
X207665000Y-77398061D01*
X189738072Y-77398061D01*
X189738072Y-77360000D01*
X189725812Y-77235518D01*
X189689502Y-77115820D01*
X189630537Y-77005506D01*
X189551185Y-76908815D01*
X189454494Y-76829463D01*
X189344180Y-76770498D01*
X189224482Y-76734188D01*
X189100000Y-76721928D01*
X187700000Y-76721928D01*
X187575518Y-76734188D01*
X187455820Y-76770498D01*
X187345506Y-76829463D01*
X187248815Y-76908815D01*
X187169463Y-77005506D01*
X187110498Y-77115820D01*
X187074188Y-77235518D01*
X187061928Y-77360000D01*
X162934933Y-77360000D01*
X162939390Y-77255527D01*
X162899125Y-76995656D01*
X162808935Y-76748634D01*
X162755037Y-76647797D01*
X162521269Y-76588336D01*
X161779605Y-77330000D01*
X161420395Y-77330000D01*
X160678731Y-76588336D01*
X160444963Y-76647797D01*
X160334066Y-76886242D01*
X160271817Y-77141740D01*
X160260610Y-77404473D01*
X126735000Y-77404473D01*
X126735000Y-77398061D01*
X126695226Y-77198102D01*
X126617205Y-77009744D01*
X126503937Y-76840226D01*
X126359774Y-76696063D01*
X126190256Y-76582795D01*
X126001898Y-76504774D01*
X125801939Y-76465000D01*
X125598061Y-76465000D01*
X125398102Y-76504774D01*
X125209744Y-76582795D01*
X125040226Y-76696063D01*
X124896063Y-76840226D01*
X124782795Y-77009744D01*
X124704774Y-77198102D01*
X124665000Y-77398061D01*
X100735000Y-77398061D01*
X100735000Y-76408731D01*
X160858336Y-76408731D01*
X161600000Y-77150395D01*
X162341664Y-76408731D01*
X162282203Y-76174963D01*
X162043758Y-76064066D01*
X161788260Y-76001817D01*
X161525527Y-75990610D01*
X161265656Y-76030875D01*
X161018634Y-76121065D01*
X160917797Y-76174963D01*
X160858336Y-76408731D01*
X100735000Y-76408731D01*
X100735000Y-70735000D01*
X234967269Y-70735000D01*
X235754747Y-70805281D01*
G37*
X235754747Y-70805281D02*
X236485643Y-71005231D01*
X237169575Y-71331450D01*
X237784928Y-71773626D01*
X238312259Y-72317789D01*
X238734886Y-72946726D01*
X239039463Y-73640570D01*
X239217715Y-74383039D01*
X239265000Y-75026949D01*
X239265001Y-134967258D01*
X239194719Y-135754748D01*
X238994769Y-136485643D01*
X238668550Y-137169575D01*
X238226374Y-137784928D01*
X237682211Y-138312259D01*
X237053274Y-138734886D01*
X236359429Y-139039464D01*
X235616961Y-139217714D01*
X234973051Y-139265000D01*
X179410000Y-139265000D01*
X179410000Y-139148061D01*
X179370226Y-138948102D01*
X179292205Y-138759744D01*
X179178937Y-138590226D01*
X179034774Y-138446063D01*
X178865256Y-138332795D01*
X178676898Y-138254774D01*
X178476939Y-138215000D01*
X178273061Y-138215000D01*
X178073102Y-138254774D01*
X177884744Y-138332795D01*
X177715226Y-138446063D01*
X177571063Y-138590226D01*
X177457795Y-138759744D01*
X177379774Y-138948102D01*
X177340000Y-139148061D01*
X177340000Y-139265000D01*
X173160000Y-139265000D01*
X173160000Y-139148061D01*
X173120226Y-138948102D01*
X173042205Y-138759744D01*
X172928937Y-138590226D01*
X172784774Y-138446063D01*
X172615256Y-138332795D01*
X172426898Y-138254774D01*
X172226939Y-138215000D01*
X172023061Y-138215000D01*
X171823102Y-138254774D01*
X171634744Y-138332795D01*
X171465226Y-138446063D01*
X171321063Y-138590226D01*
X171207795Y-138759744D01*
X171129774Y-138948102D01*
X171090000Y-139148061D01*
X171090000Y-139265000D01*
X105032731Y-139265000D01*
X104245252Y-139194719D01*
X103514357Y-138994769D01*
X102830425Y-138668550D01*
X102215072Y-138226374D01*
X101687741Y-137682211D01*
X101265114Y-137053274D01*
X100960536Y-136359429D01*
X100782286Y-135616961D01*
X100735000Y-134973051D01*
X100735000Y-131898061D01*
X164565000Y-131898061D01*
X164565000Y-132101939D01*
X164604774Y-132301898D01*
X164682795Y-132490256D01*
X164796063Y-132659774D01*
X164940226Y-132803937D01*
X165109744Y-132917205D01*
X165298102Y-132995226D01*
X165498061Y-133035000D01*
X165701939Y-133035000D01*
X165901898Y-132995226D01*
X166090256Y-132917205D01*
X166259774Y-132803937D01*
X166403937Y-132659774D01*
X166517205Y-132490256D01*
X166595226Y-132301898D01*
X166635000Y-132101939D01*
X166635000Y-132039802D01*
X166714802Y-131960000D01*
X171762678Y-131960000D01*
X171800000Y-131963676D01*
X171837322Y-131960000D01*
X171837333Y-131960000D01*
X171948986Y-131949003D01*
X172092247Y-131905546D01*
X172224276Y-131834974D01*
X172340001Y-131740001D01*
X172363803Y-131710998D01*
X172711002Y-131363800D01*
X172740001Y-131340001D01*
X172834974Y-131224276D01*
X172905546Y-131092247D01*
X172949003Y-130948986D01*
X172960000Y-130837333D01*
X172960000Y-130837324D01*
X172963676Y-130800001D01*
X172960000Y-130762678D01*
X172960000Y-130503711D01*
X173003937Y-130459774D01*
X173117205Y-130290256D01*
X173195226Y-130101898D01*
X173235000Y-129901939D01*
X173235000Y-129698061D01*
X173195226Y-129498102D01*
X173117205Y-129309744D01*
X173003937Y-129140226D01*
X172859774Y-128996063D01*
X172690256Y-128882795D01*
X172501898Y-128804774D01*
X172301939Y-128765000D01*
X172098061Y-128765000D01*
X171898102Y-128804774D01*
X171709744Y-128882795D01*
X171540226Y-128996063D01*
X171396063Y-129140226D01*
X171282795Y-129309744D01*
X171204774Y-129498102D01*
X171165000Y-129698061D01*
X171165000Y-129901939D01*
X171204774Y-130101898D01*
X171282795Y-130290256D01*
X171382850Y-130440000D01*
X166437323Y-130440000D01*
X166400000Y-130436324D01*
X166362677Y-130440000D01*
X166362667Y-130440000D01*
X166251014Y-130450997D01*
X166107753Y-130494454D01*
X165975724Y-130565026D01*
X165859999Y-130659999D01*
X165836201Y-130688998D01*
X165560198Y-130965000D01*
X165498061Y-130965000D01*
X165298102Y-131004774D01*
X165109744Y-131082795D01*
X164940226Y-131196063D01*
X164796063Y-131340226D01*
X164682795Y-131509744D01*
X164604774Y-131698102D01*
X164565000Y-131898061D01*
X100735000Y-131898061D01*
X100735000Y-121148061D01*
X104615000Y-121148061D01*
X104615000Y-121351939D01*
X104654774Y-121551898D01*
X104732795Y-121740256D01*
X104846063Y-121909774D01*
X104990226Y-122053937D01*
X105159744Y-122167205D01*
X105348102Y-122245226D01*
X105548061Y-122285000D01*
X105751939Y-122285000D01*
X105951898Y-122245226D01*
X106140256Y-122167205D01*
X106309774Y-122053937D01*
X106453937Y-121909774D01*
X106567205Y-121740256D01*
X106645226Y-121551898D01*
X106685000Y-121351939D01*
X106685000Y-121148061D01*
X106645226Y-120948102D01*
X106567205Y-120759744D01*
X106453937Y-120590226D01*
X106411874Y-120548163D01*
X106458120Y-103205591D01*
X106503937Y-103159774D01*
X106617205Y-102990256D01*
X106695226Y-102801898D01*
X106735000Y-102601939D01*
X106735000Y-102398061D01*
X106695226Y-102198102D01*
X106617205Y-102009744D01*
X106503937Y-101840226D01*
X106461874Y-101798163D01*
X106508120Y-84455591D01*
X106553937Y-84409774D01*
X106667205Y-84240256D01*
X106745226Y-84051898D01*
X106785000Y-83851939D01*
X106785000Y-83648061D01*
X106745226Y-83448102D01*
X106667205Y-83259744D01*
X106553937Y-83090226D01*
X106409774Y-82946063D01*
X106240256Y-82832795D01*
X106051898Y-82754774D01*
X105851939Y-82715000D01*
X105648061Y-82715000D01*
X105448102Y-82754774D01*
X105259744Y-82832795D01*
X105090226Y-82946063D01*
X104946063Y-83090226D01*
X104832795Y-83259744D01*
X104754774Y-83448102D01*
X104715000Y-83648061D01*
X104715000Y-83851939D01*
X104754774Y-84051898D01*
X104832795Y-84240256D01*
X104946063Y-84409774D01*
X104988126Y-84451837D01*
X104941880Y-101794409D01*
X104896063Y-101840226D01*
X104782795Y-102009744D01*
X104704774Y-102198102D01*
X104665000Y-102398061D01*
X104665000Y-102601939D01*
X104704774Y-102801898D01*
X104782795Y-102990256D01*
X104896063Y-103159774D01*
X104938126Y-103201837D01*
X104891880Y-120544409D01*
X104846063Y-120590226D01*
X104732795Y-120759744D01*
X104654774Y-120948102D01*
X104615000Y-121148061D01*
X100735000Y-121148061D01*
X100735000Y-77398061D01*
X124665000Y-77398061D01*
X124665000Y-77601939D01*
X124704774Y-77801898D01*
X124782795Y-77990256D01*
X124896063Y-78159774D01*
X125040226Y-78303937D01*
X125140001Y-78370604D01*
X125140000Y-126796289D01*
X125096063Y-126840226D01*
X124982795Y-127009744D01*
X124904774Y-127198102D01*
X124865000Y-127398061D01*
X124865000Y-127601939D01*
X124904774Y-127801898D01*
X124982795Y-127990256D01*
X125096063Y-128159774D01*
X125240226Y-128303937D01*
X125409744Y-128417205D01*
X125598102Y-128495226D01*
X125798061Y-128535000D01*
X126001939Y-128535000D01*
X126201898Y-128495226D01*
X126390256Y-128417205D01*
X126559774Y-128303937D01*
X126703937Y-128159774D01*
X126817205Y-127990256D01*
X126895226Y-127801898D01*
X126935000Y-127601939D01*
X126935000Y-127398061D01*
X126895226Y-127198102D01*
X126817205Y-127009744D01*
X126703937Y-126840226D01*
X126660000Y-126796289D01*
X126660000Y-121148061D01*
X144515000Y-121148061D01*
X144515000Y-121351939D01*
X144554774Y-121551898D01*
X144632795Y-121740256D01*
X144746063Y-121909774D01*
X144890226Y-122053937D01*
X145059744Y-122167205D01*
X145248102Y-122245226D01*
X145448061Y-122285000D01*
X145651939Y-122285000D01*
X145851898Y-122245226D01*
X146040256Y-122167205D01*
X146209774Y-122053937D01*
X146353937Y-121909774D01*
X146467205Y-121740256D01*
X146545226Y-121551898D01*
X146585000Y-121351939D01*
X146585000Y-121148061D01*
X146560985Y-121027327D01*
X146563676Y-121000001D01*
X146560000Y-120962678D01*
X146560000Y-114698061D01*
X158965000Y-114698061D01*
X158965000Y-114901939D01*
X159004774Y-115101898D01*
X159082795Y-115290256D01*
X159196063Y-115459774D01*
X159236289Y-115500000D01*
X159196063Y-115540226D01*
X159082795Y-115709744D01*
X159004774Y-115898102D01*
X158965000Y-116098061D01*
X158965000Y-116301939D01*
X159004774Y-116501898D01*
X159082795Y-116690256D01*
X159196063Y-116859774D01*
X159236289Y-116900000D01*
X159196063Y-116940226D01*
X159082795Y-117109744D01*
X159004774Y-117298102D01*
X158965000Y-117498061D01*
X158965000Y-117701939D01*
X159004774Y-117901898D01*
X159082795Y-118090256D01*
X159196063Y-118259774D01*
X159336289Y-118400000D01*
X159196063Y-118540226D01*
X159082795Y-118709744D01*
X159004774Y-118898102D01*
X158965000Y-119098061D01*
X158965000Y-119301939D01*
X159004774Y-119501898D01*
X159082795Y-119690256D01*
X159196063Y-119859774D01*
X159340226Y-120003937D01*
X159509744Y-120117205D01*
X159698102Y-120195226D01*
X159722103Y-120200000D01*
X159698102Y-120204774D01*
X159509744Y-120282795D01*
X159340226Y-120396063D01*
X159196063Y-120540226D01*
X159082795Y-120709744D01*
X159004774Y-120898102D01*
X158965000Y-121098061D01*
X158965000Y-121301939D01*
X159004774Y-121501898D01*
X159082795Y-121690256D01*
X159196063Y-121859774D01*
X159340226Y-122003937D01*
X159509744Y-122117205D01*
X159698102Y-122195226D01*
X159898061Y-122235000D01*
X160101939Y-122235000D01*
X160301898Y-122195226D01*
X160490256Y-122117205D01*
X160659774Y-122003937D01*
X160803937Y-121859774D01*
X160917205Y-121690256D01*
X160995226Y-121501898D01*
X161023451Y-121360000D01*
X164165198Y-121360000D01*
X161160199Y-124365000D01*
X161098061Y-124365000D01*
X160898102Y-124404774D01*
X160709744Y-124482795D01*
X160540226Y-124596063D01*
X160396063Y-124740226D01*
X160282795Y-124909744D01*
X160204774Y-125098102D01*
X160165000Y-125298061D01*
X160165000Y-125501939D01*
X160204774Y-125701898D01*
X160282795Y-125890256D01*
X160396063Y-126059774D01*
X160540226Y-126203937D01*
X160709744Y-126317205D01*
X160898102Y-126395226D01*
X161098061Y-126435000D01*
X161301939Y-126435000D01*
X161501898Y-126395226D01*
X161690256Y-126317205D01*
X161859774Y-126203937D01*
X162003937Y-126059774D01*
X162117205Y-125890256D01*
X162195226Y-125701898D01*
X162235000Y-125501939D01*
X162235000Y-125439801D01*
X165514803Y-122159999D01*
X170785129Y-122159999D01*
X170775724Y-122165026D01*
X170659999Y-122259999D01*
X170636201Y-122288997D01*
X170160199Y-122765000D01*
X170098061Y-122765000D01*
X169898102Y-122804774D01*
X169709744Y-122882795D01*
X169540226Y-122996063D01*
X169396063Y-123140226D01*
X169282795Y-123309744D01*
X169204774Y-123498102D01*
X169165000Y-123698061D01*
X169165000Y-123901939D01*
X169204774Y-124101898D01*
X169282795Y-124290256D01*
X169396063Y-124459774D01*
X169540226Y-124603937D01*
X169709744Y-124717205D01*
X169898102Y-124795226D01*
X170098061Y-124835000D01*
X170301939Y-124835000D01*
X170501898Y-124795226D01*
X170690256Y-124717205D01*
X170859774Y-124603937D01*
X171003937Y-124459774D01*
X171117205Y-124290256D01*
X171195226Y-124101898D01*
X171235000Y-123901939D01*
X171235000Y-123839801D01*
X171514802Y-123560000D01*
X183096289Y-123560000D01*
X183140226Y-123603937D01*
X183309744Y-123717205D01*
X183498102Y-123795226D01*
X183698061Y-123835000D01*
X183901939Y-123835000D01*
X184101898Y-123795226D01*
X184290256Y-123717205D01*
X184459774Y-123603937D01*
X184603937Y-123459774D01*
X184640000Y-123405801D01*
X184640000Y-132362678D01*
X184636324Y-132400000D01*
X184640000Y-132437322D01*
X184640000Y-132437332D01*
X184650997Y-132548985D01*
X184684604Y-132659774D01*
X184694454Y-132692246D01*
X184765026Y-132824276D01*
X184786969Y-132851013D01*
X184859999Y-132940001D01*
X184889002Y-132963803D01*
X184965000Y-133039801D01*
X184965000Y-133101939D01*
X185004774Y-133301898D01*
X185082795Y-133490256D01*
X185196063Y-133659774D01*
X185340226Y-133803937D01*
X185509744Y-133917205D01*
X185698102Y-133995226D01*
X185898061Y-134035000D01*
X186101939Y-134035000D01*
X186277897Y-134000000D01*
X187111928Y-134000000D01*
X187111928Y-136000000D01*
X187124188Y-136124482D01*
X187160498Y-136244180D01*
X187219463Y-136354494D01*
X187298815Y-136451185D01*
X187395506Y-136530537D01*
X187505820Y-136589502D01*
X187625518Y-136625812D01*
X187750000Y-136638072D01*
X187956084Y-136638072D01*
X187809550Y-136784606D01*
X187679866Y-136978692D01*
X187590539Y-137194348D01*
X187545000Y-137423288D01*
X187545000Y-137656712D01*
X187590539Y-137885652D01*
X187679866Y-138101308D01*
X187809550Y-138295394D01*
X187974606Y-138460450D01*
X188168692Y-138590134D01*
X188384348Y-138679461D01*
X188613288Y-138725000D01*
X188846712Y-138725000D01*
X189075652Y-138679461D01*
X189291308Y-138590134D01*
X189485394Y-138460450D01*
X189650450Y-138295394D01*
X189780134Y-138101308D01*
X189869461Y-137885652D01*
X189915000Y-137656712D01*
X189915000Y-137423288D01*
X189869461Y-137194348D01*
X189780134Y-136978692D01*
X189650450Y-136784606D01*
X189503916Y-136638072D01*
X189750000Y-136638072D01*
X189874482Y-136625812D01*
X189994180Y-136589502D01*
X190104494Y-136530537D01*
X190201185Y-136451185D01*
X190280537Y-136354494D01*
X190335976Y-136250777D01*
X190389956Y-136399814D01*
X190652394Y-136527483D01*
X190514606Y-136619550D01*
X190349550Y-136784606D01*
X190219866Y-136978692D01*
X190130539Y-137194348D01*
X190085000Y-137423288D01*
X190085000Y-137656712D01*
X190130539Y-137885652D01*
X190219866Y-138101308D01*
X190349550Y-138295394D01*
X190514606Y-138460450D01*
X190708692Y-138590134D01*
X190924348Y-138679461D01*
X191153288Y-138725000D01*
X191386712Y-138725000D01*
X191615652Y-138679461D01*
X191831308Y-138590134D01*
X192025394Y-138460450D01*
X192190450Y-138295394D01*
X192320134Y-138101308D01*
X192409461Y-137885652D01*
X192455000Y-137656712D01*
X192455000Y-137423288D01*
X192409461Y-137194348D01*
X192320134Y-136978692D01*
X192190450Y-136784606D01*
X192025394Y-136619550D01*
X191869909Y-136515658D01*
X191936088Y-136492795D01*
X192110044Y-136399814D01*
X192205808Y-136135413D01*
X191250000Y-135179605D01*
X191235858Y-135193748D01*
X191056253Y-135014143D01*
X191070395Y-135000000D01*
X191429605Y-135000000D01*
X192385413Y-135955808D01*
X192649814Y-135860044D01*
X192790704Y-135570429D01*
X192872384Y-135258892D01*
X192891718Y-134937405D01*
X192847961Y-134618325D01*
X192742795Y-134313912D01*
X192649814Y-134139956D01*
X192385413Y-134044192D01*
X191429605Y-135000000D01*
X191070395Y-135000000D01*
X191056253Y-134985858D01*
X191235858Y-134806253D01*
X191250000Y-134820395D01*
X192205808Y-133864587D01*
X192110044Y-133600186D01*
X191820429Y-133459296D01*
X191508892Y-133377616D01*
X191187405Y-133358282D01*
X190868325Y-133402039D01*
X190563912Y-133507205D01*
X190389956Y-133600186D01*
X190335976Y-133749223D01*
X190280537Y-133645506D01*
X190201185Y-133548815D01*
X190104494Y-133469463D01*
X189994180Y-133410498D01*
X189874482Y-133374188D01*
X189750000Y-133361928D01*
X187750000Y-133361928D01*
X187625518Y-133374188D01*
X187505820Y-133410498D01*
X187395506Y-133469463D01*
X187298815Y-133548815D01*
X187219463Y-133645506D01*
X187160498Y-133755820D01*
X187124188Y-133875518D01*
X187111928Y-134000000D01*
X186277897Y-134000000D01*
X186301898Y-133995226D01*
X186490256Y-133917205D01*
X186659774Y-133803937D01*
X186803937Y-133659774D01*
X186917205Y-133490256D01*
X186995226Y-133301898D01*
X187035000Y-133101939D01*
X187035000Y-132898061D01*
X186995226Y-132698102D01*
X186917205Y-132509744D01*
X186803937Y-132340226D01*
X186659774Y-132196063D01*
X186490256Y-132082795D01*
X186301898Y-132004774D01*
X186160000Y-131976549D01*
X186160000Y-129407538D01*
X186298061Y-129435000D01*
X186501939Y-129435000D01*
X186701898Y-129395226D01*
X186890256Y-129317205D01*
X187059774Y-129203937D01*
X187203937Y-129059774D01*
X187317205Y-128890256D01*
X187395226Y-128701898D01*
X187435000Y-128501939D01*
X187435000Y-128298061D01*
X187395226Y-128098102D01*
X187317205Y-127909744D01*
X187203937Y-127740226D01*
X187160000Y-127696289D01*
X187160000Y-109498061D01*
X190565000Y-109498061D01*
X190565000Y-109701939D01*
X190604774Y-109901898D01*
X190682795Y-110090256D01*
X190796063Y-110259774D01*
X190940226Y-110403937D01*
X191109744Y-110517205D01*
X191298102Y-110595226D01*
X191498061Y-110635000D01*
X191701939Y-110635000D01*
X191901898Y-110595226D01*
X192090256Y-110517205D01*
X192259774Y-110403937D01*
X192303711Y-110360000D01*
X193762678Y-110360000D01*
X193800000Y-110363676D01*
X193837322Y-110360000D01*
X193837333Y-110360000D01*
X193948986Y-110349003D01*
X194092247Y-110305546D01*
X194224276Y-110234974D01*
X194340001Y-110140001D01*
X194363804Y-110110997D01*
X195711004Y-108763798D01*
X195740001Y-108740001D01*
X195779192Y-108692247D01*
X195834974Y-108624277D01*
X195905546Y-108492247D01*
X195905546Y-108492246D01*
X195949003Y-108348986D01*
X195960000Y-108237333D01*
X195960000Y-108237323D01*
X195963676Y-108200000D01*
X195960000Y-108162678D01*
X195960000Y-104698061D01*
X199765000Y-104698061D01*
X199765000Y-104901939D01*
X199804774Y-105101898D01*
X199882795Y-105290256D01*
X199996063Y-105459774D01*
X200140226Y-105603937D01*
X200309744Y-105717205D01*
X200498102Y-105795226D01*
X200698061Y-105835000D01*
X200901939Y-105835000D01*
X201101898Y-105795226D01*
X201290256Y-105717205D01*
X201459774Y-105603937D01*
X201503711Y-105560000D01*
X204085199Y-105560000D01*
X204940000Y-106414802D01*
X204940001Y-131796288D01*
X204896063Y-131840226D01*
X204782795Y-132009744D01*
X204704774Y-132198102D01*
X204665000Y-132398061D01*
X204665000Y-132601939D01*
X204704774Y-132801898D01*
X204782795Y-132990256D01*
X204896063Y-133159774D01*
X205040226Y-133303937D01*
X205209744Y-133417205D01*
X205398102Y-133495226D01*
X205598061Y-133535000D01*
X205801939Y-133535000D01*
X206001898Y-133495226D01*
X206190256Y-133417205D01*
X206359774Y-133303937D01*
X206503937Y-133159774D01*
X206617205Y-132990256D01*
X206695226Y-132801898D01*
X206735000Y-132601939D01*
X206735000Y-132398061D01*
X206695226Y-132198102D01*
X206617205Y-132009744D01*
X206503937Y-131840226D01*
X206460000Y-131796289D01*
X206460000Y-106137325D01*
X206463676Y-106100000D01*
X206460000Y-106062675D01*
X206460000Y-106062667D01*
X206449003Y-105951014D01*
X206405546Y-105807753D01*
X206334974Y-105675724D01*
X206240001Y-105559999D01*
X206211004Y-105536202D01*
X204963804Y-104289003D01*
X204940001Y-104259999D01*
X204824276Y-104165026D01*
X204692247Y-104094454D01*
X204548986Y-104050997D01*
X204437333Y-104040000D01*
X204437322Y-104040000D01*
X204400000Y-104036324D01*
X204362678Y-104040000D01*
X201503711Y-104040000D01*
X201459774Y-103996063D01*
X201290256Y-103882795D01*
X201101898Y-103804774D01*
X200901939Y-103765000D01*
X200698061Y-103765000D01*
X200498102Y-103804774D01*
X200309744Y-103882795D01*
X200140226Y-103996063D01*
X199996063Y-104140226D01*
X199882795Y-104309744D01*
X199804774Y-104498102D01*
X199765000Y-104698061D01*
X195960000Y-104698061D01*
X195960000Y-83914801D01*
X196239802Y-83635000D01*
X196301939Y-83635000D01*
X196501898Y-83595226D01*
X196690256Y-83517205D01*
X196859774Y-83403937D01*
X197003937Y-83259774D01*
X197117205Y-83090256D01*
X197195226Y-82901898D01*
X197235000Y-82701939D01*
X197235000Y-82498061D01*
X197195226Y-82298102D01*
X197117205Y-82109744D01*
X197003937Y-81940226D01*
X196859774Y-81796063D01*
X196690256Y-81682795D01*
X196501898Y-81604774D01*
X196301939Y-81565000D01*
X196098061Y-81565000D01*
X195898102Y-81604774D01*
X195709744Y-81682795D01*
X195540226Y-81796063D01*
X195396063Y-81940226D01*
X195282795Y-82109744D01*
X195204774Y-82298102D01*
X195165000Y-82498061D01*
X195165000Y-82560198D01*
X194688998Y-83036201D01*
X194660000Y-83059999D01*
X194636202Y-83088997D01*
X194636201Y-83088998D01*
X194565026Y-83175724D01*
X194494454Y-83307754D01*
X194473836Y-83375725D01*
X194450998Y-83451014D01*
X194450149Y-83459636D01*
X194436324Y-83600000D01*
X194440001Y-83637333D01*
X194440000Y-107885198D01*
X193485199Y-108840000D01*
X192303711Y-108840000D01*
X192259774Y-108796063D01*
X192090256Y-108682795D01*
X191901898Y-108604774D01*
X191701939Y-108565000D01*
X191498061Y-108565000D01*
X191298102Y-108604774D01*
X191109744Y-108682795D01*
X190940226Y-108796063D01*
X190796063Y-108940226D01*
X190682795Y-109109744D01*
X190604774Y-109298102D01*
X190565000Y-109498061D01*
X187160000Y-109498061D01*
X187160000Y-91791269D01*
X187658336Y-91791269D01*
X187717797Y-92025037D01*
X187956242Y-92135934D01*
X188211740Y-92198183D01*
X188474473Y-92209390D01*
X188734344Y-92169125D01*
X188981366Y-92078935D01*
X189082203Y-92025037D01*
X189141664Y-91791269D01*
X188400000Y-91049605D01*
X187658336Y-91791269D01*
X187160000Y-91791269D01*
X187160000Y-91366282D01*
X187191065Y-91451366D01*
X187244963Y-91552203D01*
X187478731Y-91611664D01*
X188220395Y-90870000D01*
X188579605Y-90870000D01*
X189321269Y-91611664D01*
X189555037Y-91552203D01*
X189665934Y-91313758D01*
X189728183Y-91058260D01*
X189739390Y-90795527D01*
X189699125Y-90535656D01*
X189608935Y-90288634D01*
X189555037Y-90187797D01*
X189321269Y-90128336D01*
X188579605Y-90870000D01*
X188220395Y-90870000D01*
X187478731Y-90128336D01*
X187244963Y-90187797D01*
X187160000Y-90370480D01*
X187160000Y-89366790D01*
X187169463Y-89384494D01*
X187248815Y-89481185D01*
X187345506Y-89560537D01*
X187455820Y-89619502D01*
X187575518Y-89655812D01*
X187700000Y-89668072D01*
X187805525Y-89668072D01*
X187717797Y-89714963D01*
X187658336Y-89948731D01*
X188400000Y-90690395D01*
X189141664Y-89948731D01*
X189082203Y-89714963D01*
X188981380Y-89668072D01*
X189100000Y-89668072D01*
X189224482Y-89655812D01*
X189344180Y-89619502D01*
X189454494Y-89560537D01*
X189551185Y-89481185D01*
X189630537Y-89384494D01*
X189689502Y-89274180D01*
X189725812Y-89154482D01*
X189738072Y-89030000D01*
X189738072Y-87630000D01*
X189725812Y-87505518D01*
X189689502Y-87385820D01*
X189630537Y-87275506D01*
X189551185Y-87178815D01*
X189454494Y-87099463D01*
X189344180Y-87040498D01*
X189224482Y-87004188D01*
X189100000Y-86991928D01*
X187700000Y-86991928D01*
X187575518Y-87004188D01*
X187455820Y-87040498D01*
X187345506Y-87099463D01*
X187248815Y-87178815D01*
X187169463Y-87275506D01*
X187160000Y-87293210D01*
X187160000Y-86903711D01*
X187203937Y-86859774D01*
X187317205Y-86690256D01*
X187395226Y-86501898D01*
X187435000Y-86301939D01*
X187435000Y-86098061D01*
X187395226Y-85898102D01*
X187317205Y-85709744D01*
X187203937Y-85540226D01*
X187059774Y-85396063D01*
X186890256Y-85282795D01*
X186701898Y-85204774D01*
X186501939Y-85165000D01*
X186298061Y-85165000D01*
X186098102Y-85204774D01*
X185909744Y-85282795D01*
X185740226Y-85396063D01*
X185596063Y-85540226D01*
X185482795Y-85709744D01*
X185404774Y-85898102D01*
X185391467Y-85965000D01*
X185298061Y-85965000D01*
X185098102Y-86004774D01*
X184909744Y-86082795D01*
X184740226Y-86196063D01*
X184596063Y-86340226D01*
X184482795Y-86509744D01*
X184404774Y-86698102D01*
X184365000Y-86898061D01*
X184365000Y-87101939D01*
X184404774Y-87301898D01*
X184482795Y-87490256D01*
X184596063Y-87659774D01*
X184640001Y-87703712D01*
X184640000Y-112365000D01*
X184573061Y-112365000D01*
X184373102Y-112404774D01*
X184184744Y-112482795D01*
X184015226Y-112596063D01*
X183871063Y-112740226D01*
X183757795Y-112909744D01*
X183679774Y-113098102D01*
X183640000Y-113298061D01*
X183640000Y-113501939D01*
X183679774Y-113701898D01*
X183757795Y-113890256D01*
X183871063Y-114059774D01*
X183915001Y-114103712D01*
X183915001Y-114306445D01*
X183803937Y-114140226D01*
X183659774Y-113996063D01*
X183490256Y-113882795D01*
X183301898Y-113804774D01*
X183101939Y-113765000D01*
X182898061Y-113765000D01*
X182698102Y-113804774D01*
X182509744Y-113882795D01*
X182340226Y-113996063D01*
X182296289Y-114040000D01*
X179835000Y-114040000D01*
X179835000Y-113898061D01*
X179795226Y-113698102D01*
X179717205Y-113509744D01*
X179603937Y-113340226D01*
X179459774Y-113196063D01*
X179290256Y-113082795D01*
X179101898Y-113004774D01*
X178901939Y-112965000D01*
X178698061Y-112965000D01*
X178498102Y-113004774D01*
X178309744Y-113082795D01*
X178140226Y-113196063D01*
X177996063Y-113340226D01*
X177882795Y-113509744D01*
X177804774Y-113698102D01*
X177765000Y-113898061D01*
X177765000Y-113960198D01*
X176285199Y-115440000D01*
X173938022Y-115440000D01*
X173995226Y-115301898D01*
X174035000Y-115101939D01*
X174035000Y-114898061D01*
X173995226Y-114698102D01*
X173917205Y-114509744D01*
X173803937Y-114340226D01*
X173659774Y-114196063D01*
X173490256Y-114082795D01*
X173301898Y-114004774D01*
X173101939Y-113965000D01*
X172898061Y-113965000D01*
X172698102Y-114004774D01*
X172613060Y-114040000D01*
X160703711Y-114040000D01*
X160659774Y-113996063D01*
X160490256Y-113882795D01*
X160301898Y-113804774D01*
X160101939Y-113765000D01*
X159898061Y-113765000D01*
X159698102Y-113804774D01*
X159509744Y-113882795D01*
X159340226Y-113996063D01*
X159196063Y-114140226D01*
X159082795Y-114309744D01*
X159004774Y-114498102D01*
X158965000Y-114698061D01*
X146560000Y-114698061D01*
X146560000Y-103103711D01*
X146603937Y-103059774D01*
X146717205Y-102890256D01*
X146795226Y-102701898D01*
X146835000Y-102501939D01*
X146835000Y-102298061D01*
X160565000Y-102298061D01*
X160565000Y-102501939D01*
X160604774Y-102701898D01*
X160682795Y-102890256D01*
X160796063Y-103059774D01*
X160940226Y-103203937D01*
X161109744Y-103317205D01*
X161298102Y-103395226D01*
X161498061Y-103435000D01*
X161701939Y-103435000D01*
X161901898Y-103395226D01*
X162090256Y-103317205D01*
X162259774Y-103203937D01*
X162403937Y-103059774D01*
X162517205Y-102890256D01*
X162595226Y-102701898D01*
X162635000Y-102501939D01*
X162635000Y-102439802D01*
X162714802Y-102360000D01*
X170962678Y-102360000D01*
X171000000Y-102363676D01*
X171037322Y-102360000D01*
X171037333Y-102360000D01*
X171148986Y-102349003D01*
X171292247Y-102305546D01*
X171424276Y-102234974D01*
X171540001Y-102140001D01*
X171563803Y-102110998D01*
X172640001Y-101034802D01*
X172640000Y-107696289D01*
X172596063Y-107740226D01*
X172482795Y-107909744D01*
X172404774Y-108098102D01*
X172365000Y-108298061D01*
X172365000Y-108501939D01*
X172404774Y-108701898D01*
X172482795Y-108890256D01*
X172596063Y-109059774D01*
X172740226Y-109203937D01*
X172909744Y-109317205D01*
X173098102Y-109395226D01*
X173298061Y-109435000D01*
X173501939Y-109435000D01*
X173701898Y-109395226D01*
X173890256Y-109317205D01*
X174059774Y-109203937D01*
X174203937Y-109059774D01*
X174317205Y-108890256D01*
X174395226Y-108701898D01*
X174435000Y-108501939D01*
X174435000Y-108298061D01*
X174395226Y-108098102D01*
X174317205Y-107909744D01*
X174203937Y-107740226D01*
X174160000Y-107696289D01*
X174160000Y-96714801D01*
X176839802Y-94035000D01*
X176901939Y-94035000D01*
X177101898Y-93995226D01*
X177290256Y-93917205D01*
X177459774Y-93803937D01*
X177603937Y-93659774D01*
X177717205Y-93490256D01*
X177795226Y-93301898D01*
X177835000Y-93101939D01*
X177835000Y-92898061D01*
X177795226Y-92698102D01*
X177717205Y-92509744D01*
X177603937Y-92340226D01*
X177586551Y-92322840D01*
X177595226Y-92301898D01*
X177635000Y-92101939D01*
X177635000Y-91898061D01*
X177595226Y-91698102D01*
X177517205Y-91509744D01*
X177403937Y-91340226D01*
X177259774Y-91196063D01*
X177090256Y-91082795D01*
X176901898Y-91004774D01*
X176701939Y-90965000D01*
X176498061Y-90965000D01*
X176298102Y-91004774D01*
X176109744Y-91082795D01*
X175940226Y-91196063D01*
X175796063Y-91340226D01*
X175682795Y-91509744D01*
X175604774Y-91698102D01*
X175565000Y-91898061D01*
X175565000Y-91960198D01*
X172288998Y-95236201D01*
X172260000Y-95259999D01*
X172236202Y-95288997D01*
X172236201Y-95288998D01*
X172165026Y-95375724D01*
X172094454Y-95507754D01*
X172064180Y-95607558D01*
X172050998Y-95651014D01*
X172040001Y-95762667D01*
X172036324Y-95800000D01*
X172040001Y-95837332D01*
X172040000Y-99485197D01*
X170685199Y-100840000D01*
X162437323Y-100840000D01*
X162400000Y-100836324D01*
X162362677Y-100840000D01*
X162362667Y-100840000D01*
X162251014Y-100850997D01*
X162107753Y-100894454D01*
X161975724Y-100965026D01*
X161859999Y-101059999D01*
X161836201Y-101088998D01*
X161560198Y-101365000D01*
X161498061Y-101365000D01*
X161298102Y-101404774D01*
X161109744Y-101482795D01*
X160940226Y-101596063D01*
X160796063Y-101740226D01*
X160682795Y-101909744D01*
X160604774Y-102098102D01*
X160565000Y-102298061D01*
X146835000Y-102298061D01*
X146795226Y-102098102D01*
X146717205Y-101909744D01*
X146603937Y-101740226D01*
X146560000Y-101696289D01*
X146560000Y-84503711D01*
X146603937Y-84459774D01*
X146717205Y-84290256D01*
X146795226Y-84101898D01*
X146803307Y-84061269D01*
X187658336Y-84061269D01*
X187717797Y-84295037D01*
X187956242Y-84405934D01*
X188211740Y-84468183D01*
X188474473Y-84479390D01*
X188734344Y-84439125D01*
X188981366Y-84348935D01*
X189082203Y-84295037D01*
X189141664Y-84061269D01*
X188400000Y-83319605D01*
X187658336Y-84061269D01*
X146803307Y-84061269D01*
X146835000Y-83901939D01*
X146835000Y-83698061D01*
X146795226Y-83498102D01*
X146717205Y-83309744D01*
X146653548Y-83214473D01*
X187060610Y-83214473D01*
X187100875Y-83474344D01*
X187191065Y-83721366D01*
X187244963Y-83822203D01*
X187478731Y-83881664D01*
X188220395Y-83140000D01*
X188579605Y-83140000D01*
X189321269Y-83881664D01*
X189555037Y-83822203D01*
X189665934Y-83583758D01*
X189728183Y-83328260D01*
X189739390Y-83065527D01*
X189699125Y-82805656D01*
X189608935Y-82558634D01*
X189555037Y-82457797D01*
X189321269Y-82398336D01*
X188579605Y-83140000D01*
X188220395Y-83140000D01*
X187478731Y-82398336D01*
X187244963Y-82457797D01*
X187134066Y-82696242D01*
X187071817Y-82951740D01*
X187060610Y-83214473D01*
X146653548Y-83214473D01*
X146603937Y-83140226D01*
X146459774Y-82996063D01*
X146290256Y-82882795D01*
X146101898Y-82804774D01*
X145901939Y-82765000D01*
X145698061Y-82765000D01*
X145498102Y-82804774D01*
X145309744Y-82882795D01*
X145140226Y-82996063D01*
X144996063Y-83140226D01*
X144882795Y-83309744D01*
X144804774Y-83498102D01*
X144765000Y-83698061D01*
X144765000Y-83901939D01*
X144804774Y-84101898D01*
X144882795Y-84290256D01*
X144996063Y-84459774D01*
X145040000Y-84503711D01*
X145040001Y-101696288D01*
X144996063Y-101740226D01*
X144882795Y-101909744D01*
X144804774Y-102098102D01*
X144765000Y-102298061D01*
X144765000Y-102501939D01*
X144804774Y-102701898D01*
X144882795Y-102890256D01*
X144996063Y-103059774D01*
X145040000Y-103103711D01*
X145040001Y-120345987D01*
X144890226Y-120446063D01*
X144746063Y-120590226D01*
X144632795Y-120759744D01*
X144554774Y-120948102D01*
X144515000Y-121148061D01*
X126660000Y-121148061D01*
X126660000Y-79170000D01*
X160261928Y-79170000D01*
X160261928Y-80570000D01*
X160274188Y-80694482D01*
X160310498Y-80814180D01*
X160369463Y-80924494D01*
X160448815Y-81021185D01*
X160545506Y-81100537D01*
X160655820Y-81159502D01*
X160775518Y-81195812D01*
X160900000Y-81208072D01*
X162300000Y-81208072D01*
X162424482Y-81195812D01*
X162544180Y-81159502D01*
X162654494Y-81100537D01*
X162751185Y-81021185D01*
X162830537Y-80924494D01*
X162889502Y-80814180D01*
X162925812Y-80694482D01*
X162938072Y-80570000D01*
X162938072Y-79170000D01*
X162925812Y-79045518D01*
X162889502Y-78925820D01*
X162830537Y-78815506D01*
X162751185Y-78718815D01*
X162654494Y-78639463D01*
X162544180Y-78580498D01*
X162424482Y-78544188D01*
X162300000Y-78531928D01*
X162194475Y-78531928D01*
X162282203Y-78485037D01*
X162341664Y-78251269D01*
X161600000Y-77509605D01*
X160858336Y-78251269D01*
X160917797Y-78485037D01*
X161018620Y-78531928D01*
X160900000Y-78531928D01*
X160775518Y-78544188D01*
X160655820Y-78580498D01*
X160545506Y-78639463D01*
X160448815Y-78718815D01*
X160369463Y-78815506D01*
X160310498Y-78925820D01*
X160274188Y-79045518D01*
X160261928Y-79170000D01*
X126660000Y-79170000D01*
X126660000Y-77886940D01*
X126695226Y-77801898D01*
X126735000Y-77601939D01*
X126735000Y-77404473D01*
X160260610Y-77404473D01*
X160300875Y-77664344D01*
X160391065Y-77911366D01*
X160444963Y-78012203D01*
X160678731Y-78071664D01*
X161420395Y-77330000D01*
X161779605Y-77330000D01*
X162521269Y-78071664D01*
X162755037Y-78012203D01*
X162865934Y-77773758D01*
X162928183Y-77518260D01*
X162934933Y-77360000D01*
X187061928Y-77360000D01*
X187061928Y-78760000D01*
X187074188Y-78884482D01*
X187110498Y-79004180D01*
X187169463Y-79114494D01*
X187248815Y-79211185D01*
X187345506Y-79290537D01*
X187455820Y-79349502D01*
X187575518Y-79385812D01*
X187700000Y-79398072D01*
X187813190Y-79398072D01*
X187767641Y-79416939D01*
X187548987Y-79563038D01*
X187363038Y-79748987D01*
X187216939Y-79967641D01*
X187116304Y-80210595D01*
X187065000Y-80468514D01*
X187065000Y-80731486D01*
X187116304Y-80989405D01*
X187216939Y-81232359D01*
X187363038Y-81451013D01*
X187548987Y-81636962D01*
X187767641Y-81783061D01*
X187981444Y-81871621D01*
X187818634Y-81931065D01*
X187717797Y-81984963D01*
X187658336Y-82218731D01*
X188400000Y-82960395D01*
X189141664Y-82218731D01*
X189082203Y-81984963D01*
X188843758Y-81874066D01*
X188824173Y-81869294D01*
X189032359Y-81783061D01*
X189251013Y-81636962D01*
X189436962Y-81451013D01*
X189583061Y-81232359D01*
X189683696Y-80989405D01*
X189735000Y-80731486D01*
X189735000Y-80468514D01*
X189683696Y-80210595D01*
X189583061Y-79967641D01*
X189436962Y-79748987D01*
X189251013Y-79563038D01*
X189032359Y-79416939D01*
X188986810Y-79398072D01*
X189100000Y-79398072D01*
X189224482Y-79385812D01*
X189344180Y-79349502D01*
X189454494Y-79290537D01*
X189551185Y-79211185D01*
X189630537Y-79114494D01*
X189689502Y-79004180D01*
X189725812Y-78884482D01*
X189738072Y-78760000D01*
X189738072Y-77398061D01*
X207665000Y-77398061D01*
X207665000Y-77601939D01*
X207704774Y-77801898D01*
X207782795Y-77990256D01*
X207896063Y-78159774D01*
X207940000Y-78203711D01*
X207940001Y-101796288D01*
X207896063Y-101840226D01*
X207782795Y-102009744D01*
X207704774Y-102198102D01*
X207665000Y-102398061D01*
X207665000Y-102601939D01*
X207704774Y-102801898D01*
X207782795Y-102990256D01*
X207896063Y-103159774D01*
X207940000Y-103203711D01*
X207940001Y-126796288D01*
X207896063Y-126840226D01*
X207782795Y-127009744D01*
X207704774Y-127198102D01*
X207665000Y-127398061D01*
X207665000Y-127601939D01*
X207704774Y-127801898D01*
X207782795Y-127990256D01*
X207896063Y-128159774D01*
X208040226Y-128303937D01*
X208209744Y-128417205D01*
X208398102Y-128495226D01*
X208598061Y-128535000D01*
X208801939Y-128535000D01*
X209001898Y-128495226D01*
X209190256Y-128417205D01*
X209359774Y-128303937D01*
X209503937Y-128159774D01*
X209617205Y-127990256D01*
X209695226Y-127801898D01*
X209735000Y-127601939D01*
X209735000Y-127398061D01*
X209695226Y-127198102D01*
X209617205Y-127009744D01*
X209503937Y-126840226D01*
X209460000Y-126796289D01*
X209460000Y-103203711D01*
X209503937Y-103159774D01*
X209617205Y-102990256D01*
X209695226Y-102801898D01*
X209735000Y-102601939D01*
X209735000Y-102398061D01*
X227665000Y-102398061D01*
X227665000Y-102601939D01*
X227704774Y-102801898D01*
X227782795Y-102990256D01*
X227896063Y-103159774D01*
X227940000Y-103203711D01*
X227940001Y-126796288D01*
X227896063Y-126840226D01*
X227782795Y-127009744D01*
X227704774Y-127198102D01*
X227665000Y-127398061D01*
X227665000Y-127601939D01*
X227704774Y-127801898D01*
X227782795Y-127990256D01*
X227896063Y-128159774D01*
X228040226Y-128303937D01*
X228209744Y-128417205D01*
X228398102Y-128495226D01*
X228598061Y-128535000D01*
X228801939Y-128535000D01*
X229001898Y-128495226D01*
X229190256Y-128417205D01*
X229359774Y-128303937D01*
X229503937Y-128159774D01*
X229617205Y-127990256D01*
X229695226Y-127801898D01*
X229735000Y-127601939D01*
X229735000Y-127398061D01*
X229695226Y-127198102D01*
X229617205Y-127009744D01*
X229503937Y-126840226D01*
X229460000Y-126796289D01*
X229460000Y-103203711D01*
X229503937Y-103159774D01*
X229617205Y-102990256D01*
X229695226Y-102801898D01*
X229735000Y-102601939D01*
X229735000Y-102398061D01*
X229695226Y-102198102D01*
X229617205Y-102009744D01*
X229560000Y-101924130D01*
X229560000Y-78303711D01*
X229603937Y-78259774D01*
X229717205Y-78090256D01*
X229795226Y-77901898D01*
X229835000Y-77701939D01*
X229835000Y-77498061D01*
X229795226Y-77298102D01*
X229717205Y-77109744D01*
X229603937Y-76940226D01*
X229459774Y-76796063D01*
X229290256Y-76682795D01*
X229101898Y-76604774D01*
X228901939Y-76565000D01*
X228698061Y-76565000D01*
X228498102Y-76604774D01*
X228309744Y-76682795D01*
X228140226Y-76796063D01*
X227996063Y-76940226D01*
X227882795Y-77109744D01*
X227804774Y-77298102D01*
X227765000Y-77498061D01*
X227765000Y-77701939D01*
X227804774Y-77901898D01*
X227882795Y-78090256D01*
X227996063Y-78259774D01*
X228040000Y-78303711D01*
X228040001Y-101696288D01*
X227896063Y-101840226D01*
X227782795Y-102009744D01*
X227704774Y-102198102D01*
X227665000Y-102398061D01*
X209735000Y-102398061D01*
X209695226Y-102198102D01*
X209617205Y-102009744D01*
X209503937Y-101840226D01*
X209460000Y-101796289D01*
X209460000Y-78203711D01*
X209503937Y-78159774D01*
X209617205Y-77990256D01*
X209695226Y-77801898D01*
X209735000Y-77601939D01*
X209735000Y-77398061D01*
X209695226Y-77198102D01*
X209617205Y-77009744D01*
X209503937Y-76840226D01*
X209359774Y-76696063D01*
X209190256Y-76582795D01*
X209001898Y-76504774D01*
X208801939Y-76465000D01*
X208598061Y-76465000D01*
X208398102Y-76504774D01*
X208209744Y-76582795D01*
X208040226Y-76696063D01*
X207896063Y-76840226D01*
X207782795Y-77009744D01*
X207704774Y-77198102D01*
X207665000Y-77398061D01*
X189738072Y-77398061D01*
X189738072Y-77360000D01*
X189725812Y-77235518D01*
X189689502Y-77115820D01*
X189630537Y-77005506D01*
X189551185Y-76908815D01*
X189454494Y-76829463D01*
X189344180Y-76770498D01*
X189224482Y-76734188D01*
X189100000Y-76721928D01*
X187700000Y-76721928D01*
X187575518Y-76734188D01*
X187455820Y-76770498D01*
X187345506Y-76829463D01*
X187248815Y-76908815D01*
X187169463Y-77005506D01*
X187110498Y-77115820D01*
X187074188Y-77235518D01*
X187061928Y-77360000D01*
X162934933Y-77360000D01*
X162939390Y-77255527D01*
X162899125Y-76995656D01*
X162808935Y-76748634D01*
X162755037Y-76647797D01*
X162521269Y-76588336D01*
X161779605Y-77330000D01*
X161420395Y-77330000D01*
X160678731Y-76588336D01*
X160444963Y-76647797D01*
X160334066Y-76886242D01*
X160271817Y-77141740D01*
X160260610Y-77404473D01*
X126735000Y-77404473D01*
X126735000Y-77398061D01*
X126695226Y-77198102D01*
X126617205Y-77009744D01*
X126503937Y-76840226D01*
X126359774Y-76696063D01*
X126190256Y-76582795D01*
X126001898Y-76504774D01*
X125801939Y-76465000D01*
X125598061Y-76465000D01*
X125398102Y-76504774D01*
X125209744Y-76582795D01*
X125040226Y-76696063D01*
X124896063Y-76840226D01*
X124782795Y-77009744D01*
X124704774Y-77198102D01*
X124665000Y-77398061D01*
X100735000Y-77398061D01*
X100735000Y-76408731D01*
X160858336Y-76408731D01*
X161600000Y-77150395D01*
X162341664Y-76408731D01*
X162282203Y-76174963D01*
X162043758Y-76064066D01*
X161788260Y-76001817D01*
X161525527Y-75990610D01*
X161265656Y-76030875D01*
X161018634Y-76121065D01*
X160917797Y-76174963D01*
X160858336Y-76408731D01*
X100735000Y-76408731D01*
X100735000Y-70735000D01*
X234967269Y-70735000D01*
X235754747Y-70805281D01*
%TD*%
M02*
